<?xml version="1.0" encoding="utf-8"?>
<!-- Generator: Adobe Illustrator 23.1.1, SVG Export Plug-In . SVG Version: 6.00 Build 0)  -->
<svg version="1.1" id="Calque_1" xmlns="http://www.w3.org/2000/svg" xmlns:xlink="http://www.w3.org/1999/xlink" x="0px" y="0px"
	 width="1451.3px" height="1451.3px" viewBox="0 0 1451.3 1451.3" style="enable-background:new 0 0 1451.3 1451.3;"
	 xml:space="preserve">
<style type="text/css">
	.st0{fill:#CCD923;}
	.st1{fill:#EFEFEF;}
</style>
<circle cx="179.3" cy="402.4" r="52.1"/>
<polygon class="st0" points="606.9,754.1 606.4,752.5 607.8,752.7 "/>
<polygon class="st0" points="771.2,428.1 771.9,429.9 770.2,429.7 "/>
<g>
	<path class="st1" d="M132.2,462.1c-0.7-4.3,1.1-8.1,2.6-11.9c1.3-3.4,0.3-6.5-1.9-9.2c-1-1.3-2.2-2.5-3.4-3.6c-0.6-0.6-1.3-1-2-1.5
		c-2.1-1.3-4.2-2.7-6.8-2.7c-12.4-0.2-24.8-0.8-37.2-1.7c-1.6-0.1-3.3-0.4-4.8-1.1c-3.9-1.6-7.9-2.4-12.1-2.4
		c-7.5-0.1-14.9-0.4-22.4-0.7c-11.4-0.5-11.4-0.5-23.9-5.6c-1.8-0.7-2.3-2.2-2.3-3.8c0.1-1.9,0.8-3.1,2.4-4.1c3.6-2.2,8-2,11.7-3.9
		c3.7-1.9,7.8-2.7,11.7-4c3.9-1.3,7.6-3.2,11.7-4c6.5-1.2,12.2-5.3,18.9-6c6-2.9,12.7-3.7,18.6-6.7c3.9-2,18.7-5.8,23.7-6.8
		c1.6-0.3,3.2-0.7,4.8-1.1c3.5-0.9,6-6.4,4.6-10.2c-0.6-1.5-1.2-3.2-2.2-4.4c-4.4-5-9-9.7-13.4-14.7c-1.1-1.2-1.8-2.7-2.5-4.2
		c-0.9-1.8-0.5-3.3,0.9-4.4c1.2-0.9,3-1.2,4.6-0.4c2.2,1.1,4.3,2.6,6,4.4c4.2,4.4,9.7,6.1,15.1,8.3c0.7,0.3,1.6,0.1,2.4,0.1
		c3.9,0,8.2-4.4,9.3-7.3c0.6-1.5,0.9-3.2,0.9-4.8c0.1-6.6,0.2-13.3,0.1-19.9c0-4.2,0.5-8.2,2.3-12.1c0.6-1.5,1-3.2,1.1-4.8
		c0.5-6.6,0.7-13.2,1.2-19.8c0.2-2.4,0.5-5,1.5-7.3c2.3-5.5,2.8-11.2,3-17c0.3-8.3-0.5-16.6,0.7-24.8c0.3-2,1.5-3,2.8-2.9
		c0.8,0.1,1.7,0.5,2.2,1.1c1.1,1.2,2.3,2.5,2.9,3.9c1.9,4.6,2.9,9.4,5.2,13.9c3.4,6.6,6.3,13.5,7.5,20.9c3.2,5.9,4.4,12.5,6.9,18.6
		c1.3,3,1.7,6.4,2.9,9.5c1.4,3.9,2.9,7.8,4.9,11.4c2.9,5.2,4.3,10.7,5.1,16.5c0.8,5.8,2.9,11.2,6.1,16.1c1.3,2,3.7,3.5,6.2,3.8
		c1.5,0.2,3.4-0.2,4.7-0.9c5.3-2.7,9.6-6.5,11.9-12.2c1.6-4,4.5-6.9,8-9.2c0.6-0.4,1.6-0.4,2.4-0.3c2.1,0.2,2.9,1.4,2.1,3.1
		c-1.4,3-2.9,6-4.6,8.8c-1.3,2.1-3.3,3.7-4.8,5.7c-3.4,4.3-3.6,9.2-1.7,14c1.6,4.1,4.9,6.6,9.3,7.2c2.5,0.3,5,0.5,7.4,0.3
		c10.8-0.8,21.5-0.6,32.3,0.3c4.1,0.4,8.3,0.1,12.4,0.3c1.6,0.1,3.4,0.2,4.8,0.9c5.5,2.3,11.2,2.7,17,3.2c7.4,0.6,14.9,0.3,21.9,3.4
		c1.5,0.6,3.2,0.6,4.9,0.7c8.3,0.4,16.5,0.9,24.8,1.2c5,0.1,9.9,0.8,14.5,2.9c2.3,1.1,4.8,1,7.3,1.1c4.1,0.2,8.3,0.1,12.4,0.5
		c2.4,0.2,4.9,0.9,7.2,1.8c3.1,1.1,6.2,2.4,9.5,2.8c5.7,0.7,11.6,0.5,17,3.1c4.6,2.1,9.8,1.6,14.6,2.9c1.6,0.4,3.1,1,4.7,1.6
		c2.3,0.9,4.6,1.8,7.2,1.9c5.8,0.3,11.6,1.2,17.4,1c7.9-0.3,14.6,1.6,20.4,7.1c1.7,1.7,4.3,2.4,6.9,2.6c4.9,0.3,9.9,0.7,14.9,1.1
		c1.7,0.1,3.5-0.1,4.9,0.6c7.9,3.5,16.2,2.8,24.5,3.3c7.4,0.5,15,0.1,21.8,3.7c4.1,0.6,8.2,1.3,12.3,1.6c5.8,0.4,11.5,1.3,17,3.3
		c5.5,1.9,11.6,1.2,16.9,3.8c5.3,2.5,11.5,2,16.8,4c5.5,2.1,11.1,3.2,16.9,3.3c2.5,0,4.9,0.4,7.4,0.5c3.3,0.3,6.5,1.3,9.5,2.6
		c2.3,0.9,4.7,1.8,7.1,2c7.6,0.8,14.3,3.9,21.2,6.8c3.8,1.6,7.5,3.5,11.1,5.5c3,1.6,6.1,2.6,9.4,2.8c6.7,0.4,13.1,1.6,19.4,3.8
		c3.1,1.1,6.5,1.1,9.8,1.5c2.6,0.3,4.6,1.7,6.6,3.2c2.9,2.2,4.1,5.1,3.9,8.6c-0.2,3.4-1.6,6.4-2.7,9.5c-1.6,4.7,0.7,7.9,4.1,10.6
		c1.8,1.5,4.9,1.6,6.9,0.3c2.8-1.9,5-4.3,5.7-7.7c0.5-2.4,0.5-4.9,0.9-7.4c0.9-5.3,6.3-8.4,11.3-6.1c4.5,2.1,9.3,3.4,13.4,6.3
		c1.5,1.1,3.6,4.8,3.1,6.2c-0.8,2.4-1.7,4.7-2.2,7.1c-0.4,2.4-0.4,4.9-0.3,7.4c0,2.7,1.5,4.9,3.7,6c3.1,1.5,6.3,1.5,9.4-0.7
		c2.1-1.5,3.5-3.5,4.4-5.8c1.2-3,2.1-6.2,3.4-9.2c0.7-1.7,2.4-2.4,4.2-2c4.8,1.1,9.4,3.2,13.5,5.9c3.7,2.4,5.8,5.8,5.7,10.3
		c-0.1,2.5-0.4,4.9-0.4,7.4c0,1.6,0.3,3.3,0.7,4.9c0.4,1.6,1.3,3,2.9,3.8c3.5,1.9,9.2,0.8,11.1-2.3c1.7-2.8,3.2-5.8,5.7-8
		c2.6-2.4,6.3-3,9-1.2c2,1.4,4.1,2.7,6.1,4.2c1.3,1,2.5,2.2,3.7,3.3c3,3.1,6.7,4.6,10.9,5.3c6.3,1,10.4,4.9,13,10.4
		c0.7,1.5,1.2,3.1,1.7,4.6c0.3,0.8,0.5,1.6,0.8,2.3c1.6,3.2,4.4,4.9,7.7,5.6c3.2,0.7,6.6,0.7,9.8-0.3c2.4-0.8,4.7-1.6,7.1-2.3
		c2.5-0.6,5-0.4,7.3,0.5c6.2,2.4,12.2,5.1,17.3,9.6c2.5,2.3,5.5,3.5,8.8,4.5c3.9,1.2,7.7,2.8,11.6,4.4c5.4,2.1,10.6,4.7,15.2,8.2
		c7.3,5.6,15,10.4,24.1,12.3c5.2,2.5,10.8,4.4,15.4,7.8c5.3,4,11.4,6.8,17.2,10c7.3,4,14.7,7.7,21.3,12.6c2.7,2,5.7,3.3,8.7,4.8
		c8.8,4.5,17.6,9.3,26.4,13.8c7.4,3.8,14.8,7.4,21.4,12.4c11.6,6.3,23.1,12.9,35.1,18.6c7.4,3.5,14.5,7.9,21.7,12
		c7.1,4.2,14.5,7.9,21,13.1c3.9,3.2,8.6,5.1,13.1,7c5.3,2.4,10.4,4.9,15.2,8.2c1.5,1,1.9,2.5,1.7,4.4c-0.2,1.6-0.9,3.1-2.7,3.6
		c-3.2,1-6.5,1.4-9.8,0.6c-1.6-0.4-3.1-1-4.6-1.6c-0.8-0.3-1.5-0.8-2.1-1.3c-1.8-1.7-3.6-3.4-5.4-5.2c-3-3-6.2-5.4-10-7.2
		c-13.4-6.5-26.9-12.9-39.2-21.4c-2-1.4-4.3-2.4-6.6-3.5c-10.4-5.1-20.5-10.8-30.9-15.8c-5.9-2.9-11.6-6.3-16.6-10.8
		c-2.5-2.3-5.9-3.1-9.2-3.2c-2.5-0.1-5-0.1-7.4,0.2c-6.2,0.7-10.8,3.9-13.6,9.4c-0.4,0.7-0.5,1.6-1,2.2c-0.5,0.6-1.2,1-1.9,1.5
		c-0.4-0.7-1.1-1.4-1.2-2.1c-0.3-2.4-0.3-4.9-0.4-7.4c-0.2-4.1-0.1-8.3-0.5-12.4c-0.4-4.4-2.7-7.8-6.8-9.6c-4.9-2.2-9.6-1.6-14,1.6
		c-3.4,2.5-5.1,6.5-8.7,8.8c-1.7,1.1-3.2,1.2-4.2,0c-0.5-0.6-1.1-1.3-1.2-2.1c-0.3-1.6-0.5-3.3-0.5-4.9c0.1-3.3,0.5-6.6,0.5-9.9
		c0-1.6-0.5-3.2-0.9-4.9c-0.4-2-3.2-4.3-5.3-4.6c-7.5-1.2-14.8-0.7-22.1,1.5c-0.8,0.2-1.6,0.6-2.4,0.8c-2.6,0.7-7-1.4-8.2-3.9
		c-2.1-4.5-4.2-9-6.2-13.5c-1.5-3.5-4.5-4.6-7.9-5c-5.9-0.6-11.6-0.1-17,2.5c-2.9,1.4-4.8-0.1-6.6-1.8c-1.2-1.1-2.1-2.5-2.9-4
		c-0.8-1.5-1-3.2-1.8-4.6c-2.1-3.8-5.2-6.5-9.7-6.9c-4.1-0.3-8.3-0.5-12.4-0.4c-6.7,0.2-13.1-0.8-19.3-3.8c-4.4-2.1-9.7-2-14.2-4.3
		c-7.6-1.5-13.6-5.6-18.7-11.3c-2.2-2.5-4.8-4.5-7.4-6.7c-1.9-1.7-4.3-2.5-6.8-2.7c-4.9-0.4-9.9-0.5-14.9-0.9
		c-3.3-0.2-6.6-0.8-9.6-2.4c-3.7-1.9-8-2.3-11.8-3.8c-3.1-1.2-6-2.9-8.9-4.3c-5.3-2.5-10.8-3.9-16.6-4.9c-4.8-0.9-9.3-3.3-14.1-4.5
		c-6.5-1.6-12.1-5.5-18.8-6.2c-4.6-1.9-9.4-3.4-13.7-5.8c-4.5-2.4-9.6-2.5-14-4.9c-4.4-2.3-8.8-4.5-13.3-6.7
		c-7.5-3.5-15.1-6.6-23.7-6.7c-2.5,0-4.9-0.8-7.2-1.8c-3.7-1.8-7.6-3.2-11.3-5.2c-3.8-2-6.3-5.1-6.4-9.8c-0.1-4.1,0.8-8.2-0.3-12.4
		c-0.5-2.3-2.2-4.2-4.7-5.1c-3.3-1.2-6.5-0.8-9.8,0c-2,0.5-4.1,3.2-4.4,5.4c-0.5,3.5,0.6,6.6,2.9,9c2.3,2.4,5,4.4,7.2,6.8
		c2.3,2.5,3.8,5.3,2.1,8.9c-1.2,2.4-1.1,4.8,0,7.2c1.1,2.3,2.4,4.5,4.6,5.7c5.8,3.2,11.8,5.8,18.7,6.1c2.4,0.1,5,0.7,7.2,1.6
		c6.9,2.9,14.2,4.6,20.9,7.8c3.7,1.8,7.5,3.8,11.4,4.7c4.9,1.1,9.3,3.4,13.8,5.5c3.7,1.8,7.5,3.4,11.3,5.2c3,1.4,6,2.8,9,4.2
		c5.9,0.5,10.8,4,16.4,5.4c4,1,7.7,3.1,11.7,4.1c5.6,1.5,10.9,3.8,16.2,6.2c3,1.3,5.8,3.2,8.9,4.3c4.7,1.6,9.5,2.7,14.3,4
		c4.7,1.3,9.8,1.5,14.7,2.2c3.4,0.5,6.3,2,8.8,4.3c3,2.8,5.8,5.9,8.7,8.9c3.6,3.6,7.8,6.3,13.1,6.3c6.1,0.1,11.2,2.4,15.9,6.2
		c3.9,3.2,8.5,5.1,13.1,6.9c1.5,0.6,3.3,0.5,4.8,0.3c1.6-0.2,3.1-1.1,4.7-1.6s3.2-0.9,4.8-1.1c6.1-0.8,12,3.9,12.7,9.4
		c0.4,3.3,0.6,6.6,1,9.9c0.3,2.2,2.6,4.3,5,4.7c5.8,1.1,11.5,0.9,17-1.4c2.3-1,4.5-2,6.8-2.9c3.7-1.3,9.2,1.5,10,5.1
		c0.4,1.6,0.8,3.2,1,4.8c0.3,2.5,0.4,4.9,0.5,7.4c0.1,3.7,2.2,6.1,5.2,7.8c5.2,2.9,6.2,2.7,11.6,0.6c3.9-1.5,7.5-3.4,11.1-5.4
		c0.7-0.4,1.6-0.4,2.4-0.6c2.7-0.9,7.1,2.2,7.2,5.1c0.2,5.8,0.4,11.6,0.8,17.3c0.2,3.4,3.5,6.3,6.2,6.8c6,0.9,11.5,0.3,16.3-3.8
		c1.2-1.1,2.7-2,4.1-2.7c1.5-0.8,2.9,0,3.5,1.9c0.5,1.6,1.1,3.2,1,4.8c-0.4,6.1,2.5,11.2,4.9,16.5c0.3,0.7,1,1.3,1.6,1.8
		c0.6,0.5,1.3,1,2,1.4c3.7,1.9,7.3,3.8,11,5.8c6.6,3.5,11.7,9.2,18.7,12.3c6.1,2.7,11.6,6.4,17,10.2c4,2.9,8.7,4.8,12.3,8.3
		c5.4,5.2,11.7,9.3,18.4,12.6c6,3,10.9,7.6,16.8,10.5c5.3,2.6,9.4,6.7,14,10.3c5.3,4,10.6,8,16,11.8c5.4,3.8,11.1,7.2,16.5,11.1
		c4.7,3.3,9.7,6.3,15.4,8c2.4,0.7,4.6,1.9,6.8,2.9c3,1.5,5.6,3.2,7,6.6c1.5,3.8,3.2,7.7,5.4,11.2c2.7,4.3,6.4,7.6,11.7,8.4
		c0.8,0.1,1.6,0.3,2.5,0.3c9.3,0.2,15.4,5.5,20.3,12.5c3.3,4.7,6.2,9.7,9.1,14.7c0.4,0.6,0.2,1.6,0.3,2.4l0.5-0.5
		c-3.4,0.6-6.6,0.2-9.4-2c-2.6-2-5.2-4.1-7.7-6.3c-8.9-7.7-18.7-13.5-30.5-15.7c-3.3-0.6-6-2.3-7.5-5.7c-1.7-3.8-3.8-7.4-5.9-10.9
		c-0.8-1.3-2.2-2.5-3.5-3.3c-3.5-2.2-7-4.4-11.2-5.2c-7.5-1.3-14.1-4.8-19.7-9.9c-6.7-6.2-13.7-12-21.7-16.4
		c-4.3-2.4-7.9-6.1-12-8.7c-4.9-3-10.1-5.7-15.3-8.2c-5.2-2.5-10.3-5.2-14.7-9.1c-7.4-6.7-16.1-11.5-24.2-17.3
		c-6.7-4.8-13.9-8.9-20.9-13.3c-5.6-3.6-11.1-7.2-16.6-10.9c-4.8-3.2-9.6-6.5-14.3-9.8c-3.4-2.4-6.6-4.9-10.4-6.8
		c-7.4-3.7-15-7.2-21.9-11.6c-6.3-4-12.7-7.7-19.1-11.5c-5.7-3.3-11.9-5.9-17.5-9.3c-4.9-3.1-9.8-6.2-14.7-9.2
		c-3.7-2.2-7.7-2.9-11.9-2.7c-2.5,0.1-4.9,0.4-7.2,1.8c-2.9,1.7-5.7,3.3-8.5,5.1c-3.7,2.3-7.7,2.8-11.9,2.9c-1.6,0-3.2,0.5-4.8,0.8
		c-2.3,0.5-4.1,2.3-5,4.9c-1.5,4.1-1,8.1,1.1,11.8c0.4,0.7,1,1.4,1.7,1.8c4.9,2.4,15.1,2.3,19.2-0.3c2.8-1.8,5.4-3.8,8.1-5.7
		c2.2-1.6,4.6-1.7,7-1c2.4,0.6,4.7,2,7,2.3c7.7,0.9,13.8,5.2,20.2,9.1c0.7,0.4,1.3,1,1.9,1.5c6.8,6.1,14.6,10.7,22.9,14.7
		c6,2.9,11.6,6.3,17.5,9.4c3,1.6,5.7,3.3,8.3,5.3c14.4,11,27.4,20.1,42.6,29.9c6.8,3.1,11.9,8.8,18.6,12.2
		c5.2,2.6,8.9,7.4,13.3,11.2c5.6,4.9,11.7,9.3,18.5,12.4c3,1.4,5.9,3,8.9,4.3c3.9,1.6,7.2,4.1,10.2,7c1.2,1.1,2.4,2.3,3.5,3.5
		c4.2,4.1,8.8,7.4,14.3,9.6c3.9,1.5,6.9,4.5,9.1,8.1c1.3,2,2.9,4,1.4,6.8c-1.2,2.2-1.9,4.6-3,6.8c-2,4.1-9.4,5.1-13,1.9
		c-2.6-2.2-4.5-4.9-5.5-8.1c-0.8-2.4-0.8-4.9-1.7-7.2c-1.6-4-4.4-6.9-8.9-7.7c-1.6-0.3-3.3-0.4-4.9-0.5c-7.8-0.4-14-4.5-20.1-9
		c-0.6-0.5-1.2-1.1-1.8-1.7c-4.8-4.6-9.6-9.1-14.4-13.7c-4.3-4-9.9-6.1-14.5-9.6c-7.2-5.5-15.1-10.1-21.9-16.2
		c-4.3-3.8-9.5-6.6-14.2-10c-4-2.9-7.8-6.2-11.8-9.1c-4.7-3.4-9.3-7-14.4-9.7c-5.9-3.2-10.9-7.5-16.5-11.1
		c-8.3-5.4-16-11.8-25.4-15.3c-3.1-1.2-5.6-3.5-8-5.8c-1.8-1.7-3.5-3.5-5.3-5.2c-3.2-3-7.2-3.9-11.5-3.7c-1.6,0.1-3.4,0.2-4.9,0.8
		c-2.3,0.9-4,2.5-4.6,5.3c-0.5,2.5-0.2,4.9,0.3,7.3c0.6,2.5,2,4.5,4.1,5.9c1.4,0.9,2.9,1.6,4.4,2.4c5,2.9,10.7,4.5,15.5,7.9
		c1.3,1,3,1.5,4.2,2.6c5.4,5.2,12.4,8.2,18.1,13c5.1,4.2,10.1,8.5,16,11.7c2.9,1.6,5.6,3.7,7.9,6c4.8,4.7,11.1,7.2,16,11.7
		c4.3,3.8,8.6,7.7,13.8,10.5c5.9,3.2,10.1,8.6,15.4,12.4s10.6,8,16.4,11.3c6.6,3.8,12,8.8,17.3,14c3.5,3.5,6.9,7.2,10.6,10.5
		c3.7,3.4,8,5.7,13.1,6.7c7,1.4,11.5,6.3,14.5,12.5c1.4,3,1.9,6.3,3.3,9.3c1.9,3.9,4.9,6.6,9.4,7.3c2.5,0.4,4.9,0.7,7.4,1
		c4.5,0.6,7.4,3.4,9.7,7c0.9,1.3,1.6,3,1.9,4.5c1.3,5.9,4.6,10.6,8.9,14.6c4.2,3.9,8.4,8.1,13.3,11.1c5.7,3.6,10.6,8,15.2,12.7
		c8.6,9,17,18.1,26.3,26.4c1.2,1.1,2.2,2.5,3.2,3.8c2.2,2.7,3.1,5.7,2.3,9.2l0.4-0.5c-4.9-0.3-10-0.3-14.9-1c-5.2-0.7-9.1-3.6-12-8
		c-1.3-2.1-2.6-4.2-3-6.8c-0.8-7.2-5.7-11.8-10.6-16.2c-1.2-1.1-2.7-1.9-4.2-2.5c-4.6-1.9-9-4.1-14-5c-4.4-0.7-7.5-3.6-9.7-7.2
		c-2.6-4.2-4.6-8.8-6.8-13.2c-1.5-3-3.6-5.8-6.5-7.4c-5.8-3.3-10.6-8-16.4-11.2c-5.9-3.3-10.3-8.2-14.8-13.1
		c-2.3-4.7-6.3-7.6-10.5-10.3c-1.4-0.9-2.7-2-4-3c-5.3-4-11.7-6.3-16.5-11c-4.8-4.6-9.5-9.3-14.2-13.9c-3.5-3.5-7.3-6.8-11.8-9
		c-6-3-10.4-8.2-16.6-10.9c-1.5-0.6-2.7-1.9-4-3c-5-4.3-9.9-8.7-15.5-12.4c-6.2-4-11.6-9.4-17.8-13.5c-5.6-3.7-10.1-8.8-15.9-11.9
		c-8.8-4.7-16.2-11.5-24.5-16.9c-8.3-5.4-16.6-10.9-24.8-16.5c-2.7-1.9-5.6-3.5-8.1-5.7c-12-10.3-25.5-18.3-39.4-25.8
		c-5.4-2.9-10.9-3.8-16.7-3.6c-0.8,0-1.7,0.1-2.5,0.3c-2.5,0.6-5.1,1.6-6,3.9c-1.3,3-1.6,6.4,0.6,9.4c1.5,2,3.2,3.9,5.5,4.8
		c2.3,0.9,4.8,1.4,7.1,2.3c5.4,2.1,11,3.7,16.3,5.9c5.4,2.3,9.1,7.1,13.5,10.9c5,4.4,10.8,7.6,16.1,11.6c8,5.9,16.8,10.6,24.1,17.5
		c5.6,3.6,11.2,7.1,16,11.7c4.8,4.7,11.2,7,16.3,11.3c3.2,2.6,6.8,4.7,10.1,7.3c3.9,3,7.7,6.2,11.5,9.5c3.8,3.2,7.7,6.2,11.8,9.1
		c4.7,3.3,8.9,7.4,13.3,11.2c3.8,3.3,7.6,6.3,12.1,8.6c4.4,2.2,8.3,5.5,11.6,9.3c9.4,10.6,21.3,18.3,32.3,27.1
		c5.8,3.3,10.7,7.7,15.3,12.5c4,4.2,8.1,8.3,12.4,12.3c3.6,3.4,7.5,6.5,12,8.7c3.8,1.9,6.6,5,8.7,8.7c2.4,4.4,5.1,8.5,6.6,13.3
		c0.7,2.3,2.4,4.3,3.5,6.5c1.2,2.3,3,4.2,5.4,4.8c5.6,1.4,11.1,3.2,16.4,5.6c6.2,2.9,10.8,7.5,13.5,13.9c2.3,5.3,3.8,10.8,4.6,16.7
		c0.6,4.5,4.3,7.1,8.4,8.1c4,1,8.2,1.2,12.3,1.8c1.8,0.3,4.5,3.4,4.5,5.3c0.1,2.6-0.6,4.8-2.4,6.6c-1.8,1.8-4.1,2.7-6.4,3.7
		c-2.3,1-4.5,1.6-6.9,0.2c-1.4-0.8-3.1-1.3-4.5-2c-4.6-2.3-8.2-5.6-9.6-10.8c-1.8-6.5-4.8-12.3-8.1-18c-2.5-4.3-5.9-8.2-10.5-10.3
		c-21.8-9.7-20.3-11.7-34.7-27.2c-2.8-3-5.4-6.3-7.6-9.8c-1.8-2.8-4.2-5.1-6.9-7c-2.7-1.9-5.5-3.8-8-5.9c-6.9-6-13.8-11.9-20.5-18.1
		c-6.7-6.2-14.4-11-21-17.4c-6.5-6.3-13.1-12.7-21.2-17.1c-9.8-8.9-21.4-15.7-31-24.8c-6-5.7-13.5-9.6-19.6-15.2
		c-5.5-5-11.3-9.7-17.6-13.8c-6.3-4-11.2-9.8-17.8-13.5c-5.8-3.3-10.3-8.4-16.4-11.1c-4.5-3.7-9-7.3-13.3-11.2
		c-5-4.5-10.4-8.3-16.5-11c-7-3.1-12.8-7.5-17.7-13.3c-1.6-1.9-3.4-3.7-5.4-5.1c-3.5-2.5-7.5-3.2-11.8-1.9
		c-5.5,1.7-8.6,9.6-5.5,14.2c2.3,3.5,5,6.7,8.9,8.5c2.3,1.1,4.7,1.7,6.9,2.9c5.1,2.7,10.2,5.4,14.4,9.6c5.9,5.8,12.2,11.3,19.4,15.4
		c11.7,10.5,25.5,18.4,37.2,29.1c5.4,5,12.3,8.4,17.6,13.7c5.3,5.3,11.3,9.6,17.5,13.8c2,1.4,3.9,3.1,5.8,4.7
		c7,5.7,12.9,12.9,21,17.4c6.2,5.4,12.8,10.6,18.6,16.5c4.8,4.8,10.9,7.5,15.7,12.1c5.4,5.2,10.9,10.2,16.2,15.4
		c4.2,4,8.3,8,13.6,10.8c1.5,0.8,2.7,1.9,4,3c7.4,6.7,14.4,13.7,21.1,21.1c1.7,1.8,2.8,4.1,4.3,6.1c2.5,3.3,5.1,6.6,7.8,9.6
		c6.1,6.8,12.9,12.9,21.5,16.5c0.8,0.3,1.4,1,2.1,1.3c5.1,1.9,7.7,6.2,10,10.6c2.7,5.1,5.4,10.2,7.9,15.4c1.8,3.8,4.2,7.2,7,10.2
		c1.7,1.8,3.7,3.5,5.8,4.5c4.5,2.2,9.3,3.6,13.7,5.8c4.7,2.3,7.5,6.3,8.2,11.7c0.3,2.5,0.4,4.9,0.9,7.4c0.8,4.3,3,7.7,6.9,9.8
		c3.6,2,7.5,3.6,11.3,5c5.2,1.9,7.7,5.9,9.7,10.6c0.6,1.5,0.9,3.2,1.4,4.8c0.8,2.4,2.1,4.5,3.9,6.3c3.5,3.5,7.3,6.8,10.6,10.4
		c2.3,2.4,4.3,5.1,6.1,7.8c2.3,3.4,4,7.3,6.4,10.6c2.4,3.3,5.6,6.1,8.1,9.4c2.6,3.2,4.7,6.8,7.3,10c2.6,3.2,5.6,6.1,8.4,9.1
		c3,3.3,3.9,7.2,3,11.5l0.7-0.7c-0.8-0.1-1.8,0-2.4-0.4c-5.6-3.7-9.1-9.5-14-13.9c-4.3-3.9-7.9-8.4-11-13.4
		c-4-6.3-9.2-11.7-14.6-16.9c-3.5-3.5-6.8-7.2-9.5-11.5c-3.5-5.6-8.1-10.5-13.2-14.8c-6.3-5.4-12-11.4-17.2-17.9
		c-3.1-3.9-6.8-7.2-10.3-10.8c-8.8-8.8-17.6-17.6-26.4-26.4c-2.3-2.3-4.6-4.7-6.3-7.6c-3.4-5.9-8.2-10.5-13.6-14.3
		c-9-6.2-16.7-13.4-22.5-22.8c-0.4-0.7-1-1.3-1.6-1.9c-1.1-1.2-2.2-2.6-3.5-3.5c-12.5-8.4-22.7-19.2-33.3-29.7
		c-3.5-3.5-7.1-7-10.8-10.3c-3.1-2.7-6-5.6-9.7-7.7c-4.4-2.5-8-6-11.6-9.4c-4.8-4.6-9.5-9.2-14.1-14c-4.1-4.2-9.6-6.4-14-10.2
		c-6.2-5.5-12.7-10.6-18.5-16.6c-3.4-3.6-7.3-6.7-11.5-9.5c-8.3-5.4-14.9-13.1-23.8-17.8c-1.4-0.8-2.6-2-3.8-3.2
		c-10.4-10.7-22.9-19-34.5-28.3c-6.5-5.1-13.3-9.9-20.2-14.4c-3.5-2.3-6.9-4.5-9.9-7.4c-6-5.7-12.2-11.3-19.7-15
		c-7.7-6.2-15.5-12.4-23.7-18.1c-3.4-2.4-6.2-5.7-9.7-7.7c-6.6-3.6-12.2-8.5-18.4-12.6c-9-5.8-18-11.6-26.4-18.5
		c-6.4-5.2-13.1-10.1-20.1-14.4c-21.7-13.6-42.3-29-64.4-42c-2.1-1.2-4-2.9-6.1-4.3c-6.2-4.2-12.2-8.5-18.6-12.4
		c-5.6-3.4-11.6-6.3-17.4-9.6c-4.3-2.5-8.9-4.4-12.7-7.6c-3.9-3.2-8.5-5.1-12.8-7.6c-5.1-2.8-10.3-5.3-14.9-8.9
		c-6.6-5.1-14.4-8.1-21.6-12.3c-7.2-4.1-14.9-7.1-21.8-11.7c-6.9-4.5-14.5-8-21.3-12.6c-8.9-6.1-18.5-11-28.1-15.8
		c-30.3-15.2-60.5-30.6-91-45.5c-6.7-3.3-13.4-6.3-20.2-9.5c-6.7-0.8-12-5.7-18.7-6.3c-0.8-0.1-1.7-0.3-2.4-0.6
		c-5.3-2.3-10.6-4.7-15.8-7.1c-4.5-2-9.6-2.2-14.1-4.6c-5.1-2.6-11-3.2-16.3-5.9c-4.4-2.2-9.5-2.4-14.2-4.3
		c-5.3-2.2-11.1-3.3-16.4-5.7c-5.8-0.4-11.5-0.9-17.3-1.3c-3.3-0.2-6.5-1-9.5-2.6c-4.4-2.5-9.8-1.8-14.3-4.1
		c-4.7-2.3-9.6-2.2-14.6-2.5c-0.8-0.1-1.7-0.2-2.5-0.2c-5.9-0.3-11.5-1.6-16.8-4c-0.7-0.3-1.6-0.4-2.4-0.5
		c-4.4-0.8-8.2,0.5-11.3,3.5c-1.8,1.8-3.1,3.9-3,6.6c0.1,2.5,0.2,4.9,0.3,7.4c0.1,2.7,1.7,4.6,3.4,6.4c2.3,2.5,5.3,3.9,8.2,5.5
		c2.9,1.6,5.5,3.7,7.1,6.7c0.8,1.5,0.8,3.2,0,4.6c-1,1.6-2.4,1.5-4.2,0.5c-3.6-2-7.4-3.6-10.6-6.4c-2.4-2.3-4.9-4.5-7.5-6.5
		c-1.3-1-2.8-1.8-4.2-2.7c-6.3-4-16.4,1.1-16.9,8.5c-0.2,2.5-0.4,4.9-0.4,7.4c-0.2,7.4-0.3,14.9-0.5,22.3c-0.1,3.3-0.9,6.5-2.1,9.6
		c-0.9,2.3-1.3,4.8-1.6,7.2c-0.5,5.8-0.8,11.6-1.3,17.3c-0.2,2.5-0.2,5.1-1.2,7.3c-2.8,6.2-3.1,12.8-3.3,19.5
		c-0.2,4.9-0.5,9.9-0.9,14.8c-0.1,1.7-1.2,3.1-2.4,4.2c-1.3,1.2-2.7,2-4.3,1.8c-0.5-0.1-1.2-1.2-1.3-2c-0.7-3.2-0.9-6.7-2-9.7
		c-2.4-6.2-3.8-12.7-6.2-18.8c-1.9-4.6-2.7-9.6-4.6-14.1c-1.9-4.6-3.8-9.2-6.1-13.6c-1.9-3.8-1.8-8.1-3.4-11.9
		c-1.6-3.8-3.5-7.5-4.4-11.6c-1.1-4.8-3.8-9.1-4.4-14.2c-0.6-5.1-3.5-9.2-6.7-13.1c-1.1-1.3-2.6-1.9-4.3-2.2
		c-5.1-0.9-9.9-0.6-14.3,2.4c-1.4,0.9-2.9,1.5-4.6,1.5L132.2,462.1z M922.8,620.1c-0.1-1.1-0.1-1.9-0.1-2.7
		c-0.2-3.2-3.2-5.9-6.4-6.4c-6.7-1-13.2,0.5-19.8,0.6c-2.4,0.1-5-0.5-6.7-2.7c-2-2.6-3.8-5.4-5.8-8c-2.1-2.7-5.1-4.4-8.5-4.5
		c-6.6-0.4-13.2-0.4-19.8-0.6c-2.5-0.1-4.8-1.3-6.8-2.7c-1.4-0.9-2.7-1.9-3.9-3.1c-2.4-2.3-4.8-4.5-7.1-7c-4.1-4.5-8.9-7.5-15.1-7.5
		c-5.1,0-9.6-2.4-14.4-3.4c-3.3-0.7-6.3-1.8-9.4-3.1c-6.9-2.8-13-7.5-20.5-8.6c-6.8-3-13.6-6.1-20.4-9.1c-2.3-1-4.4-2.4-6.8-3.1
		c-9.6-2.8-18.3-7.6-27.3-11.7c-2.3-1-4.5-2.1-6.7-3.3c-2.3-1.2-4.7-1.7-7.2-1.9c-8.5-0.7-15.9-4.4-22.9-8.9c-2.1-1.3-4-3-6.2-4.1
		c-4.3-2.3-11.9-2.5-14.9,4c-1.1,2.4-1.1,4.9,0.2,7c2.2,3.7,5.5,6.4,9.9,6.6c6.8,0.4,12.9,2.7,18.9,5.6c6.7,3.3,13.3,6.8,20.3,9.3
		c3.1,1.1,6.3,1.9,9,4c4.7,3.6,9.9,6,15.6,7.3c14,7.1,28.5,13.2,42.2,20.9c2.2,1.2,4.4,2.4,6.6,3.4c4.5,2.1,9.1,3.9,14.2,4.2
		c2.5,0.1,5.1,0.3,7.3,1.3c6.1,2.6,12.4,4.7,17.7,8.9c1.3,1,2.6,2,3.7,3.3c1.1,1.2,1.7,2.8,2.7,4.2c4.7,6.5,7.5,8.1,14.3,8.1
		c5.8,0.1,11.6,0.1,17.4,0.1c5.2,0,11.8,5.9,11.9,10.8c0.1,4.1,0.6,8.2,0.8,12.4c0.1,3.1,3.1,5.6,6.7,6.2c0.8,0.1,1.6,0.2,2.5,0.2
		c4.3-0.1,8.2-0.9,10.3-5.3c0.7-1.5,1.6-2.9,2.7-4.2c2.1-2.6,4.5-4.7,8.2-5c2.5-0.2,4.9-0.5,7.2-1.8
		C920.2,627.6,922.5,624.4,922.8,620.1z M794.3,662.7c0-0.2-0.1,0.7,0,1.5c0.5,4.5,3,7.7,6.9,9.6c4.9,2.4,11.9,1.5,15.1-4.3
		c1.7-3.1,1.8-6.4,1.1-9.6c-0.7-3.2-2.2-6.2-3.5-9.2c-1.1-2.4,0.3-7.2,2.6-8.9c1.3-0.9,2.8-1.8,4.1-2.8c2.1-1.6,3.1-6.6,1.9-9.1
		c-1.5-3-3.5-5.6-6.5-7.3c-2.9-1.7-5.8-3.1-8.8-4.5c-1.5-0.6-3.2-1-4.8-1.1c-3.3-0.2-6.6-0.2-9.9-0.2c-4.9-0.1-9.9,0.1-14.9-0.2
		c-3.4-0.2-6.5-1.4-8.3-4.6c-2.1-3.6-4-7.3-6-10.9c-1.2-2.3-3-4-5.6-4.3c-6.6-0.8-12.8-3-19.1-4.8c-7.3-2.1-14-5.1-20.1-9.3
		c-7.5-5.2-15.4-9.7-23.7-13.4c-10.5-4.8-20.8-10-31.3-14.9c-2.2-1.1-4.5-1.9-6.9-2.7c-3.2-1-6.1-2.5-8.7-4.7
		c-4.5-3.8-9.5-6.5-14.8-8.8c-2.3-1-4.7-1.2-7.3-1.1c-1.8,0.1-3.2,0.8-4.3,2c-1.1,1.2-2,2.6-1.9,4.4c0.2,2.5,1.1,4.8,3.1,6.5
		c1.2,1.1,2.7,2,4.1,2.7c5.2,2.6,10.2,5.4,15.6,7.5c6.2,2.5,10.8,7.6,16.7,10.5c3,1.5,5.9,3.1,8.8,4.6c3,1.5,5.9,2.9,8.9,4.4
		c20.9,10.5,20.9,10.5,38.5,22.3c2.7,1.8,5.4,3.8,8.2,5.6c2.8,1.9,6,2.8,9.4,2.9c6,0.1,11.3,2.1,16.2,5.4c2.1,1.4,3.8,3,4.9,5.3
		c2.2,4.5,4,9,5.3,13.8c0.8,3,4.4,5.3,7.5,5.3c3.3,0,6.6-0.1,9.7-1.5c3.8-1.7,7.7-3,11.9-3.2c5.2-0.3,9.7,1.1,13.5,4.8
		c1.5,1.5,2.2,5.4,1.1,6.8c-2.1,2.5-4.3,5-6.3,7.6C795.1,656.9,794.1,659.2,794.3,662.7z M459.9,432.9c0.1,3.8,1,7.2,2.7,9.1
		c1.6,1.8,3.5,3.4,5.1,5.2c1.6,1.9,2.8,4,3.1,6.5c0.2,1.6,0.3,3.2,0.5,4.8c0.2,1.6,0.1,3.3,0.6,4.8c1,3.1,2.4,6.1,5.6,7.7
		c3.8,1.9,7.8,2,11.8,0.6c3.2-1.1,5.3-4.8,4.1-7.5c-2-4.5-3.7-9.1-8.1-11.9c-3.8-2.5-5.3-6-5.5-10.2c-0.1-2.4-0.2-4.9-0.4-7.3
		c-0.4-4.3-2.4-7.7-6-10.1c-2.2-1.5-4.5-1.7-6.9-0.8C462.5,425.3,459.8,429,459.9,432.9z M858.2,653.6c0-1.6,0.2-3.3-0.1-4.9
		c-0.6-3.3-2.1-6.2-5.5-7.6c-1.5-0.6-2.9-1.6-4.4-2.3c-4-2.1-7.8-1.7-11.5,1.1c-3.4,2.6-4.7,6.9-3.1,11c0.3,0.8,0.5,1.6,0.9,2.3
		c2.5,4.4,5.9,7.9,10.4,10.3c2.1,1.1,4.6,1.1,7-0.1C856.1,661.3,858.5,658.2,858.2,653.6z M853.2,684.7c-0.1-0.8-0.2-1.6-0.2-2.4
		c-0.4-4.5-2.9-7.4-6.7-9.4c-2.2-1.1-4.7-1.4-7-0.2c-2.2,1.1-4.3,2.2-6.4,3.5c-3,1.9-3.7,4.9-3.8,8.4c-0.1,5.2,4.7,11.5,10.3,11.7
		c2.4,0.1,4.8,0.3,7.2-0.2c3.3-0.6,5.9-3.3,6.2-6.5C852.9,687.9,853,686.3,853.2,684.7z M635.1,465.6c0.3-2.3,0.2-4.7-0.5-7.2
		c-0.9-3.2-3.8-5.7-7.1-5.8c-2.5-0.1-5,0-7.2,1.4c-2.9,1.9-4.7,4.5-5.4,7.9c-1.5,7.7,2.7,11.5,8,13.4c0.8,0.3,1.7,0.2,2.5,0.1
		C630.8,474.5,634.8,470.5,635.1,465.6z M170.7,367.8c-4.1-0.1-6.6,1.1-8.3,4c-1.6,2.8-3.3,5.7-4.5,8.7c-0.9,2.3-1.1,4.8-0.2,7.2
		c0.9,2.3,2.4,4.1,5.1,4.6c3.5,0.6,6.5-0.4,9-2.6c5.4-4.9,6.2-11.2,4.4-18C175.8,369.8,172.9,367.7,170.7,367.8z M524.8,431.7
		c-1.6,0.2-3.2,0.4-4.8,0.7c-1.6,0.3-3,1.3-3.7,2.9c-1.9,4.7-1.9,9.4,0.7,13.8c0.9,1.5,2.3,2.1,3.9,2.6c3.2,1,6.5,0.9,9.5-0.3
		c2.3-0.9,3.8-2.6,4.4-5.2c0.8-3.3,0.8-6.4-0.3-9.5c-0.8-2.3-2.4-4.1-5.1-4.5C528,432.1,526.3,431.9,524.8,431.7z M585.6,448.4
		c-0.4-1.9-0.7-4.4-1.5-6.6c-0.5-1.4-1.8-3-3.1-3.5c-3.9-1.5-8-1.4-11.5,1.2c-3.5,2.6-4.9,6.2-4.3,10.6c0.3,2.5,1.5,4.6,3.5,6
		c1.3,0.9,2.8,1.6,4.3,2.3c2.2,0.9,4.4,2.2,6.8,0.5c2-1.4,3.9-2.9,4.8-5.3C585,452.1,585.1,450.4,585.6,448.4z M585.9,525
		c0,1-0.1,1.8,0,2.6c1,5.1,5.1,8.7,9.9,9c3.3,0.2,6.4,0,9.6-0.8c1.6-0.4,3.6-4.4,3.2-6c-0.9-3.2-2.5-5.9-4.3-8.6
		c-1.9-3-4.8-4.1-8.2-4.3C590.4,516.6,586.7,520.5,585.9,525z M629.4,506.7c0.1,2.5,0.4,4.8,1.8,6.9c0.4,0.6,1,1.4,1.7,1.7
		c4.6,1.9,9.2,2.2,13.7-0.5c0.7-0.4,1.4-1,1.7-1.7c2.1-4.6,2.2-9.2-0.4-13.6c-0.9-1.5-2.3-2.1-3.9-2.6c-3.2-1-6.3-0.9-9.4,0.1
		c-2.3,0.8-4,2.5-4.5,5C629.7,503.6,629.6,505.2,629.4,506.7z M428,446c-0.5,0.1,0.3-0.1,1.1-0.1c2.7-0.1,4.5-1.8,5.5-4
		c1.7-3.8,1.4-7.9-0.1-11.7c-0.3-0.7-1-1.3-1.6-1.8c-4.4-3-9.1-2.6-13.8-0.9c-0.7,0.2-1.2,1-1.7,1.7c-3.3,4.5-2.1,12,2.5,15
		C421.9,445.4,424.1,446.3,428,446z M554.6,491.7c-0.6,0-2.3,0-3.9,0c-3.3,0-5.7,2.6-5.8,6.2c-0.1,5.7,2.1,9.5,7,11.5
		c1.4,0.6,3.2,0.9,4.7,0.6c6.7-1.3,10.6-9.1,7.5-15.1c-0.6-1.2-2.3-2.2-3.8-2.7C558.9,491.8,557.2,491.9,554.6,491.7z M226.7,399.4
		c-0.3-1.6-0.5-3.2-1.1-4.8c-2.2-5.8-9.4-8-14.3-4.4c-4,2.9-5.5,8.8-3.3,13.2c0.3,0.7,1,1.3,1.7,1.8c3.6,2.6,7.6,2.6,11.7,1.6
		C224.4,406,226.6,402.9,226.7,399.4z M174.2,417.5c-3.2,0.2-5.1,1.8-6.8,3.4c-1.7,4.7-2.2,9.3,0.8,13.6c0.4,0.6,1,1.3,1.7,1.7
		c5.3,2.4,11.1,0.5,14.5-4.6c0.9-1.4,1.2-3,0.9-4.6C184.4,421.3,179.4,417.2,174.2,417.5z M522.7,471.1c-4,0.4-7.5,4.1-7.6,8.2
		c-0.1,2.5,0.6,5,2.2,6.9c3.6,4.2,8.3,4.9,13.2,2.2c2.3-1.3,3.8-3.4,4-5.8c0.6-6-0.8-9.4-7-11C526,471.2,524.3,471.3,522.7,471.1z
		 M585.2,483.1c-0.1,0.8-0.2,1.6-0.2,2.4c-0.1,5.1,3.2,9.1,8.3,10c1.7,0.3,3.3-0.2,4.4-1.3c2.8-3,4.3-6.6,5.4-10.5
		c0.5-1.7-1.2-5.5-2.7-6.2c-3-1.3-6-1.9-9.3-1C587.9,477.4,585.5,479.9,585.2,483.1z M391.1,428.9c-0.1-0.8-0.2-1.6-0.4-2.4
		c-1.2-4.3-4.3-6.7-8.2-8.1c-1.5-0.5-3.3,0.1-4.5,1.1c-3,2.8-4.8,6.3-5.1,10.5c-0.1,0.7,0.4,1.6,0.8,2.3c2.4,3.8,5.9,5.2,10.3,4.8
		C388.2,436.7,391.2,433.3,391.1,428.9z M310.5,402c-1.6,0.2-3.3,0.4-4.9,0.7c-1.9,0.4-4.1,3.3-4.3,5.4c-0.5,6,2.5,9.4,8.4,9.2
		c1.6,0,3.2-0.6,4.9-0.7c3.6-0.2,7-5.3,5.7-9.3c-0.8-2.4-2.4-4.4-4.9-4.8C313.8,402.3,312.1,402.2,310.5,402z"/>
	<path class="st1" d="M1226.9,751.2c-2-0.1-4.5-0.1-6.9-0.5c-2.4-0.3-4.8-0.9-7-2.3c-8.1-5.6-16-11.7-24.5-16.7
		c-7.8-4.6-14.6-10.7-22.6-15.1c-2.9-1.6-5.4-3.9-8.3-5.3c-12.6-6.2-23.9-14.6-35.4-22.5c-10.2-7-20.8-13.4-31.9-18.7
		c-2.1-1-3.8-3-5.6-4.7c-1.7-1.6-1.5-3.1,0.6-3.7c5.8-1.7,11.3-1.2,16.4,2.4c1.3,0.9,2.7,1.9,3.9,3.1c5.4,5.3,11.9,8.8,18.6,12
		c7.4,3.6,14.7,7.4,21.8,11.6c7,4.2,13.8,9.1,21.1,12.8c6.7,3.3,12.4,8.1,19,11.5c5.4,2.8,9.2,6.8,11.5,12.4c0.3,0.8,0.9,1.4,1.4,2
		c2.6,3.4,6,5.7,10.4,5.7c5.8,0,11.5-0.3,17.3-0.4c1.6,0,3.3,0,4.9,0.3c1.6,0.3,3.2,0.8,4.8,1.2c3,0.9,4.7,5.4,3.2,8.1
		c-2.2,3.8-5.4,6.1-9.8,6.6C1229,750.9,1228.2,751,1226.9,751.2z"/>
	<path class="st1" d="M1226.2,924.8c3.4-0.9,6.5-0.3,9.2,1.9c2.5,2,5.2,4,7.5,6.3c2.9,2.9,5.5,6.1,8.3,9c4.5,4.8,9,9.4,14.4,13.3
		c4.6,3.4,8.7,7.4,11.9,12.3c1,1.5,1.8,3.2,1.2,4.2c-0.9,1.4-2.7,1.6-4.4,0.9c-3-1.3-6-2.6-8.9-4.2c-1.3-0.8-2.5-2.1-3.4-3.3
		c-1-1.3-1.5-2.9-2.4-4.3c-1.3-2-2.7-4.1-4.2-6c-2.1-2.6-4.8-4.4-8.1-5.1c-2.4-0.5-4.9-0.4-7.2-1.2c-3.1-1.1-6-2.9-7.6-5.9
		c-1.9-3.6-3.7-7.3-4.9-11.2c-0.8-2.3-0.5-4.8-0.7-7.3C1226.6,924.3,1226.2,924.8,1226.2,924.8z"/>
	<path class="st1" d="M1176.6,828.6c0.3-1.6,0.2-3.3,0.8-4.7c1.7-3.7,3.5-7.3,5.6-10.7c1.3-2.1,3.9-2.9,6.2-3.2
		c2.7-0.3,6.3,2.9,7,5.6c0.4,1.6,0.6,3.2,0.3,4.8c-0.5,2.4-0.6,4.9-1.5,7.1c-1.8,4.6-2.6,9.3-3.7,14c-0.6,2.7-5.7,3.8-8.1,1.9
		C1178.6,839.5,1176.3,834.7,1176.6,828.6z"/>
	<path class="st1" d="M1226.6,867.8c0,2.4,0.1,4.9-0.1,7.3c-0.1,0.7-0.7,1.4-1.2,2c-1,1.1-2.5,1.1-4-0.2c-3.2-2.5-6.1-5.3-8.3-8.8
		c-1.2-1.8-1.4-5.2-0.1-6.8c1.5-1.9,2.9-3.9,4.5-5.7c2.2-2.5,3.4-5.4,3.8-8.7c0.3-2.4,0.6-4.8,1.1-7.2c0.5-3,5.3-4.3,7.8-2.2
		c0.6,0.5,1.3,1,1.9,1.5c2.5,2.3,2.9,3.8,1.9,6.2c-1.6,3.8-3.6,7.2-5.8,10.6c-1.3,2.2-1.5,4.6-1.7,7c-0.1,1.6,0,3.2,0,4.8
		C1226.5,867.8,1226.6,867.8,1226.6,867.8z"/>
	<path class="st1" d="M1321.1,869.6c-3.4,0.6-6.6-0.2-9.1-2.5c-7.8-7.3-15.9-14.1-25.1-19.7c-4.1-2.5-7.7-6-10.3-10.2
		c-0.4-0.6-0.2-1.6-0.3-2.4l-0.5,0.5c3.3-0.2,6.5,0.1,9.6,1.5c6.1,2.8,11.8,6.1,15.9,11.5c5,6.7,12.3,11.1,17.8,17.2
		c1.1,1.2,1.7,2.7,1.5,4.5L1321.1,869.6z"/>
	<path class="st1" d="M1264.4,757.5c3,1.5,5.2,3.6,5.6,7.1c0.1,0.8,0.2,1.7-0.1,2.4c-2,4.4-5.1,8.1-8.7,11.3
		c-1.3,1.2-5.6,1.9-6.7,0.9c-1.8-1.6-3.4-3.8-3-6.2c1.2-6.6,4.8-11.7,10.8-15C1262.9,757.5,1263.7,757.6,1264.4,757.5z"/>
	<path class="st1" d="M1228.7,974.6c0.8,0.1,1.6,0.2,2.4,0.4c3.4,0.9,5.2,4.6,3.6,7.3c-2.5,4.3-5.7,7.9-9.7,10.7
		c-0.6,0.5-1.4,0.8-2.1,1.1c-1.6,0.8-5.8-0.8-6.2-2.4c-0.4-1.5-1-3.1-0.9-4.7C1216.4,980.8,1222.4,975.1,1228.7,974.6z"/>
	<path class="st1" d="M1257.3,999.7c2.6,0.3,5.3,4.2,4.6,7c-0.2,0.8-0.5,1.6-0.8,2.3c-1.7,3.8-4.6,6.7-8,8.8c-1.3,0.8-3,1.2-4.5,1.7
		c-1.9,0.5-6.2-1.6-6.2-2.9c0-1.6,0-3.4,0.7-4.6c2.9-4.9,6.6-9.2,11.6-12.2C1255.3,999.4,1256.3,999.7,1257.3,999.7z"/>
	<path class="st1" d="M1296.4,939.1c-2.4,0.4-5,0.4-6.9-1c-9.8-7.1-18.7-15.2-26.9-24c-1.1-1.2-1.5-2.7-1.3-4.4l0.2-0.2
		c3.3-0.5,6.3,0.4,8.7,2.7c8.5,8.3,16.9,16.7,25.2,25.2c0.5,0.5,0.4,1.5,0.5,2.3L1296.4,939.1z"/>
	<path class="st1" d="M1285.7,791.1c0.4-2.3,0.8-4.7,1.3-7c0.6-2.6,6-4.4,8-2.5c1.2,1.1,2.5,2.1,3.3,3.4c1.8,2.8,2.5,5.9,0.9,9.1
		c-1.5,2.9-3,5.6-4.7,8.4c-1,1.7-2.5,2-4.3,1.3c-1.4-0.6-2.7-1.5-3.5-3c-0.4-0.7-0.5-1.5-0.6-2.3
		C1286,796,1285.9,793.6,1285.7,791.1z"/>
	<path class="st1" d="M1323.6,1160c0.8,0.3,1.5,0.5,2.2,0.9c2.9,1.5,5.3,3.5,6.9,6.3c3,5.1,2.7,8.1-1.6,12.8
		c-1.3,1.4-2.7,1.6-4.1,0.7c-2-1.4-3.7-3.1-4.9-5.2c-1.1-2.1-2-4.3-3-6.5c-1.6-3.6-1.2-5,2.4-8
		C1322.1,1160.7,1322.9,1160.4,1323.6,1160z"/>
	<path class="st1" d="M1285.9,1123.7c3.2-0.5,6.3-0.1,9.1,1.8c3.3,2.2,6.5,4.6,8.8,8c1.4,2.1,1.6,4.4,1.3,6.8
		c-0.2,1.8-3.8,4-5.6,3.3c-1.4-0.5-3.1-1.1-4-2.2c-2.7-2.9-5.1-6.1-7.6-9.2c-2.1-2.7-2.5-5.8-1.6-9L1285.9,1123.7z"/>
	<path class="st1" d="M1317,1046.8c4.8,2.1,8.4,5.2,10.4,9.9c0.6,1.5,1.6,2.8,2.2,4.3c0.3,0.7,0.2,1.6,0.3,2.3
		c0.2,1.8-0.4,3.4-2.1,4c-1.6,0.5-3.5,0.1-4.5-1c-4.4-4.8-8.1-10-11.3-15.7c-0.9-1.5-0.2-3.3,1-4.4c0.4-0.4,1.3-0.4,1.9-0.3
		C1315.8,1046.2,1316.5,1046.6,1317,1046.8z"/>
	<path class="st1" d="M1287.6,981c0.7-0.1,1.5-0.4,2-0.2c6.1,2.9,10.2,8,14,13.3c0.5,0.6,0.9,1.7,0.7,2.3c-0.5,1.4-1.9,2.2-3.7,2.3
		c-3.4,0.4-6.5-0.8-9.1-2.9c-4.1-3.3-6-7.7-5.4-13C1286.3,982.2,1287.1,981.6,1287.6,981z"/>
	<path class="st1" d="M1328.3,1099.8c0.1,0.6,0.4,1.5,0.1,2c-4.1,6.5-9.1,6.8-14.2,2.7c-0.6-0.5-1.2-1.1-1.8-1.6
		c-1.5-1.2-1.6-2.6-1.4-4.3c0.3-1.8,0.9-3,2.6-3.7c2.3-0.9,4.7-1.2,7.1-0.8C1324.2,1094.8,1326.7,1096.7,1328.3,1099.8z"/>
	<path class="st1" d="M1326.2,919.1c-4.1,0.1-7.9-0.9-11.1-3.8c-4.1-3.8-8.3-7.6-12.4-11.5c-1.2-1.1-1.6-2.6-1.6-4.4l-0.5,0.5
		c2.4-0.6,4.9-0.5,6.9,0.9c6.6,4.6,12.4,10.1,17.1,16.7c0.4,0.6,0.5,1.5,0.7,2.3L1326.2,919.1z"/>
	<path class="st1" d="M1261.8,864.6c1.6-0.4,3.2-0.2,4.7,0.6c3.7,1.9,6.6,4.6,8.6,8.2c0.4,0.7,0.6,1.7,0.5,2.4
		c-0.5,2-1.8,2.3-3.5,1.4c-4.2-2.3-9.1-3.6-12.3-7.6c-0.5-0.6-1.2-1.5-1.1-2.1C1258.8,865.9,1260.1,865.1,1261.8,864.6z"/>
	<path class="st1" d="M1265.5,1046c0.5-1.4,0.8-3,1.5-4.3c0.8-1.6,2.2-1.9,3.9-1.8c1.7,0.1,3.1,0.5,3.7,2.3c1,3,1.3,6-0.3,9
		c-1,2-3.9,2.6-5.9,1C1266.5,1050.7,1265.9,1048.4,1265.5,1046z"/>
	<path class="st1" d="M1256.6,904.3c-3.4,0.4-6.5-0.2-9.1-2.4c-2.5-2.1-4.8-4.4-7.2-6.6c-1.4-1.3-2.2-2.8-1.5-3.8
		c0.9-1.3,2.7-1.6,4.3-0.5c4.7,3.2,9,6.8,12.5,11.5c0.4,0.6,0.4,1.6,0.5,2.4L1256.6,904.3z"/>
	<path class="st1" d="M1346.2,889.2c-3.3,0.5-6.5,0.1-9.2-2.2c-3.1-2.6-6.2-5.4-9.2-8.1c-1.2-1.1-1.8-2.6-1.7-4.4l-0.3,0.3
		c2.5-0.5,4.9-0.3,6.9,1.1c4.7,3.1,9,6.8,12.1,11.6c0.4,0.6,0.4,1.6,0.6,2.3L1346.2,889.2z"/>
	<path class="st1" d="M1323.9,828.6c-0.7-0.2-1.5-0.3-2.1-0.7c-4.3-2.8-5.5-5.6-4.1-9.6c0.6-1.6,2.1-2.1,3.8-2.3
		c1.7-0.2,2.9,0.2,3.7,2c1.3,2.9,1.8,5.9,0.2,8.9C1325,827.4,1324.4,828,1323.9,828.6z"/>
	<path class="st1" d="M1329.3,1012.1c-0.6,0.5-1,1.3-1.7,1.6c-3.4,1.5-8,0.2-10.1-3c-0.9-1.4-0.8-3.1-0.2-4.3c0.8-1.6,2.2-1.9,4-1.5
		c3.3,0.6,5.5,2.5,7.2,5.2C1328.8,1010.7,1329,1011.4,1329.3,1012.1z"/>
	<path class="st1" d="M1343.9,1128.3c1.8,0,3.3,0.6,4.4,1.9c1.1,1.2-0.3,3.9-2.9,5.7c-2,1.4-4.4,1.6-6.9,0.3
		c-1.7-0.8-2.3-2.3-2.2-4.2c0.1-1.5,0.9-2.9,2.7-3.5C1340.6,1128.2,1342.3,1128.4,1343.9,1128.3z"/>
	<path class="st1" d="M1335.9,929.5c2.5-0.5,4.9-0.1,7,1.2c2.8,1.7,5.3,3.8,6.9,6.7c0.9,1.5,0.8,3.2,0.1,4.5
		c-0.9,1.6-2.4,1.7-4.1,0.4c-0.6-0.5-1.4-0.8-2-1.4c-2.3-2.3-4.6-4.5-6.8-6.9C1335.8,932.8,1335.5,931.2,1335.9,929.5L1335.9,929.5z
		"/>
	<path class="st1" d="M1294.7,1076.1c-0.4,0.6-0.8,1.4-1.3,1.8c-1.3,0.8-3,1-4.5,0.1c-2.9-1.7-5.1-4.1-6.6-7
		c-0.8-1.6-0.5-3.3,0.6-4.4c1-1,2.5-0.5,4.1,0.6c2.8,1.8,5.2,3.8,6.9,6.7C1294.3,1074.5,1294.5,1075.3,1294.7,1076.1z"/>
	<path class="st1" d="M1379.6,960.2c0.8,0.1,1.6,0.1,2.3,0.4c1.6,0.6,2.4,1.7,2.9,3.2c0.6,1.8,0.2,3.2-1.5,3.9
		c-4.3,1.7-6.5,0.8-9.6-3.7c-1.3-1.9-1-3,1.3-3.3C1376.6,960.4,1378.1,960.3,1379.6,960.2z"/>
	<path class="st1" d="M1326.1,969.1c4.5-0.6,8,1,10.9,4.4c1.3,1.5,2,2.9,1,3.9c-1.1,1.2-2.9,1.5-4.5,0.7c-3-1.4-5.6-3.4-7.3-6.2
		c-0.4-0.6-0.3-1.6-0.4-2.4L1326.1,969.1z"/>
	<path class="st1" d="M1388,925.9c0.3,1.6-0.6,2.5-2.6,2.5c-2.7,0-4.4-1.8-6-3.6c-1.4-1.5-1.8-2.9-0.6-3.9c1.2-1,2.8-1,4.4-0.3
		C1385.5,921.6,1386.8,923.7,1388,925.9z"/>
	<path class="st1" d="M1286.4,1025.3c1.6-0.1,3.1,0.5,3.7,2c0.6,1.6,0.1,3.1-0.7,4.2c-1.2,1.6-4.9,1.6-6.1,0.1
		c-0.9-1.1-1.3-2.7-0.6-4.2C1283.3,1025.9,1284.8,1025.3,1286.4,1025.3z"/>
	<path class="st1" d="M1354.2,1204c3.2,1,6.2,5.8,5.8,9.6c-0.2,2-1.5,2.9-2.8,2.2c-3-1.6-4.9-4-5.9-7.2c-0.2-0.8-0.6-1.7-0.4-2.3
		C1351.6,1204.5,1352.8,1203.8,1354.2,1204z"/>
	<path class="st1" d="M1366.7,995.6c2.5,0.7,3.8,2.6,3.5,5c-0.2,1.5-1.1,2.7-2.7,3c-2.6,0.5-5.7-0.8-5.9-2.4
		c-0.3-1.6,0.2-3.1,1.1-4.3C1363.7,995.5,1365,995.1,1366.7,995.6z"/>
	<path class="st1" d="M1351.3,1036.6c0.9-1.6,2.2-2.1,3.8-2.2c1.9-0.2,3.3,0.2,4.1,1.9c0.3,0.7,0.4,1.5,0.6,2.2
		c0.6,1.8,0.2,3.3-1.5,4.2c-2.3,1.3-5.3,0.6-6-1.5C1351.8,1039.7,1351.7,1038.2,1351.3,1036.6z"/>
	<path class="st1" d="M1368.6,1170.1c-0.4,0.5-0.7,1.3-1.2,1.6c-2.2,1.1-5,0.2-5.6-1.8c-0.5-1.6-0.3-3.1,0.8-4.3
		c0.4-0.4,1.2-0.5,1.8-0.4C1366.4,1165.7,1368.4,1168,1368.6,1170.1z"/>
	<path class="st1" d="M1396.1,1202.1c0.2,2.5-1.9,5.1-3.7,4.4c-1.7-0.7-2.3-2.1-2.5-3.8c-0.2-1.6-0.2-3.2,0.5-4.7
		c0.8-1.7,1.9-2.6,3.1-2.3c0.7,0.2,1.4,1,1.6,1.7C1395.7,1198.9,1395.8,1200.5,1396.1,1202.1z"/>
	<path class="st1" d="M1393.7,1029c1.8-0.2,3.4,0.2,4.2,1.7c0.6,1.2-0.2,2.6-1.5,3.9c-1.2,1.2-2.7,2.3-3.9,1.8
		c-1.6-0.7-2-2.4-1.6-4.2c0.2-0.7,0.5-1.4,0.9-1.9C1392.3,1029.7,1393.1,1029.4,1393.7,1029z"/>
	<path class="st1" d="M1431.2,1184.3c1.8,0.3,2.6,1.2,2,2.4c-0.3,0.5-1,1.1-1.6,1.2c-1.7,0.5-3-0.1-3.6-1.7
		c-0.1-0.3,0.6-1.2,1.1-1.5C1429.7,1184.4,1430.5,1184.4,1431.2,1184.3z"/>
	<path class="st1" d="M1365.8,1099.2c-0.3,1.4-1.2,2.5-2.7,3.2c-1.4-0.9-2-2.2-2.4-3.6c-0.4-1.8-0.1-3.1,1.7-3.7
		c0.5-0.2,1.2,0,1.6,0.2C1365.8,1096.1,1366.3,1097.4,1365.8,1099.2z"/>
	<path class="st1" d="M1345.4,889.9c1.5,0.1,2.8,0.8,3.7,2c-0.5,0.3-1.2,1.1-1.5,1c-1.4-0.7-1.8-2-1.5-3.7L1345.4,889.9z"/>
	<path class="st1" d="M1281.5,1118c-2.9-0.4-4.5-2.1-5.1-4.9l-0.7,0.7c3.2,0.1,4.4,2.3,5,4.9L1281.5,1118z"/>
	<path class="st1" d="M1286.4,1123.2c-1.6,0.2-2.9-0.2-3.5-1.5c-0.6-1.2-0.9-2.5-1.3-3.8l-0.8,0.8c2.9,0.5,4.8,1.9,5.2,4.9
		L1286.4,1123.2z"/>
	<path class="st1" d="M1261.1,909.7c-4.1-0.7-4.6-1.3-4.6-5.4l-0.5,0.5c4.3,0.6,4.7,0.9,5.3,4.7L1261.1,909.7z"/>
	<path class="st1" d="M1291.4,889.3c-1.8,0.4-3.3-0.1-4.1-1.7c-0.1-0.3,1-1.6,1.3-1.5c1.8,0.5,2.5,1.9,2.2,3.8L1291.4,889.3z"/>
	<path class="st1" d="M1296.3,894.3c-4.2-0.4-4.8-1-4.9-5l-0.5,0.5c4.1,0.6,4.5,1,4.9,5.1L1296.3,894.3z"/>
	<path class="st1" d="M1404.8,1160.7c-0.6,0.5-1.2,1.4-1.7,1.4c-0.6,0-1.1-1-1.6-1.6c0.6-0.5,1.1-1.1,1.7-1.6
		C1403.7,1159.5,1404.3,1160.1,1404.8,1160.7z"/>
	<path class="st1" d="M1301.2,944.2c-1.7,0.4-3,0.1-4-1c-1-1.1-1.3-2.4-0.9-4.1l-0.5,0.5c4,0.7,4.3,1,5,4.9L1301.2,944.2z"/>
	<path class="st1" d="M1295.7,894.9c4.3,0.8,4.6,1.1,5,5.1l0.5-0.5c-3.1-0.3-4.9-1.9-4.9-5.1L1295.7,894.9z"/>
	<path class="st1" d="M1300.9,944.6c4,0.7,4.3,1,5,5l0.4-0.4c-4.1-0.1-4.8-0.8-5-5L1300.9,944.6z"/>
	<path class="st1" d="M1305.8,949.5c4,0.7,4.3,1,4.9,5l0.4-0.4c-4.1,0-4.8-0.8-5-4.9L1305.8,949.5z"/>
	<path class="st1" d="M1330.5,924.9c4.2,0.5,4.5,0.7,5.3,4.5l0,0c-3.8-0.7-4-0.9-4.7-5.2L1330.5,924.9z"/>
	<path class="st1" d="M1326.1,874.6c-4.3-0.6-4.7-1.1-4.9-5l-0.3,0.3c1.6-0.2,2.9,0.2,4,1.2c1.1,1,1.4,2.3,1,3.9L1326.1,874.6z"/>
	<path class="st1" d="M1310.8,954.5c3.9,0.7,4.1,0.9,4.9,5l0.6-0.6c-1.6,0.5-3,0.2-4-0.8c-1.1-1-1.4-2.4-1.1-4L1310.8,954.5z"/>
	<polygon class="st1" points="1333.5,941.1 1333.9,942.4 1332.6,942.2 	"/>
	<path class="st1" d="M1315.7,959.6c2.9,0.4,4.7,1.9,5,5l0.6-0.6c-4-0.4-4.5-0.9-5-5L1315.7,959.6z"/>
	<path class="st1" d="M1325.5,919.8c2.9,0.5,4.9,1.9,5.1,5.1l0.7-0.7c-3.1-0.4-4.7-2.1-5-5.2L1325.5,919.8z"/>
	<path class="st1" d="M1320.7,964.5c1.5-0.2,2.8,0.2,3.9,1c1.1,0.8,1.7,2,1.5,3.6l-0.3,0.3c-4.1-0.7-4.6-1.3-4.5-5.5L1320.7,964.5z"
		/>
	<path class="st1" d="M131.7,461.6c1,6.5-2.5,10.8-7.4,14.1c-1.4,0.9-3.2,0.6-4.4-0.4c-1.2-1-1-2.5,0-4.2c1.2-2.1,2.4-4.2,3.7-6.3
		c0.9-1.5,2.3-2.2,4-2.6c1.5-0.4,3.1-0.5,4.7-0.1L131.7,461.6z"/>
</g>
</svg>
