<?xml version="1.0" encoding="utf-8"?>
<!-- Generator: Adobe Illustrator 23.1.1, SVG Export Plug-In . SVG Version: 6.00 Build 0)  -->
<svg version="1.1" id="Calque_1" xmlns="http://www.w3.org/2000/svg" xmlns:xlink="http://www.w3.org/1999/xlink" x="0px" y="0px"
	 width="1451.3px" height="1451.3px" viewBox="0 0 1451.3 1451.3" style="enable-background:new 0 0 1451.3 1451.3;"
	 xml:space="preserve">
<style type="text/css">
	.st0{fill:#020202;}
	.st1{fill:#EFEFEF;}
</style>
<circle class="st0" cx="1058.1" cy="698.9" r="12.8"/>
<g>
	<path class="st1" d="M537.5,699.6c0.3,0.1,0.7,0.1,0.9,0.2c1.4,0.8,2.8,1.4,4.5,1.4c1,0,1.9,0,2.9,0.1c1.9,0.1,3.8,0.4,5.5,1.4
		c1.4,0.8,2.9,1.4,4.4,1.9c2.3,0.7,4.4,0.5,6.2-1.2c0.2-0.2,0.5-0.4,0.7-0.7c0.8-1,1.3-2.1,0.6-3.5c-0.5-0.9-0.5-1.8-0.2-2.7
		c0.1-0.3,0.4-0.6,0.7-0.6c2.5-0.6,5-0.3,7.5,0.6c1.5,0.5,3,1.2,4.4,1.9c1.5,0.7,3,1,4.6,1.2c0.9,0.1,1.9,0.3,2.8,0.7
		c2,1.1,4.4,1.1,6.4,2.1c1.8,0.9,3.7,0.9,5.6,1.3c1.6,0.4,2.9,1.4,4.5,1.5c3.9,0.3,7.4,2,11.2,2.5c2.3,1.2,4.8,1.6,7.4,1.9
		c2.7,1,5.5,1.7,8.3,2.1c2.1,0.9,4.3,1.2,6.5,1.6c0.9,0.2,1.8,0.7,2.7,1c0.6,0.2,1.2,0.5,1.8,0.6c2.9,0.2,5.6,1.2,8.4,1.9
		c1.2,0.3,2.6,0.2,3.8,0.7c2.1,0.9,4.2,1.3,6.5,1.5c1.6,0.1,3.2,0.5,4.6,1.2c1.2,0.5,2.5,0.6,3.7,0.8c1.3,0.1,2.5,0.5,3.7,1
		c0.9,0.3,1.8,0.6,2.8,0.7c1.6,0.2,3.2,0.2,4.8,0.3c1.3,0.1,2.5,0.3,3.7,0.8c0.6,0.2,1.2,0.5,1.8,0.6c1.9,0.3,3.8,0.5,5.7,0.8
		c1.9,0.2,3.6,1.4,5.5,1.4c0.6,0,1.3,0.1,1.9,0.2c1.8,0.5,3.6,1.2,5.5,1.6c1.6,0.3,3.2,0.3,4.8,0.5c1.6,0.2,3,1.2,4.4,1.8
		c0.7,0.3,0.9,0.9,0.7,1.5c-0.4,0.9-0.8,1.7-1.1,2.7c-0.7,2.6-0.6,5.1,1.2,7.2c0.2,0.2,0.5,0.5,0.6,0.7c0.9,1.3,1.5,2.8,1.7,4.4
		c0.1,1.6,0.3,3.2,0.4,4.8c0.1,1.6,0.8,3.1,1.2,4.6c0.4,1.2,0.3,2.5,0,3.8c-0.6,2.2-0.5,2.3,0,3.6c0.2,0.6,0.4,1.2,0.8,1.7
		c0.4,0.5,0.9,0.9,1.5,1.1c0.6,0.2,1.2,0.3,1.9,0.3c9.9,0,19.8,0,29.8,0c1.6,0,3.2-0.4,4.7-0.9c1.3-0.5,1.3-0.4,2.4,0.4
		c0.8,0.6,1.5,1.2,2.3,1.7c0.3,0.2,0.5,0.4,0.9,0.4c2.2,0.6,4.4,0.7,6.6,0.2c0.3-0.1,0.6-0.3,0.8-0.5c1-0.8,1.7-1.9,1.9-3.2
		c0.3-1.3-1.1-3.6-2.2-3.9c-1.9-0.6-3.8-0.2-5.7-0.1c-1.3,0.1-2.5,0.6-3.6,1.3c-1.5,0.9-3,1-4.5,0c-0.3-0.2-0.5-0.3-0.8-0.5
		c-1.1-0.7-2.4-0.9-3.6-1c-1-0.1-1.9,0-2.9,0c-6.4,0-12.8,0-19.2,0c-1.7,0-3-1-4-2.3c-0.4-0.5-0.6-1.1-0.8-1.7
		c-0.3-1.3-0.1-2.5-0.1-3.8c0-1.6,0-3.2-0.1-4.8c0-1-0.5-1.9-1-2.6c-0.5-0.8-1.2-1.5-1.8-2.2c-0.6-0.8-0.9-1.7-0.9-2.7
		c-0.1-1-0.1-1.9-0.1-2.9c0-1.3-0.5-2.5-1-3.6c-0.5-1.3,0.4-2.2,1.9-2.3c2.2-0.1,4.5,0.2,6.7,0.3c0.6,0,1.2,0.2,1.9,0.3
		c1.1,0.1,2.3,1.7,2.3,2.7c-0.1,2.6-0.4,5.1-0.2,7.7c0.2,2.5,0,5.1,0,7.7c0,1.2,1.3,2.6,2.4,2.6c1,0,1.9,0.2,2.9,0.2
		c2.9,0,5.8,0.1,8.6,0c2.3-0.1,4.4,0.5,6.4,1.5c1.5,0.7,3.1,0.6,4.7,0.5c1.8-0.1,3.7-2.2,3.5-3.9c-0.1-1.3-1.5-3.4-2.7-3.6
		c-1.6-0.2-3.2-0.5-4.7-0.5c-3.5-0.1-7,0-10.5-0.1c-1.7,0-3-0.9-4-2.3c-0.2-0.3-0.4-0.5-0.5-0.8c-0.4-2.5-0.2-5.1-0.2-7.7
		c0-1.7,1.5-2.8,3.3-2.4c0.6,0.1,1.3,0.3,1.8,0.5c1.5,0.7,2.9,1.2,4.6,1.3c4.1,0.3,8.3,0.2,12.5,0.3c1,0,1.9,0,2.9,0.2
		c0.6,0.1,1.2,0.4,1.8,0.7c1.4,0.7,1.7,1.9,0.8,3c-0.6,0.8-1.2,1.5-1.8,2.2c-0.9,1.2-0.4,3.2,1,4.2c1.4,1,3,1,4.5,0.4
		c0.3-0.1,0.5-0.4,0.7-0.7c0.3-0.6,0.5-1.1,0.7-1.7c0.3-1.6-0.4-3.2,0-4.8c0.1-0.6,0.5-1.2,1.2-1.4c1.5-0.5,3.2-0.6,4.7-0.1
		c2.1,0.7,4.3,1,6.5,1.6c0.4,0.5,1,0.9,1.1,1.5c0.2,1.2,0.2,2.5,0.3,3.8c0.2,1.6,1.9,2.6,3.5,2.2c1.8-0.4,2.6-1.7,3.1-3.3
		c0.3-0.9,0.4-1.9,0.6-2.8c0.2-0.7,1.3-1.4,2.2-1.5c1.3-0.2,2.6,0,3.8,0.3c0.6,0.1,1.2,0.4,1.8,0.7c1.2,0.5,2.4,0.9,3.7,0.9
		c5.8,0.2,11.5,0.3,17.3,0.4c5.4,0.1,10.9,0,16.3,0c1.9,0,3.8,0.1,5.6,0.9c0.6,0.2,1.2,0.3,1.9,0.3c2.9,0,5.8,0,8.6,0.1
		c7,0.4,14.1,0,21.1,0c1,0,1.9-0.2,2.9-0.2c3-1.5,6.3-1.1,9.4-1.1c8.6,0.1,17.3-0.4,25.9-0.4c2.6,0,5.1-0.2,7.5-1.5
		c0.8-0.4,1.8-0.5,2.8-0.6c2.2-0.3,4.5-0.4,6.7-0.3c1.9,0,3.8-0.2,5.6-1c0.9-0.4,1.9-0.4,2.8-0.6s2-0.2,2.8-0.5
		c1.8-0.8,3.6-1.2,5.5-1.4c1.9-0.1,3.8-0.3,5.7-0.4c2-1,4.2-1.5,6.4-2c2.6-1.4,5.5-1.6,8.4-1.6c0.6,0,1.3,0,1.9,0
		c1.3,0,2.5,0.5,3.5,1.3c0.8,0.6,1.4,1.3,2.2,1.8c0.8,0.6,1.8,0.7,2.7,0.4c0.6-0.2,1-0.8,1.1-1.4c0.2-0.6,0.3-1.2,0.5-1.9
		c0.2-0.6,0.4-1.2,0.8-1.7c0.5-0.8,1.2-1.5,2.1-1.9c2.6-0.2,4.8-1.5,7.3-2.3c0.9-0.3,1.9-0.4,2.8-0.8c1-0.4,1.9-0.2,2.7,0.5
		c1.2,1,2.3,2.2,3.5,3.2c1.3,1.1,2.9,1.2,4.5,0.7c0.3-0.1,0.7-0.2,0.9-0.4c1.2-1.1,2.4-2.1,3.5-3.2c2.1-2.1,4.8-3.2,7.7-3.7
		c1.6-0.3,3.1-0.7,4.6-1.2c3.6-1.2,7.2-2.5,11.1-3c0.9-0.1,1.8-0.6,2.6-1.2c1.9-1.3,3.5-2.8,4.5-4.9c1.1-2.5,2.8-4.2,5.1-5.5
		c0.6-0.3,1-0.8,1.5-1.2c1.4-1.1,2-3.6,1.1-5.2c-0.3-0.6-0.6-1.1-1-1.6c-0.5-0.8-1.2-1.5-1.4-2.4c0.3-0.5,0.6-1.1,1-1.6
		c0.3-0.5,0.7-1.1,1-1.6c1-1.6,1-3.9-0.1-5.4c-1.1-1.5-2.4-3-3.4-4.6c-1.4-2.1-2.9-4.2-4-6.5c-1-2-2.2-3.9-3.5-5.7
		c-1.3-1.8-2.2-3.8-3-6c-0.3-0.8,0.5-1.9,1.4-2c1-0.1,2,0.1,2.8,0.6c3,1.9,6,3.7,8.9,5.6c4,2.7,7.9,5.4,11.8,8.2c1.3,1,3,1,4.6,0.4
		c0.9-0.4,1.7-0.8,2.6-1.2c0.7-0.3,1.3-0.2,1.8,0.2c1,0.8,1.9,1.7,2.9,2.5c0.2,0.2,0.5,0.3,0.8,0.5c0.8,0.5,3,0.1,3.6-0.5
		c0.6-0.7,1.2-1.5,1.8-2.2c0.8-1,1.8-1.9,2.9-2.5c1.7-0.9,3.4-1.8,5.1-2.7c1.9-1.1,3.9-2.1,5.7-3.5c2.8-2.1,6.1-3.5,9.3-4.8
		c0.3-0.1,0.6-0.1,0.9-0.1c0.7,0,1.2,0.3,1.4,1c0.1,0.3,0.2,0.7,0,0.9c-0.5,0.8-0.9,1.7-1.5,2.4c-1.7,1.9-3.1,4-4.4,6.3
		c-2.4,4.1-4.8,8.3-7.8,12c-1,1.2-1.6,2.7-2.3,4.2c-0.5,0.9-0.4,1.9,0,2.8c0.2,0.6,0.6,1.1,0.8,1.7c0.6,1.6,0.5,3.1-0.4,4.6
		c-0.3,0.5-0.7,1.1-0.9,1.7c-0.5,1.9-0.5,3.9,0.8,5.5c3.1,3.7,5.5,7.8,7.7,12.1c0.9,1.7,1.9,3.3,2.7,5.1c0.8,1.8,2,3.3,3.1,4.8
		c0.8,1.1,1,2.3,0.7,3.6l0.1-0.1c-1,0.2-2,0.2-2.8-0.3c-2.4-1.6-4.7-3.3-7.3-4.6c-1.1-0.6-2.4-1.1-3.3-1.9c-2.2-1.9-5-2.9-7.2-4.8
		c-2-1.6-4.2-2.9-6.2-4.6c-1-0.9-2.3-1-3.6-0.3c-0.6,0.3-1.1,0.6-1.7,0.9c-1.2,0.6-2.5,0.7-3.7,0.1c-0.9-0.4-1.7-1-2.5-1.4
		c-1.2-0.5-2.5-0.5-3.7,0.1c-1.7,0.9-2.9,2.5-4.6,3.4c-4.8,2.6-9.3,5.7-14.1,8.1c-2.3,1.2-4.5,2.4-6.6,3.9c-2.1,1.4-4.5,2.5-6.8,3.6
		c-2.9,1.4-5.8,2.7-8.4,4.7c-2.3,1.8-4.8,3.1-7.2,4.7c-3.5,2.3-6.9,4.6-10.3,6.9c-1.9,1.3-3.8,2.3-5.8,3.4
		c-8.7,4.7-17.5,9.3-26.4,13.5c-3.5,1.6-6.8,3.6-10.3,5c-3.2,1.3-6.1,3.5-9.6,4.2c-3.2,1.4-6.4,2.9-9.6,4.3c-2.3,1-4.7,2-7.2,2.6
		c-2.5,0.6-4.7,2-7.2,2.5c-2.2,0.4-4.1,1.7-6.2,2.6c-1.2,0.5-2.4,1-3.6,1.2c-1.9,0.4-3.5,1.4-5.5,1.8c-1.8,0.4-3.6,1.4-5.4,1.8
		c-1.9,0.5-3.5,1.5-5.3,2.1c-2.1,0.8-4.2,1.5-6.4,1.7c-2,0.1-3.5,1.5-5.4,1.8c-1.6,0.3-3.2,0.1-4.7,0.8c-1.5,0.7-3,1.1-4.6,1.3
		c-2,0.2-3.6,1.4-5.5,1.7c-1.9,0.3-3.7,1.1-5.5,1.6c-1.9,0.5-3.8,0.5-5.7,0.7c-0.6,0.1-1.2,0.3-1.8,0.6c-1.2,0.5-2.4,1-3.7,1.1
		c-2.5,0.3-5.2,0-7.5,1.3c-2.5,0.4-5,0.7-7.4,1.8c-0.8,0.4-1.9,0.4-2.8,0.5c-1.6,0.1-3.2,0.1-4.8,0.2c-1,0-1.9,0.3-2.7,0.8
		c-2.3,1.4-4.8,1.5-7.4,1.2c-1.3-0.1-2.3-1-2.5-2.3c-0.1-0.9-0.3-1.9-0.6-2.8c-0.6-1.8-2.4-3.1-4.5-2.6c-1.1,0.2-2.3,1.5-2.2,2.7
		c0,0.6,0.1,1.3,0.3,1.9c0.3,0.9,0.7,1.8,1.1,2.6c0.4,0.9-0.1,1.8-0.9,2.5c-0.7,0.7-1.6,1.2-2.5,1.3c-1.3,0.2-2.5,0.3-3.8,0.3
		c-5.1,0-10.2,0-15.4,0c-2.3,0-4.5,0.2-6.5,1.4c-0.5,0.3-1.2,0.5-1.8,0.5c-4.8,0.4-9.6,0.5-14.4,0.3c-1.6-0.1-3.2-0.1-4.8-0.2
		c-2.3-0.1-4.4,0.2-6.4,1.5c-1.1,0.7-2.3,1.2-3.4,1.7c-0.9,0.4-1.8,0.5-2.8,0.3c-0.9-0.2-1.8-1-1.9-1.8c-0.1-1.3-0.1-2.6-0.3-3.8
		c-0.1-1-0.6-1.7-1.4-2.4c-1.4-1.2-3.5-1.3-5.2,0.3c-0.7,0.7-1.1,1.5-1.3,2.5c-0.2,1.6,0.2,3.2-0.1,4.8c-0.2,0.8-1,1.9-1.8,2
		c-1.6,0.3-3.2,0.4-4.7-0.1c-1.3-0.4-2.3-1.2-2.7-2.5c-0.3-0.9-0.3-1.9-0.5-2.8c-0.2-1.3-1.1-2.2-2.2-3c-1-0.6-2.6-0.6-3.6,0.2
		c-1,0.8-1.8,1.8-1.9,3.2c-0.1,0.9-0.1,1.9-0.5,2.8c-0.6,1.2-1.6,2.1-2.9,2.3c-2.2,0.2-4.5,0.1-6.7,0.2c-2.2,0-3.6-1.2-4.7-2.8
		c-0.3-0.5-0.6-1.1-1-1.6c-0.6-0.9-2.3-1.5-3.4-1.1c-0.9,0.3-1.8,0.7-2.3,1.5c-0.7,1.1-1.3,2.2-2,3.2c-0.7,1.2-3.2,1.3-4.3,0.3
		c-0.5-0.4-0.9-0.9-0.9-1.6c-0.1-2.3-1-4.4-2.8-5.9c-0.2-0.2-0.5-0.5-0.7-0.6c-1.3-1-2-2.4-2-4.1c0-0.6-0.2-1.3-0.3-1.9
		c-0.2-1.2-1.4-2.2-2.7-2.4c-1-0.1-1.9-0.2-2.9-0.3c-1.3,0-2.6,0-3.8,0.1c-5.8,0.3-11.5,0.2-17.3-0.1c-1.6-0.1-3.2-0.4-4.7-0.9
		c-0.9-0.3-1.9-0.5-2.8-0.6c-2.5-0.2-5.1-0.3-7.7-0.5c-0.6,0-1.3-0.2-1.9-0.4c-1.5-0.6-3-0.9-4.7-0.8c-5.1,0-10.2,0-15.4,0
		c-2.6,0-5.1-0.1-7.7-0.4c-1-0.1-1.9-0.3-2.8-0.7c-1.5-0.7-3-1-4.7-1c-4.2-0.1-8.3-0.2-12.5-0.2c-1.6,0-3.2-0.3-4.6-1
		c-0.6-0.3-1.2-0.5-1.8-0.5c-4.5-0.4-8.9-0.8-13.4-0.5c-0.6,0-1.2,0.4-1.8,0.6c-1.5,0.7-1.7,0.7-2.1-0.4c-0.3-0.7-0.5-1.2-1.2-1.4
		c-1.5-0.5-3.2-0.4-4.7-0.6c-1.3-0.2-2.5-0.4-3.7-0.9c-0.9-0.4-1.8-0.7-2.8-0.7c-2.2-0.1-4.5-0.2-6.7-0.3c-1.6,0-3.2-0.4-4.6-1.1
		c-0.6-0.2-1.2-0.5-1.8-0.5c-1.6-0.2-3.2-0.4-4.8-0.5c-3.7-0.1-6.8-1.6-9.6-3.8c-0.5-0.4-1-0.9-1.5-1.2c-0.5-0.3-1.2-0.5-1.8-0.6
		c-2.2-0.4-4.5-0.2-6.7-0.2c-1.6,0.1-3.2,0.1-4.8,0.1c-1.7,0-3-0.8-4.1-2.1c-0.2-0.2-0.4-0.5-0.5-0.8c-0.4-1.2,0.5-2.7,1.7-2.8
		c0.6-0.1,1.3-0.2,1.9-0.2c2.9,0.1,5.7,0.3,8.4,1.5c1.7,0.8,3.7,0.9,5.4,1.9c1.4,0.9,3.1,0.6,4.6,1.3c1.7,0.8,3.5,1.5,5.3,2.3
		c1.2,0.6,2.5,0.8,3.7,0.8c2.9,0.1,5.8,0.2,8.6,0.2c1.6,0.1,3.2,0.3,4.7,1c1.2,0.5,2.5,0.7,3.7,0.8c2.2,0.1,4.5,0.2,6.7,0.4
		c0.6,0,1.3,0.2,1.8,0.4c1.5,0.6,3.1,0.8,4.7,0.8c2.9,0,5.8-0.1,8.6,0.1c1.9,0.1,3.9,0.1,5.7,0.9c2.4,1,4.9,1.2,7.5,1.2
		c3.5,0,7-0.1,10.5,0.3c0.9,0.1,2,0.1,2.8,0.5c2.7,1.2,5.6,1.4,8.4,1.4c1.6,0,3.2,0.4,4.7,0.9c0.9,0.3,1.9,0.4,2.8,0.4
		c3.2,0,6.4,0,9.6,0c1.9,0,3.8,0.2,5.8,0.3c1.6,0.1,3.2,0.5,4.6,1.1c1.2,0.5,2.5,0.7,3.7,0.7c7,0,14.1,0,21.1,0
		c2.9,0,5.8,0.2,8.6,0.2c3.9,0,7.5,1.2,11.2,2.3c0.6,0.2,1,0.7,1.5,1.2c1,0.9,1.4,2.1,1.9,3.3c0.6,1.5,1.8,2.6,3.2,3.4
		c0.8,0.5,1.7,0.9,2.7,1c1.9,0.1,3.8,0.3,5.8,0.3c2.9,0,5.7,0.2,8.5,1.4c1.1,0.5,2.5,0.3,3.8-0.1c2.5-0.8,3.6-4.2,1.9-6.3
		c-0.2-0.2-0.4-0.5-0.6-0.7c-1-0.9-2-1.5-3.4-1.6c-2.9,0-5.8,0-8.6-0.1c-1.3,0-2.5-0.3-3.8-0.6c-0.6-0.1-1.2-0.5-1.6-1
		c-0.9-1.3-1.6-2.8-2.4-4.2c-0.3-0.5-0.5-1.2-0.9-1.7c-0.8-1-1.8-1.8-3.1-2c-1.3-0.2-2.5-0.2-3.8-0.3c-1.6-0.1-3.2-0.1-4.8-0.4
		c-1.2-0.2-2.4-0.8-3.6-1.2c-0.9-0.2-1.9-0.4-2.8-0.4c-7-0.1-14.1-0.2-21.1-0.3c-1.9,0-3.8,0-5.8,0c-1.6,0-3.1-0.4-4.7-1
		c-0.9-0.4-1.8-0.5-2.8-0.7c-4.5-0.5-8.9-0.6-13.4-0.5c-1.6,0-3.2-0.2-4.7-0.8c-0.9-0.3-1.9-0.5-2.8-0.6c-1.6-0.2-3.2-0.2-4.8-0.3
		c-1-0.1-1.9-0.2-2.8-0.7c-1.5-0.8-3-1-4.6-1.1c-2.2-0.1-4.5-0.1-6.7-0.1c-1.6,0-3.2-0.1-4.8-0.1c-0.6,0-1.4,0-1.9-0.3
		c-2.9-1.5-6.2-1.3-9.2-2.4c-1.2-0.4-2.4-0.7-3.7-0.7c-2.6,0-5.1,0-7.7,0c-2.2-0.1-4.5-0.2-6.7-0.4c-1.3-0.1-2.5-0.5-3.7-1
		c-0.9-0.3-1.8-0.6-2.8-0.7c-1.9-0.2-3.8-0.2-5.8-0.3c-2.2-0.1-4.5,0.1-6.7-0.3c-2.3-1.2-4.9-1.4-7.3-2.3c-0.9-0.4-1.7-0.9-2.7-0.9
		c-2.6,0-5-1.2-7.3-2.3c-0.9-0.4-1.7-0.9-2.5-1.3c-0.9-0.4-1.8-0.6-2.8-0.6c-1.6-0.1-3.2-0.2-4.8-0.3c-2.3-1.1-5-1.1-7.4-1.9
		c-0.9-0.3-1.6-1-2.2-1.8c-0.5-0.7-0.4-1.1,0.5-1.4c1.9-0.5,3.8-0.7,5.7-0.7c1.9,0,3.8,0.3,5.5,1.2c1.4,0.8,3,1.2,4.6,1.1
		c1,0,2,0.1,2.9-0.1c3.3-0.6,5.5,1,7.3,3.5c0.4,0.5,0.8,1,1.4,1.3c0.5,0.3,1.1,0.7,1.7,0.7c2.2,0.1,4.5,0.2,6.7,0.1
		c1.6,0,3.2-0.2,4.8-0.2c1.9,0,3.8,0.2,5.5,1.2c1.7,1,3.6,1.3,5.5,1.3c4.5,0,8.9-0.1,13.4-0.1c1.6,0,3.1,0.4,4.6,1
		c0.9,0.3,1.8,0.6,2.8,0.7c1.6,0.2,3.2,0.3,4.8,0.4c1.3,0,2.5,0.4,3.7,0.8c0.9,0.3,1.9,0.5,2.8,0.5c3.2,0.1,6.4,0.1,9.6,0.2
		c1.3,0.1,2.5,0.4,3.8,0.6c2.3,1.3,4.9,1.4,7.5,1.4c5.1,0,10.2,0.2,15.4,0.2c2,0,3.8,0.2,5.6,1.1c1.2,0.5,2.5,0.6,3.8,0.8
		c1.3,0.1,2.5,0.3,3.7,0.8c0.9,0.4,1.8,0.5,2.8,0.5c2.9,0,5.8,0.1,8.6,0c2.3,0,4.4,0.5,6.4,1.6c0.5,0.3,1.2,0.4,1.8,0.5
		c1,0.1,1.9-0.1,2.7-0.7c1.7-1.3,2.2-3,2-5.1c-0.3-1.8-2.2-3.6-3.9-3.7c-0.6,0-1.3-0.2-1.9-0.1c-4.8,0.5-9.6,0-14.4-0.1
		c-0.6,0-1.3-0.1-1.9-0.3c-2.9-1.4-6.3-1-9.2-2.4c-0.9-0.4-1.9-0.3-2.8-0.4c-5.1-0.4-10.2-0.2-15.3-0.4c-1.3,0-2.5-0.3-3.7-0.8
		c-1.5-0.7-3-1-4.6-1c-2.6-0.1-5.1-0.1-7.7-0.1c-1.3,0-2.5-0.3-3.7-0.7c-0.6-0.2-1.2-0.4-1.8-0.5c-1.9-0.3-3.8-0.5-5.7-0.7
		c-2.2-0.2-4.5-0.3-6.5-1.3c-1.3-0.1-2.5-0.3-3.8-0.4c-1.7-0.2-3-0.9-3.9-2.5c-0.5-0.9-0.5-1.8-0.1-2.7c1-2,2.9-3,4.6-2.5
		c0.6,0.2,1.2,0.3,1.8,0.6c1.4,0.7,2.9,1.4,4.3,2.2c1.1,0.6,2.4,0.9,3.7,1c1.6,0.1,3.2,0.3,4.8,0.4c2.4,1.1,5,0.9,7.5,0.9
		c1.6,0,3.2,0,4.8,0.2c2.2,0.2,4.5,0.4,6.5,1.4c1.2,0.5,2.5,0.6,3.8,0.6c2.6,0,5.1,0,7.7,0c1.6,0,3.2,0.2,4.8,0.3
		c0.6,0.1,1.3,0.2,1.8,0.4c2.1,0.9,4.3,1.3,6.5,1.3c3.2,0.1,6.4,0.2,9.6,0.2c1.3,0,2.5,0.3,3.7,0.8c1.5,0.6,3.2,0.7,4.5,1.4
		c3.1,1.6,6.1,1.6,9.2,0.3c0.6-0.2,1.2-0.1,1.8,0.2c0.6,0.3,1.2,0.5,1.7,0.9c0.5,0.3,1.1,0.7,1.5,1.2c1.2,1.9,2.5,3.8,2.5,6.1
		c0,0.6,0.1,1.3,0.2,1.9c0.2,1,0.7,1.8,1.3,2.5c0.7,0.7,1.5,1.3,2.4,1.3c4.2,0.1,8.3,0.1,12.5,0.1c2.9,0,5.8,0,8.6,0.1
		c1,0,1.9,0.3,2.8,0.6c2,0.8,2.2,0.7,3.4-0.2c0.5-0.4,1-0.8,1.5-1.2c0.9-0.9,1.6-2,1.7-3.3c0.1-1.3,0.5-2.5,1.3-3.5
		c0.2-0.2,0.4-0.5,0.6-0.7c0.8-0.9,2.5-1.1,3.5-0.5c0.8,0.5,1.6,1,2.2,1.8c1,1.6,2,3.3,3.1,4.8c0.8,1,1.8,1.8,3.2,1.9
		c0.6,0,1.3,0.2,1.9,0.1c3.2-0.1,6.4-0.1,9.6,0c2.1,0.1,4.9-1.1,5.2-4.5c0-0.3,0.1-0.6,0.2-0.9c0.3-1.3,1.2-2.2,2.2-3.1
		c1.4-1.2,3.9-1.2,5.2,0.1c0.9,0.9,1.7,1.9,2,3.2c0.2,0.9,0.2,1.9,0.8,2.8c0.7,1.1,1.7,2.1,3,2.2c4.5,0.4,8.9,0.4,13.4,0
		c1-0.1,1.8-0.6,2.6-1.2c1.2-1.1,2.3-2.2,3.5-3.3c0.8-0.8,2.7-0.7,3.5,0.1c0.7,0.7,1.3,1.4,2,2.1c0.5,0.4,1,0.8,1.5,1.2
		c1.4,1,3,1.2,4.6,0.9c1.9-0.3,3.7-1.1,5.4-1.9c2.3-1.1,4.5-2.4,6.8-3.5c1.1-0.6,2.2-1.2,3.5-1.5c1.8-0.5,3.7-1.1,5.5-1.6
		c0.6-0.1,1.3-0.1,1.9,0s1.2,0.3,1.8,0.6c1.8,0.7,3.7,1,5.6,1.1c1.9,0,3.8,0.1,5.8,0c0.9-0.1,1.9-0.2,2.8-0.6
		c1.8-0.8,3.5-1.5,5.5-1.7c0.6,0,1.3-0.1,1.9-0.4c3-1.5,6.2-1.5,9.4-1.5c3.2,0,6.4,0,9.6,0c1.9,0,3.8-0.2,5.6-1
		c1.8-0.8,3.8-0.6,5.6-1.3c2.8-1,5.6-1.3,8.5-1.2c2.9,0,5.8,0,8.6-0.1c1,0,1.8-0.6,2.4-1.4c1.1-1.3,1-2.2-0.3-3.2
		c-0.7-0.6-1.6-1.1-2.6-1.1c-2.5,0-5.1,0.1-7.7,0.1c-2.6,0-5.1,0-7.7,0c-0.6,0-1.3,0.1-1.9,0.2c-1.5,0.5-3,1.1-4.6,1.3
		c-1.3,0.1-2.5,0.4-3.7,0.8c-1.5,0.5-3,0.8-4.7,0.9c-5.8,0-11.5,0.2-17.3,0.2c-2.3,0-4.4,0.5-6.4,1.6c-0.8,0.4-1.8,0.6-2.8,0.7
		c-2.2,0.1-4.5,0.3-6.7,0.1c-4.5-0.3-9-0.2-13.4-0.2c-1.3,0-2.5,0.4-3.7,1c-2,1-4,2-5.9,3.1c-1.7,1-3.4,1.6-5.4,1.8
		c-0.9,0.1-1.8,0.7-2.7,0.9c-1,0.2-1.9,0-2.7-0.5c-1.1-0.6-2.1-1.4-2.8-2.5c-0.5-0.8-0.9-1.7-1.5-2.5c-0.6-0.8-1.4-1.2-2.4-1.4
		c-0.6-0.1-1.3-0.2-1.9-0.2c-2.1,0.1-3.7,1-4.5,3c-0.3,0.6-0.4,1.2-0.7,1.8c-0.3,0.6-0.7,1-1.1,1.5c-0.6,0.8-1.5,1.3-2.4,1.4
		c-0.9,0.1-1.9,0.2-2.8,0.1c-1.3-0.2-2.4-0.8-2.9-2.2c-0.3-0.9-0.5-1.8-0.8-2.7c-0.6-1.7-2.4-2.8-3.6-2.7c-0.6,0-1.3-0.1-1.9-0.1
		c-4.2,0.4-8.3,0.2-12.5-0.1c-1-0.1-1.9,0.1-2.8,0.4c-0.3,0.1-0.6,0.3-0.8,0.6c-1.2,1.5-1.8,3.4-2.8,5c-0.9,1.7-3.4,2.2-5,1.1
		c-0.5-0.4-1.1-0.7-1.5-1.1c-1.3-1.4-2.5-2.9-3.8-4.3c-1.1-1.2-2.5-2.1-3.9-2.8c-0.5-0.3-1.2-0.5-1.8-0.6c-2.5-0.5-5.1-0.5-7.6-0.4
		c-1.3,0-2.6,1.1-2.7,2.2c-0.1,1.3-0.2,2.5-0.4,3.8c-0.3,1.7-1.4,2.8-2.9,3.5c-0.3,0.1-0.6,0.2-0.9,0.3c-1.3,0.2-2.5,0.3-3.8,0
		c-1.5-0.3-2.2-1.6-1.5-2.8c0.3-0.5,0.8-1,1.1-1.5c0.5-0.8,1-1.6,1.5-2.4c-0.3-1.3-0.9-2.4-1.6-3.4c-0.2-0.2-0.5-0.5-0.8-0.6
		c-0.6-0.2-1.2-0.5-1.8-0.6c-1.3-0.1-2.5-0.2-3.8-0.1c-1.7,0.1-3,0.9-3.9,2.4c-0.7,1.1-0.7,3.4,0.1,4.6c0.7,1.1,1.8,1.8,2.2,3.1
		c0.2,0.6-0.1,1.1-0.9,1.3c-1.2,0.3-2.5,0.4-3.8,0.1c-1.7-0.3-3.7-2.2-4-3.7c-0.2-0.9-0.4-1.9-0.4-2.8c0-2-0.9-3.7-1.8-5.4
		c-0.4-0.8-1.3-1.3-2.3-1.4c-1.3-0.2-2.5,0-3.8,0.1c-1.6,0.1-3.2,0.2-4.8,0.2c-2.2,0-4.4-0.3-6.5-1.3c-0.8-0.4-1.8-0.6-2.8-0.7
		c-2.5-0.3-5.1-0.2-7.5-1.3c-0.8-0.4-1.9-0.3-2.8-0.3c-1.9-0.1-3.8-0.2-5.7-0.4c-1-0.1-2-0.2-2.8-0.5c-2.4-1.1-4.9-1.3-7.5-1.3
		c-2.6,0-5.1-0.1-7.7-0.3c-0.9-0.1-1.9-0.3-2.8-0.7c-1.5-0.6-3-0.9-4.6-1.1c-2.2-0.2-4.5-0.1-6.6-0.8c-1.8-0.7-3.7-0.9-5.6-1
		c-0.6,0-1.3-0.1-1.9-0.1c-7.6-0.2-6.5,0-13.6-3.6c-0.6-0.3-1.2-0.5-1.8-0.8c-1.2-0.6-2.3-1-3.7-0.9c-1.3,0-2.6,0-3.8-0.1
		c-1.3-0.1-2.6-0.3-3.7-0.8c-2.1-0.9-4.3-1.3-6.5-1.4c-1.9-0.1-3.8-0.1-5.8,0c-1.6,0.1-3.2,0.1-4.8,0c-1-0.1-1.9-0.4-2.7-1
		c-1.2-1-2.4-2.1-3.7-3.1c-1-0.8-2.1-1.4-3.5-1.4c-1,0-1.9,0-2.9-0.1c-1.3,0-2.6-0.3-3.7-1c-1.7-1.1-3.5-1.5-5.5-1.4
		c-3.5,0.1-7,0.2-10.5,0.2c-1.3,0-2.5-0.4-3.5-1.3c-1.2-1-2.3-2.2-3.1-3.6c-0.3-0.6-0.3-1.2,0-1.8c0.4-0.6,1-0.8,1.7-0.6
		c2.1,0.6,4.2,1.3,6.5,1.2c1.3,0,2.6,0.1,3.8,0.1c1.6,0.1,3.1,0.4,4.6,1.1c0.8,0.4,1.8,0.6,2.8,0.8c1.2,0.2,2.5,0.4,3.8,0.6
		c2,1.1,4.3,1.2,6.3,2.3c1.4,0.8,3,1.1,4.6,1.3c0.6,0,1.3,0,1.9,0.2c4.9,2,10,1.6,15.1,1.6c2.9,0,5.8-0.3,8.6-0.3
		c1.9,0,2.7,0.5,4,2.2c0.6,0.8,1,1.7,1.6,2.4c0.4,0.4,1,0.8,1.6,1c0.6,0.2,1.2,0.3,1.9,0.3c1.6,0,3.2-0.1,4.8,0
		c1.6,0,3.2,0.3,4.6,1.1c1.1,0.6,2.4,0.8,3.7,0.9c2.9,0.1,5.8,0.1,8.5-1.2c1.3-0.6,2.5-0.2,3.6,0.4c1.7,0.9,3.3,2,4.8,3.1
		c1,0.8,2.2,1.2,3.6,1.2c2.6,0,5.1,0,7.7,0c2.6,0.1,5.1,0.2,7.7,0.3c1.6,0.1,3.1,0.4,4.6,1.1c0.9,0.4,1.8,0.6,2.8,0.7
		c2.5,0.2,5.1,0.3,7.7,0.3c2,0,3.8,0.3,5.6,1.1c0.9,0.4,1.8,0.6,2.8,0.7c5.9,0.8,5.9,0.8,13,3.2c0.9,0.3,1.9,0.5,2.8,0.6
		c1,0.1,1.9,0.1,2.9,0.1c3.2,0,6.4-0.1,9.6,0c2.3,0.1,4.4-0.5,6.5-1.4c0.6-0.3,1.3-0.2,1.8,0.2c0.8,0.6,1.6,1.1,2.3,1.7
		c1.6,1.4,3.4,1.7,5.3,1.3c0.8-0.2,1.9-1,2.1-1.7c0.1-0.3,0.2-0.6,0.2-0.9c0.3-2.6,0-5.1-0.6-7.6c-1.1-2.1-1.1-4.3-1.1-6.6
		c0-0.6-0.1-1.3-0.2-1.9c-0.2-1.6-2.2-3.8-3.8-3.9c-1-0.1-1.9-0.2-2.9-0.2c-4.5,0-9,0.1-13.4,0c-1.9,0-3.9,0-5.7-0.7
		c-2.1-0.9-4.2-1.3-6.5-1.6c-0.6-0.1-1.3-0.3-1.8-0.6c-2-1.1-4.3-1.1-6.4-2c-0.8-0.4-1.8-0.5-2.8-0.5c-2.2-0.2-4.5-0.2-6.7-0.4
		c-0.9-0.1-2-0.2-2.8-0.6c-2.4-1.1-4.9-1.4-7.5-1.4c-1.9,0-3.8-0.1-5.6-0.8c-0.6-0.2-1.2-0.3-1.9-0.4c-1.3-0.1-2.5-0.2-3.8-0.2
		c-3.6-0.2-6.8-1.6-9.7-3.8c-1.5-1.2-3.1-2.2-4.9-3c-0.9-0.4-1.8-0.8-2.7-0.8c-2.9,0-5.8,0-8.6,0c-1,0-1.9,0.4-2.8,0.8
		c-0.6,0.2-1.2,0.5-1.9,0.3c-2.1-0.6-4.3-1.2-5.9-3c-0.4-0.5-0.9-1-1.3-1.4c-0.5-0.4-0.9-0.9-1.4-1.3c-0.7-0.7-1.6-1.2-2.5-1.3
		c-3.3-0.5-6.1-1.8-8.6-4c-0.5-0.4-1.1-0.7-1.6-1.1c-0.9-0.6-1.8-0.5-2.7-0.2c-0.6,0.2-1.2,0.5-1.8,0.8c-1.2,0.6-2.2,1.3-2.8,2.5
		c-0.6,1.2-1.4,2.1-2.5,2.9c-1.1,0.9-2.3,1-3.6,0.5c-0.3-0.1-0.7-0.5-0.7-0.6c0.3-1.5,1-3,1-4.6c0-1.3,0.1-2.5,0.2-3.8
		c0.1-1.3,1.2-2.3,2.4-2.5c0.3,0,0.6-0.1,0.9-0.1c2.9-0.1,5.8,0.1,8.4,1.6c0.5,0.3,1.2,0.5,1.8,0.5c2.6,0.1,5,1,7.4,1.9
		c1.8,0.7,3.3,1.9,5.3,2.2c1.6,0.2,3,1.1,4.5,1.5c1.9,0.4,3.6,1.5,5.4,1.8c1.9,0.4,3.8,0.4,5.7,0.5c1.6,0.1,3.2,0.5,4.6,1.2
		c0.3,0.1,0.6,0.3,0.9,0.3c1.9,0.5,3.8,0.4,5.6,1.2c1.5,0.6,3.1,0.9,4.7,1.1c1.3,0.2,2.5,0.6,3.7,1c2.4,0.9,5,1.1,7.3,2.3
		c2.2,0.2,4.5,0.5,6.7,0.6c1.3,0.1,2.5,0.6,3.7,1.1c2.1,0.7,4.3,1.3,6.4,1.9c0.6,0.2,1.3,0.2,1.9,0.2c1.6,0.1,3.2,0.2,4.8,0.3
		c1.3,0.1,2.5,0.5,3.6,1.1c1.1,0.6,2.4,0.9,3.7,0.9c1.9,0,3.8,0.1,5.8,0.1c1.3,0,2.5,0.2,3.7,0.8c1.5,0.7,3,1.1,4.6,1.2
		c1.3,0.1,2.6,0.2,3.8,0.1c2.7-0.2,5,0.7,7.4,1.6c1.2,0.5,2.2,1.2,3.5,1.4c0.3,0,0.7,0,0.9-0.1c2-0.8,3.3-3.4,2.7-5.5
		c-0.4-1.3-2.3-3-3.4-3c-3.8,0-7.7-0.1-11.5-0.5c-2.5-0.2-5-0.5-7.5-1.5c-2.1-0.8-4.4-0.6-6.5-1.6c-0.9-0.4-1.9-0.3-2.8-0.4
		c-1.6-0.1-3.2-0.2-4.8-0.3c-0.6-0.1-1.3-0.1-1.9-0.4c-2.3-1.4-4.9-1.3-7.4-1.9c-2.2-0.5-4.3-1.2-6.5-1.6c-1.9-0.3-3.7-1.1-5.5-1.5
		c-1.9-0.4-3.8-0.6-5.5-1.5c-0.8-0.4-1.8-0.5-2.8-0.7c-0.9-0.2-1.9-0.3-2.9-0.4c-3.1-1.8-6.9-1.4-10.1-2.9c-1.9-0.3-3.8-0.7-5.6-1.1
		c-2-1.1-4.2-1.4-6.5-1.6c-1-0.1-1.8-0.5-2.8-0.8c-0.9-0.3-1.8-0.8-2.7-0.8c-2-0.2-3.7-1-5.4-1.7c-1.7-0.8-3.4-1.8-5.3-2.1
		c-1.6-0.2-3.1-0.8-4.5-1.4c-0.9-0.4-1.8-0.6-2.8-0.7c-1.6-0.2-3.1-0.5-4.6-1.3c-1.4-0.7-3.1-0.7-4.5-1.5c-2.4-1.3-4.9-1.2-7.5-0.9
		c-1.2,0.1-2.5,1.2-2.7,2.4c-0.2,0.9-0.3,1.9-0.4,2.8c-0.2,1.3-1.3,2.4-2.5,2.5c-0.3,0-0.6,0.1-1,0.1c-1.9,0-3.8-0.2-5.6-1.1
		c-1.1-0.6-2.4-0.9-3.7-0.9c-2.6,0-5.1-0.1-7.7,0c-3.7,0-6-2-7.4-5.1c-0.4-0.8-0.3-1.9-0.4-2.8C537.7,699.3,537.5,699.6,537.5,699.6
		z M821.6,799.4c0,0,0-0.1,0-0.1c1.9,0,3.8,0.1,5.8,0c0.9,0,2-0.1,2.8-0.6c2-1.1,4.3-1.3,6.3-2.1c1.8-0.7,3.7-1.1,5.6-1.3
		c1.9-0.2,3.8-0.4,5.7-0.6c2.4-1.1,5-1,7.5-1.4c0.9-0.1,1.9-0.4,2.8-0.8c1.5-0.6,3-0.9,4.6-1c1.6-0.1,3.2,0,4.7-0.7
		c2.1-1,4.3-1.3,6.5-1.4c2-0.1,3.7-0.9,5.3-2c0.5-0.4,1-0.8,1.6-1.1c0.8-0.5,1.7-0.8,2.7-0.7c1.9,0.1,3.8,0.3,5.7,0.3
		c0.6,0,1.3-0.1,1.9-0.3c0.9-0.3,1.6-0.9,1.9-1.9c0.4-1.8-0.5-3.3-2.1-3.5c-0.6-0.1-1.3-0.1-1.9-0.1c-1.3,0-2.5,0.4-3.5,1.2
		c-0.7,0.6-1.5,1.2-2.2,1.9c-0.8,0.7-1.8,0.7-2.7,0.4c-0.6-0.1-1.2-0.4-1.8-0.7c-1.2-0.5-2.5-0.4-3.8-0.2c-2.3,1.1-5,1.1-7.3,2.3
		c-0.9,0.4-1.8,0.7-2.8,0.7c-2.2,0.1-4.5,0.2-6.7,0.3c-2.3,0.1-4.4,0.4-6.5,1.4c-0.8,0.4-1.8,0.5-2.8,0.6c-2.2,0.1-4.5,0.1-6.7,0.2
		c-0.9,0.1-1.9,0.3-2.8,0.6c-1.2,0.4-2.4,0.7-3.7,0.8c-2.3,0-4.4,0.5-6.5,1.5c-0.8,0.4-1.8,0.6-2.7,0.8c-2.2,0.3-4.4,0.4-6.7,0.2
		c-5.7-0.4-11.5-0.5-17.2-0.4c-1.6,0-3.1,0.5-4.5,1.3c-1.3,0.9-2.7,1.7-3.9,2.8c-2,1.7-4.3,2.7-6.8,3.4c-0.6,0.2-1.3,0.1-1.9,0
		c-1.2-0.3-2.4-1-3.6-1.2c-2.5-0.5-5.1-0.7-7.6-0.6c-1.6,0.1-3.2,0.3-4.6,1.1c-1.4,0.8-3,1.1-4.6,1.2c-1.6,0.1-3.2,0.1-4.8,0
		c-1.6,0-3.1,0.4-4.6,1.1c-0.9,0.4-1.8,0.5-2.8,0.7c-0.6,0.1-1.3,0-1.9-0.2c-0.6-0.2-1.2-0.4-1.6-1c-0.7-1.1-1.2-2.2-1.9-3.3
		c-1.5-2.2-3.8-3.2-5.7-2.5c-1.8,0.7-3.7,1-5.6,1.3c-2.2,0.4-4.7,1.6-6.9,3.2c-0.8,0.5-1.6,1.1-2.4,1.6c-0.2,0.1-0.6,0-0.9-0.1
		c-0.6-0.3-1.2-0.5-1.6-0.9c-1.4-1.3-2.4-3-3.9-4.2c-1.1-0.8-2.2-1.2-3.5-1.2c-0.6,0-1.3,0-1.9,0.3c-2.8,1.3-5.6,1.1-8.3-0.4
		c-0.3-0.2-0.6-0.2-0.9-0.2s-0.6-0.1-0.9-0.1c-2.8-0.4-4.3,0.9-5.3,3.1c-0.4,0.9-0.2,1.9,0.4,2.7c0.9,1.5,2.3,2.1,4,2.1
		c1.6-0.1,3.2-0.2,4.8-0.4c1.3-0.1,2.6-0.1,3.8,0.4c2.4,1.1,4.9,1.2,7.4,2c0.9,0.3,1.6,1,1.7,2c0.1,1,0.2,1.9,0.4,2.8
		c0.2,1.3,1.2,2.3,2.4,2.5c1.6,0.3,3.2,0.2,4.7-0.3c0.6-0.2,1.2-0.4,1.6-1c1-1.6,2-3.3,3.4-4.7c1.4-1.4,3.1-2.1,5.2-2.1
		c0.3,0,0.6,0,1,0.1c1.3,0.2,2.4,0.7,2.9,2.1c0.6,1.5,1.2,3,2,4.3c0.5,0.8,1.4,1.2,2.4,1.3c1.6,0.1,3.2-0.1,4.6-0.9
		c1.1-0.6,2.3-1,3.6-1.1c1.6-0.1,3.2,0,4.8-0.1c5.9-0.2,6.3-0.3,12.2-2.3c0.3-0.1,0.6-0.3,0.9-0.4c1.2-0.6,2.4-0.8,3.7-0.8
		c4.2,0,8.3,0,12.5,0c1.3,0,2.5-0.1,3.8-0.2c1-0.1,1.9-0.4,2.6-1c1.7-1.5,3.2-3.1,5-4.5c1.5-1.2,3.2-2,5.2-2c2.3,0,4.4,0.2,6.5,1.1
		c0.9,0.4,1.9,0.5,2.8,0.6C817.7,799.3,819.7,799.3,821.6,799.4z M912.4,761.1c-0.1-1.7-0.2-3.6-0.3-5.5c0-0.3,0-0.7-0.2-0.9
		c-0.4-0.5-0.9-0.9-1.3-1.3c-4.8-0.5-9.6-0.4-14.3-0.4c-4.8,0.1-9.6,0.1-14.4,0.1c-8.6,0-17.2,0-25.9,0c-2.9,0-5.8,0.1-8.4,1.5
		c-2.8,0.5-5.7,0.8-8.5-0.3c-1.5-0.6-3-1-4.6-1c-3.8-0.1-7.7-0.1-11.5,0c-0.9,0-1.9,0.4-2.7,1c-0.8,0.6-1.5,1.1-2.3,1.7
		c-1.3,1-2.9,1.3-4.5,1.1c-1-0.1-1.9-0.3-2.7-0.9c-0.8-0.6-1.5-1.2-2.3-1.8c-0.8-0.6-1.6-1-2.6-1.2c-0.9-0.1-1.9-0.3-2.8-0.7
		c-2.4-0.9-4.9-1.3-7.2-2.5c-0.3-0.1-0.6-0.1-0.9-0.2c-1.2-0.3-3.4,1.1-3.7,2.5c-0.1,0.6-0.3,1.2-0.3,1.9c0,1.6,0.1,3.2,0,4.8
		c0,1-0.7,1.7-1.4,2.4c-1.6,1.3-3.4,1.8-5.4,1.1c-2.2-0.8-3.7-2.5-4.3-4.8c-0.3-0.9-0.2-1.9-0.4-2.8c-0.5-1.7-1.6-2.7-3.3-3.2
		c-1.8-0.5-3.8-0.7-5.7-0.5c-1.7,0.1-3,0.9-3.9,2.4c-0.5,0.8-0.5,1.8-0.5,2.8c0.1,1.3,1.1,2.4,2.4,2.5c1.6,0.1,3.2,0.2,4.8,0.4
		c1.7,0.2,3.5,2.1,3.8,3.8c0,0.3,0.1,0.6,0.1,1c0,0.6,0,1.3,0.1,1.9c0.3,2.2,1.3,2.9,3,3c3.8,0.2,7.6,0.2,11.5,0
		c0.3,0,0.6-0.2,0.9-0.3c0.8-0.2,1.6-1.2,1.7-2.1c0.1-1.9,0.2-3.8,0.3-5.7c0-0.6,0.5-1.2,1.1-1.5c1.1-0.6,2.4-0.8,3.7-0.6
		c1,0.1,1.9,0.4,2.6,1c1,0.8,1.8,1.8,2.8,2.5c1.8,1.3,3.8,2.3,6.2,2.3c1,0,1.9,0,2.9,0c1.6,0,3.1-0.4,4.6-1c1.2-0.5,2.4-0.8,3.5-1.5
		c1.9-1.2,4.2-1.4,6.3-2.1c0.2-0.1,0.6,0.1,0.9,0.2c1.2,0.4,2.5,0.6,3.8,0.7c5.7,0.3,11.5,0.3,17.2,0c0.3,0,0.6,0,1-0.1
		c0.9-0.2,1.9-0.3,2.8-0.7c1.5-0.6,3-1,4.6-1.1c8-0.1,16-0.5,23.9-0.4c3.8,0.1,7.7,0,11.5,0c1.9,0,3.8-0.3,5.6-0.9
		c0.9-0.3,1.9-0.4,2.8-0.2c2.2,0.4,4.9,3.1,5.1,5.2c0.1,1.6,0.1,3.2,0.1,4.8c0,1.7-0.8,3.1-1.9,4.2c-1.1,1.1-2.4,2.1-3.8,2.8
		c-0.9,0.4-1.6,1-2.2,1.7c-0.6,0.7-0.7,1.6,0,2.5c0.4,0.6,0.8,1,1.5,1.1c1.9,0.5,3.8,0.4,5.7,0c0.9-0.2,2.4-1.7,2.6-2.6
		c0.2-0.6,0.4-1.2,0.4-1.9c0.1-1.9,0.4-3.8,1.3-5.5c0.4-0.8,0.7-1.8,0.8-2.7C912.3,765.2,912.3,763.2,912.4,761.1z M948.6,762.9
		c0-0.6,0-1.3-0.1-1.9s-0.3-1.3-0.7-1.8c-0.8-1-1.7-1.9-2.5-2.9c-0.4-0.5-0.7-1.1-0.7-1.8c-0.1-1.3-0.1-2.6-0.3-3.8
		c-0.4-2.1-2.3-4-4.9-3.3c-0.7,0.2-1.2,0.5-1.5,1.1c-0.7,1.2-0.7,2.4,0,3.6c0.5,0.8,1.1,1.6,1.7,2.3c0.9,1,1.4,2.1,1.5,3.4
		c0.1,1.6,0,3.2,0.2,4.8c0.1,0.9,0.6,1.8,1.3,2.5c1,0.9,2.1,1.4,3.5,1.2c0.8-0.1,2-0.8,2.2-1.6C948.4,764.2,948.4,763.5,948.6,762.9
		z M955.6,742.1c-2.3-0.1-3.4,0.9-3.5,3.3c0,0.6,0.1,1.2,0.2,1.9c0.2,0.9,1,1.8,1.8,1.9c1.2,0.1,2.5,0.2,3.8,0.4
		c1,0.1,1.8,0.4,2.6,1.1c1.2,1,2.3,2.1,3.5,3.2c1.8,1.6,4.9,1.8,6.6-0.6c0.6-0.9,0.7-2.7,0.1-3.6c-0.7-1.1-1.7-1.9-3-2
		c-1.6-0.1-3.2,0-4.7-0.1c-1-0.1-1.9-0.4-2.6-1.1c-1.1-1.1-2.1-2.3-3.1-3.5C956.8,742.3,956.3,742.1,955.6,742.1z M1058,695.1
		c-1.3,0.1-2.5,0.2-3.8,0.3c-0.9,0.1-1.6,0.8-1.9,1.8c-0.4,1.6,0.6,3.4,2.1,3.7c2.5,0.6,5,0.7,7.5,0.7c1,0,1.8-0.4,2.5-1.1
		c0.8-0.7,0.8-1.6,0.8-2.6c0-0.8-0.9-1.9-1.6-2.1c-0.3-0.1-0.6-0.2-0.9-0.3C1061.1,695.4,1059.5,695.3,1058,695.1z M925.7,772.4
		c0.5,0,1.7-0.2,2.9-0.3c1.2-0.1,2.3-1.2,2.6-2.3c0.3-1.2,0.3-2.5,0-3.7c-0.3-1.3-2.5-2.7-3.6-2.3c-1.2,0.4-2.4,0.8-3.5,1.3
		c-1.2,0.5-2,1.5-2.4,2.7C921.1,770.3,922.5,772.3,925.7,772.4z M979.4,742.2c-0.1,1.9,0.4,2.9,1.8,4.1c0.9,0.8,2.5,0.8,3.5,0.1
		c0.3-0.2,0.5-0.4,0.8-0.6c1.9-1.6,2.3-4.6,0.9-6.8c-0.2-0.2-0.4-0.5-0.7-0.6C983.1,737.1,979.5,739.3,979.4,742.2z M929.3,751.8
		c-0.1-0.6-0.2-1.2-0.2-1.9c-0.1-1.1-0.8-1.7-1.8-2c-1.2-0.5-2.5-0.5-3.8-0.2c-0.9,0.2-1.6,0.9-1.9,1.9c-0.4,1.3-0.4,2.5,0.1,3.7
		c0.3,0.9,1,1.6,2,1.7c0.3,0,0.6,0.2,0.9,0.2c0.3,0,0.6,0,1,0C928,755.1,929.2,754,929.3,751.8z M889.6,772.3c2.1,0,3.4-0.8,4.2-2.3
		c0.5-0.9,0.5-1.8,0.1-2.7c-0.3-0.6-0.6-1.1-1.1-1.6c-1.5-1.5-4.7-1.4-5.6,0.9c-0.4,0.9-0.5,1.8-0.5,2.8
		C886.9,771,888.4,772.3,889.6,772.3z"/>
	<path class="st1" d="M679.7,818.6c0,0.6,0,1.3-0.1,1.9c-0.1,1.3-1.8,3-3.1,3.3c-0.3,0.1-0.6,0.1-0.9,0.1c-1.9,0.2-3.8,0.2-5.6-0.8
		c-1.4-0.8-3.1-0.7-4.6-1.3c-1.2-0.5-2.4-0.6-3.6-0.1c-1.8,0.7-3.8,0.7-5.7,0.6c-1-0.1-1.9-0.3-2.8-0.7c-1.2-0.5-2.4-0.8-3.7-0.8
		c-1.3,0-2.6,0-3.8,0c-2.2-0.1-4.4-0.4-6.5-1.5c-1.1-0.6-2.4-0.8-3.7-0.7c-3.5,0-7,0.2-10.5,0.2c-4.8,0-9.6-0.2-14.4-0.2
		c-1.3,0-2.5-0.3-3.7-0.8c-2.4-1-4.9-1.3-7.5-1.4c-2.2-0.1-4.5-0.1-6.7,0c-2.3,0.1-4.4-0.2-6.6-1.1c-0.9-0.3-1.9-0.3-2.8-0.4
		c-1-0.1-1.9-0.2-2.8-0.7c-2-1.2-4.2-1.4-6.5-1.5c-2.6-0.1-5.1,0-7.7-0.1c-0.6,0-1.3,0-1.9-0.2c-3-1.3-6.3-1.1-9.4-1.8
		c-2.2-0.4-4.1-1.6-6.5-1.5c-1.9,0.1-3.8-0.1-5.7-0.3c-1-0.1-1.9-0.2-2.8-0.6c-1.8-0.8-3.7-1-5.6-1c-2.6,0-5-0.4-7.4-1.5
		c-2-1-4.2-1.5-6.4-2c-1.5-0.3-3.2-0.1-4.7-0.7c-0.3-0.1-0.5-0.4-0.7-0.6c-0.5-0.8-0.2-2,0.5-2.5c1.4-0.9,2.9-1.1,4.6-0.7
		c1.6,0.4,2.8,1.5,4.4,1.8c2.2,0.4,4.4,0.8,6.5,1.6c1.2,0.5,2.5,0.4,3.8,0.6c1.3,0.2,2.6,0.1,3.8,0.6c1.5,0.6,3.1,0.8,4.7,0.9
		c1.9,0.1,3.8,0.3,5.7,0.4c1.3,0.1,2.5,0.4,3.7,0.9c1.5,0.6,3.1,0.7,4.7,0.7c3.2,0.1,6.4,0,9.6,0.1c1.9,0.1,3.9-0.1,5.7,0.7
		c3,1.3,6.2,1.3,9.4,1.4c3.8,0.1,7.7,0,11.5,0c1.9,0,3.8,0.3,5.6,1c1.2,0.4,2.5,0.6,3.7,0.7c2.2,0.2,4.5,0.4,6.7,0.5
		c1,0,1.9,0.3,2.8,0.7c1.2,0.5,2.5,0.6,3.8,0.6c5.4,0,10.9,0,16.3,0c1.9,0,3.8-0.1,5.8,0c3.2,0.2,6.4,0.2,9.4,1.5
		c0.9,0.4,1.9,0.3,2.8,0.3c4.8,0,9.6,0,14.4,0c3.2,0,6.4,0,9.6,0.1c1,0,1.9,0.3,2.8,0.4c0.9,0.2,1.8,1,2,1.9
		C679.5,817.3,679.6,817.9,679.7,818.6z"/>
	<path class="st1" d="M607.4,735.9c2.6-0.2,5.2-0.5,7.7-0.1c1,0.1,1.9,0.3,2.7,0.9c1,0.8,2,1.6,3,2.4c0.7,0.6,1.5,1.2,2.3,1.8
		c0.5,0.3,1.1,0.6,1.8,0.7c4.1,0.7,8.3,0.5,12.4,0.5c1.6,0,3.1,0.3,4.7,0.9c0.9,0.3,1.8,0.5,2.8,0.6c0.9,0.2,2,0.1,2.8,0.5
		c2.4,1.2,4.9,1.2,7.5,1.3c1.9,0,3.8,0.2,5.7,0.3c0.6,0,1.3,0,1.9,0.3c2.3,1.2,5,1.2,7.2,2.3c2,1,4.3,1.1,6.3,2
		c0.6,0.3,1.2,0.4,1.8,0.4c3.5,0,7,0.6,10.5,0.3c1.9-0.2,3.8-0.2,5.7-0.1c2.3,0.2,4.4,2.1,4.8,4.1c0.1,0.7,0,1.2-0.1,1.9
		c-0.3,1.7-2.5,2.6-3.7,2.1c-0.6-0.2-1.2-0.4-1.8-0.7c-1.5-0.8-3-1-4.6-1.1c-1.3-0.1-2.5,0-3.8,0.1c-2.5,0.2-5.1,0-7.6-0.2
		c-1.3-0.1-2.5-0.4-3.7-1c-1.2-0.6-2.4-0.8-3.7-1c-0.9-0.1-1.9-0.2-2.8-0.6c-2.1-1-4.2-1.5-6.5-1.6c-2.3,0-4.3-1-6.5-1.3
		c-2.2-0.3-4.4-0.3-6.7-0.5c-0.6-0.1-1.3-0.3-1.8-0.5c-1.8-0.9-3.7-1.1-5.6-1.2c-1.9-0.1-3.8,0-5.7,0c-2.5-0.1-5.1,0-7.6-0.3
		c-3.2-0.4-6.2-1.4-8.5-3.9c-0.9-0.9-1.8-1.8-2.7-2.7c-0.5-0.5-1.1-0.6-1.7-0.8c-2.2-0.5-4.5-0.4-6.5,0.7c-1.7,0.9-3.5,1.5-5.5,1.4
		c-2.2-0.1-4.5-0.1-6.7-0.2c-0.9,0-1.9-0.2-2.8-0.5c-1.3-0.4-2-1.5-2.5-2.7c-0.1-0.3-0.1-0.7,0-1c0.5-1.6,1.4-2.9,2.7-3.8
		c0.8-0.5,1.5-1.1,2.6-0.5c0.8,0.5,1.8,0.6,2.7,0.8C601.2,736.4,604.4,736.2,607.4,735.9z"/>
	<path class="st1" d="M510.7,714.7c0.1-2.2,0-4.2,0.2-6c0.2-1.3,0.9-2.4,2.2-2.9c0.6-0.2,1.2-0.2,1.7,0.3c0.9,0.9,1.6,2,1.6,3.3
		c0,1.9-0.2,3.8-0.1,5.7c0,1.3,0.2,2.6,0.6,3.8c0.3,1.2,1.1,2.3,2.2,3c0.3,0.2,0.5,0.4,0.8,0.5c1.3,0.2,2.5,0.3,3.8,0.5
		c2.2,0.3,4.2,1.3,6.5,1.3c2.2-0.1,4.5,0,6.7,0c1,0,1.9,0,2.8,0.2c0.9,0.2,1.8,0.6,2.4,1.4c0.4,0.5,0.8,1,1,1.6
		c0.2,0.6,0.2,1.3,0,1.8c-0.3,0.6-1,0.8-1.6,0.8c-2.2,0-4.5-0.1-6.7-0.2c-1,0-1.9-0.3-2.8-0.7c-1.2-0.5-2.5-0.6-3.7-0.7
		c-1.9-0.1-3.7-0.8-5.4-1.7c-1.1-0.6-2.2-1.3-3.3-1.9c-0.5-0.3-1.2-0.5-1.8-0.5c-2-0.1-3.7-1-5.3-2c-0.9-0.5-1.5-1.2-1.5-2.2
		C510.8,718.2,510.7,716.3,510.7,714.7z"/>
	<path class="st1" d="M568,737.7c-1.9,0-3.8,0-5.6-0.8c-0.9-0.4-1.8-0.7-2.7-0.8c-3.2-0.3-6.1-1.8-9.2-2.4c-0.9-0.2-1.6-1-2.2-1.8
		c-0.2-0.2-0.4-0.6-0.3-0.8c0.1-0.2,0.5-0.4,0.8-0.5c1.9-0.4,3.8-0.4,5.6,0.3c1.2,0.5,2.4,1,3.7,1c5.1,0,10.2,0,15.3-0.1
		c1,0,1.8-0.6,2.6-1.2c1.5-1.1,2.7-2.7,4.4-3.7c1.1-0.7,3.3-0.7,4.5,0.2c0.3,0.2,0.5,0.4,0.8,0.6c0.4,0.5,0.8,1,1.2,1.5
		c-0.1,1-0.5,1.8-1.2,2.5c-1.2,1.1-2.4,2.1-3.7,3c-0.8,0.6-1.6,1-2.6,1.1c-1.3,0.1-2.5,0.2-3.8,0.4c-1.3,0.1-2.5,0.4-3.7,1
		C570.6,737.5,569.3,737.6,568,737.7z"/>
	<path class="st1" d="M537.7,699.3c-0.6,0-1.3,0-1.9-0.1c-1.5-0.2-2.2-1.5-1.3-2.8c1.1-1.7,1.6-3.4,1.1-5.4
		c-0.2-0.6-0.3-1.2-0.6-1.8c-0.2-0.6-0.6-1.1-0.8-1.7c-0.4-0.9,0.5-1.7,1.7-1.5c0.3,0,0.6,0,1,0.1c2.2,0.4,4.1,1.8,6.4,1.9
		c2.6,0.1,4.8,1.6,7.3,2.1c2.2,0.5,4.1,1.6,6.3,2.1c0.8,0.2,1.6,1.7,1.2,2.3c-0.4,0.6-1,0.8-1.6,0.9c-0.6,0-1.3,0.1-1.9,0
		c-0.3,0-0.6-0.1-0.9-0.2c-2.3-1.2-4.9-1.5-7.2-2.6c-1.8-0.9-3.7-0.7-5.5,0.2c-0.6,0.3-1.1,0.6-1.7,1c-1.9,1.1-1.7,1.2-1.9,3
		c-0.1,1-0.1,1.9-0.1,2.9C537.5,699.6,537.7,699.3,537.7,699.3z"/>
	<path class="st1" d="M507.1,688.4c0-0.3,0.1-1.3,1-1.8c0.5-0.4,1.9,0.1,2.4,1c0.7,1.1,1.6,1.9,2.8,2.5c1.7,0.9,3.4,1.6,5.4,1.7
		c0.9,0.1,1.9,0.3,2.8,0.6c2.6,1.1,5.3,2.2,7.5,3.9c0.5,0.4,0.7,1,0.5,1.7c-0.2,0.6-0.5,1.1-1.2,1.3c-1.2,0.4-2.5,0.5-3.6-0.2
		c-1.1-0.7-2.2-1.3-3.3-1.9c-1.4-0.8-2.8-1.3-4.5-1.3c-1.6,0-3.2-0.1-4.8,0c-2.8,0-4.8-2.5-5-4.8C507,690.3,507.1,689.7,507.1,688.4
		z"/>
	<path class="st1" d="M481.6,690.7c-1.2-0.6-2.5-0.7-3.8-0.7c-3.2-0.1-6.4,0-9.5-0.1c-2.6-0.1-5,0.4-7.4,1.5
		c-0.6,0.3-1.2,0.3-1.9,0.1c-0.7-0.2-1.2-0.5-1.2-1c0-0.3,0.2-0.6,0.4-0.8c0.4-0.4,0.9-0.9,1.5-1.2c1.1-0.6,2.6-0.4,3.7-0.9
		c2.3-1.1,4.8-1.7,7.3-2.1c0.9-0.1,1.8-0.6,2.7-0.8c0.6-0.1,1.3-0.1,1.8,0.1c2.1,1.1,4.4,0.7,6.5,1.4c1.3,0.5,2,1.5,2.1,2.8
		c0.1,0.7-0.1,1.3-0.6,1.7C482.8,691.1,482.2,691.1,481.6,690.7z"/>
	<path class="st1" d="M497.2,710c0-1.6-0.1-3.2-0.1-4.7c-0.1-1.6-0.4-3.1-1-4.6c-0.4-0.9-0.5-1.8-0.4-2.8c0.1-0.7,0.2-1.2,0.8-1.6
		c0.2-0.1,0.6,0.1,0.9,0.2c2.3,1.3,3.8,3.2,5,5.5c0.5,0.9,0.5,1.8,0.4,2.8c-0.1,0.6-0.2,1.2-0.5,1.8c-0.4,1.2-0.7,2.4-0.7,3.7
		c-0.1,2.2,0.3,4.4-0.3,6.6c-0.1,0.5-0.6,1-1.1,1.5c-0.1,0.2-0.6,0-0.9,0c-1-0.1-1.8-0.9-1.9-1.8c-0.1-0.6-0.2-1.2-0.2-1.9
		C497,713.1,497.1,711.5,497.2,710C497.1,710,497.1,710,497.2,710z"/>
	<path class="st1" d="M557.6,722.5c-0.3,0-0.6,0-0.9-0.1c-0.9-0.2-1.9-0.2-2.7-0.6c-2.8-1.3-6.2-1.2-8.8-3.1
		c-0.2-0.2-0.5-0.4-0.7-0.6c-0.2-0.5,0-0.9,0.8-1.2c0.8-0.4,1.7-0.7,2.6-1.2c1.2-0.6,2.5-0.7,3.6-0.3c1.8,0.6,3.6,1.1,5.4,1.6
		c1.5,0.5,2.6,1.6,3.5,3c0.4,0.6-0.2,2.2-0.9,2.3C558.8,722.3,558.2,722.4,557.6,722.5z"/>
	<path class="st1" d="M564.5,768.9c-1-0.1-1.9-0.1-2.8-0.2c-2-0.2-3.1-1.6-3.1-3.9c0-0.3,0-0.6,0.1-0.9c0.3-1.2,0.7-2.4,2-3
		c1.1-0.5,2.3-1,3.4-1.4c0.3-0.1,0.6,0,0.9,0c2.2,0.4,3.8,2.3,3.7,4.6c0,0.6-0.1,1.2-0.2,1.8c-0.2,1.6-1.6,2.9-3.1,2.9
		C565,768.9,564.7,768.9,564.5,768.9z"/>
	<path class="st1" d="M500.9,729.7c1.5,0.1,2.7,0.2,4,0.3c1.3,0.1,2.5,0.5,3.6,1.2c1.6,1,3.1,2.1,4.8,2.9c0.7,0.3,0.8,1,0.4,1.4
		c-0.2,0.2-0.5,0.5-0.8,0.5c-2.2,0.5-4.4,0.1-6.5-0.4c-2.3-1.3-4.8-1.4-7.3-1.9c-0.9-0.2-1.7-0.8-2.3-1.5c-0.2-0.2-0.4-0.5-0.4-0.8
		c-0.1-0.5,0.3-1,1-1.1C498.6,730,499.9,729.8,500.9,729.7z"/>
	<path class="st1" d="M438,688.3c1.2,0,2.5-0.1,3.7,0c0.9,0.1,1.7,0.6,2.3,1.4c0.5,0.6,0.5,1.2,0,1.6c-0.5,0.4-1.1,0.6-1.6,0.9
		c-2,1.1-4.1,1.5-6.3,1.5c-0.6,0-1.2-0.1-1.9-0.1c-1,0-1.8-0.5-2.5-1.2c-1.1-1-1.2-1.7-0.7-2.3c0.6-0.8,1.2-1.4,2.2-1.7
		c0.3-0.1,0.6-0.1,0.9-0.1C435.6,688.2,436.8,688.2,438,688.3C438,688.2,438,688.2,438,688.3z"/>
	<path class="st1" d="M528.9,760.5c-2-0.2-3.4-0.8-4.4-2.1c-0.4-0.5-0.5-1.1-0.3-1.8c0.4-1.7,1.7-2.6,3.2-3.1
		c2.1-0.6,4.3-0.8,6.5-0.2c1,0.3,1.8,1.9,1.3,3C534.3,758.8,531.2,760.8,528.9,760.5z"/>
	<path class="st1" d="M468.7,666.2c0,0,0-0.9,0-1.9c0-0.5,1.5-1.6,2.1-1.5c0.6,0.1,1.3,0.1,1.8,0.4c0.8,0.4,1.5,1.1,1.7,2.1
		c0.5,2.5,0.3,5,0,7.5c-0.1,0.5-0.5,1.1-0.9,1.5c-0.1,0.2-0.6,0.1-0.9,0.2c-0.7,0.3-1.2,0.1-1.7-0.4c-1-0.9-1.5-2-1.8-3.2
		c-0.1-0.3-0.1-0.6-0.1-0.9C468.8,669,468.8,668.1,468.7,666.2z"/>
	<path class="st1" d="M488,708.9c-0.3,1.8-0.3,2.2-0.4,2.4c-0.3,0.5-0.7,1-1.1,1.4c-0.6,0.4-2.1,0-2.6-0.5c-0.7-1-1.5-2-1.6-3.3
		c-0.1-2.5,0-5,0-7.5c0-0.3,0.2-0.6,0.3-0.9c0.2-0.7,0.7-0.9,1.5-0.9c0.6,0,1.2,0.2,1.4,0.9c0.6,2.1,1.1,4.2,2,6.2
		C487.9,707.9,488,709.2,488,708.9z"/>
	<path class="st1" d="M500.1,676.8c-0.2,0.6-0.4,1.2-0.5,1.8c-0.1,0.9-0.1,1.9-0.1,2.8c-0.1,3.3-0.1,3.2-2.4,7
		c-0.4,0.7-0.9,0.7-1.6,0.2c-1-0.8-1.7-1.8-1.8-3.2c0-0.6-0.1-1.3-0.1-1.9c0-0.6,0.1-1.3,0.4-1.8c0.2-0.6,0.6-1.2,1-1.6
		c1.6-1.5,2-3.9,3.7-5.4c0.2-0.2,0.6-0.1,0.9,0c0.3,0.1,0.6,0.2,0.7,0.5C500.5,675.6,500.4,676.2,500.1,676.8z"/>
	<path class="st1" d="M543.2,762.6c0.1-1,0.3-2.3,0.5-3.5c0.4-1.7,2.5-3,4.5-1.7c0.6,0.4,0.9,0.9,1,1.5c0.5,1.9,0.4,3.8-0.2,5.6
		c-0.3,0.9-0.9,1.6-1.9,1.9c-1.5,0.6-3.5-0.3-3.8-1.8C543.3,764.1,543.2,763.5,543.2,762.6z"/>
	<path class="st1" d="M531,714.9c-1.2,0-1.5,0-1.8,0c-2.1-0.1-3.4-1.3-4.4-3.1c-0.4-0.7,0-2.2,0.7-2.5c0.9-0.4,1.7-0.7,2.7-0.6
		c2.6,0.3,4.8,1.4,6.8,3c0.5,0.4,0.5,1.1,0.2,1.7c-0.2,0.6-0.7,0.9-1.3,1.2c-0.3,0.1-0.6,0.2-0.9,0.2
		C532.1,714.9,531.1,714.9,531,714.9z"/>
	<path class="st1" d="M510.2,753.9c0.2-1.5,0.4-3.1,0.6-4.6c0.2-1.1,1.9-1.9,2.9-1.2c1.4,0.9,2.2,2.2,2.5,3.8
		c0.3,1.7-0.2,3.1-1.2,4.3c-0.6,0.7-1.4,1.3-2.2,1.7c-0.6,0.4-1.2,0.4-1.7,0c-0.7-0.6-1.5-1.2-1.4-2.2
		C509.7,755.1,510,754.5,510.2,753.9z"/>
	<path class="st1" d="M444.9,665.6c-0.1,0.2-0.2,0.6-0.4,0.7c-1.9,1.1-3.8,2.1-5.7,3.1c-0.9,0.5-1.1,1.5-1.2,2.4
		c-0.1,0.9,0.1,1.9,0,2.8c0,0.6-0.3,1.3-0.9,1.5c-0.6,0.2-1.3,0-1.7-0.4c-0.5-0.4-0.7-1-0.5-1.7c0.7-1.7,1.5-3.4,1.7-5.3
		c0.2-1.9,1.5-3.4,3.2-4.4c2-1.2,3-1.1,5.1,0.5C444.7,665,444.8,665.4,444.9,665.6z"/>
	<path class="st1" d="M455.7,713c0.2,0,1.2,0,2.1,0.3c1.5,0.5,2.7,1.4,3,3.1c0.1,0.7-0.7,2-1.4,2.1c-2.2,0.2-4.3,0.2-6.3-0.9
		c-0.8-0.4-1.7-0.7-2.6-1.1c-0.6-0.3-0.9-0.8-0.9-1.4c-0.1-0.9,0.7-1.7,1.7-1.9c0.3,0,0.6-0.1,0.9-0.2c0.3,0,0.6-0.1,0.9-0.1
		C453.7,713,454.4,713,455.7,713z"/>
	<path class="st1" d="M449.6,678.8c-0.2-0.6-0.2-1.2,0.1-1.7c0.2-0.3,0.4-0.5,0.6-0.7c1.9-1.6,4.2-2.7,6.6-3.5
		c1-0.3,2.8,0.2,3.4,1.1c1.1,1.6,0.1,4.1-1.8,4.3c-0.9,0.1-1.9,0.3-2.8,0.3c-1.9,0-3.7,0.3-5.6,0.8
		C450.1,679.5,449.9,679,449.6,678.8z"/>
	<path class="st1" d="M488.7,672.9c-0.6,1.1-1.1,2.3-1.7,3.4c-0.3,0.5-2,1.5-2.4,1.3c-0.6-0.3-1.1-0.7-1.6-1.1
		c-0.2-0.2-0.4-0.5-0.6-0.8c-0.4-0.5-0.5-1.1-0.5-1.8c-0.1-1.7,0.7-3.1,1.7-4.3c1.2-1.6,3.4-1.7,5-0.3c0.5,0.5,0.7,1,0.6,1.7
		C489.1,671.7,488.9,672.3,488.7,672.9z"/>
	<path class="st1" d="M495,748.8c0.2-1.2,0.4-2.5,0.7-3.7c0.2-0.6,0.8-0.9,1.4-1.1c0.7-0.2,1.3-0.2,1.8,0.3c0.4,0.4,0.8,0.9,1.2,1.4
		c0.2,0.2,0.4,0.7,0.3,0.9c-1.1,2.3-0.7,5-1.5,7.4c-0.2,0.6-0.8,0.9-1.4,1.1c-0.7,0.2-1.2,0.2-1.8-0.3c-0.2-0.2-0.5-0.4-0.7-0.6
		c-0.6-0.8-1.1-1.5-0.7-2.6c0.3-0.9,0.5-1.8,0.7-2.7C495.1,748.8,495,748.8,495,748.8z"/>
	<path class="st1" d="M456.9,662.9c0.2,0-0.8,0-1.7-0.2c-0.6-0.1-1.2-0.4-1.5-0.9c-0.8-1.1-0.8-2.3-0.1-3.4c0.5-0.8,1.4-1.2,2.4-1.2
		c2.3-0.1,4.3,0.5,5.9,2.1c0.5,0.5,0.9,2.2,0.5,2.5c-0.4,0.4-1,0.7-1.5,0.9c-0.3,0.1-0.6,0.1-0.9,0.1
		C459.2,662.9,458.6,662.9,456.9,662.9z"/>
	<path class="st1" d="M436.6,710.3c-0.3,0-0.6,0.1-0.9,0c-2.4-0.7-4.8-1.3-7.3-1.6c-1.1-0.1-1.4-1.1-0.8-2c0.4-0.5,0.8-1,1.3-1.3
		c0.9-0.4,1.8-0.6,2.6-1c1.2-0.6,2.4-0.4,3.6,0.2c0.6,0.3,1.2,0.5,1.7,0.9c0.8,0.6,1.2,1.5,1.2,2.4c0,0.5-0.4,1.1-0.6,1.7
		C437.2,710,436.8,710.1,436.6,710.3z"/>
	<path class="st1" d="M423.2,648c-1.4,0-3,0.1-4.5-0.4c-1.8-0.6-3.3-1.7-3.8-3.7c-0.2-0.7,0-1.2,0.7-1.5c1.5,0.3,2.9,1.2,4.5,1.2
		c1.2,0,2.5,0.1,3.7,0.2c1.3,0.1,2.4,0.7,3.3,1.5c0.5,0.5,0.7,1.1,0.6,1.6c-0.1,0.2-0.5,0.4-0.7,0.5C425.8,648,424.5,648,423.2,648z
		"/>
	<path class="st1" d="M472.4,705.2c0,0.2-0.2,1.2-0.3,2.1c-0.2,1.1-1.9,1.8-2.9,1.3c-1.8-1-2.7-2.5-2.6-4.5c0.1-2.1,1.3-3.4,3.1-4.2
		c0.6-0.3,2.1,0.5,2.4,1.1C472.4,702,472.5,703.2,472.4,705.2z"/>
	<path class="st1" d="M510.4,677c0.3,0,0.7-0.2,0.9-0.1c1.4,0.6,2.9,1.2,4.3,1.9c0.7,0.3,0.8,0.8,0.6,1.6c-0.2,0.6-0.5,1-1.2,1.3
		c-0.3,0.1-0.6,0.1-0.9,0.2c-1.2,0.4-2.4,0.7-3.5,1.2c-0.8,0.4-1.2,0.4-1.5-0.4c-0.1-0.3-0.2-0.6-0.3-0.9c-0.3-1.2-0.2-2.5,0.2-3.7
		C509.3,677.6,509.8,677.2,510.4,677z"/>
	<path class="st1" d="M437.3,649.3c1.6,0.1,3.1,0.4,4.5,1.2c1.8,1.1,1.9,2.4,0.3,3.4c-0.3,0.2-0.5,0.3-0.8,0.5
		c-0.9,0.5-1.8,0.4-2.7,0.1c-1.4-0.6-2.7-1.5-3.6-2.8c-0.4-0.6-0.5-1.2-0.1-1.6c0.2-0.2,0.5-0.5,0.7-0.5
		C436.1,649.4,436.7,649.4,437.3,649.3z"/>
	<path class="st1" d="M491.3,782.3c0.1-0.9,0.2-1.5,0.3-2.1c0.1-0.6,0.4-1.2,1-1.5c0.7-0.4,2.2-0.1,2.6,0.4c0.4,0.5,0.8,1,1.1,1.5
		c0.6,0.8,0.5,1.8,0.2,2.7c-0.3,0.9-0.8,1.6-1.5,2.3c-0.8,0.8-2.8,0.3-3.1-0.8C491.6,783.9,491.4,783,491.3,782.3z"/>
	<path class="st1" d="M422.5,663.4c0.1-0.6,0.1-1.2,0.2-1.8c0.2-1.9,2.3-2.9,4.1-2.1c0.6,0.2,1.3,1.8,1.1,2.4
		c-0.5,1.4-1.3,2.7-2.2,4c-0.4,0.5-0.9,0.7-1.6,0.5c-0.6-0.1-1.1-0.5-1.3-1.1C422.6,664.6,422.6,664,422.5,663.4z"/>
	<path class="st1" d="M505.2,801.5c-1.9-0.1-3.7-0.5-5.1-1.9c-0.5-0.5-0.7-1.1-0.4-1.6c0.5-1.2,1.5-2,2.7-2.3
		c0.9-0.2,1.8,0.1,2.6,0.7c1,0.8,1.8,1.7,2.5,2.7c0.4,0.6,0.5,1.1,0.2,1.6c-0.4,0.5-1,0.7-1.6,0.7
		C505.8,801.4,505.5,801.4,505.2,801.5z"/>
	<path class="st1" d="M475.9,781.9c0.1-1.9,0.1-3.2,0.6-4.4c0.2-0.6,1.8-1.4,2.3-1c0.2,0.1,0.5,0.4,0.6,0.7c1.3,2.7,0.8,5.9-1.3,7.7
		c-0.6,0.5-1.2,0.4-1.6-0.1c-0.2-0.2-0.4-0.5-0.5-0.8C476,783.1,476,782.2,475.9,781.9z"/>
	<path class="st1" d="M426.7,722.7c-0.9-0.1-1.8-0.2-2.7-0.4c-0.6-0.2-1.1-0.6-1.3-1.1c-0.2-0.7,0-1.2,0.5-1.6
		c0.2-0.2,0.5-0.4,0.8-0.5c1.5-0.3,3.1-0.2,4.5,0.5c0.5,0.3,1.1,0.6,1.7,0.8c0.6,0.3,1.2,0.8,1,1.2c-0.3,0.6-1,0.8-1.6,0.8
		C428.6,722.5,427.7,722.6,426.7,722.7z"/>
	<path class="st1" d="M471.1,721.4c0.1-1.1,2.5-2.7,3.5-2.3c0.6,0.2,1.1,0.5,1.4,1.1c0.5,0.8,0.9,1.6,1.3,2.4c0.4,0.9,0,1.6-1.2,1.8
		c-2,0.3-3.6-0.4-4.6-2.1C471.2,722,471.2,721.7,471.1,721.4z"/>
	<path class="st1" d="M487.3,724.2c0.6,0.1,1.2,0.1,1.9,0.3c1.2,0.2,1.6,0.6,2,1.7c0.3,0.7,0.2,1.2-0.4,1.6
		c-0.2,0.2-0.5,0.4-0.8,0.5c-1.6,0.3-3.1,0.1-4.7-0.3c-0.7-0.2-1.6-1.7-1.3-2.3c0.3-0.5,0.8-0.9,1.4-1.1
		C486.1,724.3,486.7,724.3,487.3,724.2z"/>
	<path class="st1" d="M420.1,695.5c-0.1,1-0.5,1.5-1.7,1.8c-1.1,0.3-2.8-0.3-3.2-1.2c-0.4-0.8-0.6-1.7-0.3-2.7
		c0.4-1,1.1-1.6,1.9-1.6c0.6,0,1.2,0.1,1.7,0.6c0.4,0.4,0.8,0.9,1.2,1.4C420.1,694.3,420.2,694.9,420.1,695.5z"/>
	<path class="st1" d="M452.5,703.4c-0.6-0.1-1.3-0.1-1.9-0.3c-0.7-0.2-1-0.8-1.1-1.4c-0.1-0.7,0.1-1.3,0.7-1.6c1.8-1,3.6-1,5.4-0.2
		c0.7,0.3,0.9,0.9,0.7,1.6c-0.1,0.6-0.4,1.1-1,1.5c-0.3,0.1-0.6,0.2-0.9,0.2C453.8,703.3,453.1,703.4,452.5,703.4z"/>
	<path class="st1" d="M503.5,770.4c-0.6,0-1.2,0-1.8-0.1c-1.3-0.1-2.3-0.7-3.3-1.5c-0.5-0.4-0.8-1.1-0.6-1.5
		c0.3-0.6,0.9-0.8,1.5-0.8c1.6-0.2,3.1,0.1,4.5,0.6c0.9,0.3,1.5,1,2,1.8c0.4,0.7,0.3,1.1-0.6,1.3
		C504.7,770.3,504.1,770.3,503.5,770.4z"/>
	<path class="st1" d="M400.7,636.5c-0.6-0.1-1.2-0.1-1.8-0.2c-0.9-0.3-1.6-0.8-2.1-1.6c-0.3-0.6-0.5-1.2-0.2-1.6
		c0.4-0.5,1-0.8,1.6-0.7c0.6,0.1,1.2,0.1,1.8,0.3c1.1,0.5,2.2,1.1,3.3,1.7c0.6,0.3,1,0.8,0.8,1.2c-0.3,0.6-0.9,0.8-1.6,0.8
		C401.9,636.3,401.3,636.4,400.7,636.5z"/>
	<path class="st1" d="M413,661.5c-0.2,0.7-0.4,1.2-0.6,1.8c-0.3,0.8-0.7,0.8-1.4,0.4c-2-1.4-2.5-3.2-1.4-5.5
		c0.1-0.3,0.4-0.6,0.6-0.7c0.6-0.2,1.3-0.4,1.7-0.2c0.4,0.2,0.8,0.9,0.9,1.5C412.9,659.8,412.9,660.7,413,661.5z"/>
	<path class="st1" d="M439.9,770.9c0-0.3,0-0.7,0.1-0.9c0.3-0.6,0.8-1,1.4-1.1c0.8-0.2,1.2,0,1.5,0.8c0.5,1.2,0.5,2.4-0.1,3.6
		c-0.3,0.6-0.8,0.9-1.6,0.8c-0.6-0.1-1.1-0.5-1.2-1.2C439.9,772.2,439.9,771.6,439.9,770.9z"/>
	<path class="st1" d="M426.2,766.3c0.1-0.8,0.2-1.4,0.3-2c0.2-0.8,0.6-1,1.3-0.7c1.2,0.6,1.8,1.6,1.8,3c0.1,1.4-0.6,2.3-1.8,3
		c-0.6,0.4-1.1,0.1-1.3-0.7C426.4,767.9,426.3,767,426.2,766.3z"/>
	<path class="st1" d="M485.9,766.8c-0.9-0.1-1.9-0.6-2.7-1.7c-0.4-0.6-0.5-1.1-0.2-1.5c0.2-0.2,0.5-0.4,0.8-0.5c2-0.4,3.6,0.2,5,1.6
		c0.5,0.6,0.5,1.1,0.1,1.5c-0.2,0.2-0.5,0.5-0.7,0.5C487.5,766.8,486.9,766.8,485.9,766.8z"/>
	<path class="st1" d="M387.5,678.2c-0.5,0-0.8,0-1.1,0c-0.6,0-1.3-0.2-1.6-0.8c-0.2-0.5,0.2-1.1,0.6-1.6c0.9-1.1,2-1.3,3.3-0.6
		c0.6,0.3,0.8,0.9,0.7,1.6c-0.1,0.6-0.5,1-1.1,1.3C387.9,678.2,387.6,678.2,387.5,678.2z"/>
	<path class="st1" d="M384.9,644.9c-0.2-0.2-0.4-0.5-0.5-0.7c-0.4-0.8-0.5-1.7-0.2-2.6c0.2-0.9,1.2-1.4,2-1.1
		c0.8,0.3,1.5,1.5,1.2,2.1c-0.4,0.8-0.9,1.6-1.7,2.1C385.4,644.7,385.1,644.8,384.9,644.9z"/>
	<path class="st1" d="M398.3,652.5c-0.2-0.2-0.4-0.5-0.6-0.7c-0.3-0.9-0.3-1.8,0-2.7c0.2-0.7,1.4-1.4,2.2-1.2c0.9,0.1,1.5,1,1.4,1.9
		c-0.1,1.4-1,2.2-2.2,2.6C398.9,652.5,398.6,652.5,398.3,652.5z"/>
	<path class="st1" d="M403,688.9c0,0.7-0.2,1.2-0.6,1.7c-0.4,0.5-1,0.7-1.7,0.5c-1.2-0.4-1.9-2-1.5-3c0.6-1.7,1.2-1.8,2.7-0.7
		C402.4,687.8,402.8,688.3,403,688.9z"/>
	<path class="st1" d="M441.6,755.3c-0.6-0.1-1.2-0.2-1.8-0.3c-0.7-0.2-1.1-0.5-1.1-1.1c0-0.7,1.4-2,1.9-1.8c1.2,0.4,2.3,0.8,3.5,1.3
		c0.3,0.1,0.5,0.4,0.6,0.7c0,0.1-0.2,0.4-0.4,0.6c-0.2,0.2-0.5,0.4-0.8,0.4C442.8,755.2,442.2,755.3,441.6,755.3z"/>
	<path class="st1" d="M1027.2,697.6c-0.6-0.1-1.2-0.1-1.9-0.2c-0.3-0.1-0.6-0.2-0.8-0.5c-0.3-0.4,0-0.9,0.7-1.2
		c0.6-0.3,1.2-0.5,1.7-0.8c1.3-0.6,2.3-0.3,3.3,0.9c0.6,0.7,0.4,1.2-0.3,1.5C1029.1,697.6,1028.2,697.6,1027.2,697.6z"/>
	<path class="st1" d="M469.4,759.7c1.5,0,2.7,0.9,3.9,1.8c0.2,0.1,0.3,0.5,0.2,0.6c-0.1,0.3-0.4,0.5-0.7,0.6
		c-0.9,0.3-1.8,0.2-2.7-0.2c-0.9-0.4-1.4-1.2-1.5-2.1C468.6,760.2,469.1,759.9,469.4,759.7z"/>
	<path class="st1" d="M487.3,797.7c-0.2,0.8-0.9,0.8-1.9,0c-0.4-0.4-0.8-0.8-0.9-1.5c-0.1-0.6,1.6-0.8,2.3-0.2
		c0.2,0.2,0.4,0.4,0.5,0.7C487.3,797,487.3,797.3,487.3,797.7z"/>
	<path class="st1" d="M421.1,677.3c0.3-0.6,0.8-0.8,1.4-0.8c0.7,0,1.2,0.2,1.5,0.8c0.1,0.3,0.1,0.6,0.2,0.9c0.1,0.6-0.1,1.2-0.7,1.5
		c-0.2,0.1-0.6-0.1-0.8-0.3C421.7,679,421.2,678.3,421.1,677.3z"/>
	<path class="st1" d="M528.1,683.9c-1.4,0.2-2.8,0.2-4.2-0.1c-0.7-0.1-1-0.6-1.5-1.8l-0.3,0.3c1.4-0.2,2.8-0.1,4.2,0.1
		c0.7,0.1,1,0.5,1.5,1.8L528.1,683.9z"/>
	<path class="st1" d="M451.7,730.1c-0.6,0-1.2-0.2-1.6-0.7c-0.4-0.5,0.8-1.3,1.7-1.1c0.6,0.1,1.2,0.2,1.7,0.4
		c0.3,0.1,0.4,0.4,0.7,0.6c-0.2,0.2-0.5,0.4-0.7,0.5C452.9,730,452.3,730,451.7,730.1z"/>
	<path class="st1" d="M527.9,684.2c0.9,0.1,1.8,0.1,2.6,0.3c0.3,0,0.5,0.3,0.7,0.5c-0.3,0.5-0.8,0.7-1.5,0.6c-0.6,0-1.1-0.3-1.4-0.8
		c-0.1-0.2-0.1-0.6-0.2-0.8L527.9,684.2z"/>
	<path class="st1" d="M484.3,739.3c0.2-0.3,0.4-0.5,0.6-0.7c0.2,0.2,0.4,0.4,0.5,0.7c0.1,0.3,0.1,0.6,0,0.9
		c-0.1,0.2-0.5,0.6-0.5,0.6C484.3,740.4,484.1,739.9,484.3,739.3z"/>
	<path class="st1" d="M482.1,751.3c-0.7,0.2-1.2,0-1.4-0.7c-0.1-0.2-0.1-0.5,0-0.6c0.3-0.6,0.8-0.8,1.5-0.6c0.5,0.1,1,0.4,1.3,1
		C483,750.9,482.6,751.2,482.1,751.3z"/>
	<path class="st1" d="M1059,669.8c-0.6-0.2-0.9-0.7-0.8-1.4c0-0.3,0.1-0.6,0.3-0.8c0.4-0.4,0.8-0.2,1.1,0.6c0.1,0.3,0.1,0.6,0,0.9
		C1059.4,669.4,1059.2,669.6,1059,669.8z"/>
	<path class="st1" d="M399.3,704.9c-0.6,0.2-1.2,0-1.4-0.6c-0.1-0.4,0.4-0.8,1-1c0.6-0.2,1.2,0,1.4,0.7
		C400.5,704.5,400,704.8,399.3,704.9z"/>
	<path class="st1" d="M396.9,664.7c-0.2-0.2-0.4-0.3-0.5-0.6c-0.1-0.6,0.2-0.9,0.9-0.9c0.3,0,0.6,0.1,0.8,0.2
		c0.6,0.4,0.5,0.9-0.3,1.3C397.6,664.8,397.3,664.7,396.9,664.7z"/>
	<path class="st1" d="M387,692.6c0.1,0.2,0,0.5-0.2,0.6c-0.4,0.4-1,0.4-1.5,0.1c-0.2-0.1-0.4-0.5-0.3-0.6c0.1-0.2,0.4-0.5,0.6-0.6
		C386.2,691.8,386.7,692,387,692.6z"/>
	<path class="st1" d="M371.7,633c0.2,0.2,0.4,0.4,0.5,0.7c0.2,0.6-0.1,1.2-0.6,1.5c0,0-0.4-0.4-0.5-0.7
		C370.8,633.8,371.1,633.3,371.7,633z"/>
	<path class="st1" d="M371.5,648.5c0.1-0.1,0.4,0.1,0.5,0.3c0.3,0.5,0.4,1.1,0,1.5c-0.1,0.2-0.5,0.4-0.6,0.3
		c-0.2-0.1-0.5-0.4-0.5-0.7C370.8,649.4,371,648.8,371.5,648.5z"/>
	<path class="st1" d="M358.4,631.4c-0.2,0.1-0.5,0-0.6-0.1c-0.4-0.5-0.5-1.1-0.1-1.7c0.1-0.2,0.5-0.4,0.6-0.4
		c0.3,0.1,0.5,0.4,0.7,0.6C359.2,630.6,359,631.2,358.4,631.4z"/>
	<path class="st1" d="M522.4,682c-0.6,0-1.1-0.2-1.5-0.6c0.1-0.2,0.4-0.5,0.4-0.4c0.6,0.2,0.8,0.7,0.8,1.3L522.4,682z"/>
	<polygon class="st1" points="452.7,742.7 452.1,742.9 452.1,742.4 	"/>
	<polygon class="st1" points="386.8,627.7 386.5,627.2 387.1,627.3 	"/>
	<path class="st1" d="M357.9,647.1c-0.2-0.2-0.3-0.4-0.5-0.6c0.2-0.2,0.4-0.5,0.6-0.5c0.2,0,0.4,0.4,0.5,0.6
		C358.3,646.8,358.1,647,357.9,647.1z"/>
</g>
<circle class="st0" cx="1357.4" cy="674.8" r="24.3"/>
<g>
	<path class="st1" d="M368,676.1c0.6,0.2,1.3,0.2,1.7,0.5c2.7,1.6,5.4,2.6,8.6,2.6c1.8,0,3.6,0,5.5,0.2c3.6,0.2,7.2,0.8,10.5,2.6
		c2.7,1.4,5.5,2.7,8.3,3.6c4.3,1.4,8.4,0.9,11.8-2.4c0.4-0.4,0.9-0.8,1.3-1.3c1.5-2,2.5-4.1,1.2-6.6c-0.9-1.7-1-3.4-0.4-5.2
		c0.2-0.5,0.8-1.1,1.3-1.2c4.8-1.1,9.6-0.6,14.2,1.1c2.9,1,5.6,2.2,8.4,3.5c2.8,1.3,5.7,1.9,8.8,2.2c1.8,0.2,3.7,0.5,5.2,1.3
		c3.8,2,8.3,2.1,12.1,4c3.3,1.7,7.1,1.7,10.6,2.5c2.9,0.7,5.5,2.7,8.6,2.9c7.3,0.5,14,3.9,21.3,4.7c4.4,2.3,9.2,3,14,3.6
		c5.1,2,10.4,3.2,15.8,3.9c3.9,1.8,8.2,2.3,12.3,3.1c1.7,0.3,3.4,1.3,5.1,1.9c1.1,0.4,2.3,1,3.5,1.1c5.5,0.4,10.7,2.2,15.9,3.6
		c2.4,0.6,5,0.4,7.1,1.3c4,1.7,8.1,2.5,12.4,2.8c3,0.2,6,0.9,8.8,2.2c2.2,1,4.7,1.2,7.1,1.5c2.4,0.3,4.8,0.9,7,1.8
		c1.7,0.7,3.5,1.1,5.3,1.3c3,0.4,6.1,0.5,9.1,0.6c2.5,0.1,4.8,0.6,7.1,1.5c1.1,0.5,2.3,1,3.4,1.2c3.6,0.6,7.2,1,10.8,1.5
		c3.6,0.5,6.8,2.7,10.5,2.7c1.2,0,2.5,0.2,3.6,0.5c3.5,1,6.9,2.2,10.5,3c3,0.6,6,0.5,9,1c3,0.5,5.6,2.2,8.4,3.4
		c1.4,0.6,1.7,1.7,1.3,2.8c-0.7,1.7-1.6,3.3-2,5.1c-1.3,4.9-1.1,9.6,2.3,13.8c0.4,0.5,0.9,0.9,1.2,1.4c1.7,2.5,2.9,5.3,3.2,8.4
		c0.2,3,0.6,6,0.8,9.1c0.2,3.1,1.4,5.9,2.3,8.8c0.7,2.3,0.6,4.8,0,7.2c-1.1,4.3-1,4.3,0.1,6.9c0.5,1.1,0.8,2.4,1.6,3.3
		c0.7,0.9,1.8,1.7,2.8,2.1c1.1,0.5,2.4,0.6,3.6,0.6c18.9,0,37.7,0.1,56.5,0c3.1,0,6-0.7,8.9-1.8c2.5-0.9,2.5-0.8,4.6,0.8
		c1.4,1.1,2.9,2.2,4.4,3.3c0.5,0.4,1,0.7,1.6,0.8c4.2,1.1,8.4,1.3,12.6,0.4c0.6-0.1,1.1-0.6,1.5-1c2-1.5,3.2-3.6,3.7-6
		c0.5-2.4-2.1-6.9-4.2-7.5c-3.6-1-7.2-0.3-10.8-0.2c-2.5,0.1-4.7,1.2-6.8,2.5c-2.9,1.7-5.7,1.8-8.5,0c-0.5-0.3-1-0.6-1.6-0.9
		c-2.1-1.3-4.5-1.8-6.9-1.9c-1.8-0.1-3.6,0-5.5,0c-12.2,0-24.3,0.1-36.5,0c-3.2,0-5.7-1.9-7.7-4.3c-0.8-1-1.2-2.1-1.5-3.3
		c-0.6-2.4-0.2-4.8-0.2-7.3c0-3-0.1-6.1-0.2-9.1c0-1.9-0.9-3.5-1.9-5s-2.3-2.8-3.4-4.3c-1.1-1.5-1.6-3.2-1.8-5.1
		c-0.2-1.8-0.1-3.6-0.2-5.5c-0.1-2.5-1-4.7-2-6.9c-1-2.4,0.7-4.2,3.6-4.4c4.3-0.3,8.5,0.4,12.7,0.6c1.2,0.1,2.4,0.4,3.6,0.6
		c2,0.3,4.4,3.1,4.3,5.2c-0.2,4.8-0.7,9.7-0.4,14.5c0.3,4.8,0,9.7,0,14.5c0,2.2,2.4,4.9,4.5,5c1.8,0.1,3.6,0.3,5.4,0.4
		c5.5,0.1,10.9,0.2,16.4,0c4.4-0.1,8.3,0.9,12.2,2.9c2.8,1.4,5.9,1.2,9,1c3.4-0.2,7-4.2,6.7-7.4c-0.2-2.5-2.9-6.4-5.2-6.8
		c-3-0.4-6-0.9-9-1c-6.7-0.2-13.4-0.1-20-0.2c-3.2-0.1-5.7-1.7-7.6-4.3c-0.4-0.5-0.8-1-0.9-1.6c-0.7-4.8-0.5-9.7-0.4-14.6
		c0.1-3.2,2.9-5.2,6.2-4.5c1.2,0.3,2.4,0.5,3.5,1c2.8,1.4,5.6,2.2,8.7,2.5c7.9,0.6,15.8,0.5,23.7,0.5c1.8,0,3.7,0,5.5,0.3
		c1.2,0.2,2.3,0.8,3.3,1.3c2.6,1.4,3.2,3.7,1.6,5.7c-1.1,1.4-2.4,2.8-3.4,4.2c-1.7,2.2-0.8,6.1,1.8,8c2.7,1.9,5.6,2,8.6,0.8
		c0.5-0.2,1-0.8,1.3-1.3c0.5-1.1,1-2.2,1.3-3.3c0.6-3-0.7-6,0-9c0.3-1.2,1-2.2,2.2-2.6c2.9-0.9,6.1-1.1,9-0.2
		c4,1.4,8.2,1.9,12.3,3.1c0.7,0.9,1.9,1.7,2.1,2.8c0.5,2.4,0.4,4.8,0.7,7.2c0.3,3,3.6,5,6.7,4.3c3.4-0.8,5-3.2,6-6.2
		c0.6-1.7,0.7-3.6,1.1-5.3c0.3-1.4,2.5-2.7,4.2-2.9c2.5-0.3,4.9,0,7.2,0.5c1.2,0.2,2.3,0.8,3.4,1.3c2.2,1,4.6,1.6,7,1.7
		c10.9,0.3,21.9,0.7,32.8,0.8c10.3,0.1,20.7,0.1,31,0c3.7,0,7.2,0.2,10.7,1.7c1.1,0.5,2.4,0.6,3.6,0.6c5.5,0.1,10.9-0.1,16.4,0.2
		c13.4,0.7,26.7,0,40.1-0.1c1.8,0,3.6-0.3,5.4-0.5c5.7-2.8,11.9-2.1,17.9-2c16.4,0.3,32.8-0.8,49.2-0.7c4.9,0,9.7-0.5,14.2-2.8
		c1.6-0.8,3.5-0.9,5.3-1.1c4.2-0.6,8.5-0.7,12.7-0.6c3.7,0.1,7.2-0.3,10.7-1.8c1.6-0.7,3.5-0.7,5.3-1.1c1.8-0.3,3.7-0.3,5.3-1
		c3.4-1.5,6.9-2.4,10.5-2.6c3.6-0.2,7.3-0.5,10.9-0.8c3.9-1.8,8-2.8,12.1-3.8c5-2.6,10.5-3,15.9-3.1c1.2,0,2.4,0,3.6,0
		c2.5,0.1,4.8,0.9,6.7,2.5c1.4,1.1,2.7,2.5,4.2,3.5c1.5,1.1,3.4,1.3,5.2,0.7c1.1-0.4,1.8-1.6,2.2-2.7s0.5-2.4,0.9-3.5
		c0.4-1.1,0.8-2.3,1.4-3.3c1-1.5,2.3-2.8,4-3.6c4.9-0.5,9.2-2.9,13.8-4.4c1.7-0.6,3.6-0.9,5.2-1.5c1.9-0.8,3.6-0.3,5,0.9
		c2.3,1.9,4.4,4.2,6.7,6.1c2.5,2.1,5.5,2.3,8.6,1.4c0.6-0.2,1.2-0.3,1.7-0.7c2.3-2,4.6-4,6.7-6.1c4.1-4,9.1-6,14.5-7
		c3-0.5,5.9-1.3,8.8-2.2c6.9-2.2,13.7-4.8,21-5.7c1.8-0.2,3.4-1.2,4.9-2.3c3.6-2.4,6.7-5.4,8.5-9.3c2.1-4.7,5.2-8.1,9.8-10.4
		c1.1-0.5,1.9-1.5,2.9-2.2c2.7-2.1,3.7-6.9,2.1-10c-0.6-1.1-1.2-2.1-1.9-3.1c-1-1.5-2.2-2.8-2.7-4.6c0.6-1,1.2-2.1,1.9-3.1
		c0.6-1,1.4-2,2-3c1.9-3.1,1.8-7.5-0.2-10.3c-2.1-2.9-4.5-5.7-6.5-8.8c-2.6-4.1-5.5-8-7.7-12.4c-1.9-3.8-4.2-7.4-6.7-10.8
		c-2.5-3.4-4.3-7.3-5.6-11.3c-0.5-1.6,1-3.7,2.7-3.8c1.9-0.1,3.7,0.2,5.3,1.1c5.6,3.6,11.4,7,16.9,10.7c7.6,5.1,15,10.3,22.3,15.7
		c2.5,1.9,5.7,2,8.7,0.7c1.7-0.7,3.3-1.5,5-2.2c1.2-0.5,2.5-0.4,3.4,0.5c1.9,1.5,3.6,3.2,5.5,4.7c0.5,0.4,1,0.6,1.5,1
		c1.4,0.9,5.8,0.3,6.8-1c1.1-1.4,2.2-2.9,3.4-4.3c1.6-1.9,3.3-3.5,5.5-4.7c3.2-1.7,6.5-3.3,9.6-5.1c3.7-2.1,7.4-4,10.9-6.6
		c5.4-4,11.5-6.7,17.7-9.1c0.5-0.2,1.2-0.2,1.8-0.2c1.3,0,2.2,0.6,2.6,1.9c0.2,0.6,0.3,1.3,0,1.8c-0.9,1.6-1.7,3.2-2.9,4.6
		c-3.2,3.6-5.9,7.7-8.3,11.9c-4.5,7.9-9.1,15.7-14.9,22.9c-1.9,2.3-3.1,5.2-4.5,7.9c-0.9,1.7-0.7,3.5,0,5.2c0.5,1.1,1.1,2.2,1.6,3.3
		c1.2,3,1,5.9-0.7,8.7c-0.6,1-1.3,2.1-1.7,3.2c-0.9,3.6-1,7.4,1.5,10.4c5.9,7,10.5,14.9,14.7,22.9c1.7,3.2,3.6,6.3,5.1,9.7
		c1.5,3.4,3.7,6.2,5.9,9.2c1.5,2.1,2,4.4,1.4,6.8l0.2-0.2c-1.8,0.5-3.7,0.4-5.2-0.6c-4.5-3-8.9-6.3-13.9-8.7
		c-2.2-1.1-4.5-2.1-6.3-3.6c-4.2-3.6-9.4-5.5-13.7-9c-3.7-3.1-8-5.5-11.7-8.7c-1.9-1.7-4.4-1.9-6.8-0.5c-1.1,0.6-2.1,1.2-3.2,1.7
		c-2.3,1.1-4.7,1.2-7,0.1c-1.6-0.8-3.1-1.9-4.8-2.6c-2.3-1-4.7-1-7,0.3c-3.2,1.7-5.5,4.7-8.7,6.5c-9,5-17.6,10.8-26.8,15.4
		c-4.3,2.2-8.6,4.5-12.6,7.3c-4,2.8-8.5,4.7-12.8,6.8c-5.4,2.7-11.1,5.1-15.9,8.8c-4.4,3.4-9.2,5.9-13.7,8.9
		c-6.6,4.3-13.2,8.7-19.6,13.2c-3.5,2.4-7.2,4.5-11,6.5c-16.6,8.9-33.2,17.7-50.2,25.7c-6.6,3.1-12.9,6.8-19.6,9.6
		c-6.2,2.5-11.7,6.6-18.3,7.9c-6.1,2.7-12.1,5.6-18.3,8.2c-4.5,1.9-8.9,3.9-13.6,5c-4.8,1.1-8.9,3.8-13.7,4.7
		c-4.2,0.8-7.8,3.3-11.7,4.9c-2.3,0.9-4.5,1.9-6.9,2.4c-3.6,0.7-6.7,2.7-10.4,3.5c-3.5,0.8-6.8,2.6-10.3,3.5
		c-3.6,0.9-6.7,2.8-10.1,4c-4,1.5-7.9,2.9-12.2,3.2c-3.7,0.3-6.7,2.9-10.3,3.5c-3,0.5-6.1,0.2-9,1.5c-2.8,1.3-5.7,2.1-8.7,2.5
		c-3.7,0.4-6.8,2.7-10.4,3.2c-3.7,0.5-7,2.1-10.5,3c-3.5,0.9-7.2,0.9-10.8,1.4c-1.2,0.2-2.4,0.6-3.4,1.1c-2.2,1-4.5,1.8-6.9,2.1
		c-4.8,0.6-9.8-0.1-14.2,2.5c-4.8,0.8-9.6,1.4-14.1,3.5c-1.6,0.7-3.5,0.8-5.3,1c-3,0.2-6.1,0.2-9.1,0.4c-1.8,0.1-3.6,0.6-5.2,1.5
		c-4.4,2.6-9.2,2.8-14.1,2.4c-2.5-0.2-4.4-1.9-4.8-4.5c-0.3-1.8-0.5-3.6-1.1-5.3c-1.2-3.5-4.6-5.8-8.6-5c-2.1,0.5-4.4,2.9-4.3,5.2
		c0.1,1.2,0.1,2.4,0.5,3.6c0.6,1.7,1.3,3.4,2.1,5c0.7,1.6-0.2,3.4-1.7,4.8c-1.3,1.3-3,2.2-4.8,2.5c-2.4,0.4-4.8,0.6-7.2,0.6
		c-9.7,0.1-19.5,0.1-29.2,0c-4.3,0-8.5,0.5-12.3,2.7c-1,0.6-2.3,0.9-3.5,1c-9.1,0.7-18.2,1-27.3,0.6c-3-0.1-6.1-0.2-9.1-0.3
		c-4.3-0.2-8.4,0.4-12.2,2.9c-2,1.3-4.3,2.3-6.5,3.3c-1.7,0.8-3.5,0.9-5.3,0.6c-1.7-0.3-3.5-1.9-3.6-3.5c-0.2-2.4-0.2-4.9-0.5-7.3
		c-0.2-1.8-1.2-3.3-2.6-4.6c-2.7-2.3-6.7-2.5-9.8,0.6c-1.3,1.3-2.2,2.8-2.4,4.7c-0.4,3,0.5,6-0.1,9.1c-0.3,1.5-1.9,3.6-3.3,3.9
		c-3,0.6-6,0.7-9-0.1c-2.4-0.7-4.4-2.3-5.1-4.7c-0.6-1.7-0.5-3.6-0.9-5.4c-0.5-2.5-2.1-4.3-4.2-5.7c-1.8-1.2-5-1.1-6.8,0.4
		c-1.9,1.6-3.4,3.4-3.6,6c-0.2,1.8-0.2,3.6-1,5.3c-1.1,2.3-3,4.1-5.5,4.3c-4.2,0.4-8.5,0.2-12.8,0.3c-4.1,0.1-6.8-2.2-8.9-5.4
		c-0.7-1-1.2-2.1-1.9-3.1c-1.2-1.7-4.5-2.8-6.5-2.1c-1.7,0.6-3.4,1.3-4.5,2.9c-1.3,2-2.5,4.1-3.8,6.1c-1.4,2.2-6,2.5-8.2,0.6
		c-1-0.8-1.6-1.8-1.7-3.1c-0.3-4.4-1.8-8.3-5.3-11.2c-0.5-0.4-0.9-0.9-1.3-1.2c-2.5-2-3.8-4.6-3.9-7.8c0-1.2-0.3-2.4-0.5-3.6
		c-0.4-2.2-2.7-4.2-5.1-4.5c-1.8-0.2-3.6-0.5-5.4-0.5c-2.4,0-4.9,0.1-7.3,0.2c-10.9,0.5-21.9,0.4-32.8-0.2c-3.1-0.2-6-0.7-8.9-1.7
		c-1.7-0.6-3.5-0.9-5.3-1c-4.8-0.4-9.7-0.6-14.6-1c-1.2-0.1-2.4-0.4-3.5-0.8c-2.9-1.2-5.8-1.6-8.9-1.6c-9.7,0-19.5,0-29.2,0
		c-4.9,0-9.7-0.2-14.6-0.8c-1.8-0.2-3.6-0.6-5.3-1.3c-2.8-1.3-5.8-1.8-8.8-1.9c-7.9-0.1-15.8-0.3-23.7-0.5c-3.1-0.1-6-0.6-8.8-1.9
		c-1.1-0.5-2.3-0.9-3.5-1c-8.5-0.7-17-1.6-25.5-0.9c-1.1,0.1-2.3,0.7-3.4,1.2c-2.8,1.3-3.1,1.3-4-0.8c-0.5-1.3-1-2.2-2.2-2.6
		c-2.9-1-6-0.7-9-1.1c-2.4-0.3-4.8-0.8-7-1.8c-1.7-0.7-3.4-1.3-5.3-1.3c-4.3-0.2-8.5-0.4-12.8-0.6c-3.1-0.1-6-0.8-8.8-2
		c-1.1-0.5-2.3-0.9-3.5-1c-3-0.4-6-0.8-9.1-0.9c-7-0.2-12.8-3.1-18.2-7.3c-1-0.7-1.8-1.6-2.9-2.2c-1-0.6-2.2-1-3.4-1.2
		c-4.2-0.7-8.5-0.5-12.7-0.3c-3,0.1-6.1,0.2-9.1,0.2c-3.2-0.1-5.8-1.6-7.9-3.9c-0.4-0.5-0.7-1-0.9-1.6c-0.8-2.3,0.9-5.1,3.2-5.3
		c1.2-0.1,2.4-0.4,3.6-0.3c5.5,0.3,10.9,0.5,16,2.8c3.3,1.5,7.1,1.6,10.2,3.7c2.6,1.7,5.9,1.2,8.7,2.5c3.3,1.5,6.7,2.8,10,4.4
		c2.3,1,4.7,1.4,7.1,1.6c5.5,0.2,10.9,0.3,16.4,0.5c3,0.1,6,0.6,8.9,1.9c2.2,1,4.7,1.3,7.1,1.4c4.2,0.2,8.5,0.4,12.7,0.7
		c1.2,0.1,2.4,0.3,3.5,0.7c2.9,1.1,5.8,1.6,8.9,1.6c5.5,0,10.9-0.1,16.4,0.1c3.6,0.1,7.4,0.2,10.8,1.6c4.6,1.9,9.4,2.3,14.3,2.4
		c6.7,0,13.4-0.2,20,0.6c1.8,0.2,3.7,0.2,5.4,0.9c5.1,2.3,10.6,2.7,16.1,2.7c3.1,0,6,0.8,8.9,1.6c1.7,0.5,3.6,0.7,5.4,0.8
		c6.1,0.1,12.2,0,18.2,0.1c3.6,0.1,7.3,0.3,10.9,0.6c3.1,0.2,6,0.9,8.8,2.1c2.3,1,4.7,1.3,7.1,1.3c13.4,0,26.8,0,40.1,0
		c5.5,0,10.9,0.3,16.4,0.4c7.5,0.1,14.3,2.4,21.3,4.4c1.1,0.3,2,1.4,2.9,2.2c1.8,1.7,2.7,4,3.7,6.2c1.2,2.9,3.5,4.9,6.1,6.5
		c1.6,1,3.2,1.8,5.1,1.9c3.6,0.2,7.3,0.5,10.9,0.6c5.5,0.1,10.9,0.5,16.1,2.7c2.2,0.9,4.8,0.6,7.1-0.2c4.8-1.5,6.9-8,3.7-11.9
		c-0.4-0.5-0.7-1-1.2-1.4c-1.8-1.7-3.9-2.9-6.4-3c-5.5-0.1-10.9,0-16.4-0.2c-2.4-0.1-4.8-0.5-7.2-1.1c-1.1-0.3-2.4-1-3-1.9
		c-1.7-2.5-3.1-5.2-4.6-7.9c-0.6-1-1-2.2-1.7-3.2c-1.5-2-3.4-3.5-5.9-3.8c-2.4-0.3-4.8-0.3-7.3-0.5c-3-0.2-6.1-0.2-9.1-0.8
		c-2.4-0.4-4.6-1.6-6.9-2.2c-1.7-0.5-3.6-0.7-5.4-0.8c-13.4-0.2-26.7-0.3-40.1-0.5c-3.6,0-7.3-0.1-10.9,0c-3.1,0-6-0.7-8.8-1.9
		c-1.7-0.7-3.5-1-5.3-1.3c-8.5-1-17-1.1-25.5-1c-3.1,0-6-0.4-8.9-1.4c-1.7-0.6-3.5-0.9-5.3-1.1c-3-0.3-6.1-0.3-9.1-0.6
		c-1.8-0.2-3.6-0.4-5.3-1.3c-2.8-1.4-5.8-1.9-8.8-2c-4.3-0.1-8.5-0.1-12.8-0.2c-3-0.1-6.1-0.1-9.1-0.2c-1.2-0.1-2.6,0-3.6-0.5
		c-5.5-2.9-11.9-2.4-17.6-4.5c-2.3-0.8-4.6-1.3-7.1-1.3c-4.9,0-9.7,0.1-14.6,0c-4.3-0.1-8.5-0.4-12.7-0.7c-2.5-0.2-4.7-1-7-1.9
		c-1.7-0.6-3.5-1.2-5.3-1.3c-3.6-0.3-7.3-0.4-10.9-0.5c-4.3-0.1-8.5,0.2-12.7-0.6c-4.4-2.3-9.3-2.6-13.9-4.3
		c-1.7-0.7-3.3-1.6-5.2-1.7c-5-0.1-9.4-2.2-13.8-4.3c-1.6-0.8-3.2-1.7-4.8-2.5c-1.7-0.8-3.5-1.1-5.3-1.2c-3-0.2-6-0.4-9.1-0.6
		c-4.4-2.2-9.5-2.1-14.1-3.6c-1.7-0.6-3-1.9-4.2-3.4c-1-1.3-0.7-2.1,1-2.6c3.5-1,7.2-1.3,10.8-1.3c3.7-0.1,7.3,0.5,10.5,2.4
		c2.7,1.5,5.6,2.2,8.7,2.1c1.8,0,3.7,0.2,5.5-0.1c6.3-1.2,10.5,1.9,13.9,6.6c0.7,1,1.6,1.9,2.6,2.5c1,0.6,2.2,1.3,3.3,1.3
		c4.2,0.2,8.5,0.3,12.8,0.2c3,0,6.1-0.4,9.1-0.5c3.7-0.1,7.3,0.4,10.5,2.3c3.2,1.9,6.8,2.5,10.5,2.5c8.5,0,17-0.1,25.5-0.2
		c3.1,0,6,0.8,8.8,1.9c1.7,0.7,3.5,1.1,5.3,1.3c3,0.4,6,0.6,9.1,0.7c2.5,0.1,4.8,0.7,7.1,1.5c1.7,0.6,3.5,1,5.3,1
		c6.1,0.2,12.2,0.2,18.2,0.4c2.4,0.1,4.8,0.8,7.2,1.2c4.4,2.4,9.3,2.6,14.2,2.6c9.7,0.1,19.4,0.3,29.2,0.4c3.7,0,7.2,0.4,10.6,2
		c2.2,1,4.7,1.2,7.1,1.4c2.4,0.2,4.8,0.6,7.1,1.6c1.7,0.7,3.5,1,5.3,1c5.5,0.1,10.9,0.1,16.4,0c4.4-0.1,8.4,0.9,12.2,3
		c1,0.6,2.3,0.8,3.5,0.9c1.8,0.1,3.7-0.2,5.1-1.3c3.2-2.4,4.3-5.8,3.7-9.7c-0.5-3.4-4.1-6.8-7.4-7c-1.2-0.1-2.4-0.4-3.6-0.2
		c-9.1,1-18.2-0.1-27.3-0.1c-1.2,0-2.5-0.2-3.5-0.6c-5.6-2.6-12-1.9-17.6-4.6c-1.7-0.8-3.6-0.6-5.4-0.7c-9.7-0.7-19.4-0.5-29.2-0.7
		c-2.5-0.1-4.8-0.5-7.1-1.6c-2.8-1.3-5.8-1.9-8.8-2c-4.9-0.2-9.7-0.2-14.6-0.3c-2.5,0-4.8-0.5-7.1-1.4c-1.1-0.4-2.3-0.8-3.5-0.9
		c-3.6-0.5-7.2-1-10.9-1.3c-4.2-0.3-8.5-0.6-12.4-2.5c-2.4-0.2-4.8-0.5-7.2-0.7c-3.2-0.3-5.7-1.8-7.3-4.7c-1-1.7-1-3.5-0.2-5.1
		c1.9-3.8,5.5-5.7,8.8-4.7c1.2,0.4,2.4,0.6,3.4,1.1c2.7,1.3,5.4,2.7,8.1,4.1c2.2,1.2,4.5,1.7,7,1.9c3,0.2,6,0.5,9.1,0.8
		c4.6,2.2,9.5,1.7,14.3,1.8c3,0.1,6.1,0,9.1,0.3c4.2,0.4,8.5,0.8,12.4,2.6c2.2,1,4.7,1.2,7.1,1.2c4.9,0,9.7,0,14.6,0.1
		c3,0.1,6.1,0.3,9.1,0.6c1.2,0.1,2.4,0.3,3.5,0.8c4,1.7,8.1,2.5,12.4,2.5c6.1,0.1,12.1,0.3,18.2,0.5c2.5,0.1,4.8,0.6,7.1,1.4
		c2.8,1.1,6,1.3,8.6,2.7c5.9,3.1,11.6,3.1,17.6,0.6c1.1-0.5,2.3-0.2,3.4,0.4c1.1,0.6,2.2,1,3.2,1.7c1,0.6,2.1,1.3,2.8,2.3
		c2.4,3.5,4.7,7.1,4.7,11.6c0,1.2,0.2,2.4,0.4,3.6c0.3,1.9,1.3,3.4,2.5,4.7c1.3,1.4,2.8,2.5,4.6,2.5c7.9,0.2,15.8,0.2,23.7,0.3
		c5.5,0.1,10.9,0.1,16.4,0.2c1.8,0.1,3.6,0.6,5.3,1.2c3.8,1.4,4.2,1.4,6.4-0.3c1-0.7,2-1.4,2.8-2.3c1.7-1.8,3-3.7,3.3-6.3
		c0.2-2.5,0.9-4.8,2.5-6.7c0.4-0.5,0.8-1,1.2-1.4c1.5-1.7,4.8-2.1,6.7-0.9c1.5,1,3.1,1.9,4.1,3.5c2,3.1,3.7,6.3,5.9,9.2
		c1.4,2,3.5,3.4,6.1,3.6c1.2,0.1,2.4,0.3,3.6,0.2c6.1-0.3,12.1-0.2,18.2,0c4.1,0.2,9.3-2,10-8.5c0.1-0.6,0.3-1.2,0.4-1.8
		c0.7-2.5,2.3-4.2,4.2-5.8c2.7-2.4,7.5-2.4,10,0.2c1.7,1.7,3.2,3.6,3.7,6.1c0.4,1.8,0.5,3.6,1.5,5.2c1.3,2.2,3.2,4,5.6,4.2
		c8.5,0.7,17,0.7,25.5,0c1.8-0.2,3.5-1.1,4.9-2.3c2.2-2,4.4-4.2,6.6-6.2c1.6-1.5,5.1-1.3,6.7,0.3c1.3,1.3,2.5,2.7,3.8,3.9
		c0.9,0.8,1.8,1.6,2.8,2.3c2.6,1.8,5.7,2.3,8.7,1.7c3.6-0.6,7-2.1,10.2-3.7c4.3-2.2,8.6-4.5,12.9-6.7c2.2-1.1,4.3-2.3,6.7-2.9
		c3.5-0.9,7-2.1,10.5-3c1.1-0.3,2.4-0.2,3.6,0c1.2,0.2,2.3,0.6,3.4,1.1c3.4,1.4,7,2,10.7,2.1c3.6,0.1,7.3,0.1,10.9-0.1
		c1.8-0.1,3.7-0.4,5.3-1.2c3.3-1.6,6.7-2.9,10.4-3.2c1.2-0.1,2.5-0.2,3.6-0.7c5.7-2.8,11.7-2.8,17.8-2.8c6.1,0,12.2,0.1,18.2-0.1
		c3.6-0.1,7.3-0.3,10.7-1.8c3.4-1.5,7.2-1.2,10.6-2.4c5.3-1.9,10.6-2.4,16.1-2.4c5.5,0.1,10.9-0.1,16.4-0.3c1.9-0.1,3.4-1.1,4.6-2.6
		c2-2.6,1.9-4.1-0.5-6.2c-1.4-1.2-3-2.1-4.9-2.1c-4.8,0-9.7,0.2-14.6,0.2c-4.9,0-9.7,0-14.6,0.1c-1.2,0-2.5,0.1-3.6,0.5
		c-2.9,0.9-5.6,2.2-8.7,2.5c-2.4,0.3-4.8,0.7-7.1,1.5c-2.9,1-5.8,1.6-8.9,1.6c-10.9,0.1-21.9,0.4-32.8,0.4c-4.4,0-8.4,0.9-12.2,2.9
		c-1.6,0.8-3.5,1.2-5.2,1.3c-4.2,0.2-8.5,0.5-12.8,0.2c-8.5-0.6-17-0.4-25.5-0.4c-2.5,0-4.8,0.8-7,1.9c-3.7,2-7.6,3.8-11.2,6
		c-3.2,1.9-6.5,3.1-10.2,3.5c-1.8,0.2-3.4,1.3-5.1,1.7c-1.8,0.4-3.6-0.1-5.2-1c-2.2-1.2-4-2.7-5.4-4.8c-1-1.5-1.8-3.2-2.8-4.7
		c-1.1-1.5-2.7-2.4-4.6-2.6c-1.2-0.2-2.4-0.3-3.6-0.3c-4,0.1-6.9,2-8.6,5.6c-0.5,1.1-0.7,2.3-1.3,3.4c-0.6,1.1-1.3,2-2.1,2.9
		c-1.2,1.5-2.8,2.4-4.6,2.7c-1.8,0.2-3.6,0.5-5.4,0.2c-2.5-0.3-4.6-1.5-5.4-4.1c-0.6-1.7-0.9-3.5-1.6-5.2c-1.2-3.3-4.5-5.3-6.8-5.2
		c-1.2,0-2.4-0.2-3.6-0.1c-7.9,0.8-15.8,0.5-23.7-0.3c-1.8-0.2-3.6,0.3-5.4,0.8c-0.6,0.2-1.1,0.6-1.4,1.1c-2.3,2.9-3.5,6.4-5.2,9.5
		c-1.7,3.1-6.5,4.2-9.5,2.1c-1-0.7-2.1-1.3-2.9-2.2c-2.5-2.7-4.8-5.5-7.3-8.2c-2.1-2.2-4.7-3.9-7.3-5.3c-1-0.6-2.2-0.9-3.4-1.2
		c-4.8-1-9.7-1-14.5-0.8c-2.4,0.1-4.9,2.1-5.2,4.3c-0.3,2.4-0.3,4.8-0.7,7.2c-0.5,3.3-2.7,5.3-5.5,6.7c-0.5,0.3-1.1,0.4-1.7,0.5
		c-2.4,0.5-4.8,0.5-7.2,0c-2.8-0.6-4.2-3.1-2.8-5.3c0.7-1,1.5-1.9,2.1-2.9c1-1.5,1.9-3.1,2.8-4.6c-0.5-2.4-1.7-4.5-3.1-6.5
		c-0.3-0.5-0.9-0.9-1.4-1.1c-1.1-0.5-2.2-1-3.4-1.1c-2.4-0.2-4.8-0.3-7.3-0.2c-3.2,0.1-5.7,1.8-7.4,4.5c-1.4,2.1-1.3,6.4,0.2,8.7
		c1.3,2,3.4,3.5,4.1,5.9c0.3,1.2-0.2,2.1-1.7,2.4c-2.4,0.5-4.8,0.7-7.2,0.2c-3.2-0.6-7.1-4.1-7.7-7.1c-0.4-1.8-0.7-3.6-0.8-5.4
		c-0.1-3.8-1.7-7.1-3.3-10.3c-0.8-1.6-2.5-2.5-4.4-2.7c-2.4-0.3-4.8-0.1-7.3,0.1c-3,0.2-6.1,0.4-9.1,0.4c-4.3,0-8.4-0.6-12.4-2.5
		c-1.6-0.8-3.5-1.2-5.2-1.4c-4.8-0.6-9.7-0.4-14.3-2.4c-1.6-0.7-3.6-0.5-5.4-0.6c-3.6-0.2-7.3-0.4-10.9-0.7c-1.8-0.2-3.7-0.3-5.3-1
		c-4.6-2-9.3-2.4-14.3-2.5c-4.9-0.1-9.7-0.3-14.6-0.6c-1.8-0.1-3.6-0.6-5.3-1.3c-2.9-1.1-5.8-1.7-8.8-2c-4.2-0.4-8.6-0.1-12.6-1.5
		c-3.5-1.2-7.1-1.7-10.7-2c-1.2-0.1-2.4-0.2-3.6-0.2c-14.5-0.3-12.3,0.1-25.9-6.8c-1.1-0.6-2.3-0.9-3.3-1.4c-2.2-1.1-4.5-1.8-7-1.8
		c-2.4,0-4.9,0.1-7.3-0.2c-2.4-0.3-4.9-0.6-7.1-1.5c-4-1.8-8.1-2.4-12.4-2.6c-3.6-0.2-7.3-0.2-10.9-0.1c-3,0.2-6.1,0.2-9.1,0
		c-1.8-0.1-3.6-0.7-5.1-1.8c-2.4-1.9-4.6-4-6.9-5.9c-1.9-1.6-4-2.7-6.6-2.6c-1.8,0-3.6-0.1-5.5-0.1c-2.5-0.1-4.9-0.5-7-1.8
		c-3.2-2.1-6.7-2.8-10.4-2.7c-6.7,0.2-13.4,0.4-20,0.4c-2.5,0-4.8-0.8-6.7-2.4c-2.4-1.9-4.3-4.3-5.9-6.9c-0.6-1.1-0.6-2.4,0-3.4
		c0.7-1.2,1.9-1.6,3.2-1.2c4,1.2,8.1,2.5,12.4,2.3c2.4-0.1,4.9,0.2,7.3,0.3c3.1,0.1,6,0.7,8.8,2c1.6,0.8,3.4,1.1,5.2,1.5
		c2.4,0.5,4.8,0.7,7.2,1.1c3.7,2.1,8.2,2.4,11.9,4.4c2.7,1.5,5.6,2.2,8.7,2.4c1.2,0.1,2.5,0,3.6,0.4c9.3,3.8,19.1,3.1,28.8,3.1
		c5.5,0,10.9-0.6,16.4-0.6c3.7,0,5.1,0.9,7.5,4.3c1.1,1.5,1.8,3.2,3,4.6c0.7,0.9,1.9,1.5,3,1.8c1.1,0.4,2.4,0.6,3.6,0.6
		c3,0,6.1-0.2,9.1-0.1c3.1,0.1,6,0.6,8.8,2c2.2,1.1,4.6,1.5,7,1.6c5.5,0.2,10.9,0.2,16.1-2.3c2.4-1.2,4.7-0.3,6.9,0.8
		c3.3,1.6,6.3,3.7,9.2,5.9c2,1.5,4.3,2.3,6.8,2.3c4.9,0.1,9.7,0,14.6,0.1c4.9,0.1,9.7,0.3,14.6,0.5c3.1,0.1,6,0.8,8.8,2.1
		c1.6,0.7,3.5,1.2,5.3,1.3c4.8,0.3,9.7,0.5,14.6,0.6c3.7,0,7.2,0.5,10.6,2c1.6,0.7,3.5,1.1,5.3,1.3c11.2,1.6,11.2,1.6,24.6,6.1
		c1.7,0.6,3.5,0.9,5.3,1.1c1.8,0.2,3.6,0.2,5.5,0.2c6.1,0,12.2-0.1,18.2,0.1c4.4,0.1,8.4-0.9,12.3-2.7c1.2-0.6,2.4-0.4,3.5,0.4
		c1.5,1.1,3,2.1,4.3,3.3c3,2.6,6.4,3.2,10.2,2.5c1.6-0.3,3.6-1.9,4-3.2c0.2-0.6,0.4-1.2,0.4-1.8c0.6-4.9-0.1-9.7-1.1-14.4
		c-2-3.9-2.1-8.2-2.1-12.4c0-1.2-0.2-2.4-0.4-3.6c-0.3-3.1-4.3-7.2-7.2-7.4c-1.8-0.2-3.6-0.4-5.5-0.4c-8.5,0-17,0.1-25.5,0
		c-3.6-0.1-7.4,0-10.8-1.4c-4-1.7-8.1-2.5-12.3-3.1c-1.2-0.2-2.4-0.6-3.4-1.1c-3.8-2.1-8.2-2.2-12.1-3.9c-1.6-0.7-3.5-0.9-5.3-1
		c-4.2-0.3-8.5-0.5-12.7-0.8c-1.8-0.2-3.7-0.4-5.3-1.2c-4.5-2.2-9.3-2.7-14.2-2.7c-3.7,0-7.3-0.2-10.7-1.6c-1.1-0.5-2.3-0.6-3.5-0.7
		c-2.4-0.2-4.8-0.3-7.3-0.5c-6.9-0.4-13-3.1-18.4-7.2c-2.9-2.2-5.9-4.2-9.3-5.6c-1.7-0.7-3.3-1.5-5.2-1.5c-5.5,0-10.9,0-16.4,0
		c-1.9,0-3.6,0.7-5.2,1.4c-1.2,0.5-2.3,0.9-3.5,0.6c-4-1.2-8.2-2.3-11.2-5.7c-0.8-0.9-1.6-1.8-2.5-2.7c-0.9-0.9-1.8-1.7-2.7-2.5
		c-1.4-1.2-3-2.2-4.8-2.5c-6.2-0.9-11.6-3.4-16.3-7.6c-0.9-0.8-2-1.3-3-2c-1.7-1.2-3.4-1-5.2-0.4c-1.2,0.4-2.2,0.9-3.3,1.4
		c-2.2,1.1-4.1,2.4-5.3,4.8c-1.1,2.2-2.7,4-4.7,5.5c-2.1,1.6-4.4,1.8-6.8,0.9c-0.5-0.2-1.4-0.9-1.3-1.2c0.5-2.9,1.9-5.7,1.9-8.7
		c0-2.4,0.2-4.8,0.3-7.3c0.1-2.4,2.2-4.5,4.6-4.7c0.6-0.1,1.2-0.2,1.8-0.2c5.5-0.2,10.9,0.2,15.9,3c1,0.6,2.3,1,3.4,1
		c5,0.2,9.5,1.9,14,3.6c3.4,1.3,6.3,3.6,10.1,4.1c2.9,0.5,5.7,2.1,8.6,2.8c3.6,0.8,6.8,2.8,10.3,3.5c3.6,0.7,7.2,0.8,10.9,1
		c3.1,0.2,6,0.9,8.8,2.2c0.6,0.3,1.1,0.5,1.7,0.7c3.5,0.9,7.3,0.7,10.7,2.2c2.8,1.2,5.8,1.7,8.8,2.1c2.4,0.3,4.7,1.1,7,2
		c4.5,1.7,9.5,2.1,13.9,4.4c4.2,0.4,8.5,0.9,12.7,1.2c2.5,0.2,4.7,1.2,6.9,2c4,1.4,8.1,2.5,12.2,3.7c1.2,0.3,2.4,0.4,3.6,0.5
		c3,0.2,6.1,0.4,9.1,0.6c2.5,0.2,4.8,0.9,6.9,2c2.2,1.2,4.5,1.7,7,1.8c3.6,0.1,7.3,0.1,10.9,0.2c2.5,0.1,4.8,0.4,7.1,1.6
		c2.8,1.4,5.7,2,8.8,2.2c2.4,0.2,4.9,0.4,7.3,0.2c5.1-0.5,9.5,1.3,14.1,3.1c2.2,0.9,4.3,2.3,6.7,2.6c0.6,0.1,1.3,0.1,1.8-0.1
		c3.8-1.4,6.3-6.5,5.1-10.5c-0.7-2.5-4.3-5.7-6.5-5.7c-7.3,0-14.6-0.2-21.8-0.9c-4.8-0.4-9.6-1-14.2-2.8c-3.9-1.5-8.4-1.1-12.4-3
		c-1.7-0.8-3.6-0.6-5.4-0.7c-3-0.2-6.1-0.4-9.1-0.7c-1.2-0.1-2.5-0.2-3.5-0.8c-4.4-2.6-9.3-2.5-14-3.6c-4.1-0.9-8.1-2.4-12.3-3
		c-3.6-0.6-7-2.1-10.5-2.8c-3.6-0.7-7.2-1.2-10.5-2.8c-1.6-0.8-3.5-1-5.3-1.3c-1.8-0.3-3.6-0.5-5.4-0.8c-5.9-3.4-13.1-2.7-19.2-5.4
		c-3.6-0.7-7.1-1.3-10.7-2c-3.9-2-8-2.7-12.3-3c-1.9-0.1-3.5-0.9-5.2-1.5c-1.7-0.6-3.4-1.4-5.2-1.6c-3.7-0.4-7-1.8-10.3-3.3
		c-3.3-1.5-6.5-3.4-10.1-4c-3-0.5-5.9-1.5-8.6-2.7c-1.6-0.7-3.5-1.1-5.3-1.3c-3-0.4-6-1-8.7-2.5c-2.7-1.4-5.9-1.4-8.6-2.9
		c-4.5-2.5-9.3-2.3-14.2-1.7c-2.3,0.2-4.7,2.2-5.1,4.5c-0.4,1.8-0.6,3.6-0.9,5.4c-0.3,2.4-2.5,4.5-4.7,4.7c-0.6,0-1.2,0.1-1.8,0.2
		c-3.7,0.1-7.3-0.3-10.6-2.1c-2.2-1.2-4.5-1.7-7-1.7c-4.9,0-9.7-0.2-14.6-0.1c-7,0.1-11.3-3.8-14.1-9.7c-0.7-1.6-0.6-3.6-0.8-5.3
		C368.5,675.6,368,676.1,368,676.1z M907.9,865.8c0-0.1,0-0.2,0-0.2c3.6,0,7.3,0.1,10.9-0.1c1.8-0.1,3.8-0.2,5.3-1.1
		c3.8-2.1,8.1-2.5,12-4c3.5-1.3,7-2.1,10.6-2.4c3.6-0.3,7.2-0.7,10.8-1.1c4.5-2.1,9.4-2,14.3-2.6c1.8-0.2,3.6-0.7,5.2-1.5
		c2.8-1.2,5.8-1.8,8.8-1.9c3-0.2,6.2,0,9-1.3c4-1.9,8.1-2.5,12.4-2.6c3.8-0.2,7-1.6,10-3.9c1-0.7,1.9-1.5,3-2.1
		c1.6-0.9,3.3-1.5,5.2-1.4c3.6,0.3,7.3,0.5,10.9,0.6c1.2,0,2.5-0.1,3.6-0.6c1.7-0.6,3.1-1.7,3.5-3.7c0.7-3.5-0.9-6.3-4-6.7
		c-1.2-0.1-2.4-0.2-3.6-0.2c-2.5,0.1-4.8,0.7-6.7,2.3c-1.4,1.1-2.8,2.4-4.1,3.6c-1.5,1.3-3.3,1.3-5.1,0.8c-1.2-0.3-2.3-0.9-3.4-1.3
		c-2.3-1-4.8-0.7-7.2-0.5c-4.4,2.1-9.5,2.1-13.8,4.4c-1.7,0.8-3.4,1.3-5.2,1.3c-4.2,0.2-8.5,0.4-12.7,0.5c-4.3,0.1-8.4,0.8-12.4,2.6
		c-1.6,0.7-3.5,1-5.3,1.1c-4.2,0.2-8.5,0.2-12.7,0.4c-1.8,0.1-3.6,0.5-5.3,1.1c-2.3,0.8-4.6,1.4-7.1,1.4c-4.3,0.1-8.4,0.9-12.3,2.9
		c-1.6,0.8-3.4,1.2-5.2,1.4c-4.2,0.6-8.4,0.8-12.7,0.4c-10.9-0.8-21.8-1-32.8-0.8c-3.1,0.1-5.9,0.9-8.6,2.6
		c-2.6,1.6-5.1,3.2-7.4,5.2c-3.7,3.3-8.2,5.1-12.9,6.5c-1.1,0.3-2.5,0.3-3.6,0c-2.3-0.6-4.5-1.8-6.9-2.3c-4.8-0.9-9.6-1.4-14.5-1.2
		c-3.1,0.1-6.1,0.5-8.8,2.1c-2.7,1.6-5.6,2.2-8.7,2.3c-3,0.1-6.1,0.1-9.1,0.1c-3.1,0-5.9,0.8-8.8,2.1c-1.6,0.7-3.5,0.9-5.3,1.2
		c-1.2,0.3-2.4,0-3.6-0.3c-1.2-0.4-2.4-0.8-3-1.9c-1.3-2.1-2.3-4.3-3.6-6.3c-2.8-4.3-7.2-6-10.8-4.7c-3.4,1.3-7,1.9-10.6,2.6
		c-4.3,0.8-9,3.1-13.1,6c-1.5,1-3,2.1-4.6,3c-0.4,0.2-1.2,0.1-1.7-0.2c-1.1-0.5-2.2-1-3.1-1.8c-2.7-2.5-4.5-5.7-7.5-7.9
		c-2-1.5-4.3-2.3-6.7-2.2c-1.2,0.1-2.5,0.1-3.6,0.5c-5.4,2.5-10.6,2.1-15.7-0.7c-0.5-0.3-1.2-0.3-1.8-0.4c-0.6-0.1-1.2-0.2-1.8-0.3
		c-5.4-0.8-8.2,1.7-10.1,5.9c-0.7,1.7-0.3,3.6,0.7,5.2c1.8,2.8,4.4,4.1,7.7,3.9c3-0.1,6-0.4,9.1-0.7c2.5-0.2,5-0.2,7.2,0.8
		c4.5,2,9.4,2.4,14,3.7c1.8,0.5,3,1.9,3.3,3.9c0.2,1.8,0.5,3.6,0.8,5.4c0.4,2.5,2.3,4.4,4.6,4.8c3,0.5,6,0.3,9-0.6
		c1.2-0.4,2.3-0.8,3-1.9c2-3,3.8-6.2,6.4-8.8c2.7-2.7,5.9-4.1,9.8-4c0.6,0,1.2,0,1.8,0.1c2.5,0.4,4.5,1.3,5.6,3.9
		c1.1,2.8,2.4,5.6,3.9,8.2c0.9,1.6,2.6,2.4,4.5,2.5c3.1,0.2,6-0.1,8.8-1.6c2.2-1.2,4.4-2,6.9-2.1c3-0.1,6.1,0,9.1-0.1
		c11.2-0.4,11.9-0.6,23.1-4.3c0.6-0.2,1.1-0.5,1.7-0.8c2.2-1.1,4.6-1.4,7.1-1.4c7.9,0,15.8,0,23.7,0c2.4,0,4.8-0.1,7.3-0.4
		c1.8-0.2,3.6-0.7,5-1.9c3.2-2.8,6.1-5.9,9.4-8.6c2.8-2.4,6.1-3.7,10-3.8c4.3-0.1,8.4,0.4,12.4,2.2c1.6,0.7,3.5,1,5.3,1.1
		C900.6,865.7,904.3,865.7,907.9,865.8z M1080.6,793.1c-0.2-3.3-0.3-6.9-0.5-10.5c0-0.6-0.1-1.3-0.4-1.7c-0.7-0.9-1.7-1.7-2.5-2.5
		c-9.1-0.9-18.2-0.8-27.3-0.7c-9.1,0.1-18.2,0.2-27.3,0.2c-16.4,0-32.8,0-49.1,0.1c-5.5,0-10.9,0.2-16,2.8
		c-5.4,0.9-10.9,1.4-16.1-0.6c-2.9-1.1-5.8-1.9-8.8-2c-7.3-0.1-14.6-0.2-21.8-0.1c-1.8,0-3.6,0.7-5.1,1.8c-1.5,1.1-2.9,2.1-4.4,3.2
		c-2.6,1.9-5.5,2.4-8.6,2.2c-1.8-0.2-3.6-0.5-5.1-1.7c-1.4-1.1-2.8-2.3-4.3-3.4c-1.5-1.1-3-2-4.9-2.2c-1.8-0.3-3.6-0.6-5.3-1.3
		c-4.5-1.7-9.4-2.5-13.7-4.8c-0.5-0.3-1.2-0.2-1.7-0.3c-2.2-0.6-6.5,2.1-7,4.7c-0.2,1.2-0.6,2.4-0.6,3.5c0,3,0.2,6.1,0.1,9.1
		c-0.1,1.9-1.3,3.3-2.7,4.5c-3.1,2.5-6.5,3.4-10.2,2.1c-4.3-1.5-7-4.7-8.2-9c-0.5-1.7-0.3-3.6-0.8-5.4c-0.9-3.2-3.1-5.2-6.2-6
		c-3.5-1-7.2-1.3-10.8-1c-3.2,0.2-5.7,1.8-7.4,4.6c-1,1.6-1,3.4-1,5.3c0.1,2.5,2.1,4.5,4.6,4.7c3,0.2,6,0.4,9,0.7
		c3.2,0.3,6.7,4,7.2,7.3c0.1,0.6,0.2,1.2,0.2,1.8c0.1,1.2,0.1,2.4,0.2,3.6c0.6,4.2,2.5,5.6,5.8,5.8c7.3,0.4,14.5,0.5,21.8-0.1
		c0.6,0,1.1-0.4,1.7-0.6c1.5-0.5,3.1-2.4,3.2-4c0.2-3.6,0.3-7.2,0.6-10.8c0.1-1.1,1-2.2,2.1-2.8c2.2-1.2,4.6-1.4,7-1.1
		c1.8,0.2,3.6,0.7,5,1.9c1.8,1.6,3.5,3.4,5.4,4.8c3.5,2.5,7.3,4.3,11.7,4.3c1.8,0,3.6,0,5.5,0c3.1,0.1,5.9-0.7,8.8-1.9
		c2.2-1,4.5-1.6,6.6-2.9c3.6-2.3,8-2.7,12-4c0.5-0.2,1.2,0.3,1.7,0.5c2.3,0.8,4.7,1.2,7.1,1.3c10.9,0.6,21.8,0.6,32.7,0.1
		c0.6,0,1.2,0,1.8-0.2c1.7-0.4,3.6-0.7,5.2-1.4c2.8-1.2,5.7-2,8.8-2c15.2-0.3,30.3-0.9,45.5-0.7c7.3,0.1,14.6,0,21.9,0
		c3.7,0,7.2-0.5,10.7-1.8c1.7-0.6,3.6-0.7,5.4-0.4c4.1,0.7,9.4,5.9,9.7,9.9c0.2,3,0.3,6.1,0.3,9.1c0,3.2-1.5,5.8-3.7,8.1
		c-2.1,2.2-4.5,4-7.3,5.3c-1.7,0.8-3,1.9-4.3,3.3c-1.2,1.3-1.3,3,0,4.8c0.7,1.1,1.6,1.8,2.8,2.2c3.6,1,7.2,0.8,10.8,0
		c1.8-0.4,4.6-3.2,5-5c0.3-1.2,0.7-2.3,0.8-3.5c0.2-3.7,0.7-7.2,2.5-10.5c0.8-1.6,1.3-3.4,1.4-5.2
		C1080.4,800.7,1080.4,797.1,1080.6,793.1z M1149.2,796.4c-0.1-1.2,0-2.5-0.3-3.6s-0.6-2.4-1.3-3.3c-1.4-1.9-3.2-3.6-4.8-5.5
		c-0.8-1-1.3-2.1-1.3-3.3c-0.2-2.4-0.2-4.9-0.6-7.2c-0.7-4-4.4-7.6-9.3-6.2c-1.3,0.4-2.2,0.9-2.9,2c-1.3,2.3-1.3,4.6,0,6.8
		c0.9,1.6,2.1,3,3.2,4.4c1.7,1.9,2.7,4,2.8,6.5c0.2,3,0.1,6.1,0.4,9.1c0.2,1.8,1.1,3.4,2.6,4.7c1.9,1.7,4,2.6,6.6,2.4
		c1.6-0.1,3.7-1.6,4.1-3.1C1148.8,798.8,1149,797.6,1149.2,796.4z M1162.6,756.8c-4.3-0.3-6.4,1.7-6.6,6.3c0,1.2,0.2,2.4,0.4,3.5
		c0.3,1.7,2,3.5,3.4,3.6c2.4,0.3,4.8,0.5,7.1,0.7c1.8,0.2,3.5,0.8,4.9,2c2.3,2,4.4,4.1,6.7,6c3.5,3.1,9.2,3.5,12.6-1.2
		c1.2-1.7,1.3-5.1,0.2-6.8c-1.3-2.1-3.2-3.6-5.7-3.8c-3-0.2-6-0.1-9-0.3c-1.8-0.1-3.6-0.8-4.9-2.1c-2.1-2.1-4-4.5-5.9-6.7
		C1165,757.3,1163.9,756.8,1162.6,756.8z M1357.1,667.7c-2.4,0.2-4.8,0.4-7.2,0.6c-1.7,0.2-3.1,1.5-3.6,3.4c-0.8,3,1.2,6.4,3.9,7
		c4.7,1.1,9.5,1.3,14.3,1.3c1.8,0,3.4-0.8,4.8-2c1.5-1.4,1.6-3.1,1.5-4.9c-0.1-1.6-1.7-3.7-3.1-4c-0.6-0.1-1.1-0.4-1.7-0.5
		C1363.1,668.3,1360.1,668,1357.1,667.7z M1105.9,814.4c0.9-0.1,3.2-0.3,5.6-0.6c2.3-0.2,4.3-2.2,4.9-4.4c0.6-2.4,0.6-4.7,0.1-7
		c-0.5-2.5-4.7-5.1-6.8-4.3c-2.2,0.8-4.5,1.6-6.6,2.5c-2.3,1-3.8,2.9-4.5,5.2C1097,810.5,1099.7,814.3,1105.9,814.4z M1207.9,757
		c-0.1,3.7,0.7,5.6,3.4,7.8c1.7,1.4,4.8,1.6,6.6,0.2c0.5-0.3,1-0.7,1.4-1.1c3.6-3.1,4.4-8.7,1.7-12.8c-0.3-0.5-0.8-0.9-1.3-1.2
		C1214.9,747.5,1208.1,751.6,1207.9,757z M1112.7,775.3c-0.2-1.2-0.3-2.4-0.5-3.6c-0.3-2-1.6-3.2-3.3-3.9c-2.3-0.9-4.7-1-7.1-0.3
		c-1.7,0.5-3,1.8-3.6,3.6c-0.8,2.4-0.7,4.8,0.1,7.1c0.7,1.7,1.8,3.1,3.9,3.3c0.6,0.1,1.2,0.3,1.8,0.4s1.2,0,1.8,0
		C1110.2,781.7,1112.5,779.5,1112.7,775.3z M1037.2,814.3c4-0.1,6.4-1.5,8-4.4c0.9-1.7,1-3.5,0.2-5.2c-0.5-1.1-1.2-2.1-2-3
		c-2.9-2.9-8.9-2.6-10.7,1.7c-0.7,1.7-1,3.5-0.9,5.3C1032,811.7,1034.8,814.3,1037.2,814.3z"/>
	<path class="st1" d="M638.3,902.2c-0.1,1.2-0.1,2.4-0.2,3.6c-0.3,2.4-3.4,5.8-5.9,6.3c-0.6,0.1-1.2,0.2-1.8,0.3
		c-3.6,0.3-7.3,0.3-10.6-1.5c-2.7-1.5-5.9-1.4-8.7-2.5c-2.4-1-4.5-1.1-6.9-0.1c-3.4,1.4-7.1,1.4-10.8,1.1c-1.8-0.1-3.6-0.5-5.3-1.3
		c-2.2-1-4.6-1.6-7-1.6c-2.4,0-4.9,0-7.3-0.1c-4.3-0.2-8.4-0.8-12.3-2.8c-2.2-1.1-4.6-1.4-7.1-1.4c-6.7,0.1-13.4,0.3-20,0.3
		c-9.1,0-18.2-0.3-27.3-0.4c-2.5,0-4.8-0.5-7.1-1.4c-4.6-1.9-9.4-2.5-14.3-2.6c-4.2-0.2-8.5-0.2-12.8,0c-4.3,0.1-8.4-0.5-12.5-2
		c-1.7-0.6-3.6-0.5-5.4-0.8s-3.6-0.4-5.3-1.3c-3.8-2.2-8-2.7-12.3-2.8c-4.9-0.1-9.7-0.1-14.6-0.2c-1.2,0-2.5,0.1-3.6-0.4
		c-5.7-2.5-11.9-2.1-17.8-3.4c-4.1-0.8-7.9-3.1-12.3-2.9c-3.6,0.1-7.3-0.3-10.9-0.6c-1.8-0.1-3.6-0.4-5.3-1.2
		c-3.4-1.6-7-1.9-10.7-1.8c-4.9,0.1-9.5-0.8-14.1-2.9c-3.8-1.8-8-2.9-12.1-3.8c-2.9-0.7-6.1-0.2-9-1.3c-0.5-0.2-1-0.7-1.3-1.2
		c-1-1.5-0.4-3.8,1-4.7c2.7-1.7,5.6-2.1,8.7-1.3c3,0.8,5.3,2.9,8.4,3.5c4.2,0.8,8.3,1.5,12.3,3.1c2.2,0.9,4.8,0.8,7.2,1.1
		c2.4,0.3,4.9,0.2,7.2,1.1c2.9,1.2,5.8,1.6,8.9,1.7c3.6,0.1,7.3,0.5,10.9,0.9c2.4,0.2,4.8,0.7,7.1,1.6c2.9,1.1,5.9,1.3,9,1.4
		c6.1,0.2,12.1,0,18.2,0.2c3.6,0.1,7.4-0.1,10.8,1.3c5.8,2.5,11.8,2.5,17.9,2.6c7.3,0.2,14.6,0,21.9,0.1c3.6,0,7.2,0.6,10.7,1.8
		c2.2,0.8,4.7,1.2,7.1,1.4c4.2,0.4,8.5,0.7,12.7,0.9c1.9,0.1,3.6,0.6,5.3,1.3c2.3,0.9,4.7,1.1,7.1,1.1c10.3,0,20.7,0,31,0
		c3.6,0,7.3-0.2,10.9,0.1c6,0.4,12.2,0.3,17.9,2.8c1.7,0.7,3.6,0.6,5.4,0.6c9.1,0,18.2,0,27.3,0c6.1,0,12.1,0,18.2,0.2
		c1.8,0,3.6,0.5,5.4,0.8c1.7,0.3,3.3,1.8,3.7,3.5C638,899.8,638.1,901,638.3,902.2z"/>
	<path class="st1" d="M501,745.1c5-0.5,9.8-0.9,14.7-0.3c1.8,0.2,3.6,0.6,5.1,1.8c1.9,1.5,3.7,3.1,5.6,4.6c1.4,1.1,2.8,2.4,4.3,3.3
		c1,0.6,2.2,1.1,3.3,1.3c7.8,1.3,15.7,0.9,23.6,1c3.1,0,6,0.6,8.8,1.7c1.7,0.6,3.5,0.9,5.3,1.2c1.8,0.3,3.8,0.1,5.3,0.9
		c4.5,2.3,9.3,2.4,14.2,2.5c3.6,0.1,7.3,0.3,10.9,0.6c1.2,0.1,2.5,0.1,3.6,0.6c4.4,2.2,9.5,2.2,13.8,4.4c3.9,2,8.2,2.1,12.1,3.9
		c1.1,0.5,2.3,0.8,3.5,0.8c6.7,0,13.3,1.2,20,0.5c3.6-0.4,7.2-0.5,10.9-0.1c4.4,0.4,8.4,4,9.1,7.7c0.2,1.2,0.1,2.4-0.2,3.6
		c-0.6,3.2-4.8,4.9-7,4c-1.1-0.5-2.3-0.8-3.4-1.3c-2.8-1.5-5.7-1.9-8.8-2c-2.4-0.1-4.8,0-7.2,0.2c-4.8,0.3-9.7,0-14.5-0.4
		c-2.4-0.2-4.8-0.8-7-1.8s-4.6-1.5-7-1.9c-1.8-0.3-3.7-0.4-5.3-1.2c-3.9-1.8-8-2.9-12.3-3c-4.3-0.1-8.2-2-12.4-2.5
		c-4.2-0.5-8.4-0.6-12.7-1c-1.2-0.1-2.4-0.5-3.5-1c-3.3-1.7-7-2.1-10.6-2.3c-3.6-0.2-7.3,0-10.9-0.1c-4.8-0.1-9.7-0.1-14.5-0.6
		c-6.1-0.7-11.8-2.7-16.1-7.5c-1.6-1.8-3.4-3.4-5.2-5.1c-0.9-0.9-2.1-1.2-3.3-1.4c-4.3-1-8.5-0.7-12.4,1.3
		c-3.3,1.7-6.6,2.9-10.4,2.7c-4.2-0.2-8.5-0.1-12.7-0.3c-1.8-0.1-3.6-0.5-5.3-1c-2.4-0.8-3.9-2.8-4.8-5.1c-0.2-0.5-0.1-1.2,0-1.8
		c0.9-3,2.6-5.5,5.1-7.2c1.4-1,2.8-2.1,4.9-0.9c1.5,0.9,3.4,1.2,5.2,1.5C489.1,746.1,495.1,745.7,501,745.1z"/>
	<path class="st1" d="M317.1,704.9c0.1-4.3,0-7.9,0.4-11.5c0.3-2.4,1.7-4.5,4.1-5.5c1.1-0.5,2.3-0.3,3.2,0.6c1.8,1.7,3,3.7,3,6.3
		c-0.1,3.6-0.3,7.3-0.2,10.9c0.1,2.4,0.4,4.8,1.1,7.2c0.6,2.3,2.1,4.3,4.1,5.8c0.5,0.3,1,0.8,1.6,0.9c2.4,0.4,4.8,0.6,7.2,0.9
		c4.2,0.5,8.1,2.5,12.4,2.4c4.2-0.2,8.5,0,12.7,0c1.8,0,3.6,0,5.4,0.4c1.8,0.3,3.4,1.1,4.5,2.7c0.7,1,1.6,1.9,1.9,3
		c0.3,1.1,0.4,2.5-0.1,3.5c-0.5,1.1-1.9,1.6-3.1,1.6c-4.2-0.1-8.5-0.2-12.7-0.3c-1.8-0.1-3.6-0.6-5.2-1.3c-2.3-0.9-4.7-1.1-7.1-1.3
		c-3.7-0.2-7.1-1.5-10.3-3.3c-2.1-1.2-4.2-2.5-6.3-3.6c-1-0.5-2.3-0.9-3.4-1c-3.8-0.2-7-2-10.1-3.8c-1.6-0.9-2.8-2.3-2.9-4.3
		C317.3,711.5,317.2,707.9,317.1,704.9z"/>
	<path class="st1" d="M426.1,748.5c-3.6,0.1-7.2,0-10.7-1.5c-1.7-0.7-3.4-1.3-5.2-1.5c-6.1-0.6-11.6-3.3-17.5-4.6
		c-1.7-0.4-3.1-1.8-4.1-3.4c-0.3-0.5-0.7-1.2-0.6-1.6c0.2-0.5,0.9-0.8,1.5-1c3.6-0.8,7.2-0.8,10.7,0.6c2.3,0.9,4.5,1.9,7,1.9
		c9.7,0,19.4-0.1,29.1-0.1c1.9,0,3.4-1.1,4.9-2.2c2.9-2.2,5.1-5.1,8.3-7.1c2.1-1.3,6.3-1.3,8.6,0.3c0.5,0.3,1,0.7,1.4,1.1
		c0.8,0.9,1.5,1.9,2.3,2.8c-0.2,1.9-1,3.5-2.3,4.7c-2.2,2.1-4.6,4-7,5.8c-1.4,1.1-3.1,1.9-5,2c-2.4,0.1-4.8,0.5-7.2,0.7
		c-2.4,0.2-4.8,0.8-7,1.8C431,748.2,428.6,748.4,426.1,748.5z"/>
	<path class="st1" d="M368.5,675.6c-1.2,0-2.4,0.1-3.6-0.1c-2.9-0.5-4.2-2.8-2.5-5.4c2.2-3.2,3.1-6.5,2.2-10.3
		c-0.3-1.2-0.6-2.3-1.1-3.5c-0.4-1.1-1-2.2-1.5-3.3c-0.7-1.7,0.9-3.1,3.2-2.8c0.6,0.1,1.2,0.1,1.8,0.2c4.2,0.8,7.8,3.5,12.1,3.6
		c5,0.2,9.2,3,13.9,4c4.1,0.9,7.9,3.1,12.1,3.9c1.5,0.3,3,3.3,2.3,4.3c-0.7,1.1-1.9,1.6-3.1,1.7c-1.2,0.1-2.4,0.1-3.6,0.1
		c-0.6,0-1.2-0.2-1.7-0.4c-4.3-2.3-9.3-2.8-13.6-5c-3.5-1.7-7.1-1.3-10.5,0.4c-1.1,0.5-2.1,1.2-3.2,1.8c-3.5,2.1-3.2,2.2-3.6,5.7
		c-0.2,1.8-0.2,3.6-0.2,5.5C368,676.1,368.5,675.6,368.5,675.6z"/>
	<path class="st1" d="M310.2,654.8c0.1-0.5,0.2-2.4,1.8-3.5c1-0.7,3.5,0.2,4.6,1.8c1.4,2,3.1,3.6,5.3,4.7c3.2,1.6,6.5,3,10.2,3.2
		c1.8,0.1,3.6,0.5,5.2,1.2c5,2.1,10,4.1,14.3,7.5c1,0.8,1.3,1.9,1,3.2c-0.3,1.1-1,2.1-2.2,2.5c-2.3,0.8-4.7,1-6.9-0.4
		c-2.1-1.3-4.1-2.4-6.2-3.7c-2.6-1.6-5.4-2.6-8.5-2.6c-3,0-6-0.1-9-0.1c-5.3,0.1-9-4.8-9.5-9.1C310.1,658.5,310.2,657.3,310.2,654.8
		z"/>
	<path class="st1" d="M261.9,659.3c-2.3-1.1-4.8-1.3-7.2-1.3c-6-0.1-12.1,0-18.1-0.3c-5-0.2-9.6,0.7-14,2.9
		c-1.1,0.6-2.3,0.5-3.6,0.3c-1.3-0.3-2.3-0.9-2.3-2c0-0.5,0.3-1.2,0.7-1.6c0.8-0.8,1.7-1.7,2.8-2.2c2.2-1.2,4.9-0.7,7-1.7
		c4.4-2.1,9-3.3,13.9-4c1.8-0.2,3.4-1.2,5.2-1.5c1.1-0.2,2.5-0.2,3.5,0.2c3.9,2,8.3,1.3,12.3,2.7c2.5,0.9,3.7,2.8,4.1,5.4
		c0.2,1.3-0.2,2.4-1.2,3.2C264.1,660,263,659.9,261.9,659.3z"/>
	<path class="st1" d="M291.4,695.8c-0.1-3-0.2-6-0.3-9c-0.1-3-0.7-5.9-1.9-8.7c-0.7-1.7-0.9-3.5-0.8-5.3c0.1-1.3,0.5-2.4,1.5-3
		c0.3-0.2,1.2,0.2,1.7,0.5c4.3,2.5,7.3,6.2,9.6,10.5c0.9,1.7,1,3.4,0.8,5.2c-0.2,1.2-0.5,2.3-0.9,3.5c-0.8,2.3-1.3,4.6-1.3,7
		c-0.1,4.2,0.5,8.4-0.6,12.5c-0.3,1-1.2,2-2,2.8c-0.3,0.3-1.1,0-1.7-0.1c-1.9-0.2-3.3-1.7-3.5-3.3c-0.1-1.2-0.4-2.4-0.5-3.6
		c-0.1-3,0-6,0-9C291.3,695.8,291.4,695.8,291.4,695.8z"/>
	<path class="st1" d="M406.3,719.6c-0.6,0-1.2,0-1.8-0.1c-1.7-0.3-3.6-0.4-5.2-1.2c-5.4-2.5-11.7-2.4-16.6-6c-0.5-0.3-1-0.7-1.3-1.2
		c-0.5-0.9,0.1-1.7,1.5-2.3c1.6-0.7,3.3-1.4,4.9-2.2c2.3-1.1,4.8-1.3,6.9-0.6c3.4,1.1,6.8,2.1,10.2,3.1c2.9,0.9,5,3.1,6.6,5.6
		c0.8,1.2-0.4,4.3-1.7,4.4C408.6,719.3,407.5,719.4,406.3,719.6z"/>
	<path class="st1" d="M419.4,807.9c-1.9-0.2-3.7-0.2-5.4-0.5c-3.9-0.5-6-3.1-5.9-7.4c0-0.6,0-1.2,0.1-1.8c0.5-2.4,1.3-4.6,3.7-5.6
		c2.1-1,4.3-1.8,6.5-2.6c0.5-0.2,1.2-0.1,1.8,0c4.2,0.8,7.2,4.5,7.1,8.8c0,1.2-0.2,2.4-0.3,3.5c-0.5,3.1-3.1,5.5-5.9,5.6
		C420.4,807.9,419.8,807.9,419.4,807.9z"/>
	<path class="st1" d="M298.5,733.3c2.8,0.2,5.2,0.3,7.6,0.6c2.4,0.3,4.7,1,6.7,2.2c3.1,1.8,5.9,4,9.2,5.6c1.3,0.6,1.5,1.9,0.7,2.6
		c-0.4,0.4-0.9,0.9-1.4,1c-4.2,0.9-8.3,0.2-12.4-0.8c-4.3-2.4-9.1-2.7-13.8-3.6c-1.7-0.4-3.2-1.5-4.4-2.9c-0.4-0.4-0.7-1-0.8-1.6
		c-0.1-1,0.6-1.9,2-2.2C294.2,733.9,296.6,733.6,298.5,733.3z"/>
	<path class="st1" d="M179.1,654.6c2.4,0,4.8-0.2,7.1,0.1c1.8,0.2,3.3,1.1,4.5,2.6c0.9,1.2,1,2.2,0,3c-1,0.7-2,1.2-3.1,1.7
		c-3.7,2.1-7.7,2.9-11.9,2.9c-1.2,0-2.4-0.1-3.5-0.2c-1.9-0.1-3.3-1-4.7-2.2c-2-1.8-2.4-3.2-1.3-4.5c1.1-1.4,2.4-2.6,4.1-3.2
		c0.6-0.2,1.2-0.2,1.7-0.2C174.4,654.5,176.7,654.5,179.1,654.6C179.1,654.6,179.1,654.6,179.1,654.6z"/>
	<path class="st1" d="M351.8,791.9c-3.8-0.3-6.5-1.5-8.4-4c-0.7-1-0.9-2.1-0.6-3.3c0.8-3.2,3.3-5,6.1-5.9c4-1.2,8.2-1.5,12.3-0.5
		c2,0.5,3.3,3.6,2.5,5.7C362,788.6,356.2,792.5,351.8,791.9z"/>
	<path class="st1" d="M237.3,612.7c0,0,0-1.8,0-3.6c0-1,2.8-3.1,4.1-2.9c1.2,0.2,2.4,0.2,3.4,0.7c1.5,0.8,2.8,2.1,3.2,4
		c0.9,4.7,0.6,9.5,0,14.2c-0.1,1-1,2.1-1.8,2.9c-0.3,0.3-1.1,0.2-1.6,0.4c-1.3,0.5-2.3,0.2-3.3-0.8c-1.8-1.7-2.8-3.8-3.4-6.1
		c-0.2-0.6-0.1-1.2-0.2-1.8C237.6,618,237.5,616.3,237.3,612.7z"/>
	<path class="st1" d="M274.1,693.9c-0.6,3.4-0.5,4.1-0.8,4.6c-0.6,1-1.3,2-2.1,2.6c-1.1,0.8-4.1,0.1-4.9-1c-1.4-1.9-2.9-3.9-3-6.3
		c-0.1-4.7,0-9.5,0-14.2c0-0.6,0.4-1.1,0.6-1.6c0.4-1.4,1.3-1.7,2.8-1.7c1.2,0,2.2,0.3,2.6,1.7c1.2,4,2.2,7.9,3.7,11.8
		C273.8,691.8,274,694.3,274.1,693.9z"/>
	<path class="st1" d="M297,632.8c-0.3,1.1-0.9,2.3-1,3.4c-0.2,1.8-0.2,3.6-0.3,5.4c-0.2,6.3-0.1,6.1-4.7,13.3
		c-0.8,1.3-1.7,1.4-3,0.3c-1.9-1.6-3.3-3.5-3.5-6c-0.1-1.2-0.3-2.4-0.2-3.6c0.1-1.2,0.3-2.4,0.7-3.5c0.4-1.1,1.1-2.2,1.9-3
		c3.1-2.9,3.8-7.4,7-10.3c0.3-0.3,1.2-0.2,1.8-0.1c0.5,0.1,1.1,0.5,1.4,0.9C297.8,630.5,297.6,631.6,297,632.8z"/>
	<path class="st1" d="M378.8,796c0.3-2,0.5-4.4,1-6.7c0.7-3.2,4.8-5.7,8.5-3.2c1.1,0.7,1.7,1.7,2,2.9c1,3.6,0.7,7.2-0.4,10.7
		c-0.6,1.8-1.8,3-3.6,3.7c-2.9,1.1-6.7-0.6-7.1-3.4C379.1,798.8,379,797.6,378.8,796z"/>
	<path class="st1" d="M355.8,705.2c-2.2,0-2.9,0-3.4,0c-4-0.2-6.6-2.5-8.3-5.9c-0.7-1.4,0-4.2,1.3-4.7c1.6-0.7,3.2-1.3,5.1-1.1
		c4.9,0.6,9.1,2.6,12.8,5.6c0.9,0.7,1,2.1,0.5,3.3c-0.4,1.1-1.4,1.8-2.5,2.2c-0.6,0.2-1.2,0.3-1.7,0.4
		C357.7,705.1,355.9,705.2,355.8,705.2z"/>
	<path class="st1" d="M316.3,779.3c0.4-2.9,0.7-5.9,1.2-8.8c0.3-2.2,3.6-3.6,5.5-2.4c2.6,1.7,4.1,4.1,4.7,7.2
		c0.6,3.2-0.4,5.9-2.4,8.2c-1.1,1.4-2.6,2.4-4.2,3.3c-1.2,0.7-2.2,0.7-3.3,0c-1.4-1.1-2.8-2.3-2.6-4.2
		C315.2,781.6,315.9,780.5,316.3,779.3z"/>
	<path class="st1" d="M192.1,611.6c-0.2,0.4-0.3,1.1-0.7,1.3c-3.6,2-7.3,3.9-10.9,5.9c-1.8,1-2.1,2.9-2.3,4.6
		c-0.2,1.7,0.1,3.6,0,5.3c-0.1,1.2-0.6,2.4-1.7,2.8c-1.2,0.4-2.4-0.1-3.2-0.8c-0.9-0.8-1.4-2-0.9-3.2c1.3-3.3,2.8-6.4,3.3-10
		c0.5-3.6,2.8-6.4,6-8.4c3.8-2.3,5.8-2.1,9.6,0.9C191.8,610.3,191.9,611.1,192.1,611.6z"/>
	<path class="st1" d="M212.6,701.6c0.5,0.1,2.3,0,3.9,0.6c2.8,1,5.1,2.7,5.8,6c0.3,1.4-1.3,3.9-2.6,4c-4.2,0.5-8.2,0.3-12-1.7
		c-1.6-0.8-3.2-1.4-4.8-2.1c-1.2-0.6-1.7-1.5-1.7-2.7c-0.1-1.7,1.3-3.3,3.2-3.5c0.6-0.1,1.2-0.3,1.7-0.3c0.6-0.1,1.2-0.1,1.7-0.1
		C208.9,701.5,210.1,701.6,212.6,701.6z"/>
	<path class="st1" d="M201.1,636.6c-0.4-1.2-0.4-2.3,0.3-3.3c0.3-0.5,0.7-1,1.1-1.3c3.7-3.1,8-5.1,12.6-6.6c2-0.6,5.3,0.4,6.4,2.1
		c2.2,3.1,0.2,7.7-3.4,8.2c-1.8,0.2-3.5,0.6-5.3,0.6c-3.6,0-7.1,0.5-10.6,1.5C202.1,637.9,201.5,637,201.1,636.6z"/>
	<path class="st1" d="M275.3,625.4c-1.1,2.2-2.1,4.3-3.2,6.5c-0.5,1-3.7,2.9-4.5,2.5c-1.1-0.5-2-1.3-2.9-2c-0.5-0.4-0.7-0.9-1.1-1.4
		c-0.7-1-0.9-2.2-1-3.4c-0.1-3.2,1.3-5.8,3.2-8.2c2.3-3.1,6.6-3.3,9.4-0.5c0.9,0.9,1.3,2,1.1,3.2
		C276.1,623.2,275.7,624.3,275.3,625.4z"/>
	<path class="st1" d="M287.2,769.6c0.4-2.4,0.7-4.7,1.4-7c0.3-1.2,1.6-1.7,2.7-2.1c1.3-0.4,2.4-0.4,3.4,0.6c0.8,0.8,1.6,1.7,2.3,2.7
		c0.3,0.5,0.8,1.3,0.6,1.6c-2.1,4.4-1.3,9.5-2.8,14c-0.4,1.2-1.5,1.7-2.7,2.1c-1.3,0.4-2.4,0.3-3.4-0.6c-0.4-0.4-0.9-0.7-1.3-1.2
		c-1.1-1.4-2-2.9-1.3-4.9c0.6-1.7,0.9-3.5,1.4-5.2C287.4,769.6,287.3,769.6,287.2,769.6z"/>
	<path class="st1" d="M214.9,606.3c0.3,0-1.5-0.1-3.2-0.3c-1.2-0.2-2.2-0.7-2.9-1.8c-1.5-2.1-1.5-4.4-0.2-6.5c1-1.6,2.7-2.2,4.5-2.3
		c4.3-0.3,8.1,1,11.2,4c0.9,0.9,1.7,4.1,0.9,4.8c-0.9,0.8-1.9,1.3-2.9,1.8c-0.5,0.2-1.1,0.2-1.7,0.3
		C219.3,606.4,218.1,606.3,214.9,606.3z"/>
	<path class="st1" d="M176.3,696.6c-0.6,0-1.2,0.2-1.8,0.1c-4.6-1.3-9.2-2.5-13.9-3c-2-0.2-2.7-2.1-1.6-3.8c0.7-1,1.4-2,2.5-2.4
		c1.7-0.7,3.4-1.1,5-1.9c2.4-1.1,4.6-0.7,6.8,0.4c1.1,0.5,2.2,0.9,3.2,1.7c1.4,1.1,2.3,2.9,2.4,4.6c0.1,1-0.7,2.2-1.2,3.2
		C177.4,695.9,176.8,696.2,176.3,696.6z"/>
	<path class="st1" d="M150.9,578.2c-2.8,0-5.7,0.2-8.6-0.8c-3.5-1.2-6.2-3.2-7.2-7.1c-0.3-1.3,0.1-2.2,1.3-2.9
		c2.9,0.6,5.5,2.2,8.5,2.3c2.4,0,4.7,0.2,7.1,0.4c2.5,0.2,4.5,1.3,6.3,2.9c0.9,0.9,1.3,2,1.1,3c-0.1,0.4-0.9,0.8-1.4,1
		C155.8,578.1,153.4,578.1,150.9,578.2z"/>
	<path class="st1" d="M244.3,686.7c-0.1,0.5-0.3,2.2-0.6,3.9c-0.4,2.1-3.6,3.5-5.6,2.5c-3.4-1.8-5.1-4.7-4.9-8.6
		c0.1-4,2.5-6.4,5.9-8c1.1-0.5,4.1,0.9,4.5,2C244.3,680.8,244.5,683.1,244.3,686.7z"/>
	<path class="st1" d="M316.6,633.3c0.6,0,1.3-0.3,1.8-0.1c2.7,1.1,5.4,2.3,8.1,3.5c1.3,0.6,1.6,1.6,1.1,3c-0.3,1.1-0.9,2-2.2,2.4
		c-0.6,0.2-1.2,0.2-1.7,0.4c-2.2,0.7-4.6,1.3-6.7,2.3c-1.5,0.7-2.3,0.7-2.8-0.8c-0.2-0.6-0.5-1.1-0.6-1.6c-0.6-2.4-0.5-4.7,0.5-7
		C314.5,634.3,315.5,633.6,316.6,633.3z"/>
	<path class="st1" d="M177.6,580.6c3,0.2,5.9,0.7,8.5,2.3c3.4,2.1,3.7,4.6,0.5,6.5c-0.5,0.3-1,0.6-1.5,0.9c-1.7,0.9-3.4,0.8-5.1,0.1
		c-2.7-1.2-5.1-2.9-6.9-5.3c-0.8-1.1-0.9-2.2-0.3-3.1c0.3-0.5,0.9-1,1.4-1C175.3,580.7,176.5,580.7,177.6,580.6z"/>
	<path class="st1" d="M280.2,833.3c0.2-1.6,0.3-2.8,0.6-4c0.2-1.2,0.8-2.2,1.9-2.9c1.3-0.7,4.2-0.2,4.9,0.7c0.7,0.9,1.4,1.9,2.1,2.8
		c1.2,1.6,1,3.3,0.5,5.1c-0.5,1.7-1.6,3.1-2.9,4.3c-1.6,1.5-5.4,0.6-6-1.4C280.8,836.3,280.5,834.6,280.2,833.3z"/>
	<path class="st1" d="M149.5,607.3c0.1-1.1,0.2-2.3,0.4-3.4c0.5-3.6,4.4-5.5,7.9-4c1.1,0.5,2.5,3.5,2.1,4.5c-1,2.7-2.5,5.2-4.3,7.5
		c-0.8,1-1.8,1.3-3.1,1c-1.1-0.3-2-0.9-2.4-2.1C149.7,609.6,149.6,608.4,149.5,607.3z"/>
	<path class="st1" d="M306.7,869.7c-3.6-0.2-7-1-9.6-3.7c-1-1-1.3-2.1-0.8-3.1c1-2.3,2.9-3.7,5.2-4.3c1.7-0.4,3.5,0.2,4.9,1.3
		c1.9,1.4,3.4,3.2,4.7,5.2c0.8,1.1,1,2.2,0.5,3c-0.7,1-1.8,1.4-3.1,1.4C307.8,869.6,307.3,869.7,306.7,869.7z"/>
	<path class="st1" d="M251.1,832.6c0.1-3.7,0.3-6,1.1-8.3c0.4-1.2,3.3-2.6,4.5-1.9c0.5,0.3,1,0.8,1.2,1.3c2.4,5.1,1.4,11.2-2.4,14.6
		c-1.1,1-2.3,0.7-3-0.2c-0.4-0.5-0.9-0.9-0.9-1.5C251.2,834.9,251.1,833.1,251.1,832.6z"/>
	<path class="st1" d="M157.5,720.1c-1.6-0.2-3.4-0.3-5.1-0.7c-1.2-0.3-2.1-1.1-2.4-2.2c-0.3-1.3,0.1-2.4,0.9-3.1
		c0.4-0.4,0.9-0.8,1.4-0.9c2.9-0.6,5.8-0.5,8.6,1c1,0.6,2.1,1.1,3.2,1.6c1.2,0.6,2.2,1.6,1.9,2.3c-0.5,1.1-1.8,1.4-3,1.5
		C161.1,719.8,159.4,719.9,157.5,720.1z"/>
	<path class="st1" d="M241.8,717.6c0.3-2.2,4.7-5.1,6.7-4.4c1.1,0.4,2,1,2.6,2c0.9,1.5,1.7,3.1,2.4,4.6c0.8,1.7,0,3-2.2,3.4
		c-3.8,0.6-6.8-0.8-8.8-4C242.2,718.7,242,718.2,241.8,717.6z"/>
	<path class="st1" d="M272.7,722.9c1.2,0.2,2.4,0.3,3.5,0.5c2.2,0.4,3,1.1,3.8,3.2c0.5,1.4,0.4,2.4-0.7,3.1c-0.5,0.3-1,0.8-1.5,0.9
		c-3,0.6-6,0.1-8.9-0.7c-1.3-0.3-3-3.3-2.4-4.4c0.5-1,1.4-1.8,2.6-2.1C270.3,723.1,271.6,723.1,272.7,722.9z"/>
	<path class="st1" d="M144.9,668.4c-0.1,2-1,2.8-3.3,3.4c-2.1,0.6-5.2-0.5-6.1-2.3c-0.7-1.6-1.1-3.3-0.5-5.1c0.7-2,2-3.1,3.7-3.1
		c1.1,0,2.2,0.2,3.2,1.1c0.8,0.8,1.6,1.7,2.3,2.6C144.9,666.1,145.1,667.2,144.9,668.4z"/>
	<path class="st1" d="M206.6,683.4c-1.2-0.2-2.5-0.2-3.6-0.6c-1.3-0.5-1.8-1.5-2-2.6c-0.2-1.4,0.1-2.5,1.3-3.1
		c3.4-1.9,6.9-1.9,10.4-0.3c1.3,0.6,1.7,1.7,1.3,3.1c-0.3,1.1-0.8,2.1-2,2.8c-0.5,0.3-1.2,0.4-1.7,0.5
		C209,683.2,207.8,683.3,206.6,683.4z"/>
	<path class="st1" d="M303.5,810.7c-1.2-0.1-2.3-0.1-3.5-0.2c-2.5-0.1-4.4-1.3-6.2-2.9c-0.9-0.8-1.5-2.1-1.1-2.9
		c0.5-1.1,1.8-1.4,2.9-1.6c3-0.4,5.8,0.2,8.6,1.2c1.7,0.6,2.8,1.9,3.8,3.4c0.8,1.3,0.5,2.1-1.1,2.5
		C305.8,810.5,304.7,810.6,303.5,810.7z"/>
	<path class="st1" d="M108.2,556.2c-1.2-0.1-2.4-0.1-3.4-0.5c-1.7-0.6-3.1-1.5-4-3.1c-0.7-1.1-1-2.2-0.4-3c0.7-1,1.8-1.4,3.1-1.3
		c1.1,0.2,2.4,0.1,3.4,0.6c2.1,0.9,4.1,2.1,6.2,3.1c1.2,0.6,2,1.5,1.6,2.3c-0.5,1.1-1.7,1.5-2.9,1.6
		C110.5,555.9,109.3,556.1,108.2,556.2z"/>
	<path class="st1" d="M131.4,603.8c-0.4,1.3-0.7,2.4-1.1,3.4c-0.5,1.4-1.4,1.6-2.7,0.7c-3.9-2.6-4.8-6.1-2.7-10.4
		c0.2-0.5,0.7-1.2,1.1-1.3c1.1-0.3,2.5-0.7,3.3-0.3c0.8,0.4,1.4,1.8,1.7,2.9C131.4,600.5,131.3,602.3,131.4,603.8z"/>
	<path class="st1" d="M182.6,811.7c0.1-0.6,0-1.3,0.2-1.8c0.6-1.2,1.5-1.8,2.6-2.1c1.4-0.4,2.3,0.1,2.9,1.4c1,2.3,1,4.6-0.3,6.8
		c-0.6,1.2-1.6,1.7-3,1.4c-1.1-0.2-2-0.9-2.3-2.2C182.6,814.1,182.7,812.9,182.6,811.7z"/>
	<path class="st1" d="M156.6,802.9c0.2-1.5,0.3-2.7,0.6-3.8c0.4-1.6,1.2-1.9,2.5-1.3c2.3,1.2,3.3,3.1,3.5,5.6
		c0.1,2.6-1.1,4.4-3.3,5.6c-1.2,0.7-2.1,0.2-2.5-1.3C156.9,806,156.8,804.2,156.6,802.9z"/>
	<path class="st1" d="M270,803.8c-1.6-0.2-3.7-1.2-5.1-3.2c-0.8-1.1-1-2.1-0.4-2.9c0.3-0.4,0.9-0.8,1.4-0.9c3.7-0.8,6.9,0.3,9.5,3.1
		c1,1.1,1,2.1,0.2,2.9c-0.4,0.4-0.9,1-1.4,1C273.1,803.9,271.9,803.8,270,803.8z"/>
	<path class="st1" d="M83,635.6c-0.9,0-1.5,0-2.1,0c-1.2,0-2.5-0.4-3-1.5c-0.4-0.9,0.3-2.1,1.1-3c1.8-2.1,3.7-2.5,6.2-1.2
		c1.2,0.6,1.6,1.7,1.3,3c-0.3,1.1-1,1.9-2.1,2.5C83.9,635.5,83.2,635.5,83,635.6z"/>
	<path class="st1" d="M78,572.1c-0.3-0.5-0.8-0.9-1-1.4c-0.7-1.6-0.9-3.3-0.5-5c0.4-1.7,2.3-2.7,3.9-2.1c1.5,0.6,2.9,2.9,2.3,4
		c-0.7,1.6-1.7,3-3.2,3.9C79.1,571.8,78.5,571.9,78,572.1z"/>
	<path class="st1" d="M103.6,586.6c-0.4-0.5-0.9-0.9-1.1-1.4c-0.6-1.7-0.6-3.4-0.1-5.1c0.4-1.3,2.6-2.6,4.2-2.4
		c1.7,0.2,2.9,1.9,2.7,3.7c-0.2,2.7-1.9,4.1-4.2,5C104.7,586.6,104.1,586.6,103.6,586.6z"/>
	<path class="st1" d="M112.5,655.9c0,1.2-0.3,2.4-1.1,3.3c-0.8,1-2,1.3-3.2,0.9c-2.2-0.8-3.6-3.7-2.9-5.8c1.1-3.2,2.3-3.5,5.1-1.3
		C111.4,653.8,112.1,654.7,112.5,655.9z"/>
	<path class="st1" d="M185.8,782c-1.2-0.2-2.4-0.3-3.5-0.6c-1.4-0.3-2.2-1-2.2-2.1c0-1.3,2.6-3.8,3.6-3.4c2.2,0.8,4.4,1.6,6.6,2.5
		c0.5,0.2,1,0.8,1.1,1.3c0.1,0.3-0.3,0.9-0.7,1.1c-0.4,0.4-1,0.7-1.5,0.8C188.2,781.9,187,781.9,185.8,782z"/>
	<path class="st1" d="M1298.7,672.3c-1.2-0.2-2.4-0.2-3.6-0.5c-0.6-0.1-1.2-0.4-1.5-0.9c-0.6-0.8,0-1.7,1.4-2.3
		c1.1-0.5,2.2-1,3.3-1.5c2.4-1.1,4.4-0.6,6.3,1.7c1,1.3,0.7,2.2-0.5,2.8C1302.3,672.3,1300.5,672.3,1298.7,672.3z"/>
	<path class="st1" d="M238.6,790.3c2.8,0.1,5.1,1.7,7.4,3.4c0.3,0.2,0.6,1,0.4,1.2c-0.2,0.5-0.8,1-1.3,1.2c-1.7,0.5-3.5,0.3-5.1-0.5
		c-1.7-0.8-2.7-2.2-2.9-4C237.2,791.2,238,790.8,238.6,790.3z"/>
	<path class="st1" d="M272.6,862.5c-0.3,1.6-1.8,1.6-3.6,0.1c-0.8-0.7-1.5-1.6-1.7-2.8c-0.2-1.1,3-1.4,4.4-0.4
		c0.4,0.3,0.8,0.8,0.9,1.3C272.7,861.2,272.6,861.8,272.6,862.5z"/>
	<path class="st1" d="M146.8,633.9c0.6-1,1.4-1.4,2.6-1.5c1.3-0.1,2.2,0.3,2.8,1.5c0.2,0.5,0.2,1.1,0.3,1.6c0.2,1.2-0.2,2.2-1.3,2.8
		c-0.3,0.2-1.1-0.3-1.6-0.5C148.1,636.9,147.1,635.7,146.8,633.9z"/>
	<path class="st1" d="M350.2,646.4c-2.7,0.4-5.4,0.3-8.1-0.2c-1.3-0.2-2-1.1-2.8-3.5l-0.5,0.5c2.7-0.4,5.3-0.2,8,0.3
		c1.3,0.2,2,1,2.9,3.3L350.2,646.4z"/>
	<path class="st1" d="M205,734.1c-1.2,0.1-2.3-0.3-3-1.3c-0.7-1,1.4-2.5,3.2-2.1c1.1,0.2,2.2,0.4,3.2,0.8c0.5,0.2,0.8,0.7,1.3,1.1
		c-0.5,0.3-0.9,0.8-1.4,1C207.3,733.9,206.1,733.9,205,734.1z"/>
	<path class="st1" d="M349.8,646.9c1.7,0.2,3.3,0.3,5,0.5c0.5,0.1,0.9,0.6,1.4,0.9c-0.6,0.9-1.6,1.3-2.8,1.2
		c-1.2-0.1-2.2-0.5-2.7-1.5c-0.3-0.5-0.3-1.1-0.4-1.6L349.8,646.9z"/>
	<path class="st1" d="M267,751.6c0.5-0.5,0.8-0.9,1.2-1.3c0.3,0.4,0.8,0.8,0.9,1.3c0.2,0.5,0.2,1.1,0,1.6c-0.2,0.5-0.9,1.2-1,1.1
		C267,753.7,266.7,752.7,267,751.6z"/>
	<path class="st1" d="M262.7,774.4c-1.3,0.4-2.2,0-2.7-1.3c-0.1-0.3-0.1-0.9,0-1.2c0.6-1.2,1.6-1.5,2.8-1.2c1,0.2,1.8,0.8,2.4,1.9
		C264.6,773.6,263.7,774.2,262.7,774.4z"/>
	<path class="st1" d="M1359,619.5c-1.1-0.4-1.6-1.3-1.5-2.7c0.1-0.5,0.3-1.1,0.6-1.5c0.7-0.8,1.6-0.4,2,1.1c0.2,0.5,0.1,1.2-0.1,1.7
		C1359.9,618.7,1359.4,619.1,1359,619.5z"/>
	<path class="st1" d="M105.5,686.3c-1.2,0.3-2.3,0-2.6-1.2c-0.2-0.8,0.7-1.6,1.8-1.9c1.2-0.3,2.4,0.1,2.7,1.3
		C107.6,685.4,106.7,686.1,105.5,686.3z"/>
	<path class="st1" d="M101,609.8c-0.3-0.3-0.9-0.7-1-1.1c-0.2-1,0.4-1.7,1.7-1.7c0.5,0,1.1,0.1,1.5,0.4c1.1,0.8,0.9,1.7-0.5,2.4
		C102.3,610,101.6,609.8,101,609.8z"/>
	<path class="st1" d="M82,662.8c0.1,0.3-0.1,0.9-0.3,1.2c-0.8,0.7-1.8,0.7-2.8,0.1c-0.3-0.2-0.8-0.9-0.6-1.1
		c0.2-0.5,0.7-0.9,1.1-1.1C80.6,661.4,81.5,661.8,82,662.8z"/>
	<path class="st1" d="M53,549.6c0.3,0.4,0.9,0.8,1,1.3c0.3,1.2-0.2,2.2-1.2,2.9c-0.1,0-0.8-0.8-0.9-1.3
		C51.3,551.2,51.8,550.2,53,549.6z"/>
	<path class="st1" d="M52.7,579.1c0.2-0.1,0.9,0.2,1,0.6c0.6,1,0.7,2,0.1,2.9c-0.2,0.3-0.9,0.7-1.1,0.6c-0.5-0.2-0.9-0.7-1-1.2
		C51.2,580.7,51.6,579.7,52.7,579.1z"/>
	<path class="st1" d="M27.8,546.6c-0.3,0.1-1,0-1.2-0.3c-0.8-1-0.9-2.1-0.2-3.2c0.2-0.4,0.9-0.8,1.2-0.7c0.5,0.2,1,0.7,1.3,1.2
		C29.3,545,28.9,546.1,27.8,546.6z"/>
	<path class="st1" d="M339.4,642.8c-1.1-0.1-2-0.4-2.8-1.1c0.3-0.3,0.7-0.9,0.9-0.8c1.1,0.4,1.5,1.3,1.5,2.5L339.4,642.8z"/>
	<polygon class="st1" points="206.9,758.1 205.7,758.4 205.8,757.5 	"/>
	<polygon class="st1" points="81.6,539.5 81.2,538.5 82.3,538.7 	"/>
	<path class="st1" d="M26.8,576.4c-0.3-0.4-0.6-0.8-1-1.2c0.4-0.3,0.8-0.9,1.2-0.9c0.4,0.1,0.7,0.7,1,1.1
		C27.6,575.8,27.2,576.1,26.8,576.4z"/>
</g>
</svg>
