<?xml version="1.0" encoding="utf-8"?>
<!-- Generator: Adobe Illustrator 23.1.1, SVG Export Plug-In . SVG Version: 6.00 Build 0)  -->
<svg version="1.1" id="Calque_1" xmlns="http://www.w3.org/2000/svg" xmlns:xlink="http://www.w3.org/1999/xlink" x="0px" y="0px"
	 width="1451.3px" height="1451.3px" viewBox="0 0 1451.3 1451.3" style="enable-background:new 0 0 1451.3 1451.3;"
	 xml:space="preserve">
<style type="text/css">
	.st0{fill:#EFEFEF;}
</style>
<circle cx="106.1" cy="631.3" r="32.9"/>
<g>
	<path class="st0" d="M1301.8,709.5c-1.4,0.1-2.7,0.4-4.1,0.4c-2.8,0-5.5-0.7-7.8-2.4c-1.8-1.4-3.7-2.8-5.7-3.8
		c-2-1.1-4-2.1-6.4-2.5c-1.3-0.2-2.6-0.8-3.9-1.3c-2.6-1-5.2-1.8-7.6-3.3c-2.8-0.5-5.2-1.9-7.7-2.9c-3-1.2-5.9-2.6-9-3.4
		c-3.1-0.8-6-2.3-8.9-3.6c-2.5-1.2-4.9-2.6-7.3-3.9c-5-1.1-9.5-3.4-14.1-5.5c-4.2-0.3-7.7-3.1-11.9-3.4c-1.9-0.1-3.6-0.8-5.2-1.6
		c-4.1-2.1-8.2-4.1-12.4-6.1c-3.3-1.6-6.6-3.3-10.3-3.8c-3.2-2-7.1-2-10.3-3.7c-2.9-1.5-6.3-1.4-9.2-3c-1.2-0.7-2.6-0.8-4-0.9
		c-2.8-0.2-5.3-1.3-7.8-2.5c-4.9-2.5-9.9-4.9-14.8-7.3c-1.7-0.8-3.4-1.4-5.3-1.6c-2.3-0.3-4.2-1.9-6.5-2.3c-1.8-0.3-3.7-0.4-5.4-1
		c-3-1.1-6.2-1.7-9.2-2.8c-3-1.2-6.3-1.6-9.1-3.1c-3.3-1.7-7.2-1.8-10.3-3.8c-4.4-1.2-8.7-2.8-12.8-5c-1.2-0.6-2.6-1.1-3.9-1.3
		c-2.8-0.2-5.4-1.1-8-2c-2.1-0.8-4.5-1.1-6.6-1.8c-1.7-0.6-3.4-1.3-5.3-1.5c-2.3-0.3-4.6-0.3-6.8-0.9s-4.3-1.6-6.5-2.1
		c-4-1-7.7-3.2-11.9-3.2c-3.5-1.1-7-2.1-10.7-2.5c-0.9-0.1-1.8-0.5-2.5-1c-2-1.2-3.8-2.5-5.7-3.8c-2.7-0.6-5.3-1.5-7.9-2.3
		c-3.5-1-7.3-1-10.7-2.6c-0.8-0.4-1.8-0.4-2.7-0.5c-2.8-0.2-5.5-0.3-8.3-0.6c-1.4-0.1-2.8-0.4-4-1c-2.5-1.3-5.2-1.7-8-1.8
		c-2.3-0.1-4.6-0.2-6.9-0.1c-4,0.3-7.2-1.1-9.9-3.8c-0.6-0.6-1.4-1.2-2.1-1.7c-1.9-1.5-4-2.2-6.3-2.4c-3.2-0.2-6.5-0.2-9.4-1.8
		c-1.2-0.7-2.6-0.8-4-1c-1.8-0.2-3.7-0.3-5.5-0.3c-1.8-0.1-3.7,0-5.5-0.2c-0.9-0.1-1.8-0.3-2.6-0.6c-2.1-0.9-4.2-1.9-6.2-3
		c-1.7-0.8-3.5-1.2-5.3-1.4c-1.8-0.1-3.7-0.3-5.5-0.3c-2.4,0-4.5-0.7-6.7-1.6c-1.3-0.5-2.6-0.8-4-1c-2.8-0.3-5.5-0.4-8.3-0.6
		c-0.9-0.1-1.9-0.2-2.7-0.6c-3-1.4-6.3-1.4-9.4-2.3c-3.1-0.9-6.2-1.8-9.4-2.2c-1.3-0.2-2.7-0.7-3.9-1.2c-1.7-0.7-3.5-1.1-5.4-1.2
		c-1.4-0.1-2.9-0.1-4.1-0.6c-4.2-2.1-8.8-2.6-13.4-3c-3.5-1.4-7.1-1.8-10.8-1.9c-1.4,0-2.8-0.3-4-0.9c-3-1.4-6.1-2-9.4-2
		c-3.7-0.1-7.4-0.3-11-0.4c-2.3,0-4.5-0.5-6.7-1.4c-1.3-0.5-2.7-0.7-4-0.9c-1.8-0.3-3.7-0.4-5.5-0.6c-2.7-0.4-5.2-1.8-8.1-1.7
		c-2.3,0.1-4.6-0.2-6.9-0.4c-0.9-0.1-1.8-0.2-2.8-0.3c-1.8-0.2-3.6-0.6-5.3-1.3c-1.7-0.7-3.5-1-5.4-1c-3.2,0-6.5-0.1-9.7,0
		c-3.7,0-7.3-0.4-10.7-2.2c-0.8-0.4-1.7-0.6-2.6-0.7c-2.8-0.3-5.5-0.5-8.3-0.6c-1.9-0.1-3.6-0.5-5.3-1.3c-2.1-1-4.2-2-6.3-2.8
		c-1.3-0.5-2.8-0.2-3.9,0.6c-1.6,1.1-2.7,2.5-2.7,4.5c0,2.3,0.1,4.6,0.2,6.9c0,1-0.2,1.8-0.8,2.6c-1.1,1.4-2.3,2.9-3.4,4.3
		c-0.9,1.2-0.8,2.6-0.2,3.9c0.6,1.3,1.4,2.4,2.7,3.1c1.6,0.9,3.3,1.6,5,2.4c1.3,0.6,2.7,0.6,4,0.5c1.5,0,2.7-0.7,3.4-1.9
		c1.2-2,2.3-3.9,1-6.4c-0.8-1.6-1.4-3.4-2.1-5.1c-0.5-1.3,0.4-2.2,2.2-2.5c2.3-0.3,4.6-0.2,6.9,0.2c2.3,0.4,4.2,1.8,6.3,2.8
		c1.1,0.5,1.3,1.2,0.9,2.2c-1.1,2.5-2.3,5-3.2,7.6c-0.3,0.8,0,1.9,0.3,2.6c1,2.2,2.6,3.7,5.2,3.8c2.3,0.1,4.6,0.1,6.9,0.1
		c1.9,0,3.6,0.3,5.3,1.2c2,1.1,4.1,2,6.2,2.9c1.3,0.5,2.6,0.9,4,0.9c1.8,0,3.7,0,5.5,0.1c2.3,0.1,4.6,0.5,6.7,1.6
		c1.6,0.9,3.4,1.3,5.3,1.4c1.4,0.1,2.8,0.2,4.1,0.3c1.9,0,3.6,0.4,5.4,1.1c0.8,0.4,1.7,0.7,2.6,0.9c2.8,0.4,5.2,1.9,7.9,2.4
		c2.7,0.5,5.5,0.5,8.3,0.7c1.9,0.1,3.7,0.4,5.4,1.2c1.7,0.8,3.4,1.2,5.3,1.5c3.6,0.5,7.4-0.2,10.9,1.5c2.9,1.5,6.3,1.3,9.2,2.8
		c2.9,1.5,6.3,1.5,9.2,3c1.2,0.6,2.6,0.8,4,1c2.3,0.3,4.5,1,6.6,2c0.8,0.4,1.7,0.6,2.6,0.8c2.2,0.5,4.6,0.3,6.8,1.1
		c1.7,0.6,3.5,1.3,5.3,1.6c2.7,0.6,5,2.4,7.8,2.5c2.3,0.1,4.6,0.4,6.9,0.4c2.4,0,4.5,0.8,6.6,1.7c1.3,0.5,2.6,0.9,4,1
		c2.8,0.2,5.3,1.1,7.9,2.2c3.4,1.4,6.6,3.3,10.3,3.9c3.3,2.1,6.9,2.3,10.6,2.3c2.8,0,5.5,0,8.3,0.2c0.9,0,1.8,0.4,2.6,0.9
		c2,1.1,4,2.2,5.3,4.3c0.8,1.2,1.8,2.1,3.2,2.4c3.6,0.7,7.2,1.3,10.7,2.6c1.7,0.6,3.6,0.7,5.4,0.8c2.9,0.1,5.4,1.1,7.9,2.3
		c2.9,1.4,5.7,3,8.5,4.6c1.6,0.9,3.4,1.3,5.2,1.7c3.1,0.6,6.1,2,9.4,2.1c1.9,0.1,3.6,0.9,5.1,2c0.7,0.5,1.5,1.1,2.2,1.7
		c1.1,0.9,2.2,1.6,3.6,2c2.2,0.6,4.4,1.3,6.6,1.9c3.1,0.8,6.4,0.6,9.3,2.2c2.8,1.6,6.2,1.7,9.1,3.2c1.6,0.8,3.6,0.8,5.3,1.5
		c3,1.2,5.8,2.7,8.7,4.1c4.2,2,8.2,4.2,12.5,5.7c3.9,1.4,7.6,3.3,11.8,3.9c5.1,2.2,10.6,3.2,15.5,5.8c3.3,1.7,7.1,1.9,10.3,3.9
		c5.7,1.7,11.1,4.2,16.5,6.8c2.1,1,4.2,1.8,6.2,3c2.4,1.5,5.2,1.9,7.7,2.9c2.6,1,5.2,1.8,8,2.1c1.4,0.1,2.7,0.5,3.9,1.2
		c5.7,2.9,11.5,5.7,17.3,8.6c5.7,2.9,11.3,6.1,17.7,7.6c6.6,3.4,13.7,5.4,20.3,8.5c1.7,0.8,3.3,1.6,5.2,1.9c1.4,0.3,2.6,0.9,3.8,1.7
		c2.3,1.5,4.5,3.1,7,4.4c2.4,1.2,4.3,3.5,6.9,4.5c2.2,0.8,4.3,1.7,6.5,2.4c3.1,1,5.7,2.9,8.9,3.6c3.2,0.7,5.8,2.7,8.8,3.9
		c1.3,0.5,2.5,1.2,3.9,1.4c3.9,0.5,6.9,2.5,9.5,5.3c4.3,4.5,9.7,6.8,15.5,8.5c2.9,0.2,5.3,1.6,7.6,3c1.6,1,3.1,2,4.5,3.1
		c1.9,1.4,4,2.3,6.3,2.7c0.4,0.1,0.9,0.2,1.3,0.4c0.8,0.4,1.7,0.8,2.4,1.4c2.8,2.3,6.3,3.8,8.9,6.6c1,1,1,1.6-0.3,2
		c-0.4,0.1-0.9,0.1-1.3,0c-2.7-0.7-5-2.1-7.8-2.7c-1.3-0.3-2.5-1.2-3.6-1.9c-2.7-1.8-5.4-3.6-8-5.4c-2.3-1.6-4.7-2.8-7.4-3.6
		c-2.6-0.8-5.2-1.9-7.5-3.4c-2.8-1.8-5.9-2.4-8.7-4c-5.1-0.8-9.5-3.4-13.9-5.9c-3.5-1.9-19-9.5-24.7-12c-1.7-0.8-3.4-1.6-5.2-1.6
		c-4.4,0-7.9-2.1-11.4-4.4c-0.8-0.5-1.4-1.1-2.2-1.7c-2.9-2.4-6.3-3.8-9.8-4.9c-0.9-0.3-1.9-0.2-2.7-0.6c-3.3-1.7-7-2.2-10.3-3.8
		c-2.9-1.5-6.2-1.5-9.2-3c-2.9-1.4-5.9-2.6-8.9-3.6c-3.5-1.2-6.9-2.8-9.9-4.8c-3.1-2.1-6.3-3.9-9.6-5.3c-3.4-1.4-6.9-2.7-10.4-3.5
		c-4.1-0.9-7.7-3.1-11.8-3.7c-4.1-2.2-8.6-3.1-12.7-5.2c-2.9-1.5-5.8-2.8-8.7-4.2c-7.6-3.6-7.6-3.6-18-6.9c-2.2-0.7-4.3-1.7-6.5-2.2
		c-2.2-0.5-4.4-1.1-6.6-2c-1.2-0.5-2.6-0.8-4-1c-1.8-0.3-3.6-0.7-5.3-1.5c-2.9-1.4-5.9-2.6-8.8-4.1c-4.5-2.3-9.1-4.4-13.6-6.6
		c-0.8-0.4-1.7-1-2.5-1.1c-4.2-0.4-8.1-1.7-12-3.1c-4.7,0-8.8-2.7-13.3-3.3c-2.5-1.1-5.1-2-7.6-3.3c-2.5-1.4-5.2-1.9-7.9-1.9
		c-0.9,0-1.9-0.2-2.8-0.1c-5,0.5-8.9-1.7-12.5-4.9c-0.7-0.6-1.4-1.2-2.1-1.7c-1.2-0.8-2.4-1.4-3.8-1.4c-3.2-0.1-6.4-0.2-9.7-0.3
		c-1,0-1.8-0.2-2.6-0.7c-2.4-1.3-4.9-2.5-7.4-3.8c-2.1-1.2-4.3-1.5-6.7-1.2c-1,0.1-1.8,0.1-2.6-0.5c-1.5-1.1-3.2-1.8-4.9-2.6
		c-2.5-1.1-5.1-2-7.9-2.1c-2.3-0.1-4.6-0.4-6.9-0.4c-4.4,0.1-7.9-1.9-11.4-4.2c-1.2-0.7-2.1-1.8-3.3-2.5c-0.7-0.5-1.7-0.9-2.5-1
		c-2.3-0.3-4.6-0.4-6.9-0.5c-1.4-0.1-2.7-0.4-4-1c-1.7-0.8-3.4-1.3-5.3-1.5c-3.2-0.3-6.4-0.6-9.6-0.9c-2.9-1.6-6.2-1.7-9.2-3
		c-2.1-1-4.4-1.3-6.7-1.5c-0.9-0.1-1.9,0-2.7-0.4c-3.8-1.9-7.9-2.5-11.9-3.4c-2.8-1.7-6.2-1.7-9.1-3c-3-1.3-6.3-1.6-9.1-3.2
		c-1.6-0.9-3.5-1.2-5.3-1.3c-2.3-0.1-4.6-0.2-6.9-0.4c-1.4-0.1-2.7-0.4-4-1c-3.4-1.6-7.2-1.7-10.5-3.2c-2.8-0.3-5.5-0.5-8.2-0.8
		c-1.8-0.2-3.7-0.3-5.4-1.2c-2.5-1.3-5.3-1.7-8-1.8c-2.8-0.1-5.5-0.5-8-1.7c-2.1-1-4.5-1-6.8-1.2c-2.3-0.2-4.5-0.7-6.7-1.5
		c-2.1-0.8-4.5-1.2-6.6-2c-2.2-0.8-4.4-1.4-6.7-1.6c-3.3-0.2-6.4-0.8-9.3-2.4c-0.4-0.2-0.9-0.4-1.3-0.4c-2.8-0.3-5.5-0.4-8.2-0.8
		c-2.7-0.4-5.3-1.6-8.1-1.6c-3.3,0.1-6.4-0.8-9.4-2c-1.3-0.5-2.6-0.8-4-1c-0.9-0.2-1.8-0.1-2.8-0.1c-3.7,0-7.3-0.8-10.7-2.5
		c-1.7-0.8-3.6-0.7-5.4-0.2c-0.9,0.3-1.6,0.8-2.2,1.6c-1.9,2.6-1.6,5.2,0.7,7.3c1,0.9,2.2,1.6,3.7,1.7c1.8,0.1,3.7,0.1,5.5,0.2
		c0.9,0.1,1.9,0,2.7,0.3c4.8,2.1,9.9,1.8,14.9,2.1c2.3,0.1,4.5,0.7,6.6,1.8c1.7,0.8,3.5,1.1,5.4,1.1c3.2,0,6.4,0.3,9.4,1.7
		c0.4,0.2,0.9,0.4,1.3,0.4c5.1,0.3,9.6,3,14.6,3.8c3.3,1.8,7,2.2,10.7,2.4c1.9,0.1,3.6,0.8,5.3,1.5c1.2,0.5,2.6,1,4,1.2
		c7.3,1.1,11.1,1.8,17.4,3.9c2.2,0.7,4.4,1.4,6.7,1.5c3.3,0.1,6.3,0.8,9.3,2.1c1.2,0.6,2.7,0.7,4,0.8c3.7,0.3,7.2,0.8,10.8,2.1
		c3,1.1,6.3,1.1,9.3,2.4c3,1.2,6.1,1.9,9.1,3.1c2.5,1,5.3,1.2,7.9,2.4c2,1,4.3,1.4,6.5,2.1c2.6,0.8,5.3,1.5,7.8,2.6
		c2.6,1.1,5.2,1.8,8,1.8c2.8-0.1,5.5,0.5,8,1.8c2.1,1.1,4.4,1.1,6.7,1.4c2.3,0.3,4.3,1.6,6.7,1.6c1.8,0,3.7,0,5.5,0.2
		c1.4,0.1,2.7,0.4,4.1,0.7c1.7,0.3,3.4,2,3.7,3.6c0.2,0.9,0.4,1.8,0.4,2.7c-0.1,2.3-0.4,4.6-0.6,6.9c-0.2,2.3-3.1,3.8-5.2,3
		c-0.4-0.2-0.9-0.2-1.3-0.5c-1.1-0.8-2.2-1.6-3.2-2.6c-3.1-3-6.5-5-11.1-4.7c-1.8,0.1-3.7-0.2-5.5-0.4c-0.9-0.1-1.9-0.3-2.6-0.7
		c-2.5-1.3-5.2-1.7-8-1.9c-1.8-0.1-3.8-0.1-5.4-0.7c-2.6-1-5.2-2-7.9-2.5c-3.2-1.9-7-2.2-10.3-3.8c-2.9-1.5-6.3-1.4-9.1-3.2
		c-2-1.2-4.5-0.9-6.6-1.8c-1.7-0.7-3.4-1.4-5.2-1.7c-1.3-0.3-2.7-0.6-3.9-1.2c-2.1-1-4.3-1.4-6.7-1.5c-2.8-0.1-5.5-0.5-8-1.9
		c-0.4-0.2-0.8-0.5-1.3-0.5c-5.1-0.3-9.8-2.4-14.8-3.2c-1.8-0.3-3.6-0.6-5.3-1.4c-1.7-0.8-3.5-1.2-5.3-1.3c-2.3-0.2-4.5-0.7-6.6-1.7
		c-0.8-0.4-1.7-0.8-2.6-0.8c-4.2-0.2-8-2-12-3.1c-4-1.1-7.8-2.9-12-3.1c-0.4,0-0.9-0.1-1.3-0.4c-3.3-2.1-7-2.2-10.7-2.3
		c-3.3-0.1-6.3-0.7-9.3-2.1c-1.6-0.7-3.6-0.7-5.3-1.3c-2.6-1.1-5.3-1.4-8.1-1.4c-1.8,0-3.7-0.3-5.5-0.5c-0.9-0.1-1.9-0.2-2.7-0.6
		c-3.3-1.9-7-2.1-10.6-2.7c-4.5-2.5-9.9-2-14.5-4.2c-1.2-0.6-2.7-0.6-4-0.8c-1.8-0.2-3.7-0.2-5.5-0.6c-2.7-0.5-5.1-2-8-2
		c-2.3,0-4.6-0.5-6.9-0.3c-4.8,0.3-8.9-1.9-13.4-3.1c-3-1.6-5.3-3.6-5.5-7.3c-0.1-1.4-0.2-2.8-0.4-4.1c-0.3-1.9-2.8-4.2-4.7-4.6
		c-2.3-0.4-4.6-0.4-6.9-0.1c-1.9,0.2-3.6,0.8-5,2.2c-0.7,0.6-1.3,1.3-2,1.9c-1.9,1.5-4.6,1.8-6.4,0.6c-1.5-1-3-2.2-4.5-3.2
		c-1.2-0.7-2.5-1.2-3.9-1.2c-7.8-0.1-15.7-0.1-23.5-0.2c-1.9,0-3.6-0.5-5.3-1.3c-2.1-1.1-4.3-1.6-6.6-1.6c-15.7-0.4-31.3-0.5-47-0.4
		c-1.9,0-3.6-0.3-5.4-1c-3-1.1-6.1-2.2-9.1-3.1c-0.8-0.3-1.9-0.2-2.7,0c-1.8,0.6-3,2.1-3.6,3.9c-0.4,1.3-0.2,2.7,0.2,4.1
		c0.1,0.4,0.5,0.8,0.8,1.1c2.6,2.1,5.4,3.4,8.8,3.4c6.9-0.1,13.8-0.1,20.7,0c6.9,0.1,13.8,0.3,20.7,0.4c1.8,0,3.7,0.3,5.4,1.1
		c2.1,1,4.3,1.5,6.7,1.5c2.8,0,5.5,0.1,8.3,0.2c1.9,0.1,3.6,0.6,5.3,1.5c2.5,1.4,5.2,1.8,8,1.7c3.2-0.1,6.4-0.4,9.6-0.5
		c1.8-0.1,3.7-0.1,5.5,0c1.9,0.1,3.5,0.9,4.8,2.4c0.9,1.1,1.7,2.2,2.2,3.5c0.3,0.8,0.9,1.6,1.4,2.4c1,1.4,3.3,1.9,4.9,1.2
		c2.8-1.2,4.5-3.1,4.8-6.2c0-0.4,0.1-1,0.4-1.3c0.8-1.1,1.8-2,3.3-2.2c1.4-0.2,2.7,0,4.1,0.2c1.4,0.3,2.6,1.1,3.3,2.2
		c1.7,2.8,2.4,5.9,3.4,9c0.4,1.3,1.5,2.3,3,2.4c0.9,0.1,1.8,0.3,2.7,0.3c1.8,0,3.7-0.1,5.5-0.1c2.8-0.1,5.5,0.4,7.9,1.8
		c1.6,1,3.5,1.3,5.3,1.3c3.7,0,7.4-0.1,11-0.2c1.9,0,3.6,0.5,5.2,1.6c0.7,0.5,1.5,1.1,2.2,1.6c1.5,1.2,3.2,1.8,5.1,2
		c1.4,0.1,2.8,0.2,4.1,0.3c1.9,0.1,3.6,0.7,5.3,1.5c1.2,0.6,2.6,1,3.9,1.2c7.2,1.3,9.1,1.7,16,4.1c1.8,0.6,3.5,1.1,5.4,1.1
		c1.8,0.1,3.7,0.2,5.5,0.3c1.9,0.1,3.6,0.5,5.3,1.3c0.8,0.4,1.7,0.9,2.6,1c4.2,0.3,8.1,1.6,12.1,2.8c1.8,0.5,3.6,0.7,5.4,1
		c3.2,1.9,7.1,1.8,10.5,3.4c0.8,0.4,1.7,0.8,2.6,1c3.1,0.7,6.3,0.8,9.3,2.3c2.4,1.2,5.2,1.7,7.9,2.4c1.8,0.5,3.6,0.9,5.4,1.2
		c1.8,0.3,3.6,0.8,5.3,1.6c1.3,0.5,2.6,0.9,3.9,1.2c2.3,0.4,4.6,0.3,6.9,0.8c2.2,0.5,4.3,1.7,6.5,2.1c4.1,0.8,7.8,2.7,12,3.2
		c2.2,0.3,4.3,1.5,6.6,2c2.3,0.5,4.4,1.1,6.5,2.1c2.5,1.2,5.4,1.2,7.9,2.5c2.9,1.5,6.1,2,9.1,3.3c2.5,1.1,5.3,1.6,7.7,2.8
		c4.1,0.7,7.9,2.4,11.9,3.3c1.8,0.4,3.6,0.6,5.4,1.3c2.2,0.8,4.4,1.3,6.7,1.3c3.8,0,7.2,1.3,10.5,3.1c7.8,4,15.6,7.8,23.6,11.5
		c2.5,1.2,5.1,2.1,7.9,2.4c1.4,0.1,2.8,0.4,4,1c2.9,1.5,6.4,1.1,9.2,2.8c2.4,1.5,5.3,1.6,7.8,2.8c2.1,1,4.4,1.4,6.7,1.7
		c1.9,0.2,3.6,0.8,5.2,1.7c2.5,1.2,4.9,2.6,7,4.3c2.9,2.4,6.2,3.9,9.8,4.8c1.3,0.4,2.7,0.6,4,1.1c2.1,1,4.3,1.5,6.5,2.3
		c2.2,0.8,4.3,1.7,6.3,2.8c2.5,1.3,5.1,2.2,7.8,2.8c5.4,2.6,11,4.7,15.9,8.3c1.1,0.8,2.3,1.7,3.7,1.8c3.8,0.3,6.8,2.7,10.4,3.5
		c3.1,0.7,5.9,2.6,9.1,3c2.8,1.5,6,2.4,8.8,3.9c2.8,1.5,5.8,2.8,8.7,4.2c4.1,2.1,7.9,4.8,12.5,5.6c4.2,1.8,8.3,3.9,12.7,5.3
		c2.6,0.8,5.2,2,7.6,3.2c6.2,3,12.3,6.2,18.5,9.3c5.8,2.9,11.4,6,17.5,8.3c3.4,1.3,7,2.2,10.3,4c3.2,1.8,6.5,3.4,9.8,5
		c1.7,0.8,3.3,1.7,4.7,2.8c3.3,2.6,6.9,4.5,10.7,6.3c4.1,2,8.3,3.9,12.5,5.9c5.4,2.6,10.7,5.4,15.4,9c4,3.1,8.7,5.3,13.7,6.4
		c3.3,0.7,6.2,2.1,8.7,4c3.7,2.9,7.6,5.2,11.7,7.2c2.5,1.2,4.8,2.8,6.7,4.8c2.3,2.4,5.1,3.9,8,5.3c2.9,1.4,5.9,2.5,8.3,4.9
		c0.6,0.6,1,1.5,1.5,2.2c0.6,1,0.3,1.7-0.9,2.1c-1.8,0.5-3.6,0.7-5.4,0.5c-1-0.1-1.8-0.3-2.5-1c-1.7-1.6-3.2-3.3-5-4.8
		c-1.4-1.2-2.9-2.2-4.9-2.2c-1.8-0.1-3.7-0.2-5.5-0.4c-3.5-0.4-6-2.2-7.3-5.5c-0.2-0.4-0.3-0.9-0.5-1.3c-0.8-1.7-2-3-3.4-4.3
		c-1.4-1.2-2.9-2.3-4.8-2.6c-1.4-0.2-2.8-0.3-4.1-0.6c-4.1-0.7-8-2.1-11-5.2c-0.6-0.6-1.4-1.2-2.1-1.7c-0.7-0.6-1.6-0.9-2.5-1
		c-2.3-0.1-4.6-0.2-6.9-0.3c-3-0.2-5.2-1.7-6.9-4c-0.8-1.1-1.6-2.3-2.1-3.6c-0.7-1.9-2.2-2.8-3.8-3.7c-2.1-1.1-4.2-1.7-6.6-1.7
		c-2.8,0-5.5,0.2-8.2-0.5c-0.9-0.3-1.8-0.6-2.3-1.4c-0.5-0.7-1.1-1.5-1.5-2.3c-1.9-3.2-4.6-5.7-7.6-7.9c-1.5-1.1-3.2-1.9-5-2.1
		c-1.4-0.2-2.9-0.1-4.1-0.6c-3.8-1.7-7.9-2.5-11.6-4.2c-2.9-1.4-5.8-2.8-8.8-4c-3-1.3-6-2.3-9.2-2.6c-1.9-0.2-3.5-1.2-4.9-2.4
		c-1.7-1.5-3.4-3.1-5-4.8c-1.9-2.1-4.3-3.5-6.8-4.6c-1.3-0.6-2.5-1.1-3.9-1.1c-2.8,0-5.5,0-8.3-0.1c-1.9-0.1-3.5-0.8-4.9-2.3
		c-1.3-1.3-2.5-2.7-3.9-3.9c-1.4-1.2-3-2.1-5-2.1c-1.8,0-3.7,0.1-5.5,0c-1.4,0-2.8-0.2-4.1-0.3c-1.5-0.1-2.6-0.9-3.5-1.9
		c-0.9-1-1.7-2.2-2.5-3.3c-0.5-0.7-0.9-1.6-1.4-2.3c-1.5-1.9-3.4-3.1-5.8-3.3c-2.8-0.1-5.5-0.1-8.3-0.2c-0.9,0-1.9-0.2-2.7-0.6
		c-4.1-2.1-8.7-3-12.8-5c-4.2-2-8.3-4-11.4-7.6c-0.3-0.3-0.7-0.6-1-0.9c-1.5-1.2-3.1-2-5-2.1c-2.8-0.1-5.5-0.2-8.3-0.3
		c-1.9-0.1-3.6-0.7-5.1-1.8c-0.8-0.5-1.6-0.9-2.4-1.4c-2.3-1.5-4.2-3.7-6.9-4.6c-2.2-0.7-4.4-1.2-6.6-2.1c-2.1-1-4.5-1-6.8-1.1
		c-1.9-0.1-3.5-0.8-5.2-1.8c-2.4-1.4-4.6-3-6.8-4.8c-2.2-1.8-4.8-2.7-7.3-3.9c-0.8-0.4-1.8-0.6-2.6-0.6c-3.2-0.2-6.4-0.3-9.6-0.6
		c-0.9-0.1-1.8-0.3-2.6-0.7c-2.9-1.4-5.8-2.8-8.7-4.2c-3.3-1.6-6.7-3.1-10.5-2.9c-2.4,0.1-4.5-0.8-6.6-1.8c-2-1.1-4.1-2-5.9-3.5
		c-1.8-1.4-3.8-2.6-6.1-2.9c-0.9-0.1-1.8-0.4-2.6-0.9c-2.5-1.4-5.1-2.2-7.9-2.2c-4.2,0-8.2-1.2-12-3c-2.5-1.2-5.1-2-7.9-2.3
		c-1.4-0.1-2.8-0.5-3.9-1.1c-2.9-1.6-6.2-1.6-9.2-3c-2.4-1.2-5.2-1.9-7.8-2.7c-1.3-0.4-2.6-1-4-1.1c-3.3-0.2-6.2-1.7-9.2-2.6
		c-2.7-0.7-5.2-1.8-7.6-3.1c-3.3-1.6-6.7-2.9-10.6-2.7c-2.8,0.1-5.5-0.5-8-1.8c-0.8-0.4-1.7-0.7-2.6-0.8c-3.7-0.2-7.2-1.2-10.6-2.8
		c-5.1-0.4-9.7-3-14.8-3.3c-0.9-0.1-1.9-0.3-2.6-0.7c-3.7-2.1-8.1-1.7-11.7-3.9c-0.4-0.2-0.9-0.3-1.3-0.4c-2.7-0.7-5.5-0.5-8-1.8
		c-2.1-1-4.4-1.3-6.5-2.2c-3-1.4-6.2-1.7-9.4-1.8c-2.3,0-4.5-0.6-6.7-1.6c-1.2-0.6-2.6-1-3.9-1.2c-2.3-0.3-4.6-0.5-6.9-0.6
		c-1.9-0.1-3.6-0.4-5.3-1.2c-2.9-1.4-6.3-1.3-9.2-2.7c-2.1-1-4.5-0.9-6.8-1.1c-2.3-0.2-4.5-0.7-6.6-1.7c-2.1-1-4.5-1.1-6.8-1.2
		c-2.3-0.1-4.5-0.6-6.6-1.6c-2.1-1.1-4.4-1.3-6.7-1.4c-2.8-0.1-5.5-0.5-8.1-1.5c-1.3-0.5-2.7-0.5-4.1-0.7c-1.4-0.2-2.7-0.5-4.1-0.8
		c-3.3-2.1-7-2.2-10.7-2.4c-1.9-0.1-3.6-0.5-5.3-1.3c-1.7-0.8-3.5-1.1-5.4-1.2c-3.2-0.2-6.4-0.4-9.5-1.7c-1.2-0.5-2.7-0.5-4.1-0.6
		c-2.3-0.2-4.7-0.3-6.8-1.2c-3.5-1.5-7.1-1.9-10.8-1.9c-1.8,0-3.7-0.2-5.5-0.4c-1.4-0.1-2.7-0.4-4-1c-1.7-0.8-3.4-1.4-5.3-1.5
		c-4.6-0.2-9.2-0.3-13.8-0.4c-1,0-1.8-0.2-2.7-0.6c-2.5-1.2-5-2.4-7.6-3.4c-3.2-1.2-6.3-0.8-9,1.6c-1.2,1-1,4.3,0.3,4.9
		c1.7,0.8,3.3,1.5,5,2.2c0.4,0.2,0.9,0.2,1.3,0c3.7-1.8,7.1-1.2,10.5,0.7c1.2,0.7,2.5,1.1,3.8,1.7c1.7,0.8,3.5,1.3,5.3,1.3
		c3.2,0.1,6.5,0.1,9.7,0.2c0.9,0,1.8,0.2,2.7,0.6c1.7,0.6,3.3,1.9,5.1,2c5.1,0.2,9.8,2.4,14.9,2.7c3.7,0.2,7.3,0.6,10.8,2
		c1.7,0.6,3.6,0.5,5.4,0.8c1.8,0.3,3.6,0.6,5.4,0.9c3.3,2,7,2.1,10.7,2.2c1.9,0.1,3.6,0.6,5.3,1.2c4.3,1.6,9,1.9,13.3,3.4
		c1.7,0.6,3.6,0.5,5.5,0.6c1.8,0.2,3.6,0.6,5.3,1.5c0.4,0.2,0.8,0.4,1.3,0.5c2.7,0.5,5.5,0.8,8.1,1.5c2.2,0.6,4.2,1.9,6.6,2.1
		c3.3,0.2,6.2,1.8,9.3,2.3c3.2,0.5,6.3,1.2,9.3,2.5c1.7,0.7,3.6,0.6,5.4,0.8c1.8,0.2,3.6,0.5,5.4,0.8c3.3,1.9,7,2.2,10.7,2.5
		c3,1.2,6.1,1.9,9.3,2.5c3.2,0.6,6,2.3,9.3,2.6c3.8,1.7,7.8,2.8,11.9,3.4c2.5,1.3,5.1,1.9,7.8,2.7c3.1,0.9,6.1,1.8,9.4,2.1
		c1.3,0.1,2.7,0.7,3.9,1.3c2.1,1,4.4,1.2,6.6,1.8c1.8,0.5,3.4,1.5,5.1,2.2c0.8,0.3,1.8,0.5,2.7,0.6c4.1,0.5,7.9,2.5,12.1,2.4
		c1.3,0,2.7,0.6,3.9,1.2c2.5,1.3,5.4,1.2,7.8,2.7c2,1.3,4.2,1.7,6.5,2.3c2.6,0.7,5.3,1.6,8,2.2c2.7,0.6,5.1,2.1,7.8,2.8
		c2.2,0.5,4.2,1.9,6.4,2.5c2.2,0.6,4.4,1.4,6.6,1.9c5,1.1,9.6,3.2,14.3,5c2.6,1,5.2,1.7,8,1.7c1.8,0,3.7,0,5.5,0.2
		c0.9,0.1,1.8,0.3,2.7,0.7c5.1,2.2,10.2,4.2,14.5,7.8c2.2,1.8,4.8,2.6,7.3,3.8c0.8,0.4,1.8,0.5,2.7,0.6c1.8,0.1,3.7,0.2,5.5,0.2
		c5.2,0.1,8.8,2.3,10.1,7.6c0.1,0.4,0.2,0.9,0.5,1.3c0.7,1.2,1.7,2.1,3.2,2.2c1.4,0.1,2.7,0,4-0.6c2-1,4.2-2,6.2-3.1
		c0.9-0.5,1.6-0.5,2.6-0.1c2.6,1.1,5,2.2,7,4.3c2.2,2.3,4.4,4.8,7.1,6.6c0.7,0.5,1.7,1,2.5,1c4.1,0.2,8.3,0.3,12.4,0.5
		c1.9,0.1,3.5,0.9,4.9,2.2c1,0.9,2,1.9,2.9,3c1.1,1.4,2.1,3,3.2,4.5c0.6,0.8,1.4,1.1,2.4,1.2c3.7,0.5,7.4,0.1,11,0.1
		c2.4,0,4.5,1,6.2,2.5c0.3,0.3,0.7,0.6,1,1c0.6,0.7,1.3,1.3,1.9,2c1.6,1.8,3.5,2.9,6,3c0.9,0,1.8,0.2,2.8,0.3
		c1.4,0.1,2.6,0.8,3.8,1.6c1.1,0.8,2.3,1.6,3.2,2.6c2.7,3.2,6.1,3.8,10,3.7c1.4,0,2.8-0.1,4.1-0.2c4.7,0,8.8,1,9.9,7.3
		c0.1,0.4,0.2,0.9,0.4,1.3c0.6,1.7,2.3,3,4.2,3c2.3,0,4.6-0.1,6.9-0.1s4.6,0,6.9,0c1.5,0,2.6,0.8,3.4,2c2.4,3.6,3.5,7.5,2.6,11.8
		c-0.2,1-2.3,2.2-3.3,1.8c-3-1.2-6-2.3-8.7-4.1c-5.5-2.2-10.6-5.5-16.4-7.2c-3.9-1.2-7.4-3.7-11.4-4.8c-4-1.1-7.5-3.4-11.3-5
		c-6.8-2.8-13.3-6.3-20-9.4c-2.1-1-4.2-1.7-6.6-2c-1.4-0.2-2.7-0.5-4-1.1c-4.2-2-8.4-3.8-12.6-5.7c-2.5-1.2-4.9-2.7-7.4-3.6
		c-2.6-0.9-5.2-1.7-7.9-2.5c-2.6-0.8-5.2-1.7-7.8-2.8c-2.5-1.1-4.8-2.9-7.6-3.3c-2.8-0.4-5.1-2-7.8-2.6c-2.3-0.4-4.4-1.4-6.5-2.2
		c-1.7-0.7-3.6-0.8-5.3-1.5c-2.1-0.8-4.2-1.8-6.5-2.2c-0.9-0.2-1.8-0.5-2.6-1c-4.1-2.1-8.3-4-12.9-4.7c-2.8-1.7-6-2.3-8.9-3.7
		c-2.1-1-4.2-1.9-6.3-2.8c-1.7-0.8-3.5-1.3-5.3-1.5c-2.3-0.2-4.5-0.8-6.6-1.8c-0.8-0.4-1.8-0.5-2.6-0.7c-6.9-1.5-6.9-1.6-18.4-5.4
		c-4.4-1.5-8.8-2.7-12.9-4.8c-0.8-0.4-1.7-0.8-2.6-0.8c-4.3-0.2-8-2.2-11.9-3.4c-3.5-1.1-7-2.3-10.6-3c-2.9-1.6-6.2-1.7-9.2-2.6
		c-3.5-1.1-7-2.2-10.6-3.1c-3.2-1.9-7.1-1.9-10.4-3.6c-1.2-0.6-2.6-0.7-4-0.9c-2.3-0.2-4.5-0.8-6.6-1.8c-0.8-0.4-1.7-0.7-2.6-0.9
		c-2.7-0.6-5.5-0.7-8-1.9c-2.5-1.2-5.4-1.2-7.8-2.7c-0.8-0.5-1.7-0.7-2.6-0.9c-3.2-0.5-6.4-0.8-9.3-2.3c-2.4-1.3-5.4-1-7.9-2.3
		c-1.2-0.6-2.6-0.9-4-1.1c-2.8-0.3-5.4-0.9-8-2c-1.2-0.5-2.7-0.7-4-0.8c-1.8-0.3-3.6-0.6-5.3-1.4c-1.7-0.9-3.4-1.3-5.3-1.4
		c-2.3-0.1-4.6-0.4-6.7-1.5c-1.7-0.8-3.5-1.2-5.3-1.4c-2.8-0.2-5.3-1.6-7.9-2.2c-2.2-0.5-4.7-0.3-6.7-1.4c-3-1.6-6.1-1.9-9.3-2.1
		c-0.9,0-1.8-0.2-2.7-0.4c-0.9-0.2-1.8-0.5-2.6-0.8c-3.4-1.5-7.2-1.5-10.5-3.2c-0.4-0.2-0.9-0.3-1.3-0.4c-5.1-0.2-10-1.6-14.8-3
		c-1.3-0.4-2.8-0.3-4.1-0.4s-2.9-0.1-4-0.7c-3.4-1.7-7.1-2-10.7-2.2c-3.3-0.1-6.3-0.8-9.4-1.9c-2.1-0.8-4.5-0.8-6.8-1.2
		c-4.2-2.2-8.9-2.2-13.5-2.3c-1.4,0-2.8-0.1-4-0.7c-3.4-1.5-7-2.1-10.7-2.3c-0.5,0-0.9-0.1-1.4-0.2c-2.7-0.4-5.2-1.8-8-1.9
		c-2.8-0.2-5.5-0.4-8.3-0.7c-0.9-0.1-1.8-0.4-2.6-0.7c-2.1-0.9-4.4-1.4-6.7-1.5c-3.2-0.2-6.4-0.4-9.6-0.7c-0.9-0.1-1.8-0.2-2.7-0.6
		c-2.2-0.9-4.4-1.2-6.7-1.3c-3.2-0.1-6.5-0.3-9.6-0.6c-1.4-0.1-2.7-0.5-4-1c-2.2-0.9-4.4-1.4-6.7-1.5c-3.2-0.2-6.4-0.3-9.7-0.4
		c-3.7-0.1-7.4,0-11.1,0c-1.9,0-3.7-0.2-5.4-0.9c-1.7-0.7-3.5-0.9-5.4-1.1c-3.7-0.4-7.3-0.7-10.8-2.3c-1.2-0.5-2.7-0.6-4.1-0.6
		c-6.9,0-13.8-1-20.7-0.2c-17,0-34.1,0.3-51.1-0.4c-1.9-0.1-3.7-0.3-5.4-1.1c-1.7-0.7-3.5-1.1-5.3-1.3c-5.5-0.5-11-0.4-16.6-0.1
		c-0.9,0-1.8,0.2-2.7,0.4c-2.7,0.5-5.1,2.2-7.9,2.1c-2.3,0-4.6,0.1-6.9,0.3c-1.9,0.1-3.6,0.8-5,2c-0.7,0.6-1.5,1.1-2.2,1.7
		c-0.8,0.7-1.6,0.9-2.4,0.5c-1.7-0.8-3.4-1.5-5-2.3c-2.5-1.3-5.3-1.8-8-1.7c-4.6,0.3-9.2,0.1-13.8-0.1c-2.8-0.1-5.5-0.1-8.3,0
		c-3.2,0.1-6.4,0.4-9.7,0.4c-3.2,0-6.4-0.5-9.6-0.3c-2.3,0.2-4.1,1.8-4.4,4.4c-0.2,1.4,0.2,2.7,0.8,4c0.2,0.4,0.6,0.7,1,1
		s0.7,0.6,1.2,0.7c1.8,0.5,3.6,0.5,5.5,0.5c12,0,23.9,0.3,35.9,0.7c0.4,0,0.9,0.3,1.2,0.6c0.6,0.6,0.4,1.3-0.2,2.2
		c-0.6,0.8-1.3,1.4-2.2,1.5c-1.4,0.2-2.7,0.5-4.1,0.5c-5.5,0.1-11.1,0-16.6,0c-13.8,0-27.6,0-41.5,0c-5.5,0-11,0.2-16.6,0.4
		c-1.4,0-2.7,0.4-4.1,0.6c-4.2,2.4-8.9,2.1-13.5,2.4c-5.1,0.3-10.1,0.1-15.2,0.1c-3.3,0-6.3-0.8-9.3-2.3c-1.9-1-3.5-0.1-5,1.1
		c-0.3,0.3-0.7,0.6-1,1c-3.3,4-7.4,6.9-12.1,9c-1.2,0.6-2.2,1.6-2.8,2.9c-1.8,4.3,0.6,7.7,3.7,9.1c0.8,0.4,1.8,0.7,2.6,0.7
		c4.3,0.1,8,2.1,11.6,4c0.8,0.4,1.3,1.2,2,1.9c0.9,1,0.7,1.8-0.5,2c-4.1,0.9-8.2,1.2-12.1-0.7c-2.1-1-4.3-1.5-6.7-1.3
		c-2.5,0.1-4.3,1.3-5.6,3.4c-0.5,0.8-0.8,1.7-0.5,2.6c0.9,3.1,1.6,6.2,3,9.1c1.4,3,1.6,6.2,2.9,9.2c1.2,2.6,1.5,5.3,1.9,8
		c0.1,0.9,0.3,1.8,0.7,2.6c1.3,2.5,1.5,5.3,2.6,7.8c1.1,2.6,1.4,5.4,2.5,7.8c1.3,3,2.4,6,2.6,9.2c0.1,1.4,0.7,2.7,1.3,3.9
		c1.2,2.6,1.5,5.3,1.2,8.1c-0.1,0.9-0.5,1.9-1.4,2.1c-0.8,0.2-1.9,0-2.6-0.4c-2.4-1.4-4.4-3.4-5.9-5.7c-1.8-2.7-3.9-5.1-6.1-7.4
		c-4.2-4.3-8.3-8.6-12.5-12.9c-2.9-3-5.7-6-8.8-8.8c-4.2-3.7-7.8-7.8-10.9-12.4c-0.5-0.8-1.5-1.1-2.4-1.2c-1.4-0.3-2.7-0.2-4.1-0.1
		c-2,0.1-4.8,2-5.4,3.8c-0.3,0.9-0.7,1.7-0.8,2.6c-0.2,3.3-1.4,6.2-2.6,9.2c-1,2.6-2.4,4.9-3.7,7.3c-0.2,0.3-0.8,0.7-0.9,0.6
		c-0.4-0.2-0.7-0.7-0.8-1.1c-0.8-3.7-0.9-7.4,0.6-10.8c1.9-4.4,2.1-8.9,1.6-13.5c-0.2-2.2-2.3-4-4.7-4.3c-1.4-0.1-2.8,0.2-4.1,0.5
		c-3.1,2.1-6.8,2.7-10.2,4c-2.2,0.9-4.4,1.3-6.7,1.6c-0.9,0.1-1.9,0.2-2.7,0.6c-3.2,2-7.1,1.9-10.5,3.4c-2.9,1.4-6.2,1.6-9.1,3.2
		c-2.4,1.4-5.4,1.1-7.8,2.5c-2.1,1.2-4.4,1.1-6.7,1.6c-2.2,0.5-4.4,1.3-6.6,1.9c-1.3,0.3-2.7,0.2-3.9-0.6c-0.8-0.5-1.1-1.3-0.8-2.4
		c0.1-0.4,0.3-0.9,0.6-1.2c4.2-4.3,8.4-8.6,12.6-12.8c0.3-0.3,0.7-0.7,1.1-0.9c5.6-3.4,9.7-8.4,14.3-12.9c3-2.9,5.9-5.8,8.8-8.8
		c2.6-2.6,5.2-5.2,8.2-7.4c1.1-0.8,2.1-1.8,3-2.8c2.6-3.1,3-3.4,0.9-7.3c-0.9-1.7-2.2-3-4.2-3.2c-4.2-0.3-8.1-1.7-11.7-3.8
		c-0.8-0.4-1.4-1.2-2-1.8c-0.9-1-0.7-1.7,0.3-2.1c0.9-0.3,1.7-0.6,2.6-0.7c3.2-0.4,6.4,0,9.6,0.5c2.7,1.6,5.1,1.1,7.7-0.4
		c1.9-1.1,2.5-2.6,2.7-4.5c0.1-1.4-0.2-2.8-0.4-4.1c-0.1-0.4-0.2-0.9-0.4-1.3c-1.8-3.2-2.2-7-3.7-10.4c-0.6-1.3-0.7-2.7-0.8-4
		c-0.2-2.3-1-4.4-1.9-6.6c-1.4-3.4-1.9-7.1-3.5-10.4c-0.5-2.7-1.3-5.3-2.4-7.9c-0.9-2.1-1-4.5-2.2-6.5s-1.1-4.4-1.9-6.6
		c-0.6-1.7-1.7-3.3-1.9-5.2c0-0.4,0-0.9,0-1.4c-0.1-1,0.1-1.9,0.9-2.5c1-0.8,2.8-0.7,3.7,0.1c4.6,3.9,8.7,8.2,12.8,12.5
		c7.9,8.4,16.1,16.5,24.2,24.6c1.9,2,4,3.8,5.2,6.4c0.9,1.8,2.5,2.7,4.1,3.5c0.8,0.4,1.7,0.8,2.5,1c1.4,0.3,2.7,0.1,3.9-0.7
		c1.1-0.8,2.2-1.7,2.8-3c1-2.1,2-4.1,2.5-6.4c0.4-1.8,0.5-3.7,1.5-5.3c2.2-4,2.8-8.8,5.5-12.6c0.2-0.2,0.7-0.4,0.9-0.3
		c0.3,0.3,0.7,0.7,0.8,1.1c0.3,2.3,0.5,4.7-0.4,6.8c-1.5,3.5-1.9,7.1-2.2,10.8c-0.2,1.8-0.6,3.6-1.3,5.3c-0.8,1.8-0.4,3.6,0.4,5.3
		c0.4,0.8,0.8,1.7,1.1,2.5c0.7,2,2.4,2.8,4.2,3c1.3,0.2,2.8,0,4.1-0.4c2.2-0.7,4.2-1.8,6.3-2.8c2.5-1.2,5-2.3,7.8-2.5
		c0.5,0,0.9-0.1,1.4-0.2c2.2-0.7,4.3-1.7,6.5-2.1c2.7-0.6,5.3-1.4,7.9-2.4c2.1-0.8,4.5-1,6.6-2c0.8-0.4,1.7-0.9,2.6-1
		c5.6-0.5,10.6-2.8,15.9-4.5c2.2-0.7,4.4-1.3,6.7-1.5c1.9-0.2,3.5-0.9,5.2-1.7c0.8-0.4,1.7-0.8,2.6-0.8c7.5-0.6,14.2-3.6,20.9-6.7
		c4.6-2.2,9-4.6,13.6-6.7c2.9-1.3,5.6-3.2,8.9-3.6c2.5-1.1,5-2.2,7.5-3.4c2.9-1.4,5.7-3.1,8.7-4.1c3.1-1,6.1-1.8,9.1-3
		c2.1-0.9,4.4-1.4,6.5-2.4c2.5-1.2,5.1-2.1,7.6-3.2c3.3-0.3,5.8-2.8,9.1-3.2c2.8-0.4,5.1-2.3,7.8-2.7c2.8-0.4,5.2-1.9,7.9-2.5
		c0.9-0.2,1.9-0.2,2.7-0.6c3.7-2.1,7.9-2.4,11.7-4.2c2.9-1.4,6.2-1.7,9.1-3.2c3.2-0.6,6.2-1.6,9.2-2.7c1.3-0.5,2.7-0.4,4.1-0.7
		c1.3-0.3,2.8-0.5,3.9-1.1c2.9-1.6,6.2-1.6,9.2-2.9c3-1.3,6.1-2.1,9.1-3.1c1.8-0.6,3.6-0.8,5.4-0.9c1.9-0.2,3.6-0.7,5.3-1.6
		c1.3-0.7,2.6-0.9,4-1.2c2.7-0.5,5.6-0.2,8.1-1.3c2.6-1.1,5.4-1.3,8-1.9c2.2-0.5,4.4-1.5,6.6-2c2.2-0.5,4.5-0.7,6.8-1.1
		c3.4-1.7,7.1-2,10.7-2.2c1.9-0.1,3.6-0.7,5.3-1.4c1.3-0.5,2.6-0.9,4-1.1c3.2-0.4,6.5-0.2,9.6-0.9c3.1-0.7,6.2-1.6,9.4-2
		c1.8-0.2,3.7-0.4,5.4-1.1c3.1-1.3,6.2-1.6,9.4-1.8c2.3-0.1,4.6-0.1,6.9-0.3c1.4-0.1,2.7-0.5,4-1c2.2-0.9,4.4-1.4,6.7-1.6
		c4.1-0.5,8.4,0.2,12.2-1.9c3.2-0.3,6.4-0.6,9.6-0.9c1.8-0.2,3.6-0.5,5.4-1.2c1.3-0.5,2.6-0.7,4-0.8c5.1-0.2,10.1-0.4,15.2-0.7
		c4.1-0.2,8.3,0.2,12.3-1.6c0.8-0.4,1.8-0.3,2.7-0.4c10.6-0.4,21.2-0.8,31.7-1.2c2.3-0.1,4.6,0,6.9-0.1c1.4-0.1,2.7-0.4,4-0.8
		c1.8-0.6,3.5-0.9,5.4-1c17.5-0.6,35-0.4,52.5-0.4c7.4,0,14.7,0.2,22.1-0.3c2.7-0.2,5.5,0.3,8.3,0.6c2.4,0.2,3.8,2.6,3.1,5.1
		c-0.3,0.9-0.5,1.8-0.9,2.6c-1.4,3.1-1.3,6.2-0.1,9.4c0.3,0.9,0.6,1.8,0.7,2.7c0.3,2.3,0.5,4.7-0.5,6.8c-1.3,2.8-0.8,5.3,0.3,8
		c0.5,1.2,0.6,2.7,0.7,4c0.1,1.5-0.7,2.6-1.8,3.5c-1.5,1.3-3.3,1.7-5.1,1.6c-1.4,0-2.7-0.4-4-1.1c-2.1-1-4.4-1.4-6.7-1.5
		c-2.8-0.1-5.5-0.1-8.3-0.2c-4.1-0.1-8.3,0.5-12.2-1.6c-2.3-0.2-4.6-0.4-6.9-0.6c-1.9-0.2-3.6-0.6-5.3-1.4c-1.3-0.6-2.6-0.9-4-0.9
		c-3.2-0.2-6.4-0.4-9.7-0.4c-9.7,0-19.4-0.2-29,0c-12,0.3-23.9,0.3-35.9,0.3c-11.1,0-22.1-0.2-33.2-0.2c-2.9,0-5.3,1.8-6,4.6
		c-0.2,1,0,1.9,0.7,2.5c1.4,1.3,3.1,1.9,4.8,2.6c0.9,0.4,1.8,0.5,2.7,0.3c0.4-0.1,0.9-0.1,1.3-0.3c4-1.5,8.1-1.6,12.2-0.3
		c2.7,0.8,5.5,0.6,8.2,0.5c4.9-1.8,10-1.4,15-1.4c6.9,0,13.8,0,20.7,0c1.4,0,2.9,0,4.1,0.4c3.6,1.4,7.2,1.2,10.9,1.1
		c9.7-0.3,19.3,0.1,29,0.4c2.8,0.1,5.5,0.4,8.1,1.5c1.3,0.6,2.6,0.9,4,1c6.4,0.5,12.9,0.4,19.3,0.4c2.8,0,5.5,0.3,8.1,1.4
		c1.3,0.5,2.6,0.9,4,1c3.7,0.3,7.3,0.8,11,0.4c4.6-0.4,9.2,0,13.8,0.3c1.4,0.1,2.7,0.5,4,1c2.7,1.1,5.3,1,8-0.1
		c3.9-1.5,8.1-1.7,12.2-1.5c1.4,0.1,2.7,0.5,3.9,1.4c1.1,0.8,2.2,1.7,3.4,2.4c1.2,0.8,2.3,1.5,3.8,1.5c2.3,0.1,4.6,0.2,6.9,0.4
		c1.4,0.1,2.9,0.1,4,0.7c3.4,1.8,7.1,1.9,10.7,2.2c3.7,0.3,7.4,0.3,11,0.3c1.9,0,3.6,0.5,5.4,1.2c3,1.1,6.3,1.4,9.2,2.8
		c1.2,0.6,2.7,0.6,4,0.7c4.6,0.2,9.2,0.2,13.8,0.4c1.4,0.1,2.8,0.2,4,0.7c3,1.4,6.1,2,9.4,2.1c3.2,0.1,6.4,0.1,9.5,1.4
		c1.2,0.5,2.7,0.5,4.1,0.7c3.2,0.4,6.4,0.8,9.6,1.2c4.2,2.3,9,1.7,13.5,2.2c0.9,0.1,1.9,0.1,2.7,0.4c3.4,1.6,7.1,1.8,10.5,3.2
		c2.1,0.9,4.2,1.8,6.6,1.9c2.8,0.1,5.2,1.8,7.9,2.2c2.3,0.3,4.6,0.4,6.7,1.4c2.5,1.2,5.2,1.7,8,1.8c1.8,0.1,3.7,0.1,5.5,0.2
		c1.4,0.1,2.7,0.4,4,1c1.7,0.8,3.4,1.4,5.3,1.6c2.3,0.3,4.5,0.7,6.7,1.7c1.7,0.8,3.6,0.8,5.4,1.1c1.8,0.2,3.6,0.6,5.3,1.4
		c1.7,0.8,3.5,1,5.4,1.2c2.3,0.2,4.6,0.5,6.8,0.8c3.4,1.8,7,2,10.7,2.3c3.7,0.3,7,2.3,10.7,2.5c1.9,0.1,3.5,1,5,2.1
		c0.7,0.5,1.5,1,2.3,1.6c1.5,1.1,3.2,1.8,5.1,2c2.8,0.3,5.4,0.9,8,1.9c2.1,0.8,4.5,0.9,6.8,1.3c4.2,2.2,8.9,2.2,13.4,2.5
		c1.4,0.1,2.9,0.1,4,0.7c3,1.4,6.2,1.8,9.3,2.3c0.4,0.1,1,0.1,1.3,0.3c3.1,2.1,7.1,1.9,10.4,3.6c2.5,1.2,5,2.3,7.6,3.3
		c2.1,0.8,4.3,1.4,6.5,2.3c3.8,1.6,7.8,2.6,11.8,3.8c1.3,0.4,2.7,0.6,3.9,1.3c2,1.2,4.3,1.5,6.6,1.8c1.4,0.1,2.8,0.3,4,0.8
		c3.5,1.5,7.1,2,10.8,2c4.9,0,8.9,2.1,12.8,4.5c1.2,0.7,2.3,1.6,3.5,2.3c0.8,0.5,1.7,0.8,2.5,1.1c1.8,0.5,3.5,1.2,5.1,2
		c2.5,1.2,5.1,2.2,7.6,3.3c3.8,0.3,6.8,2.6,10.4,3.5c4,1,7.8,2.8,12,3.1c3,1.3,6,2.1,9.3,2.3c1.4,0.1,2.7,0.6,3.9,1.2
		c5.7,3,11.4,6,17.4,8.3c4.3,1.7,8.5,3.4,12.6,5.4c1.7,0.8,3.5,1.2,5.2,1.7c4,1,7.8,2.6,12,3.1c2.7,0.4,5.1,2,7.8,2.6
		c1.3,0.3,2.5,1,3.8,1.6c3.3,1.6,6.7,3.1,10,4.7c4.5,2.2,9.1,4.4,13.6,6.7c5,1.1,9.5,3.4,14.1,5.6c5.9,1.2,11.1,4.4,16.8,6.2
		c3.5,1.1,6.8,2.8,9.8,5c4.1,3.1,8.6,5.3,13.6,6.4c2.7,1.9,6.1,2,9,3.3c2.5,1.1,5.1,2.2,7.5,3.4c2.1,1,4.5,1,6.5,2.2
		c1.6,0.9,3.4,1.4,5,2.3c1.2,0.7,2.2,1.6,3.3,2.5c0.7,0.6,1,1.5,0.9,2.5L1301.8,709.5z M268,571.7c-1.2-0.6-2.4-1.3-3.6-1.8
		s-2.6-0.7-3.9-0.8c-1.9-0.1-3.6,0.4-5,1.7c-1,0.9-1.8,2-2.6,3.1c-0.8,1.1-0.7,2.3,0.3,3.7c0.8,1.2,1.9,2,3.2,2.3
		c1.3,0.3,2.7,0.3,4,0.2c1.8-0.2,3.5-0.8,4.3-2.7c0.9-2.1,1.9-4.1,2.8-6.1c2.7,0,5.4,0,8-0.1c1.4,0,2.5-0.8,3.6-1.7
		c2-1.5,2.8-4.9,0.4-7c-2.2-1.9-5-2-7.3-0.1c-1.8,1.5-3.1,3.3-4,5.3C267.8,569,267.7,570.4,268,571.7z M480.7,549.2
		c17.5-0.1,34.9,0.6,52.4,0.4c4.6-0.1,9.2,0,13.8,0.1c1.4,0,2.8,0.2,4,0.7c3,1.3,6.2,1.8,9.4,1.8c13.3,0.2,26.7,0.3,40,0.5
		c6.4,0.1,12.9,0,19.3,0c1.4,0,2.8,0,4.1,0.1c0.9,0.1,1.8,0.3,2.7,0.6c2.1,0.8,4.3,1.6,6.3,2.6c2.5,1.3,5.2,1.5,8,1.6
		c3.7,0.1,7.2-0.9,10.8-1.9c1-0.3,1.8,0.1,2.6,0.7c1.5,1.1,2.8,2.3,3.6,4.1c0.4,0.8,0.8,1.7,1.4,2.4c1.2,1.4,2.6,2.7,4.6,2.7
		c6.4,0,12.9,0,19.3,0c0.4,0,0.9-0.3,1.3-0.4c1.4-0.4,3.5-2.7,3.5-3.9c0.1-4.1,0.3-8.3-0.1-12.4c-0.1-0.8-0.7-1.7-1.3-2.4
		c-2.1-2.4-6.1-2.9-8.8-1.1c-1.6,1.1-2.8,2.4-3.1,4.3c-0.1,0.9-0.2,1.8-0.4,2.7c-0.6,3.2-4.1,3.6-6.5,2.1c-0.4-0.2-0.8-0.5-1-0.9
		c-1-1.6-1.8-3.2-2.8-4.7c-1.8-3-4.5-4.4-8.1-4.3c-0.5,0-0.9,0-1.4,0c-3.3-0.2-6.4,0.3-9.4,1.5c-1.7,0.7-3.7,0.6-5.4-0.1
		c-2.2-0.8-4.4-1.4-6.7-1.6c-1.8-0.2-3.6-0.7-5.2-1.6c-1.7-0.9-3.4-1.2-5.3-1.2c-26.7-0.1-53.3,0-80-0.3
		c-39.5-0.5-79.1,0.3-118.6,0.3c-0.5,0-0.9,0-1.4,0c-1.9,0-3.7,0.4-5.3,1.2c-2.5,1.3-5.2,1.6-8,1.6c-2.8,0-5.5-0.6-8.3-0.1
		c-1.2,0.2-2.4,1.1-3,2.5c-0.6,1.4-0.4,2.8,0.1,4c0.3,0.7,1.3,1.4,2.1,1.6c2.7,0.7,5.5,0.6,8-0.7c2.1-1.1,4.1-1.9,6.5-1.9
		c14.3,0,28.5-0.5,42.7-0.4C465,549.2,472.8,549.2,480.7,549.2z M606.4,502.4C606.4,502.4,606.4,502.3,606.4,502.4
		c5.5-0.1,11-0.1,16.5-0.1c1.4,0,2.8,0,4.1,0.2c0.9,0.1,1.8,0.4,2.5,1c1.5,1.1,2.8,2.4,4.2,3.6c1.1,0.9,2.1,1.8,3.2,2.5
		c2.7,1.6,6.1,0.2,6.7-2.4c0.5-2.3,0.7-4.5,0.3-6.8c-0.4-2.4-1.7-4.2-3.8-5.4c-0.8-0.4-1.7-0.7-2.6-0.8c-1.8-0.2-3.7-0.4-5.5-0.4
		c-14.7,0-29.4-0.1-44.1,0c-3.7,0-7.3,0.3-11,0.5c-1.4,0.1-2.7,0.3-4,1c-2.1,1.1-4.3,1.6-6.6,1.5c-9.2-0.1-18.4,0.8-27.5,0
		c-0.9-0.1-1.8,0.1-2.8,0.1c-2,0.2-3.4,1.2-4.5,2.7c-1,1.3-0.4,4.2,1,4.8c1.3,0.5,2.6,1,4,1c6.4,0,12.9-0.1,19.3-0.1
		c6.4,0,12.9-0.2,19.3-0.3c3.3-0.1,6.3-0.6,9.4-1.9c1.2-0.5,2.7-0.7,4-0.7C594.4,502.3,600.4,502.4,606.4,502.4z M668.3,509.5
		c0.2-1.8,0.2-3.7-0.4-5.4c-0.9-2.6-1.9-5.1-2.6-7.8c-0.6-2.2-1.8-4.2-3.2-6c-0.6-0.8-1.4-1.1-2.3-1.4c-1.8-0.6-3.6-0.5-5.4,0.1
		c-0.8,0.3-1.8,0.9-2.1,1.6c-1.2,2.6-1.1,5.3,0.4,7.9c0.4,0.8,1.1,1.5,1.6,2.2c1.8,2.1,3,4.6,3.3,7.4c0.1,1.4,0.3,2.7,1,4
		c0.7,1.2,1.5,2.4,2.8,2.8c0.7,0.2,1.7-0.3,2.6-0.5c0.4-0.1,0.8-0.4,1.2-0.6C667,512.8,668.1,511.5,668.3,509.5z M409.7,529.9
		c0.8-0.1,1.3-0.1,1.8-0.1c1.8-0.1,3.6-0.5,5.2-1.5c0.8-0.5,1.5-1,2.3-1.5c1.5-1.1,3.2-1.8,5.1-1.8c1.8,0,3.7,0,5.5-0.1
		c0.9,0,1.8-0.1,2.7-0.2c2.1-0.2,4.2-2.2,4.4-4.5c0.1-1.4,0.1-2.8-0.6-4c-0.6-1.2-1.5-2.2-3.1-2.4c-1.9-0.2-3.7,0-5.2,1.2
		c-2.5,1.9-5.1,3.9-8.1,5.1c-0.9,0.4-1.7,0.6-2.6,0.2c-1.7-0.6-3.5-1.1-5.4-0.7c-2.7,0.5-5.2,1.6-7.4,3.3c-0.3,0.3-0.6,0.7-0.8,1.1
		c-1,1.9,0.5,5.1,2.5,5.4C407.4,529.7,408.8,529.8,409.7,529.9z M318.8,560.3c2.5-0.1,4.3-1.1,5.6-3.2c0.8-1.3,0.8-2.6,0.4-3.9
		c-0.6-1.9-2-3.1-3.9-3.5c-1.8-0.4-3.6-0.4-5.4,0.4c-0.8,0.4-1.6,0.8-2.4,1.3c-1.6,0.8-3.2,1.7-4.8,2.6c-1.3,0.7-2.7,0.6-3.9,0.1
		c-3-1.3-6.1-1.7-9.3-1.3c-1.9,0.3-3.3,1.3-4.4,2.8c-1,1.4-0.5,4,1,4.7c0.4,0.2,0.8,0.4,1.2,0.6c2.1,1.1,4.1,1.5,6.5,0.5
		c2.5-1.1,5.3-1.1,7.7-2.5c1.2-0.8,2.6-0.7,3.9-0.1C313.5,559.7,316.1,560.4,318.8,560.3z M500.2,506.4c0-0.3,0-2.1-0.2-3.9
		c-0.1-1.4-0.7-2.7-1.9-3.5c-0.7-0.5-1.5-1-2.4-1.2c-0.7-0.2-2.8,1.4-3.2,2.4c-0.3,0.8-0.6,1.7-0.7,2.6c-0.4,3.7-0.1,7.3,1.2,10.8
		c0.3,1,0.3,1.7-0.1,2.6c-1,2.1-1.1,4.4-1.1,6.7c0.1,2.4,1.1,4.4,3.2,5.7c1.3,0.8,2.6,0.8,3.9,0.2c3.7-1.7,4.7-4.5,3.9-7.8
		c-0.3-1.3-0.6-2.7-1.4-3.9c-1.3-2-1.7-4.2-1.6-6.6C500,509.8,500,508.9,500.2,506.4z M480.1,512.7c0-0.6,0-1.1,0-1.5
		c0.1-3.2-2.7-6.1-6-6.1c-0.4,0-0.9,0.1-1.3,0.1c-1.8,0.2-3.4,1.9-3.5,3.6c0,0.4-0.2,0.9-0.2,1.3c0.2,5,0.3,10,0.5,15
		c0.1,2.8,5,5.2,7.5,3.7c2.2-1.3,3.2-3.2,3.1-5.7c-0.1-1.4-0.3-2.7-0.7-4c-0.3-0.9-0.5-1.7-0.2-2.6
		C479.5,515.2,479.8,513.9,480.1,512.7z M307.4,585.2c0.3,0,0.8-0.1,1.2-0.1c1.6,0.1,2.6-0.9,3.2-2.1c1.3-2.7-0.5-5.8-3.3-6
		c-1.9-0.1-3.7,0.1-5.4,0.5c-0.9,0.2-1.8,0.6-2.5,1c-1.3,0.7-2.7,0.7-3.9,0.2c-1.7-0.7-3.4-1.5-5.2-1.5c-1.8-0.1-3.7,0.1-5,1.7
		c-1.7,2-1.7,2.7,0.1,4.7c1.4,1.5,3.2,1.7,5,1.6c1.9-0.1,3.5-1,5.2-1.7c1.3-0.5,2.6-0.5,4,0.1C302.7,584.7,305,585.2,307.4,585.2z
		 M456.1,518.8c0-0.8-0.1-3.1-0.2-5.3c0-0.4-0.3-0.9-0.4-1.3c-0.3-1.3-3.1-3.5-4.1-3c-1.8,0.7-3.2,2.1-3.6,3.9
		c-0.7,3.6-0.8,7.3-0.3,10.9c0.3,1.9,1.2,3.4,2.5,4.7c0.7,0.7,3,1.1,3.9,0.6c0.8-0.5,1.4-1.2,1.6-2.1c0.2-0.9,0.5-1.8,0.5-2.7
		C456.2,523,456.1,521.7,456.1,518.8z M457.7,561c-0.2,0-0.7,0-1.1,0c-2.7,0.1-5.4,2-6.1,4.6c-0.6,1.8-0.3,3.6,0.8,5.1
		c1.8,2.4,4.3,3.3,7.2,2.9c0.9-0.1,1.8-0.3,2.6-0.8c1.6-1,2.8-2.2,2.9-4.3c0-0.9,0-1.8-0.1-2.7C463.3,563.2,460.7,561.1,457.7,561z
		 M363.1,541c3.8,0.2,6.3-0.6,8-3.1c0.8-1.2,1.1-2.5,0.7-3.8c-0.6-1.8-2-3.1-3.7-3.7c-1.2-0.4-2.7-0.5-4-0.5c-3,0-5.1,1.5-6.6,3.9
		c-0.5,0.8-0.8,1.7-0.6,2.6c0.4,1.8,1.4,3.4,3.2,4C361.3,540.8,362.7,540.9,363.1,541z M129.5,620.9c-0.2-1.3-0.4-2.6-0.7-3.9
		c-1.1-3.9-7-4.7-8.9-2.5c-0.3,0.3-0.6,0.6-0.8,1s-0.3,0.9-0.4,1.3c-0.1,1.4-0.2,2.7-0.2,4.1c0.1,4.7,1,5.2,5.1,7
		c1.4,0.6,2.2,0.4,3.6-0.7c0.7-0.6,1.4-1.2,1.6-2.1C129.1,623.6,129.3,622.3,129.5,620.9z M110.6,646.4c0.2,0.8,0.3,1.8,0.8,2.5
		c1.5,2.2,3.5,4.1,5.6,5.8c0.3,0.3,0.7,0.5,1.1,0.8c2,1.4,4.3,1.3,6.1-0.5c1.3-1.3,1.3-2.2,0.8-3.5c-1.6-4.6-4.8-7.5-9.3-9.2
		c-1.4-0.5-2.3-0.5-3.7,0.6C111.1,643.7,110.5,644.9,110.6,646.4z M187,604.4c2.9,0.2,5.4-0.8,7.4-2.9c1.3-1.3,1.9-3,1.5-5
		c-0.3-1.2-1.5-2.5-2.6-2.8c-2.7-0.6-5.4-0.5-8.1,0.3c-1.4,0.4-2.3,1.4-2.7,2.7c-0.1,0.4-0.3,0.9-0.3,1.3c-0.1,0.4,0,0.9,0,1.4
		C182.2,603,183.6,604.4,187,604.4z M650.6,585.4c1.6-0.2,3.3-1.5,4-3.1c0.4-0.8,0.7-1.7,1.2-2.4c0.9-1.4,0.1-2.5-0.5-3.7
		c-0.9-1.6-2.3-2.7-4-3.4c-1.3-0.6-2.6-0.6-3.8,0c-1.7,0.7-3.2,1.8-3.7,3.6c-0.5,1.7-0.4,3.5,0.4,5.2
		C645.3,584,648.1,585.7,650.6,585.4z M424.9,567.9c0.1,0.9,0.2,1.8,0.4,2.7c0.3,1.7,2.1,3.2,3.9,3.3c0.4,0,0.9,0,1.4,0
		c3.5-0.3,5.9-2.7,5.9-6.2c0-3.9-2.9-6.8-6.9-6.8c-1.7,0-3.6,1.5-4.1,3C424.9,565.1,424.9,566.5,424.9,567.9z M386.9,533
		c0.9-0.1,1.8,0,2.7-0.2c2.3-0.5,4-2,4.8-4.2c0.3-0.7,0.2-1.9-0.2-2.6c-1.1-2-2.9-3.3-5.2-3.8c-3.4-0.7-8.3,2.6-8,7
		c0.1,1.8,1.5,3.4,3.3,3.6C385.1,532.8,386,532.9,386.9,533z M351.9,556c-1.2,0.5-2.5,0.9-3.8,1.5c-1.8,0.7-2.9,2.6-2.4,4.3
		c0.3,0.8,0.8,1.7,1.3,2.3c1.5,1.8,3.6,2.7,5.5,3.9c0.8,0.5,3,0.2,3.8-0.5c1-0.9,1.9-2,2.3-3.3c0.3-0.8,0.3-1.8,0.3-2.7
		c0-1-0.4-1.8-1-2.4C356.3,557.3,354.1,556.8,351.9,556z M86.4,644.9c0.4-0.1,0.9-0.2,1.2-0.4c3.3-1.7,5.8-4.2,7.9-7.2
		c1.1-1.6,1.1-3.4,0.6-5.2c-0.3-1.3-1.8-2.3-3-2c-0.8,0.2-1.8,0.3-2.5,0.8c-2.6,1.9-4.8,4.1-6.7,6.6c-0.3,0.3-0.4,0.8-0.7,1.2
		c-0.9,1.3-0.5,3.7,0.8,4.9C84.8,644.1,85.7,644.5,86.4,644.9z M332.9,543.7c1.3,2.6,3.2,4.4,6.1,4.9c0.4,0.1,1,0.1,1.4,0
		c3.2-1.1,5.6-3,6.7-6.3c0.1-0.4,0-0.9-0.1-1.3c-0.4-1.4-1.4-2.2-2.9-2.5c-1.8-0.4-3.6-0.4-5.4-0.4c-2.4,0-4.3,1-5.6,3.2
		C332.5,542,332.2,542.8,332.9,543.7z M402.2,564.4c-0.4,0.1-0.8,0.1-1.2,0.3c-2.3,1-3.5,2.7-3.6,5.2c-0.1,1.3-0.1,2.7,0.4,4
		c0.5,1.3,1.4,2.3,2.8,2.6c1.8,0.4,3.6,0.3,5.2-0.6c2.8-1.7,3.8-5.3,2.2-8.2c-0.2-0.4-0.5-0.8-0.8-1.1
		C405.5,565.7,403.9,564.8,402.2,564.4z M475.5,582.3c-1.2,0-1.6,0-2,0c-3,0.3-4.7,2.7-3.9,5.7c0.9,3.4,3.3,5.3,6.8,5.3
		c1.8,0,3.5-0.5,4.7-2c1.1-1.4,1.3-2.1,0.5-3.6c-0.4-0.8-0.8-1.6-1.2-2.4C479.2,583,477.1,582.4,475.5,582.3z M378,549.4
		c-0.8,0.1-1.2,0.2-1.6,0.2c-1.8,0.1-3.2,1.6-3.5,3.4c-0.2,1.3-0.1,2.6,0.1,4c0.2,1.5,1.1,2.5,2.3,3c2.1,0.9,4.4,0.8,6.5,0
		c0.7-0.3,1.4-1.1,1.7-1.9c0.8-2.1,1-4.4,0-6.5c-0.3-0.7-1.1-1.5-1.9-1.7C380.4,549.6,379,549.6,378,549.4z M382.5,585
		c1.5-0.2,2.8-0.7,3.6-1.8c0.8-1.1,1.3-2.3,1.9-3.5c0.8-1.4,0.2-2.6-0.6-3.7c-1-1.5-2.5-2.5-4.2-3.2c-0.4-0.1-0.8-0.2-1.2-0.1
		c-2.9,0.7-5.3,3.6-5.6,6.7c0,0.4,0,0.9,0.1,1.3C377.3,583.3,380,585.1,382.5,585z M95.6,612.8c0.9-0.1,1.8-0.2,2.7-0.2
		c1.5-0.1,2.4-1.1,2.9-2.4c0.6-1.7,0.6-3.5,0.1-5.3c-0.3-1.3-1.3-2.2-2.6-2.7c-1.8-0.6-3.6-0.6-5.3,0c-1.3,0.5-2.2,1.4-2.5,2.8
		c-0.2,0.9-0.4,1.7-0.2,2.6c0.1,0.4,0.1,0.9,0.2,1.3C91.3,611.4,92.9,612.7,95.6,612.8z M522.1,503.3c0.2-2.6-1.9-5.3-4.5-6.1
		c-1.4-0.4-3.8,0.6-4.8,1.9c-2.3,3.1-1.9,7.1,1,9.7c0.7,0.6,1.5,1,2.4,1c0.4,0,1,0.1,1.3-0.1C520.1,508.3,521.8,506.3,522.1,503.3z
		 M240.6,582c-0.3-1.2-0.3-2.1-0.7-2.9c-0.4-0.7-1.2-1.4-2-1.6c-1.7-0.5-3.5-0.5-5.2,0.2c-2.7,1.2-4.3,4.9-2.9,8
		c0.3,0.7,1.1,1.5,1.9,1.8c1.7,0.7,3.4,0.8,5.3,0.5c1.5-0.2,2.5-1.1,3-2.3C240.4,584.5,240.4,583.1,240.6,582z M336.8,575.3
		c0.1-2.3-1.2-4.5-3.2-5.5c-2.1-1-4.3-1.1-6.3,0.3c-0.4,0.2-0.8,0.6-0.9,0.9c-1,2.1-1.2,4.3-0.3,6.5c0.3,0.8,1.1,1.4,1.7,2
		c0.3,0.3,0.8,0.2,1.3,0.4c1.3,0.4,2.6,0.3,4,0.1C335.4,579.6,336.8,577.9,336.8,575.3z M220.8,591.4c-0.2-2.9-2.4-5.4-5-5.7
		c-0.9-0.1-1.8,0-2.7,0c-1.2,0-2.7,1.1-3,2.2c-0.5,1.7-0.7,3.5-0.3,5.3c0.3,1.5,1.2,2.4,2.5,2.9c1.7,0.6,3.5,0.7,5.3,0.2
		c0.9-0.2,1.7-0.6,2.2-1.4C220.6,593.9,220.9,592.6,220.8,591.4z M452.2,585.4c0.1-0.9-0.1-1.7-0.7-2.5c-1.5-1.9-3.4-2.8-5.8-2.7
		c-1.8,0.1-3.4,1.4-3.9,3c-0.4,1.3-0.4,2.6-0.1,3.9c0.5,1.8,2,3.1,3.7,3.3c2.5,0.2,4.3-0.8,5.8-2.6
		C451.9,587.1,452.2,586.3,452.2,585.4z M358.6,584.8c1.9,0.2,4.6-1.6,5.1-3.5c0.4-1.3,0.5-2.6-0.2-3.8c-0.5-0.7-0.9-1.5-1.5-2.2
		c-0.6-0.7-1.2-1.3-1.9-1.8c-0.7-0.5-1.6-1.2-2.3-1.2c-1.4,0-2.4,1-3.1,2.1c-1.2,2-1.4,4.2-0.8,6.4
		C354.3,582.8,356.4,584.5,358.6,584.8z M634.7,573.3c-0.2-0.4-0.3-0.8-0.5-1.2c-1.1-2-2.6-3.5-4.5-4.7c-0.9-0.5-1.6-0.6-2.5-0.1
		c-2,1.2-3.4,2.8-4.2,5c-0.3,0.8-0.1,1.7,0.4,2.5c1.3,2.1,3.3,2.9,5.7,2.8c1.3-0.1,2.6-0.5,3.9-0.9
		C633.9,576.3,635,574.1,634.7,573.3z M500.6,595.2c0.4,0,0.8,0.2,1.2,0.1c1.8-0.5,3.2-1.6,4.7-2.7c0.9-0.7,1.2-2.5,0.6-3.7
		c-1.4-3-4.8-4.4-8-3.3c-0.8,0.3-1.5,1.1-1.9,1.8c-0.6,1.2-0.7,2.7-0.3,4C497.6,593.2,498.7,594.6,500.6,595.2z M419.9,584.8
		c-0.2-0.9-0.3-1.7-0.6-2.6c-0.3-0.9-2.4-2-3.3-1.8c-1.3,0.4-2.3,1.2-3.2,2.2c-1,1.1-1,3.8,0,4.9c0.6,0.7,1.2,1.3,1.8,1.9
		c0.7,0.7,1.5,0.8,2.5,0.6c1.5-0.4,2.2-1,2.5-2.6C419.8,586.5,419.8,585.6,419.9,584.8z"/>
	<path class="st0" d="M704.5,480.5c7.2,0,11.8,0,16.4,0c2.3,0,4.6,0.4,6.7,1.3c1.3,0.6,2.7,0.5,4.1,0.6c9.2,0.3,18.4,0.6,27.6,1
		c2.3,0.1,4.6,0.4,6.8,1.3c1.7,0.6,3.6,0.8,5.4,0.8c6.4,0.1,12.9,0.2,19.3,0.4c2.8,0.1,5.5,0.4,8.3,0.5c5.5,2.8,11.8,1.5,17.5,3.8
		c1.2,0.5,2.7,0.5,4.1,0.5c5.5,0.1,11-0.1,16.6,0.6c1.8,0.2,3.6,0.6,5.3,1.4c2.6,1.2,5.3,1.4,8.1,1.6c2.3,0.1,4.7-0.2,6.9,0.6
		c4.4,1.7,9,2.1,13.5,2.7c3.4,1.6,7.1,1.8,10.8,1.8c4.6,0,9.1,0.7,13.5,2.4c1.7,0.6,3.6,0.7,5.3,1.6c1.4,0.7,2.7,3.2,2,4.4
		c-1.1,2-2.1,4.1-3.1,6.1c-0.4,0.8-0.3,1.6,0.3,2.5c1.2,2,2.3,4,3.8,5.7c3.5,4.1,2.8,5.6,0.7,10c-0.6,1.3-1.1,2.5-1.7,3.8
		c-1.8,3.5-1.6,7.1-1,10.8c0.1,0.8,0.8,1.7,1.5,2.2c1.1,0.8,2.3,1.5,3.6,2c3.4,1.3,7.2,1.5,10.5,3.4c1.8,0.2,3.7,0.5,5.5,0.5
		c6.9-0.1,13.8-0.3,20.7-0.4c0.4,0,0.9,0.2,1.3,0.3c1.1,0,2.8,1.4,3,2.5c0.2,0.9,0.3,1.8,0.3,2.7c0,3.4-2.9,6-6.3,5.7
		c-1.4-0.1-2.7-0.2-4-0.8c-1.3-0.5-2.6-1-4-1.1c-2.8-0.1-5.5-0.3-8.3-0.5c-1.9-0.1-3.6-0.7-5.3-1.4c-1.3-0.5-2.6-0.8-4-1
		c-2.8-0.4-5.4-0.8-8-2c-2.1-1-4.4-1.2-6.8-1.3c-3.3-0.1-6.2-1.4-9.2-2.8c-1.6-0.8-2.4-2.5-1.4-4.6c1-2.1,2-4.1,2.4-6.4
		c1.9-3.8,2.3-7.9,2.4-12.1c0.1-5.1,0-10.1-0.2-15.2c0-0.8-0.5-1.8-1.1-2.5c-0.8-1.1-1.8-2.1-2.8-3c-1.7-1.6-3.7-2.7-6.1-2.7
		c-4.1-0.1-8.3-0.1-12.4-0.3c-1.4,0-2.8-0.2-4-0.8c-3-1.5-6.1-1.8-9.4-2c-1.8-0.1-3.7-0.3-5.4-1.2c-1.7-0.8-3.5-1.2-5.3-1.6
		c-1.8-0.5-3.4-1.5-5.2-1.8c-2.7-0.4-5.5-0.6-8.3-0.6c-6-0.1-12-0.1-18-0.2c-1.4,0-2.8-0.2-4-0.8c-2.9-1.6-6.1-1.9-9.4-2
		c-6.9,0-13.8-0.1-20.7,0c-3.7,0-7.4-0.1-11-0.5c-1.4-0.1-2.7-0.5-4-1c-1.7-0.7-3.5-1.1-5.4-1.2c-1.8-0.1-3.7-0.3-5.4-1.1
		c-3-1.4-6.2-1.4-9.5-1.3c-2.4,0.1-4.4,1.2-6,2.9c-0.7,0.7-0.8,1.5-0.8,2.5c0,2.1,2.6,4.4,4.3,4.9c1.8,0.4,3.6,0.7,5.5,0.7
		c3.7,0.1,7.4-0.1,10.7,1.9c2.3,0.4,4.7,0.4,6.8,1.2c3.5,1.3,7.1,1.7,10.8,1.6c6-0.1,12-0.1,18,0c3.7,0.1,7.3,0.5,10.7,2.2
		c1.3,0.6,2.7,0.7,4,0.7c7.4,0.2,14.7,0.7,22.1,0.5c1.9,0,3.7,0.3,5.4,1.1c0.8,0.4,1.7,0.9,2.6,1c6,0.5,11.6,2.7,17.2,4.6
		c1.8,0.6,3.5,1,5.4,1.1c4.1,0.1,8.3,0.2,12.4,0.3c1.9,0.1,3.5,0.9,4.9,2.2c2.6,2.5,3.2,6.6,1.4,10.1c-0.4,0.8-2.8,1.8-3.6,1.7
		c-1.4-0.3-2.6-1-3.8-1.6c-3.6-2.1-7.4-3.6-11.7-3.9c-0.9-0.1-1.9-0.2-2.7-0.6c-3.4-1.7-7-2.2-10.7-2.3c-1.9,0-3.6-0.6-5.3-1.4
		c-1.3-0.5-2.6-0.9-3.9-1.2c-4-0.8-8.3-0.1-12.2-2.1c-1.4-0.1-2.8-0.3-4.1-0.3c-4.1-0.1-8.3,0-12.4-0.1c-3.2-0.1-6.4-0.5-9.4-1.8
		c-1.2-0.5-2.6-0.8-4-0.9c-2.8-0.2-5.5-0.1-8.3-0.1c-4.6,0-9.2,0-13.8,0c-3.7,0-7.3-0.3-10.8-2c-1.2-0.6-2.7-0.7-4-0.8
		c-3.2-0.2-6.4-0.6-9.5-1.7c-1.3-0.5-2.7-0.5-4.1-0.5c-2.8-0.1-5.5-0.2-8.2-1c-2.3-0.7-4.1-2-5.4-4c-1.1-1.6-1.4-3.4-1-5.3
		c0.3-1.3,0.8-2.6,1.3-3.9c0.7-1.9,0.7-2.2-0.1-3.8c-0.4-0.8-0.8-1.7-1.3-2.4c-0.8-1.2-1.9-1.9-3.4-2.1c-1.9-0.2-3.8-0.2-5.4,0.6
		c-2.9,1.5-6,2.4-9.3,2.2c-2.8-0.1-5.4,0.8-8,1.6c-1.7,0.6-3.6,0.5-5.4,0.9c-1.9,0.3-3.3,1.5-4.6,2.8c-1.9,2-3.3,4.4-4.5,6.9
		c-0.4,0.8,0.2,3.2,0.9,3.8c1.7,1.7,3.7,2.7,6.2,2.4c0.9-0.1,1.9-0.3,2.6-0.7c1.2-0.6,2.4-1.4,3.4-2.3c1.4-1.2,3.1-2,4.6-3
		c2.4-1.6,5.1-2.1,7.9-2.2c1.4,0,2.7,0,4.1,0.4c1.2,0.4,2.7,1.7,2.8,2.7c0.1,1.8,0.2,3.7,0.3,5.5c0.1,1.4,0.3,2.7,0.5,4.1
		c0.2,1.3,2.5,3.4,3.8,3.6c1.4,0.2,2.7,0.4,4.1,0.5c1.9,0.1,3.7,0.4,5.3,1.3c2.1,1,4.3,1.5,6.7,1.7c1.4,0.1,2.8,0.1,4.1,0.2
		c1.4,0.1,2.8,0.2,4.1,0.3c4.7,2.2,10,1.4,14.7,3.3c2.2,0.9,4.4,1.3,6.7,1.3c5.5,0,11,0,16.6,0c2.8,0,5.5,0.4,8,1.7
		c1.7,0.8,3.5,1.1,5.4,1.2c6,0.2,12,0.5,17.9,0.6c2.8,0,5.5,0.2,8,1.5c0.4,0.2,0.8,0.4,1.3,0.4c3.6,0.6,7.3,0.9,10.7,2.4
		c0.8,0.4,1.8,0.3,2.7,0.4c2.3,0.2,4.5,0.7,6.7,1.6c3.4,1.4,7.2,1.5,10.3,3.8c1.4,0.3,2.7,0.7,4.1,0.8c2.3,0.2,4.6,0.2,6.9,0.3
		c2.8,0.1,6.8,3.4,6,7.8c-0.2,1.3-1.4,2.5-2.6,2.7c-3.3,0.5-6.5,0.4-9.5-0.9c-3-1.3-6.3-1.5-9.2-2.9c-2.5-1.2-5.3-1.5-7.8-2.6
		c-2.1-1-4.4-1.4-6.7-1.5c-1.8-0.1-3.7-0.2-5.5-0.3c-1.9-0.1-3.7-0.4-5.3-1.3c-2.1-1-4.4-1.4-6.7-1.6c-1.8-0.1-3.7-0.1-5.5-0.2
		c-1.4,0-2.8-0.1-4.1-0.1c-0.5,0-1,0-1.4-0.2c-5.2-2.4-10.9-1.3-16.2-2.8c-0.9-0.2-1.7-0.6-2.6-0.9c-1.7-0.7-3.5-1-5.4-1
		c-5.1-0.1-10.1-0.2-15.2-0.3c-1.8-0.1-3.7-0.2-5.4-1c-2.5-1.2-5.2-1.8-8-1.8c-3.2-0.1-6.4-0.3-9.6-0.4c-2.3,0-4.6-0.3-6.7-1.3
		c-0.4-0.2-0.8-0.4-1.3-0.5c-3.2-0.4-6.4-0.9-9.6-1.3c-3-1.4-6.2-1.8-9.3-2.2c-2.4-0.3-4.2-1.8-5.6-3.7c-0.8-1.1-1.3-2.4-2-3.6
		c-2.2-3.6-6.1-4.2-9.7-2.6c-1.7,0.8-3.2,1.8-4.7,2.8c-1.2,0.7-2.2,1.7-3.3,2.4c-2,1.4-4.1,1.9-6.5,1.8c-1.4,0-2.8-0.1-4.1-0.1
		c-2-0.1-3.5-1.1-4.8-2.4c-0.3-0.3-0.6-0.8-0.7-1.2c-0.1-0.4-0.1-0.9,0.1-1.3c1.7-3.3,1.7-7.2,3.5-10.4c0.7-1.2,0.4-2.6-0.3-3.9
		c-0.9-1.6-1.4-3.4-1.4-5.3c0-1.4,0-2.8-0.1-4.1c0-1.4,0-2.8,0-4.1c0-2.3-0.5-4.5-1.6-6.7c-0.4-0.8,0.7-3,1.6-3.5
		c0.8-0.4,1.7-0.8,2.5-1c1.4-0.2,2.8-0.3,4.1-0.2C698.8,480.3,703,480.4,704.5,480.5z"/>
	<path class="st0" d="M887.1,737.2c-3.3,0.3-6.3-0.3-9.3-1.9c-6.1-3.1-12.4-6-18.6-9c-1.7-0.8-3.3-1.5-5-2.3
		c-3.3-0.2-5.9-2.5-9.1-3.1c-2.3-0.4-4.3-1.5-6.5-2.2c-2.6-0.9-4.8-2.8-7.6-3.1c-2.9-0.3-5.1-2.1-7.7-2.9c-1.8-0.5-3.5-0.9-5.2-1.8
		c-3.3-1.6-6.8-2.9-10-4.7c-3.3-1.8-7-2.2-10.4-3.7c-3.3-1.5-6.9-2.5-10.4-3.5c-4-1.1-7.6-3.4-11.8-3.6c-4.1-2.2-8.7-3.1-12.8-5.1
		c-1.2-0.6-2.5-1.1-3.8-1.7c-3-1.3-6.1-1.9-9.1-3.1c-2.5-1-5.3-1.4-7.8-2.6c-2.5-1.2-5.4-1.2-7.9-2.5c-0.8-0.4-1.7-0.6-2.6-0.7
		c-3.2-0.3-6.3-1.2-9.2-2.7c-4.2-0.5-7.9-2.3-11.9-3.5c-3.5-1.1-6.8-2.7-10.6-2.9c-0.9,0-1.7-0.5-2.6-0.9c-0.8-0.3-1.7-1-2.5-1.1
		c-3.7-0.5-7-2.3-10.6-3.1c-1.3-0.3-2.7-0.6-3.9-1.3c-2.1-1-4.3-1.6-6.6-1.9c-2.3-0.2-4.4-1.4-6.6-1.9c-2.2-0.6-4.5-0.6-6.8-1.1
		c-1.3-0.3-2.5-1.1-3.9-1.4c-2.7-0.6-5.5-0.9-8.1-1.6c-2.2-0.6-4.3-1.7-6.6-1.9c-1.4-0.1-2.9-0.2-4.1-0.7c-3-1.4-6.1-2-9.3-2.4
		c-1.3-0.2-2.6-0.7-3.9-1.3c-3.4-1.5-7.2-1.5-10.5-3.3c-0.8-0.4-1.8-0.4-2.7-0.4c-3.7-0.2-7.2-0.7-10.7-2.3
		c-2.9-1.3-6.3-0.9-9.3-2.2c-3-1.3-6.3-1-9.5-1.3c-1.8-0.2-3.8-0.3-5.4-1c-3.5-1.5-7.1-1.8-10.8-2c-2.8-0.2-5.5-0.5-8-1.7
		c-1.7-0.8-3.6-0.8-5.4-0.9c-1.9-0.2-3.6-0.7-5.3-1.4c-1.3-0.5-2.6-0.9-4-1c-2.7-0.3-5.5-0.6-8.3-0.6c-2.8,0-5.4-0.7-8-1.7
		c-1.7-0.6-3.7-0.6-5.3-1.3c-3.4-1.6-7-2.1-10.7-2.1c-2.8,0-5.5-0.2-8.3-0.3c-1.9-0.1-3.6-0.5-5.3-1.3c-1.7-0.8-3.5-1.1-5.4-1.2
		c-3.2-0.2-6.4-0.7-9.4-1.9c-1.7-0.7-3.6-0.7-5.4-0.7c-5.1,0.1-10.1-0.1-15.2-0.5c-1.4-0.1-2.8-0.2-4-0.7c-3-1.3-6.2-1.7-9.4-1.8
		c-4.1-0.1-8.3-0.3-12.4-0.3c-2.8,0-5.5-0.2-8.1-1.4c-1.3-0.6-2.7-0.5-4.1-0.6c-6-0.3-12-0.5-17.9-0.7c-1.9-0.1-3.6-0.5-5.4-1.2
		c-0.8-0.3-1.8-0.5-2.7-0.6c-3.7-0.2-7.3-0.5-11-0.5c-10.6-0.2-21.2-0.3-31.7-0.4c-2.3,0-4.6-0.3-6.8-1.1c-1.3-0.4-2.7-0.7-4-0.7
		c-2.8-0.1-5.5-0.1-8.3-0.1c-2.8,0-5.5,0.2-8.3-0.1c-6.9-0.6-13.8-0.6-20.7-0.5c-0.9,0-1.8-0.1-2.7-0.3c-0.9-0.2-1.9-0.6-2.2-1.4
		c-0.3-0.9,0.1-1.8,0.6-2.5c0.3-0.4,0.6-0.7,1-0.9c2.2-0.8,4.5-0.7,6.8,0.1c1.3,0.4,2.5,1.3,3.8,1.7c1.3,0.4,2.7,0.5,4,0
		c3-1.2,5.9-2.5,8.9-3.8c1.3-0.6,2.6-0.9,4-1.1c5.1-0.5,10.1,0,15.2,0.3c0.4,0,0.9,0.2,1.3,0.4c3,1.4,6.1,1.9,9.4,2.1
		c3.2,0.2,6.4,0.4,9.5,1.6c1.3,0.5,2.7,0.4,4.1,0.5c15.2,0.3,30.4,1,45.5,0.4c5.5-0.2,11,0.2,16.6,0.4c0.9,0,1.9,0.1,2.7,0.5
		c3.4,1.6,7.1,1.9,10.8,2.1c1.9,0.1,3.6,0.6,5.3,1.4c1.3,0.6,2.7,0.8,4,0.8c5.1,0.2,10.1,0.3,15.2,0.4c2.8,0.1,5.5,0.1,8.3,0.2
		c1.4,0.1,2.8,0.1,4.1,0.7c2.5,1.2,5.3,1.6,8,1.8c1.4,0.1,2.8,0.1,4.1,0.6c5.3,1.9,10.8,2,16.3,2.1c1.4,0,2.8,0.1,4.1,0.3
		c0.9,0.1,1.9,0.2,2.7,0.6c3.3,1.9,7,2.2,10.7,2.4c1.9,0.1,3.6,0.5,5.4,1.1c1.3,0.4,2.7,0.7,4,0.8c3.7,0.3,7.3,0.8,10.7,2.4
		c0.8,0.4,1.8,0.5,2.7,0.6c3.1,0.6,6.5,0.1,9.5,1.5c2.6,1.2,5.4,0.9,8.1,1.6c1.3,0.3,2.6,0.9,3.9,1.3c1.3,0.4,2.6,0.9,4,1.1
		c3.7,0.4,7.3,0.6,10.8,2c1.2,0.5,2.7,0.5,4.1,0.6c3.2,0.3,6.4,0.8,9.4,2.1c0.8,0.3,1.8,0.5,2.7,0.6c2.3,0.3,4.6,0.4,6.8,0.9
		c2.7,0.6,5.1,1.9,7.8,2.5c3.6,0.8,6.9,2.4,10.7,2.7c1.3,0.1,2.6,0.8,3.9,1.3c0.9,0.3,1.7,0.7,2.6,0.9c3.2,0.6,6.4,0.8,9.4,2.2
		c2.5,1.2,5.4,1.2,7.9,2.4c1.7,0.9,3.5,1.1,5.3,1.3c1.8,0.2,3.6,0.6,5.3,1.4c3,1.4,6.4,1,9.4,2.2c2.6,1.1,5.2,1.7,8,2
		c1.3,0.2,2.6,0.7,4,1.1c1.3,0.4,2.6,1.1,3.9,1.3c2.8,0.5,5.2,1.8,7.9,2.5c2.2,0.5,4.4,1.3,6.5,2.2c0.8,0.4,1.8,0.5,2.7,0.6
		c2.3,0.2,4.5,0.8,6.6,1.9c2.1,1,4.2,1.9,6.3,2.8c1.3,0.5,2.6,1.1,3.9,1.3c5,0.7,9.8,2.5,14.6,4.1c2.2,0.7,4.4,1.4,6.7,1.7
		c1.8,0.2,3.5,0.9,5.2,1.6c3,1.2,5.8,2.9,9,3.5c2.8,0.5,5.1,2.2,7.7,2.9c2.2,0.5,4.4,1.2,6.4,2.4c0.8,0.5,1.7,0.7,2.5,1.2
		c3.2,1.9,6.7,3.1,10.1,4.5c3.3,0.3,6,2.4,9.2,2.9c3.2,0.6,5.9,2.5,9.1,3c3.2,0.6,5.8,2.7,9.1,3c1.4,0.1,2.5,1,3.8,1.6
		c4.2,1.9,8.3,4,12.3,6.1c2.8,1.5,5.9,2.5,8.7,4.1c2.8,1.7,6.2,1.7,9,3.5c3.5,1.1,7.1,1.9,10.3,3.7c4.5,1.3,8.2,4,12.5,5.8
		c4.2,1.8,8.1,4.3,12.2,6.3c1.6,0.8,3.2,1.8,4.8,2.6c0.8,0.4,1.2,1.2,1.2,2.3L887.1,737.2z"/>
	<path class="st0" d="M744.3,562.7c1.6,0.1,4.8,0.3,8,0.5c1.4,0.1,2.7,0.4,4,1c1.7,0.8,3.4,1.4,5.3,1.5c3.2,0.1,6.5,0.2,9.7,0.3
		c1.4,0.1,2.8,0.1,4,0.7c3.4,1.7,7.1,2,10.7,2.3c2.8,0.2,5.5,0.2,8.1,1.4c1.7,0.8,3.6,0.6,5.4,0.7c2.8,0.1,5.7,0,8.2,1.2
		c3.5,1.5,7.1,1.9,10.8,1.9c3.3,0,6.4,0.8,9.4,2.1c0.8,0.4,1.8,0.5,2.7,0.5c2.8,0.2,5.4,1,8,2.1c1.7,0.7,3.6,0.8,5.3,1.5
		c2.6,1.1,5.2,1.8,8,1.9c1.9,0.1,3.6,0.8,5.2,1.6c1.2,0.7,2.6,1.1,3.9,1.1c4.7-0.1,9.1,1.3,13.4,2.8c1.3,0.4,2.7,0.6,4,1.1
		c1.7,0.7,3.5,1.1,5.3,1.2c3.7,0.2,7.4,0.4,11,0.6c0.9,0.1,1.8,0.4,2.6,0.7c1.3,0.5,2.5,1.2,3.7,1.8c2.1,0.9,3.8,2.7,6.2,3
		c2.3,0.2,4.6,0.3,6.9,0.3c1.8,0.1,3.7,0,5.5,0.1c0.9,0.1,1.8,0.3,2.6,0.6c1.7,0.7,3.5,1.1,5.4,1.2c1.8,0.1,3.7,0.3,5.5,0.5
		c1.9,0.2,3.6,1,5,2.2c2.4,2.1,4.6,4.5,7,6.7c1.4,1.3,3.2,1.8,5.1,1.9c1.4,0.1,2.8,0.1,4.1,0.1c3.2,0,6.5-0.1,9.7-0.2
		c0.9,0,1.8,0.1,2.8,0.2c2,0.1,4.5,2,5.1,4.1c0.4,1.3,0.6,2.7,0.8,4c0.3,1.9,1.3,3.4,2.6,4.7c0.6,0.6,1.4,1.1,2.1,1.8
		c0.7,0.6,1.4,1.2,2,1.9c0.3,0.3,0.5,0.9,0.5,1.3c-0.1,0.8-0.8,1.3-1.9,1.5c-1.9,0.4-3.7-0.2-5.2-1.2c-1.2-0.7-2.3-1.6-3.2-2.6
		c-4.3-4.3-5.5-4.7-12.3-4.8c-0.9,0-1.8,0-2.8,0c-2.8,0.1-5.5-0.3-8.1-1.4c-0.8-0.3-1.8-0.5-2.7-0.7c-3-0.6-4.8-2.6-6.3-5
		c-0.7-1.2-1.3-2.5-2.2-3.5c-0.9-1-2.2-1.6-3.4-2.3c-3.2-0.4-6.4-0.5-9.6,0.1c-0.9,0.2-1.8,0.6-2.6,0.9c-2.2,0.8-4.5,0.9-6.7,0
		c-0.9-0.3-1.7-0.8-2.6-0.9c-3.7-0.4-7-2.1-10.4-3.7c-2.1-1-4.1-2.1-6.3-2.8c-4-1.2-7.9-2.1-12.2-2.1c-3.2,0-6.4-0.6-9.4-2
		c-1.3-0.6-2.6-0.8-4-0.9c-2.3-0.2-4.6-0.3-6.9-0.6c-0.9-0.1-1.9-0.2-2.7-0.6c-2.5-1.2-5.2-1.8-7.9-2.5c-2.6-0.7-5.3-1.5-7.9-2.5
		c-3.5-1.3-6.9-2.4-10.6-2.8c-0.9-0.1-1.8-0.5-2.6-0.9c-2.1-1.1-4.3-1.6-6.6-1.7c-3.3-0.1-6.3-0.8-9.4-1.8
		c-3.5-1.1-7.3-1.1-10.7-2.6c-1.2-0.5-2.7-0.6-4-0.7c-2.8-0.2-5.5-0.3-8.3-0.5c-1.4-0.1-2.9-0.1-4-0.7c-3.4-1.7-7.1-2-10.7-2.2
		c-0.9-0.1-1.9,0-2.7-0.3c-3.9-1.8-8.1-1.7-12.1-2.5c-1.3-0.3-2.6-0.7-3.9-1.2c-1.8-0.6-3.5-1-5.4-1c-3.2,0-6.5-0.1-9.7-0.1
		c-1.9,0-3.6-0.7-5.1-1.7c-1.1-0.8-2.4-1.4-3.3-2.5c-0.5-0.7-0.9-1.6-0.7-2.5c0.1-0.8,0.9-1.5,1.8-1.7c0.9-0.2,1.8-0.3,2.7-0.4
		C739,562.7,740.8,562.7,744.3,562.7z"/>
	<path class="st0" d="M1067.2,552.1c-2.8,0.1-4.5-0.5-6.1-1.5c-5.1-3.4-5.2-3.2-9.7-4.9c-2.6-1-5.4-1.3-7.9-2.2
		c-2.1-0.8-4.2-1.8-6.4-2.5c-3.9-1.3-7.9-2.3-12.1-2.3c-1.4,0-2.8-0.2-4.1-0.3c-1.4-0.1-2.7-0.7-3.8-1.5c-1.2-0.7-2.2-1.6-3.4-2.4
		c-1.5-1.1-3.3-1.7-5.1-1.8c-3.7-0.1-7.3,0-11,0c-1.9,0-3.6-0.4-5.3-1.3c-1.6-0.9-3.3-1.7-5-2.4c-2.9-1.3-5.9-2.6-8.8-3.9
		c-3.2-0.3-6.4-0.7-9.6-1c-1.9-0.1-3.6-0.5-5.4-1.2c-2.6-1-5.3-1.4-7.8-2.7c-1.7-0.9-3.5-0.6-5.3,0.2c-1.3,0.5-2.5,1.2-3.9,1.4
		c-1.3,0.3-2.8,0.1-3.9-0.9c-1-0.9-2-1.9-3.1-2.8c-1.1-0.9-2.3-1.6-3.7-1.6c-5.5-0.1-11-0.1-16.5-0.2c-2.4,0-4.4-1.2-5.9-3
		c-0.3-0.3-0.6-0.7-0.8-1.1c-0.8-1.2-1.1-2.4-1-3.9c0.1-1.2,1.4-2.7,2.5-2.9c2.3-0.3,4.7-0.4,6.8,0.5c3,1.2,6.2,1.6,9.2,2.9
		c2.6,1.1,5.2,1.6,8,1.7c1.8,0.1,3.7,0.2,5.5,0.4c0.9,0.1,1.8,0.3,2.6,0.6c3.4,1.6,7,2,10.7,2.4c4.1,0.4,8,1.8,12,2.9
		c2.8,1.8,6.1,1.8,9,3.2c1.7,0.8,3.5,1.2,5.3,1.3c2.3,0.2,4.5,0.7,6.6,1.7c1.3,0.6,2.6,0.8,4,0.9c3.7,0.2,7.3,0.6,10.7,2.2
		c1.2,0.6,2.7,0.6,4,0.8c0.9,0.2,1.9,0.2,2.7,0.6c3.3,1.7,7.1,1.8,10.5,3.3c3,1.3,6.2,1.6,9.1,3.2c1.2,0.6,2.6,1.1,3.9,1.1
		c4.3,0,7.9,2.2,11.9,3.1c2.3,0.5,4.1,2,6.2,3c3,1.4,5.9,2.5,9.2,2.4c3.9-0.1,7.1,1.7,10.4,3.2c1.3,0.6,1.3,2,0.1,3.3
		c-0.6,0.7-1.4,1.3-2.3,1.4C1069.1,551.9,1067.7,552,1067.2,552.1z"/>
	<path class="st0" d="M1033.2,687.1c5.1,1.4,7,2.8,9.4,2.9c1.8,0.1,3.6,0.5,5.5,0.8c3.2,2,7,2.1,10.4,3.5c5.1,2.1,10.4,3.7,15.2,6.4
		c2.8,1.6,5.9,2.6,8.6,4.2c2.8,1.6,6.2,1.8,9,3.3c2.8,1.5,5.7,2.9,8.6,4.3c2.9,1.3,5.9,2.4,9.2,2.6c1.4,0.1,2.7,0.4,4,1.1
		c0.4,0.2,0.8,0.4,1.2,0.6c4.6,2,8.9,4.7,13.4,7c4.5,2.3,9.3,3.9,13.5,6.9c0.7,0.5,1.6,0.9,2.4,1.3c2.9,1.3,5.8,2.6,9.2,2.4
		c0.9-0.1,1.8,0.1,2.7,0.3c1.8,0.5,3.2,1.6,4.2,3.3c0.6,1.1,0.3,3-0.5,3.8c-1,1-2.2,1.7-3.4,2.2c-2.9,1.3-5.4,1-7.6-1.1
		c-0.7-0.6-1.4-1.2-2-1.9c-1.3-1.3-2.4-2.7-3.8-4c-1.3-1.3-3-2.1-4.9-2.3c-1.4-0.1-2.8-0.2-4.1-0.5c-3.6-0.9-7-2.2-9.8-4.7
		c-1.7-1.5-3.4-3.1-5.2-4.5c-0.7-0.5-1.6-0.9-2.5-1.1c-1.8-0.3-3.6-0.5-5.5-0.7c-0.9-0.1-1.9-0.1-2.7-0.4c-4.7-1.9-9.8-2.7-14.1-5.3
		c-4.7-2.8-9.8-4.9-14.8-7.4c-3.7-1.8-7.7-2.9-11.5-4.6c-3.8-1.7-7.4-3.6-11.1-5.5c-1.7-0.8-3.5-1.2-5.3-1.3c-0.9,0-1.8,0-2.8-0.1
		c-0.9-0.1-1.8-0.2-2.7-0.3c-2.8-0.3-5.1-2-7.9-2.2c-2.3-0.1-4.6,0.1-6.8-0.7c-0.8-0.3-1.5-1.1-2.1-1.7c-0.3-0.3-0.2-0.9-0.4-1.3
		c-0.3-1.4-0.3-2.7-0.1-4.1c0.3-1.8,1.2-2.5,2.6-2C1032.5,686.9,1034.3,687.4,1033.2,687.1z"/>
	<path class="st0" d="M1158,764.5c-0.1,1.9-1.6,3.4-3.4,3.5c-1.9,0.1-3.6-0.3-5.4-0.7c-5.6-3.2-11.8-5.1-17-9.1
		c-8.7-5.2-17.8-9.6-26.9-13.9c-1.2-0.6-2.6-1-3.9-1.2c-2.8-0.3-5.1-2.2-7.8-2.7c-2.3-0.4-4.2-1.7-6.3-2.6c-2.6-1.1-4.8-2.7-7.1-4.2
		c-2.7-1.7-5.5-3.4-8.6-4.2c-3.1-0.9-6.1-2.2-8.9-3.6c-6.6-3.3-13.4-5.9-20.5-7.8c-1.8-0.5-3.3-1.5-4.7-2.8
		c-0.8-0.7-0.9-1.6-0.8-2.5c0.1-1,0.5-1.7,1.5-2.2c2.2-1,4.5-1,6.7-0.4c1.8,0.5,3.4,1.3,5.1,2.1c2.9,1.3,5.9,2.6,8.7,4.2
		c2.8,1.6,6.2,1.7,8.9,3.6c5.5,2.4,10.8,5,16.1,7.8c2.8,1.5,5.7,2.9,8.6,4.4c2.5,1.3,5,2.2,7.8,2.4c2.3,0.1,4.5,0.9,6.6,1.9
		c2.1,1,4.5,1,6.4,2.5c1.4,1.2,2.8,2.3,4.2,3.5c0.4,0.3,0.7,0.6,1.1,0.9c1.4,1.2,3,2.1,4.9,2.3c2.3,0.3,4.4,1.3,6.5,2.2
		c2.2,0.8,4.1,2.1,5.7,3.8c1,1,1.8,2.1,2.8,3c2.8,2.6,6.1,3.9,9.9,4.2c2.3,0.2,4.6-0.1,6.9,0.4c1.1,0.2,2.7,1.5,2.9,2.6
		C1158,762.6,1158,763.5,1158,764.5z"/>
	<path class="st0" d="M992.1,571c6.4,0.1,12.8,0.2,19.2,0.4c1.4,0,2.6,0.8,3.4,2c0.3,0.4,0.6,0.7,0.8,1.1c0.8,1.2,0.8,2.6,0.3,3.9
		c-0.3,0.8-0.9,1.6-1.5,2.3c-0.9,1.1-2.1,1.8-3.6,1.4c-8.1-2.2-8.1-2.3-13.4-2.4c-0.9,0-1.8,0-2.8,0c-2.7-0.1-5.5-0.2-8.2-0.4
		c-3.4-1.4-7.1-1.7-10.4-3.4c-2.1-1-4.1-1.8-6.5-1.7c-1.4,0.1-2.7-0.1-4.1-0.3c-1.9-0.2-3.4-1.2-4.8-2.5c-1-0.9-1.6-2.1-1.8-3.6
		c-0.3-3.2,0.2-6.4,0.4-9.6c0.1-1.4,0.7-2.6,1.2-3.9c1.1-2.6,1.6-5.3-0.3-7.8c-0.3-0.4-0.4-0.8-0.5-1.3c-0.5-1.3-0.5-2.7-0.4-4
		c0.1-1.9,1.2-3.4,2.4-4.8c0.3-0.3,0.8-0.5,1.2-0.7c2.9-1,5.4-0.3,7.6,1.7c1.5,1.3,1.7,2.4,0.7,3.4c-1.7,1.6-3.3,3.1-5,4.7
		c-2.1,2-2.6,4.6-1.3,7.5c1.2,2.5,2.6,4.9,2.7,7.7c0.1,2.8,1.2,5.3,2.4,7.8c0.9,1.8,2.4,2.9,4.3,2.9c3.2,0,6.4-0.4,9.6-0.5
		C986.6,571,989.4,571.1,992.1,571C992.1,571.1,992.1,571.1,992.1,571z"/>
	<path class="st0" d="M1054.1,652c0.4,0.1,1.4,0,2.2,0.4c2.6,1,5.1,2.1,7.6,3.2c1.3,0.5,2.6,1.2,3.9,1.3c3.8,0.3,7.1,1.9,10.4,3.5
		c3.3,1.5,6.6,3.2,9.9,4.8c3.3,0.3,6.1,1.9,9,3.3c3.4,1.6,6.8,2.9,10.6,2.6c0.9-0.1,1.8,0.1,2.8,0.1c3.3,0.1,6.2,1.3,9,3.1
		c2.1,1.3,2.8,3.5,1.8,5.9c-0.4,0.9-1.3,1.4-2.3,1.3c-2.2-0.3-8.2-2.4-10.4-3.4c-2.5-1.2-4.9-2.5-7.5-3.5c-2.6-1-4.8-2.8-7.6-3.2
		c-2.3-0.3-4.2-1.8-6.4-2.4s-4.4-1.1-6.5-2.1c-2.4-1.2-5-2.4-7.6-3.2c-2.6-0.8-5.4-1.2-7.8-2.5c-0.8-0.4-1.7-0.6-2.6-0.7
		c-4.3-0.2-7.8-2.4-11.6-4c-0.4-0.2-0.8-0.5-1-0.9c-0.5-0.7-1-1.5-1.5-2.3c0.6-0.6,1.4-1,2.4-1C1051.7,651.9,1052.6,652,1054.1,652z
		"/>
	<path class="st0" d="M1067.3,590.7c5.1,0.1,10.1,0.1,15.2,0.2c1.5,0,2.6,0.8,3.6,1.8c2.4,2.4,2.5,4.9,0.4,7.3
		c-1.2,1.3-2.4,1.8-3.6,1.3c-3.4-1.4-6.9-2.2-10.7-2.1c-4.6,0.2-9.2-0.1-13.8,0c-4.3,0-8.1-1.3-11.8-3.4c-1-0.6-1.1-1.3-0.4-2.3
		c1.1-1.6,2.6-2.6,4.5-2.6c5.5-0.1,11-0.2,16.6-0.3C1067.3,590.7,1067.3,590.7,1067.3,590.7z"/>
	<path class="st0" d="M986,687.2c1.8,0,3.6,0.2,5.2,1.2c1.1,0.7,2.3,1.5,3.3,2.4c1.5,1.2,3.1,1.9,4.9,2.1c1.4,0.2,2.7,0.3,4.1,0.4
		c1.8,0.1,3.6,0.6,5.3,1.3c2.9,1.3,6.1,1.6,9.1,3c1.6,0.7,3.6,0.6,5.3,1.1c1.8,0.6,3.1,1.9,3.8,3.6c0.8,1.8,0,3.6-1.9,4.3
		c-0.9,0.3-1.7,0.5-2.7,0.4c-0.9-0.1-1.8-0.2-2.7-0.5c-3-1.2-5.9-2.3-9-3c-2.6-0.6-5.1-1.8-7.7-2.6c-2.2-0.6-4.3-1.6-6.3-2.6
		c-2.5-1.2-5-2.2-7.6-2.9c-2.6-0.7-4.9-2.5-6.6-4.7c-0.6-0.8-0.7-1.7-0.3-2.4c0.2-0.4,0.7-0.7,1.1-0.8
		C984.2,687.5,985.1,687.4,986,687.2z"/>
	<path class="st0" d="M953.4,666.1c-0.1,3.8-0.1,6.1-0.4,8.4c-0.1,0.8-0.7,1.7-1.2,2.4c-0.9,1.4-2.3,1.9-3.5,1.3
		c-2.1-0.9-4.2-1.7-6.2-2.9c-1.6-1-2.5-2.6-2.8-4.5c-0.3-2.8-0.1-5.5,0.4-8.2c0.4-2.3,1.7-4.2,3-6.1c0.5-0.8,2.7-1.6,3.7-1.2
		c1.7,0.7,3.5,1.3,5,2.2c1.2,0.7,2,1.9,2,3.4C953.4,663,953.4,665.3,953.4,666.1z"/>
	<path class="st0" d="M1030,560.1c-2.4,0.2-3.4,0.2-4.3,0.3c-1.9,0.1-3.7-0.2-5.4-1c-1.6-0.8-3.4-1.5-5-2.3
		c-3.5-1.7-4.1-1.7-7.9-0.3c-0.8,0.3-1.8,0.4-2.7,0.6c-2.2,0.3-4.7-1.7-4.7-3.9c0-1.4,0.2-2.7,0.4-4.1c0.3-1.7,2.6-3.1,4.2-2.8
		c0.4,0.1,1,0.1,1.4,0.3c2.5,1.2,4.9,2.4,7.4,3.7c1.7,0.8,3.4,1.3,5.3,1.4c1.4,0.1,2.8,0.1,4.1,0c3.3-0.1,6.4,0.7,9.3,2.2
		c0.8,0.4,1.7,0.7,2.5,1.2c1,0.5,1.2,1.3,1,2.3c-0.2,0.9-0.6,1.8-1.6,2C1032.2,560,1030.3,560.1,1030,560.1z"/>
	<path class="st0" d="M1088.4,779.9c-0.2,2.7-1.2,4.7-2.8,6.4c-0.7,0.8-1.5,1.1-2.5,0.8c-0.4-0.1-0.9-0.1-1.3-0.3
		c-0.8-0.4-1.6-0.9-2.4-1.4c-3.6-2-7.4-3.5-11.6-3.8c-2.4-0.2-4.2-1.4-5.8-3.3c-1-1.2,0-4,1.6-4.5c2.2-0.7,4.4-1.3,6.7-1.1
		c4.1,0.2,8.2,0.5,12.3,0.9C1085.6,773.8,1088.5,777.2,1088.4,779.9z"/>
	<path class="st0" d="M972.6,687.6c-2,0-3.7-0.5-5.2-1.6c-1.1-0.8-2.2-1.6-3.2-2.5c-0.6-0.6-1.1-1.5-1.3-2.3c-0.2-0.8,0.3-1.6,1-2.3
		c0.6-0.7,1.1-1.4,1.6-2.2c0.7-1.2,1.3-2.3,1.3-3.8c0.1-2.2-0.1-4.5,0.5-6.7c0.5-1.6,2.6-3.3,4-2.7c1.7,0.7,3.3,1.4,5,2.2
		c1.4,0.7,2.4,3.2,1.9,4.7c-0.3,0.9-0.5,1.8-1,2.5c-2,3.3-2.1,6.9-1.1,10.5c0.1,0.4,0.3,0.8,0.4,1.3c0.5,1.7,0,2.6-1.4,2.8
		C974.2,687.4,973.3,687.5,972.6,687.6z"/>
	<path class="st0" d="M928.9,657c-0.2,2.2-0.3,3.5-0.5,4.9c-0.3,2.5-1.8,4.2-3.9,5.3c-0.7,0.4-1.9,0.7-2.6,0.4
		c-2.2-0.7-4.2-1.8-5.9-3.4c-0.7-0.7-1-1.5-1.1-2.5c-0.2-1.9-0.1-3.7,0.4-5.5c0.7-2.7,1.6-5.3,2.5-7.9c0.3-0.9,2.6-2,3.5-1.7
		c1.7,0.7,3.4,1.4,5,2.3c1.8,1,2.4,2.7,2.5,4.6C929,655,928.9,656.4,928.9,657z"/>
	<path class="st0" d="M1097,579.7c-3.8-0.1-5.5-0.2-7.2-1.1c-2-1-4.2-1.7-6.2-2.8c-1.4-0.7-2.5-0.3-3.8,0.2c-2.6,1-5.3,1.3-8,1.1
		c-0.8-0.1-1.7-0.5-2.4-1.1c-1.9-1.6-2-4-0.4-5.9c1.3-1.6,3-2.1,4.8-1.7c1.3,0.3,2.6,0.8,3.7,1.5c2.4,1.5,5.1,1.9,7.8,1.9
		c3.6,0,7.2-0.5,10.9,0c1.9,0.3,3.4,1.1,4.9,2.2c1.1,0.8,1.2,2.6,0.2,3.5C1099.4,579,1097.4,579.8,1097,579.7z"/>
	<path class="st0" d="M1188.4,706.8c-1.8,0.4-3.6,0.7-5.5,0.4c-1.4-0.2-2.8-0.4-4-0.8c-2.1-0.8-4.2-1.8-6.3-2.8
		c-4.6-2.2-9.3-3.9-14.2-5c-1.9-0.4-3.3-1.5-4.8-2.6c-0.8-0.6-1.1-1.4-1.2-2.3c-0.1-1.2,1-2.6,2.4-2.9c0.9-0.1,1.8-0.2,2.7-0.1
		s1.7,0.5,2.6,0.8c3.5,1.3,6.6,3.2,9.8,5c2,1.2,4.2,1.8,6.4,2.3c2.8,0.5,5,2.2,7.5,3.4c1.2,0.6,2.2,1.6,3.2,2.5c0.7,0.6,1,1.4,1,2.4
		L1188.4,706.8z"/>
	<path class="st0" d="M993.4,670.8c1.7,0,3.5,0.3,5.2,1.1c2.1,1,4.2,1.8,6.5,1.9c4.2,0.3,7.8,2.2,11.4,4.1c1.1,0.6,2.2,1.7,2.2,3.1
		c0,0.9-0.9,1.6-1.7,2c-0.4,0.2-0.8,0.5-1.2,0.7c-0.8,0.4-1.7,0.6-2.6,0.4c-1.7-0.6-3.4-1.3-5.1-1.9c-2.1-0.8-3.9-2.3-6.3-2.5
		c-1.8-0.2-3.6-0.3-5.4-0.5c-2.4-0.2-4.3-1.4-5.9-3c-0.3-0.3-0.7-0.7-0.7-1.1c-0.1-0.9-0.2-1.8,0-2.6
		C989.8,671.6,992,670.7,993.4,670.8z"/>
	<path class="st0" d="M1056,766.6c-0.1,1-0.4,2.3-0.6,3.7c-0.2,1.6-2.5,3.2-4.1,2.8c-0.4-0.1-0.9-0.1-1.4-0.2
		c-3.9-1.4-7.7-3-11.3-5.1c-1.3-0.8-1.6-2.3-0.6-3.3c0.3-0.3,0.5-0.8,0.9-1.1c2.8-2.4,6-4.2,9.4-5.8c1.3-0.6,2.6-0.4,3.9,0.4
		c2.7,1.6,3.7,3.9,3.7,6.9C1056,765.3,1056,765.7,1056,766.6z"/>
	<path class="st0" d="M1077.7,643.4c2.3-0.4,4.6-0.3,6.7,0.5c2.1,0.9,4.2,1.8,6.4,2.3c2.2,0.5,4.2,1.6,6.4,2.3
		c2.2,0.6,4.4,1.1,6.5,2c0.8,0.4,1.8,0.6,2.6,0.7c4.7,0.1,8.6,3,13.2,3.5c2,1,4.1,1.9,6.1,3c0.4,0.2,0.6,0.7,0.9,1
		c-0.4,0.3-0.7,0.7-1.1,0.8c-2.2,0.9-4.6,0.5-6.7-0.2c-3-1.1-6.1-1.9-9.3-2.1c-0.9-0.1-1.9-0.2-2.7-0.6c-3.3-1.7-7-2-10.3-3.8
		c-0.4-0.2-0.8-0.5-1.2-0.6c-3.4-1.2-6.5-3.4-10.2-3.8c-2.1-1-4.1-1.9-6.2-2.9c-0.8-0.4-1.2-1.2-1.2-2.2L1077.7,643.4z"/>
	<path class="st0" d="M1135.7,676.2c0-4,0-7.6-1.2-11.2c-0.4-1.2,1-2.4,2.5-2.3c1.4,0.1,2.7,0.5,3.8,1.4c2.4,1.9,3.1,4.4,2.6,7.4
		c-0.2,0.9-0.5,1.8-0.9,2.6c-0.6,1.3-0.5,2.7-0.2,4c0.3,1.3,0.9,2.6,1.2,3.9c0.3,1.4,0.1,2.7-0.2,4.1c-0.4,1.4-1.2,2.4-2.4,3.1
		c-0.9,0.5-2.3,0-3.5-1.4c-0.9-1.1-1.7-2.2-1.7-3.6c0-0.9-0.1-1.8-0.1-2.8C1135.6,679.6,1135.6,677.8,1135.7,676.2z"/>
	<path class="st0" d="M1123.7,807.2c-1.3-0.3-2.7-0.7-4-1c-1.9-0.4-3.3-1.6-4.6-2.8c-1.3-1.2-1-4,0.5-4.8c1.7-0.8,3.3-1.6,5-2.3
		c1.7-0.8,3.6-0.9,5.4-0.9c5.3,0.2,7.9,6,5.8,10c-0.4,0.8-1,1.6-1.6,2.2c-0.7,0.7-1.6,0.9-2.5,0.9
		C1126.2,808.6,1125,807.7,1123.7,807.2z"/>
	<path class="st0" d="M1168.2,632.2c2.4-0.1,4.7,0.3,6.8,1.4c1.6,0.9,3.4,1.4,5.2,1.5c2.3,0.1,4.6,0.2,6.9,0.1
		c3.9-0.3,7.2,1,10.3,3.2c0.4,0.3,0.8,0.6,0.9,1c0.3,0.8,0.8,1.8,0.7,2.5c-0.1,0.8-1.2,1.3-2.1,1.4c-2.8,0.2-5.5,0.1-8.1-1
		c-0.4-0.2-0.8-0.4-1.3-0.5c-3-1.1-6.1-1.8-9-3.3c-2.7-0.2-5.5-0.3-8.2-0.6c-2.3-0.3-4.4-1.1-5.7-3.3c-0.5-0.9-0.2-1.6,1-1.9
		C1166.5,632.3,1167.4,632.3,1168.2,632.2z"/>
	<path class="st0" d="M928.6,535.3c-0.1,0.9-0.1,1.8-0.2,2.7c-0.1,2-1.3,3.4-2.8,4.4c-3.9,2.7-9.8,0.2-10.6-4.4
		c-0.2-0.9-0.2-1.8,0-2.7c0.4-2.2,1.5-4.3,2.8-6.1c0.5-0.7,1.4-1.2,2.2-1.4c3.8-1.3,7.7,1.5,8.3,4.9
		C928.5,533.4,928.5,534.4,928.6,535.3z"/>
	<path class="st0" d="M994.9,628.5c0.6-4.2-0.3-7.6-2.1-10.8c-0.4-0.7,0-1.7,1.1-1.9c5-0.7,8.7,1.5,10.8,6.1
		c0.4,0.8,0.6,1.8,0.3,2.6c-1.1,3-1.6,6.1-1.8,9.2c0,0.4-0.2,0.9-0.4,1.3c-0.5,0.7-1,1.5-1.6,2.1c-0.6,0.6-3,0.2-3.8-0.5
		c-1.4-1.2-2.5-2.6-2.5-4.5C994.9,630.8,994.9,629.4,994.9,628.5z"/>
	<path class="st0" d="M1194,687.4c-3.2,0.1-6.2-0.2-9.3-1.4c-3.4-1.3-7-1.9-9.7-4.7c-0.3-0.3-0.7-0.6-1.1-0.8
		c-0.8-0.4-1.6-0.9-2.5-1.1c-4-0.9-7.7-2.6-11.9-2.9c-0.3,0-0.7-0.5-1-0.9c-0.9-1-1-2.4-0.2-3.6c0.5-0.9,1.4-1.1,2.3-1.2
		c0.9,0,1.8-0.1,2.7,0.3c2.5,1.1,5,2.2,7.4,3.5c1.6,0.8,3.3,1.5,5.1,1.8c2.3,0.3,4.3,1.5,6.4,2.3c1.7,0.6,3.3,1.5,4.7,2.8
		c2,1.9,4.3,3.2,6.4,4.9c0.3,0.2,0.3,0.8,0.4,1.3L1194,687.4z"/>
	<path class="st0" d="M1019.1,643.1c-0.9-0.1-1.7-0.4-2.4-1c-1.7-1.7-2.6-3.7-2.1-6.1c0.7-3.5,1.8-6.9,3.2-10.2
		c0.2-0.4,0.6-0.7,1-0.9c2.2-1.4,5.4-0.8,7.2,1.5c0.6,0.8,1.1,1.6,0.8,2.3c-0.9,2.1-1.3,4.3-1.9,6.4c-0.6,2.1-1.5,4.2-2.3,6.3
		C1022,642.4,1020.3,643.3,1019.1,643.1z"/>
	<path class="st0" d="M1041.8,651.8c-3,0.2-5.2-1.2-6.9-3.5c-0.8-1-0.9-2.7-0.2-3.8c0.8-1.1,1.5-2.2,2.4-3.3
		c1.2-1.5,1.7-3.1,1.9-4.9c0.1-1.3,0.2-2.7,0.5-4c0.5-2,2.4-2.6,4.2-1.8c0.4,0.2,0.8,0.4,1.1,0.7c1.5,1.1,1.9,2.1,1.3,3.3
		c-1,2-1.9,4.1-3,6c-0.8,1.5,0.1,2.6,0.8,3.7c0.5,0.7,1,1.5,1.7,2.1c0.8,0.8,0.9,1.5,0.3,2.4c-0.7,1.1-1.4,2.3-2.8,2.7
		C1042.7,651.7,1042.2,651.7,1041.8,651.8z"/>
	<path class="st0" d="M906.2,648.8c-0.1,3.7-1.5,7-3.6,10c-0.5,0.8-1.4,1-2.3,1.2c-3,0.4-5.2-0.8-7-3c-1-1.2-1-2.6-0.5-3.8
		c1.1-2.5,2.4-4.8,3.7-7.2c1.3-2.4,4.3-3.4,7-2.6c1.4,0.4,2.3,1.4,2.6,2.8C906.2,647,906.1,647.9,906.2,648.8z"/>
	<path class="st0" d="M1301.5,875.8c2.3-0.1,4.5,0.3,6.4,1.9c1.4,1.2,3,2.1,4.6,3.1c2.8,1.6,5.7,3.1,8.4,4.8
		c2.3,1.5,4.5,3.2,6.9,4.5c2.4,1.3,4.3,3.5,5.9,5.7c0.6,0.8,1,1.7,0.7,2.5c-0.4,1.1-1.2,1-2.2,0.3c-3.8-2.5-7.8-4.9-11.5-7.7
		c-3.8-1.7-6.8-4.6-10.3-6.8c-3.2-2-5.7-4.6-7.9-7.5c-0.3-0.3-0.3-0.8-0.5-1.3L1301.5,875.8z"/>
	<path class="st0" d="M1225.9,857c-1.7-0.1-3.5-0.3-5.3-0.4c-0.4,0-0.9-0.1-1.3-0.3c-4.7-1.6-9.2-3.6-13.1-6.8
		c-0.6-0.5-0.8-1.7-0.3-2.5c1.1-1.7,4.3-2.5,6.1-1.5c1.6,0.8,3.2,1.7,4.7,2.7c2.3,1.5,4.9,2.3,7.6,2.5c1.3,0.1,2.7,0.3,4,0.7
		c0.8,0.3,1.6,0.8,2.3,1.4c0.7,0.5,1.4,1.3,1.3,2.2c-0.1,0.7-1,1.4-1.9,1.6C1228.7,856.8,1227.3,856.8,1225.9,857z"/>
	<path class="st0" d="M1254.5,845.3c1.8-0.1,3.5,0.3,5.2,1.1c5,2.3,9.1,6,13.8,8.7c0.7,0.4,1.3,1.3,1.8,2c0.6,0.7,0.8,1.6,0.4,2.5
		c-0.3,0.8-1.1,1.3-2,1.6c-0.4,0.1-0.9,0.2-1.3,0.3c-0.4,0-0.9,0-1.4,0.1c-3,0.1-5.2-1.2-7.1-3.3c-2.4-4.4-5.7-8.1-9-11.8
		c-0.2-0.3-0.1-0.9-0.1-1.3L1254.5,845.3z"/>
	<path class="st0" d="M978.5,544.9c0.1,1.6,0,0.3,0-1.1c0-1.1,0.9-2.5,2.5-2.7c2.5-0.4,4.7,0.6,5.6,2.8c0.4,0.8,0.7,1.7,1.1,2.5
		c1.3,2.6,1.2,5.3,0.9,8.1c-0.2,1.5-2,3.5-3.6,3.6c-1.4,0.1-2.8-0.1-3.8-1.2c-1.3-1.3-2.2-3-2.4-4.8
		C978.7,550.7,978.7,549.3,978.5,544.9z"/>
	<path class="st0" d="M1249.1,842.5c-1.9,0.3-3.6,0.1-5.3-1c-1.1-0.7-2.3-1.5-3.7-1.8c-3.6-0.6-6.9-2.3-10.6-2.9
		c-2.4-0.3-4-2.1-5.1-4.2c-0.8-1.6-1.3-3.4-1.9-5.2c-0.1-0.2,0.4-0.7,0.7-0.9c0.4-0.2,0.8-0.3,1.3-0.3c1.9,0,3.4,1.2,5.1,2
		c3.4,1.5,5.9,4.3,9.1,6.2c3.2,1.8,6.7,3.2,9.5,5.6c0.7,0.6,1.1,1.4,1,2.4L1249.1,842.5z"/>
	<path class="st0" d="M1143.6,598.9c-5.2,0.3-7.9,0.6-10.6,0.1c-1.8-0.4-3.3-1.3-4.3-2.9c-0.5-0.9-0.4-1.6,0.4-2.4
		c2.4-2.7,5.4-3.1,8.6-2.6c0.1,0,11.4,3.9,11.4,4c0.5,0.7,1.2,1.4,1.6,2.2c0.3,0.7-0.3,1.3-1.5,1.4c-0.9,0.1-1.8,0.1-2.7,0.2
		C1144.7,598.8,1142.9,598.9,1143.6,598.9z"/>
	<path class="st0" d="M1130,616.4c-0.3,1.4-1.3,2.3-2.4,3.1c-0.4,0.3-0.9,0.6-1.2,0.6c-3.5-0.9-7.2-1.2-10.7-2
		c-1.7-0.4-3.3-1.6-4.9-2.4c-1-0.5-1.5-1.1-1.3-1.8c0.1-0.4,0.6-0.8,1-0.9c2.1-0.7,4.1-2.2,6.4-2.3c2.7-0.1,5.5,0,8.2,0
		c1.8,0,4.4,2.4,4.9,4.2C1130.1,615.4,1130,615.9,1130,616.4z"/>
	<path class="st0" d="M1108.1,792.2c-0.1,1-0.2,2.4-0.6,3.7c-0.3,0.7-1.1,1.5-1.8,1.8c-3.3,1.4-7.9-1.4-8.6-4.5
		c-0.3-1.3-0.2-2.8,0.4-4c1-2,2.1-4,3.2-5.9c0.6-1,2.4-1.4,3.6-0.7c2.1,1.1,3.5,2.8,3.7,5.3C1108.2,789.1,1108.1,790.5,1108.1,792.2
		z"/>
	<path class="st0" d="M1188.1,707.1c4.1,0,8.1-0.1,12.2,0c1.8,0,3.5,0.9,5,2c2.2,1.7,3.9,3.7,4.9,6.3c0.5,1.3,0.3,2.9-0.6,3.8
		c-0.2,0.2-0.8,0.5-1,0.4c-1.3-0.5-2.6-0.9-3.7-1.6c-2.7-1.6-5.3-3.4-8-5.1c-2.6-1.6-5.5-2.9-8-4.9c-0.3-0.2-0.3-0.8-0.4-1.3
		L1188.1,707.1z"/>
	<path class="st0" d="M1326.7,916.9c-1.4,0.1-2.8,0.1-4-0.5c-5.3-2.7-10.7-5.1-15.6-8.6c-1.5-1-3.3-1.6-4.8-2.6
		c-2-1.2-3.5-2.9-4.7-4.9c-0.6-1-0.6-1.8,0.4-2.3c0.4-0.2,0.8-0.2,1.3-0.2c0.4,0,0.9,0,1.3,0.2c1.6,0.8,3.3,1.7,4.8,2.6
		c3.1,2,6,4.2,9.2,6c3.1,1.8,5.8,4.4,9.1,6.2c0.8,0.4,1.4,1.2,2,1.8c0.7,0.6,1,1.4,0.8,2.4L1326.7,916.9z"/>
	<path class="st0" d="M1149.2,808.8c0.6,0.1,1.9,0.3,3.2,0.5c1.4,0.3,3.1,2.4,3,4c-0.1,1.8-0.6,3.5-1.9,4.9c-1.2,1.3-3.5,2-4.8,1.5
		c-2.1-0.9-4.1-1.8-6.1-2.7c-1.3-0.6-2.2-1.5-3.1-2.5c-1.1-1.2-0.4-4,1.1-4.5c0.8-0.3,1.7-0.6,2.5-0.8c0.9-0.2,1.8-0.3,2.7-0.3
		C1146.6,808.8,1147.5,808.8,1149.2,808.8z"/>
	<path class="st0" d="M1186.6,830.7c2.8,0,4.6,0.2,6.4,0.6c1.4,0.4,2.5,1.1,3.2,2.3c0.9,1.6,1.6,3.3,2.4,5c0.4,0.9-0.6,3-1.6,3.5
		c-1.3,0.6-2.7,0.8-4,0.2c-2.9-1.5-5.6-3.1-8.4-4.8c-1.2-0.7-2.2-1.6-3-2.8c-0.6-0.8-0.9-1.7-0.6-2.4c0.1-0.3,0.7-0.7,1.1-0.8
		C1183.9,831.2,1185.7,830.9,1186.6,830.7z"/>
	<path class="st0" d="M1055.7,570.9c-0.1,1.2-0.2,2.1-0.3,2.9c-0.2,1.4-1.1,2.3-2.4,3c-1.4,0.7-2.6,0.1-3.8-0.6
		c-0.4-0.2-0.6-0.6-0.9-1c-0.7-1.2-0.9-2.5-1-3.9c-0.1-3.2-0.9-6.2-1.8-9.2c-0.2-0.7,0.7-1.5,1.6-1.7c1.8-0.5,3.6-0.1,5.1,1
		c1.9,1.4,3.1,3.3,3.3,5.6C1055.6,568.5,1055.6,569.8,1055.7,570.9z"/>
	<path class="st0" d="M1036.5,584c-0.1,1.3-0.2,2.6-0.2,4c-0.1,1.7-1.8,3.1-3.7,3c-0.4,0-0.9-0.1-1.3-0.2c-1.7-0.3-3.2-1.9-3.5-3.6
		c-0.6-3.6-0.2-7.1,0.5-10.6c0.2-0.9,0.9-1.5,1.6-2c1-0.6,3-0.2,3.7,0.6c0.9,1,1.8,2,2.1,3.4C1036.1,580.4,1036.2,582.2,1036.5,584z
		"/>
	<path class="st0" d="M1301.9,875.4c-1.4-0.2-2.7-0.3-4.1-0.5c-2.8-1.7-6.1-1.7-9.2-2.3c-0.4-0.1-0.9-0.2-1.3-0.3
		c-2.6-0.8-5.1-4.7-4.8-7.6c0.1-1.7,1.3-2.7,2.6-2.3c0.4,0.1,1,0.1,1.3,0.3c3.1,2,6.2,3.9,9.2,6c2.2,1.6,4.2,3.5,5.6,5.9
		c0.2,0.4,0.2,0.9,0.3,1.3L1301.9,875.4z"/>
	<path class="st0" d="M1164.3,826.7c1.5-3,2.1-4.7,3.1-6.2c0.7-1.1,1.9-2.1,3.3-2.1c1.4,0.1,2.5,1.2,3.2,2.4c1.2,2.4,2,5.1,2.8,7.6
		c0.4,1.2-0.7,2.7-2.1,2.9c-2.3,0.4-4.6,0.2-6.7-0.7c-0.8-0.3-1.5-1-2.1-1.7C1164.8,828,1164.2,826.8,1164.3,826.7z"/>
	<path class="st0" d="M948.2,536.7c-0.1,1.1-0.2,2.9-0.6,4.7c-0.2,0.8-0.9,1.6-1.5,2.1c-0.7,0.6-3.1,0.1-3.8-0.6
		c-1.7-1.7-2.7-3.6-2.8-6c-0.2-3.3,0.6-6.3,3.1-8.7c1.2-1.1,3.9-0.5,4.5,1.1c0.3,0.8,0.7,1.7,0.8,2.6
		C948.1,533.2,948.1,534.6,948.2,536.7z"/>
	<path class="st0" d="M1190.9,781.5c0.3-2.1,0.2-4.4,1.2-6.6c0.5-1,2.5-1.8,3.5-1.2c2.6,1.5,4.4,5.5,3.6,8.3
		c-0.1,0.4-0.2,0.9-0.4,1.3c-0.7,1.7-1.5,3.4-2.3,5c-0.5,0.9-1.4,1.1-2.3,1.2c-1.1,0.1-1.8-0.2-2.3-1.2c-0.4-0.8-0.8-1.6-1-2.5
		C1190.7,784.3,1190.9,783,1190.9,781.5z"/>
	<path class="st0" d="M1143.6,621.5c0-2.3,0.1-4.5,1.2-6.7c0.5-1,1.2-1.3,2.3-1.3c0.9,0,1.8,0.2,2.3,1.1c0.8,1.6,1.6,3.3,2.3,5
		c0.6,1.8,0.6,3.6,0,5.4c-0.3,0.9-0.9,1.6-1.6,2.2c-1.4,1.1-2.2,1.1-3.6,0.2c-1.2-0.8-2-1.9-2.4-3.2
		C1143.8,623.4,1143.8,622.5,1143.6,621.5z"/>
	<path class="st0" d="M1077.8,643.3c-3.6,0.6-7.3,0-10.9-0.4c-3.4-1.3-7.1-1.8-9.4-5c-0.9-1.2-0.3-2.4,1.4-2.8
		c1.4-0.3,2.7-0.2,4.1,0c0.9,0.2,1.8,0.4,2.6,0.8c3.7,1.6,7.5,3.2,11.1,5.2c0.8,0.4,1.1,1.3,1.1,2.3L1077.8,643.3z"/>
	<path class="st0" d="M1171.9,770.5c0.7,0.1,1.2,0.1,1.6,0.1c1.8,0.1,3.3,1.5,3.8,3.3c0.5,1.9,0.1,3.5-0.5,5.2
		c-0.4,0.9-2.6,2.1-3.4,1.8c-2.1-0.9-4.2-1.7-6-3c-1.1-0.9-1.6-2.2-1.5-3.5c0.1-1.4,1.1-2.6,2.3-3.1
		C1169.5,770.7,1170.9,770.7,1171.9,770.5z"/>
	<path class="st0" d="M1271.2,881.2c-0.3,1.7-1.4,2.5-2.8,2.2c-3.2-0.6-6-2.1-9.1-3.1c-0.9-0.3-1.3-1.2-1.7-2.1
		c-0.5-1.4-0.2-2.1,1.6-3.3c0.4-0.2,0.8-0.5,1.2-0.7c1.3-0.8,2.6-0.9,3.9-0.4c1.7,0.7,3.5,1.4,4.9,2.5
		C1270.8,877.5,1271.6,879.2,1271.2,881.2z"/>
	<path class="st0" d="M1127.4,571.5c-0.1,2.5-0.8,4.6-2.3,6.4c-0.9,1-2.6,1.3-3.5,0.4c-1-1-1.9-2-2.1-3.3c-0.3-2.2-0.4-4.5,0.2-6.7
		c0.2-0.8,0.9-1.7,1.6-2c1.2-0.6,2.6-0.9,3.8-0.2c1.2,0.6,2.2,1.5,2.3,3C1127.3,570,1127.4,570.9,1127.4,571.5z"/>
	<path class="st0" d="M1243.3,859.3c1-0.1,1.8,0.1,2.6,0.7c1.5,1.1,2.7,2.4,3.4,4.1c0.6,1.7,1.3,3.4,1.9,5.1
		c0.4,1.1-0.4,2.7-1.8,3.1c-0.4,0.1-1,0.4-1.3,0.2c-4.4-1.9-7.3-6.2-7.1-10.6C1241,860.3,1241.7,859.6,1243.3,859.3z"/>
	<path class="st0" d="M1175.1,743.4c0.4,0.1,0.9,0.2,1.2,0.4c4.1,2.4,4.1,6.7,2.4,9.3c-0.7,1.1-1.4,2.3-2.6,3
		c-1.4,0.9-4.2,0.1-4.5-1.4c-0.8-3.1-0.7-6.2,0.4-9.3C1172.4,744.3,1174.1,743.2,1175.1,743.4z"/>
	<path class="st0" d="M1220.6,785.7c-0.2,0.4-0.2,1-0.5,1.3c-1.6,1.6-3.3,3.1-4.9,4.7c-1,1-1.6,2.2-1.9,3.5c-0.3,1.3-0.4,2.7-0.7,4
		c-0.1,0.4-0.5,0.9-0.8,1c-0.9,0.3-1.8,0.1-2.5-0.5c-0.7-0.6-1.2-1.6-0.8-2.4c1.5-3.3,3.3-6.5,4.5-9.9c1-2.6,4.1-3.8,6.7-2.5
		C1220,785.1,1220.3,785.5,1220.6,785.7z"/>
	<path class="st0" d="M1108,590.8c3.1-0.1,5.6,0.7,7.3,3.3c0.5,0.8,0.5,1.6-0.3,2.4c-1,0.9-2.1,1.7-3.5,1.9c-0.4,0.1-1,0.2-1.4,0
		c-2.1-0.7-4.3-1.5-6.1-3c-0.9-0.8-0.7-2.8,0.4-3.6C1105.5,591.1,1106.8,590.8,1108,590.8z"/>
	<path class="st0" d="M1166.2,610.3c0-1.5,1-2.9,2.4-4.2c0.8-0.7,1.7-0.8,2.5-0.4c0.4,0.2,0.8,0.5,1.2,0.7c2.7,1.7,2.7,7.8,0,9.7
		c-1.8,1.4-3.1,1.4-4.6-0.4c-0.9-1.1-1.5-2.3-1.4-3.7C1166.3,611.8,1166.2,611.3,1166.2,610.3z"/>
	<path class="st0" d="M1212,760.5c3.1,0.8,6,2.1,8.3,4.5c0.3,0.3,0.5,0.7,0.8,1.1c0.6,0.9-0.2,3.1-1.3,3.4c-3.5,1.2-6.5,0.4-8.6-2.1
		c-1.4-1.6-1.5-4.4-0.1-6.3C1211.2,760.9,1211.7,760.7,1212,760.5z"/>
	<path class="st0" d="M1237.7,726.6c-0.2,2.9-2.9,4.7-5.6,3.6c-1.3-0.5-2.5-1-3.7-1.6c-0.4-0.2-0.8-0.4-1.2-0.7
		c-0.6-0.6-1.1-1.3-1.7-2c-0.8-1-0.5-1.6,0.7-2.1c3.1-1.1,6.2-0.8,9.3-0.2C1236.6,723.9,1237.8,725.4,1237.7,726.6z"/>
	<path class="st0" d="M1257.9,737c-0.2,0.7-0.4,2.1-0.9,3.4c-0.3,0.9-1.2,1.3-2,1.5c-1,0.2-1.9,0-2.4-0.9c-0.4-0.8-1-1.6-1.1-2.4
		c-0.3-2.2-0.3-4.5,0.4-6.7c0.6-1.9,2.6-2.8,4.2-1.7c0.4,0.3,0.7,0.6,0.9,1C1257.8,732.8,1258,734.6,1257.9,737z"/>
	<path class="st0" d="M1193.7,687.8c3.5-1,7.1-0.5,10.6,0c1.9,0.3,3.2,1.3,4.4,2.8c0.8,1,0.6,1.6-0.4,2.1c-1.7,0.8-3.4,0.9-5.2,0.8
		c-3.3-0.1-6.1-1.2-8.4-3.6c-0.6-0.6-0.8-1.5-0.7-2.4L1193.7,687.8z"/>
	<path class="st0" d="M1147.4,579.1c-1.9,0.1-3.3-1-4.7-2.1c-0.7-0.6-1-1.5-1-2.3c-0.1-1,0.2-1.8,1-2.3c0.7-0.4,1.7-0.7,2.5-0.4
		c2,0.9,3.9,2,5.9,3c1,0.5,1.2,1.3,0.8,2.3c-0.3,0.8-0.8,1.5-1.8,1.7C1149.2,579.3,1148.2,579.1,1147.4,579.1z"/>
	<path class="st0" d="M1080.4,552.3c3.2-1,6.3-1,9.4,0.2c1.7,0.6,3.3,1.7,4.8,2.6c1.1,0.6,1.3,1.3,0.6,1.8c-0.3,0.3-0.8,0.5-1.2,0.6
		c-1.8,0.4-3.6,0.7-5.4,0.5c-0.9-0.1-1.8-0.2-2.7-0.5c-2.2-0.8-4-2.1-5.1-4.2c-0.2-0.4-0.1-0.9-0.1-1.4L1080.4,552.3z"/>
	<path class="st0" d="M1222.7,705.9c-0.4-0.2-0.8-0.4-1.2-0.7c-1.7-1.7-2.7-3.6-2.5-6.1c0.1-1,0.2-1.9,1-2.4c1.2-0.8,2.8-0.7,3.8,0
		c3.6,2.5,3.9,6.5,0.1,8.9C1223.5,705.6,1223.1,705.7,1222.7,705.9z"/>
	<path class="st0" d="M1280.9,750.1c-0.4,0.3-0.7,0.7-1.1,0.9c-2.2,1-4.4,0.7-6.6-0.4c-1.4-0.7-2-3.6-0.8-4.8
		c0.6-0.6,1.3-1.2,2.1-1.8c1.4-1.1,3.9-0.5,4.8,1.1c0.6,1.2,1.1,2.5,1.6,3.8C1281,749.2,1280.9,749.7,1280.9,750.1z"/>
	<path class="st0" d="M1343.3,927.9c-1.8,0.1-3.5-0.1-5-1.2c-3.2-2.3-6.8-4-9.8-6.6c-1-0.8-1.8-1.8-1.8-3.3l-0.3,0.3
		c1.8-0.3,3.5-0.4,5.2,0.6c1.6,0.9,3.2,1.6,4.8,2.5c2.7,1.6,5,3.8,6.4,6.6c0.2,0.4,0.1,0.9,0.1,1.3L1343.3,927.9z"/>
	<path class="st0" d="M1286,892.7c-1.3-0.1-2.2-0.1-3-0.2c-1.9-0.1-3.4-1-4.6-2.4c-0.6-0.6-0.8-1.5-1.2-2.3c0.7-0.4,1.4-1.1,2.2-1.2
		c4.7-0.8,8.7,0.7,12.2,3.7c0.2,0.2,0.3,0.7,0.2,1c-0.2,0.4-0.6,0.7-1,0.9c-0.4,0.2-0.8,0.2-1.3,0.3
		C1288.3,892.6,1286.9,892.6,1286,892.7z"/>
	<path class="st0" d="M923.1,753.8c-1.8,0.2-3.6,0.2-5.3-0.6c-3.2-1.7-6.6-2.9-9.4-5.3c-0.3-0.3-0.8-0.8-0.7-1
		c0.5-0.9,1.3-1.2,2.3-1.1c0.4,0,0.9,0,1.3,0.1c2.3,0.4,4.1,1.8,6.1,2.8c1.6,0.8,3,2,4.4,3c0.7,0.5,1,1.4,0.8,2.4L923.1,753.8z"/>
	<path class="st0" d="M1256,711.5c-0.3,0.3-0.7,0.7-1.1,0.8c-0.9,0.1-1.8,0.1-2.7,0c-1.8-0.2-3.3-1.3-5-1.9
		c-1.7-0.6-3.6-0.4-5.1-1.6c-0.7-0.5-1.1-1.4-0.8-2.3c0.3-1.1,1.1-1.2,2.1-0.9c1.3,0.5,2.6,0.9,3.9,1.1c3.2,0.5,5.9,2.1,8.5,3.9
		C1256,710.7,1256,711.1,1256,711.5z"/>
	<path class="st0" d="M1295.5,758.1c0.2-1.7,0.3-3.5,1.3-5.1c0.5-0.8,1.3-0.9,2.2-0.2c1.5,1.1,2.3,2.6,2.3,4.5
		c0,1.3,0.1,2.7-0.6,3.9c-0.7,1.2-1.5,2.2-3,2.4c-0.8,0.1-2-1.6-2.1-2.9C1295.6,759.9,1295.6,759,1295.5,758.1z"/>
	<path class="st0" d="M1221.6,654.2c-2.7,0.6-5.3,0.4-7.8-1c-1.2-0.7-2.4-1.2-3.6-1.8c-1.1-0.5-1.4-1.2-0.8-1.8
		c0.3-0.3,0.7-0.5,1.1-0.6c3.8-0.6,7,0.6,9.8,3.2c0.7,0.6,1,1.4,0.8,2.4L1221.6,654.2z"/>
	<path class="st0" d="M1190.6,620.7c-2.2-0.5-3.2-3.2-2-5.3c1-1.7,2.9-2.4,4.4-1.6c2.2,1.1,3.4,2.6,3,3.8c-0.6,1.9-2.3,2.5-4,3.1
		C1191.5,620.8,1191,620.7,1190.6,620.7z"/>
	<path class="st0" d="M1346.1,879.1c2.2-0.1,4.4,1.6,4.8,3.9c0.2,1-0.2,1.8-1,2.4c-0.7,0.5-1.7,0.6-2.5,0.3
		c-1.3-0.5-2.2-1.5-3.1-2.6c-0.5-0.7-0.7-1.6-0.3-2.6C1344.4,879.5,1345.2,879.1,1346.1,879.1z"/>
	<path class="st0" d="M1184.9,591.3c0.9-0.2,1.8-0.2,2.6,0.2c1.6,0.8,3.1,1.7,4.7,2.6c0.9,0.5,1,1.3,0.3,2.2
		c-1.4,1.8-2.9,2.3-4.5,1.3c-1.2-0.7-2.3-1.5-3.4-2.1c-1-0.5-1.3-2.5-0.6-3.6C1184.1,591.7,1184.5,591.5,1184.9,591.3z"/>
	<path class="st0" d="M1230.7,616.1c-2-0.6-3.9-1.6-5.3-3.5c-0.3-0.3-0.7-0.9-0.6-1.1c0.4-0.8,1.1-1.2,2-1.2c0.4,0,1-0.1,1.3,0.1
		c2.3,1.2,4.8,2.2,6.6,4.2c0.2,0.3,0.2,0.9,0.1,1.3c-0.2,1-0.8,1.5-1.6,1.3C1232.4,617,1231.6,616.6,1230.7,616.1z"/>
	<path class="st0" d="M1210.2,624.1c0.9-0.1,1.8,0.1,2.5,0.6c1.9,1.2,3.5,2.8,4.9,4.6c0.7,0.9,0.7,1.7,0,2.1
		c-0.7,0.5-1.7,0.7-2.5,0.4c-2.5-1-4.6-2.6-6.2-4.9c-0.6-0.9-0.6-1.7,0.1-2.3C1209.3,624.4,1209.8,624.3,1210.2,624.1z"/>
	<path class="st0" d="M1273.6,726c-0.8-0.2-1.6-0.7-1.9-1.6c-0.5-1.7-0.6-3.4,0.3-5c0.5-0.9,1.1-1.2,2.2-1.1c0.9,0,1.6,0.2,2.1,1.1
		c0.9,1.6,0.8,3.3,0.4,5C1276.5,725.4,1274.6,726.4,1273.6,726z"/>
	<path class="st0" d="M1345,853.9c0.4,0.1,0.9,0.1,1.3,0.3c1.3,0.6,2,1.6,2.2,3c0.2,1.3-0.7,3.7-1.3,3.4c-0.8-0.3-1.6-0.8-2.2-1.4
		s-1.1-1.4-1.5-2.1C1343,856.1,1344,854,1345,853.9z"/>
	<path class="st0" d="M1395.1,933.6c0.1,1.7-0.7,2.4-2.5,2.3c-0.9-0.1-1.7-0.3-2.5-0.8c-1.3-0.9-2-2.5-1.4-3.2
		c0.7-0.7,1.5-1,2.5-0.8c0.9,0.1,1.8,0.1,2.6,0.4C1394.8,931.8,1395.2,932.6,1395.1,933.6z"/>
	<path class="st0" d="M1193.5,759.3c-1.5-0.4-2.2-1.8-1.7-3.2c0.9-2.4,3.1-3.2,5.4-1.8c0.4,0.2,1,0.8,0.9,0.9
		c-0.6,1.7-1.6,3.3-3.4,4C1194.3,759.5,1193.8,759.3,1193.5,759.3z"/>
	<path class="st0" d="M1166.7,582.4c2.2-0.1,4.1,0.6,5.7,2.4c0.7,0.7,1.1,1.5,0.8,2.1c-0.5,0.8-1.4,1-2.3,0.7
		c-2.1-0.5-3.9-1.7-5.7-3c-0.3-0.2-0.8-0.9-0.7-1C1165,582.9,1165.8,582.5,1166.7,582.4z"/>
	<path class="st0" d="M1408.8,970.5c-0.3,1.1-2.4,1.4-3.5,0.5c-0.7-0.6-1.1-1.5-0.7-2.4c0.4-1,1.3-1.2,2.3-1
		C1408.2,967.8,1409.2,969.3,1408.8,970.5z"/>
	<path class="st0" d="M1389.5,958.4c-1.4-0.1-2.2-0.6-2.2-2.6c0-1.8,0.5-2.4,2.3-2.3c1.7,0.1,2.5,0.9,2.4,2.5
		C1391.9,957.7,1391.1,958.5,1389.5,958.4z"/>
	<path class="st0" d="M1294.5,685c-1-0.1-1.8-0.4-2.4-1.2c-0.6-0.7,0.5-2.4,1.9-3.1c0.4-0.2,0.8-0.3,1.3-0.2
		c0.4,0.1,0.9,0.3,1.3,0.5c1.4,0.7,2.3,2.2,1.8,3.1c-0.5,0.8-1.4,1.1-2.4,1C1295.4,685,1294.9,685,1294.5,685z"/>
	<path class="st0" d="M1370.4,894.3c0.1,1-0.3,1.8-1.1,2.2c-1.9,0.9-3.5,0.1-3.7-1.9c-0.2-1.7,0.1-2,2.2-2.2
		C1369.3,892.2,1370.3,892.9,1370.4,894.3z"/>
	<path class="st0" d="M1331,871.2c-0.3,0.3-0.6,0.7-0.9,0.8c-0.4,0.1-0.9,0.1-1.3,0c-1.3-0.3-2.4-1.1-3.3-2
		c-0.9-0.8-0.9-1.5-0.2-2.1c0.7-0.5,1.5-0.9,2.4-0.5C1329.4,868.1,1330.5,869.4,1331,871.2z"/>
	<path class="st0" d="M1364.9,867.8c1-0.2,1.8,0,2.2,0.8c0.7,1.3,0.3,3.5-0.5,3.4c-0.9-0.1-1.6-0.6-2.1-1.3
		c-0.3-0.3-0.5-0.7-0.6-1.1C1363.5,868.7,1363.8,868,1364.9,867.8z"/>
	<path class="st0" d="M886.7,737.6c1.8,0.1,3.6,0.1,5.3,0.3c1.1,0.1,1.8,0.6,1.6,1.2c-0.1,0.3-0.7,0.5-1.1,0.6
		c-1.3,0.2-2.7,0.1-3.9-0.5c-0.8-0.4-1.3-1.1-1.6-2L886.7,737.6z"/>
	<path class="st0" d="M1295.8,729.3c0.2,1,0,1.9-1,2.3c-1.3,0.5-3.2-0.3-3.1-1.2c0.1-0.9,0.7-1.6,1.5-2.2
		C1294.6,727.1,1295.5,727.5,1295.8,729.3z"/>
	<path class="st0" d="M1351.3,908.9c0.9,0,1.8-0.1,2.6,0c1.6,0.2,2.3,0.9,2.6,2.5c0.1,0.4,0.1,0.9-0.1,1.2c-0.5,0.9-1.2,1-2.1,0.2
		c-1.3-1.1-2.9-2-2.8-4.1L1351.3,908.9z"/>
	<path class="st0" d="M1399.8,912.8c-0.2,0.3-0.3,0.7-0.5,1c-1.1,1.1-4,0.8-4.8-0.5c-0.1-0.1,0.2-0.7,0.4-0.8
		c1.2-0.7,2.6-0.7,3.9-0.4C1399.1,912.1,1399.5,912.5,1399.8,912.8z"/>
	<path class="st0" d="M1109.3,559.3c-0.4,0.8-1.9,1.3-3.5,1c-0.8-0.1-1.6-0.5-2.1-1.3c-0.1-0.1,0.4-0.6,0.6-0.8
		c1.6-1.1,3.2-0.9,4.7,0.2C1109.1,558.7,1109.1,559.1,1109.3,559.3z"/>
	<path class="st0" d="M1413.5,948.8c-0.2,0.3-0.3,0.7-0.6,0.8c-0.8,0.5-1.6,0.4-2.3-0.1c-0.2-0.2-0.4-0.7-0.3-0.8
		c0.2-0.3,0.6-0.7,1-0.8C1412.2,947.7,1413,948.1,1413.5,948.8z"/>
	<path class="st0" d="M1372.4,946.3c-0.5,0.7-1.3,1-2.2,0.7c-1-0.3-1.4-0.8-1.2-1.5c0.4-1,1.1-1.2,2.1-0.8
		C1372,945.2,1372.4,945.7,1372.4,946.3z"/>
	<path class="st0" d="M1348.8,905.8c-0.8,0-1.6,0.1-2.3,0c-1.7-0.2-2.9-1-3.2-2.8l-0.4,0.4c0.9,0,1.8,0,2.8,0.2
		c1.5,0.2,2.5,0.9,2.8,2.5C1348.5,906.1,1348.8,905.8,1348.8,905.8z"/>
	<path class="st0" d="M1398.3,894.7c-0.8,0-1.5-0.4-1.9-1.2c0.5-0.7,1.2-1.1,2-1.1c0.8,0,1.5,0.4,1.9,1.2
		C1399.8,894.4,1399.1,894.7,1398.3,894.7z"/>
	<path class="st0" d="M1386,857.5c-0.3,0.8-1,1.2-1.9,1c-0.4-0.1-0.8-0.2-1-0.5c-0.5-0.5-0.2-1.1,0.8-1.5c0.4-0.1,0.8-0.1,1.2,0.1
		C1385.4,856.9,1385.7,857.2,1386,857.5z"/>
	<path class="st0" d="M1304.5,853.3c-1.3,0.2-2.5,0.1-3.6-0.5c-0.3-0.2-0.9-0.7-0.8-0.8c0.4-0.9,1.1-1.2,2-1
		c1.3,0.3,1.6,0.6,2.2,2.5L1304.5,853.3z"/>
	<path class="st0" d="M1365.1,845.3c0.1,0.9-0.4,1.8-1.3,1.8c-0.8,0-1.2-1.1-1.2-1.9c0-0.8,0.4-1.5,1.3-1.8c0.2-0.1,0.6,0.5,0.8,0.9
		C1365,844.5,1365,844.9,1365.1,845.3z"/>
	<path class="st0" d="M1249.2,842.3c0.8,0,1.6-0.1,2.3,0c1.7,0.2,2.8,1.2,3,3l0.3-0.3c-1.2,0-2.4,0.1-3.6,0
		c-1.1-0.1-1.5-0.7-2.1-2.5L1249.2,842.3z"/>
	<path class="st0" d="M1314.4,835.6c-0.4,0.3-0.7,0.7-1.1,0.8c-1,0.3-1.8-0.1-2.4-1c0.4-0.3,0.7-0.7,1.1-0.8
		C1313.1,834.3,1313.9,834.7,1314.4,835.6z"/>
	<path class="st0" d="M1092.6,807.4c0.5-0.8,1.2-1.1,2.2-0.8c0.9,0.3,1.4,0.9,1.2,1.6c-0.4,1-1.1,1.3-2.1,0.9
		C1093,808.7,1092.6,808.2,1092.6,807.4z"/>
	<path class="st0" d="M1308.4,791.1c0.3-0.2,0.6-0.6,1-0.7c0.9-0.2,1.6,0.2,2.1,0.9c0,0-0.6,0.6-0.9,0.7
		C1309.6,792.2,1308.9,791.8,1308.4,791.1z"/>
	<path class="st0" d="M997.7,789.6c-0.9-0.1-1.7-0.1-2.6-0.2c-1.1-0.1-1.7-0.6-1.6-1.2c0.1-0.3,0.7-0.4,1.1-0.5
		c0.4,0,0.9,0.1,1.2,0.2c0.8,0.4,1.3,1.1,1.4,2L997.7,789.6z"/>
	<path class="st0" d="M959,770.3c-1.3,0.1-2.5,0.1-3.8-0.4c-0.4-0.2-0.7-0.5-1-0.8c0.3-0.3,0.5-0.7,0.9-0.9c1.6-0.6,3,0.4,3.5,2.4
		L959,770.3z"/>
	<path class="st0" d="M1312.9,715c-1.2-0.1-2.5-0.1-3.7-0.2c-0.4,0-1-0.5-0.9-0.7c0.1-0.8,0.8-1.1,1.7-1c1.3,0.2,1.6,0.5,2.5,2.3
		C1312.5,715.4,1312.9,715,1312.9,715z"/>
	<path class="st0" d="M1318.4,671.4c1,0.1,1.5,0.6,1.3,1.3c-0.1,0.3-0.5,0.6-0.9,0.7c-0.9,0.3-1.7,0-2-0.9c-0.1-0.2,0.3-0.7,0.5-0.9
		C1317.6,671.4,1318.1,671.4,1318.4,671.4z"/>
	<path class="st0" d="M1232.7,637.6c-1.3,0.1-2.5,0.1-3.7-0.4c-0.3-0.2-0.9-0.6-0.9-0.8c0.4-0.9,1.1-1.2,2-1
		c1.3,0.3,1.6,0.7,2.1,2.6L1232.7,637.6z"/>
	<path class="st0" d="M1080.7,552c-1.2-0.1-1.7-0.5-1.6-1.3c0.3,0.1,0.8,0.1,1,0.4c0.2,0.3,0.2,0.9,0.3,1.3L1080.7,552z"/>
	<path class="st0" d="M1342.9,928.3c0.9-0.1,1.7,0.2,2.2,0.9c0,0.1-0.5,0.8-0.6,0.7c-0.8-0.4-1.2-1.1-1.2-2L1342.9,928.3z"/>
	<polygon class="st0" points="1416.6,926.2 1417,927.2 1416,927.1 	"/>
	<path class="st0" d="M1351.5,908.7c-0.9,0.1-1.6-0.1-2.2-0.7c-0.6-0.6-0.7-1.3-0.4-2.2l-0.3,0.3c2.4,0.4,2.6,0.6,2.8,2.8
		L1351.5,908.7z"/>
	<path class="st0" d="M1343.4,903c-0.7-0.3-1.4-0.6-2.1-0.8c0.2-0.2,0.5-0.6,0.6-0.6c0.7,0.4,1.1,1.1,1.1,1.9L1343.4,903z"/>
	<path class="st0" d="M1307,856.4c1.2,0,1.7,0.4,1.7,1.2c-0.3-0.1-0.8-0.1-0.9-0.3c-0.2-0.3-0.3-0.8-0.4-1.3L1307,856.4z"/>
	<path class="st0" d="M1307.4,856.1c-0.9,0.2-1.6,0-2.2-0.6c-0.6-0.5-0.8-1.3-0.6-2.2l-0.2,0.2c2.3,0.3,2.6,0.6,2.7,2.9
		L1307.4,856.1z"/>
	<polygon class="st0" points="1327.7,847.1 1327.4,846.4 1328.2,846.5 	"/>
	<polygon class="st0" points="1291.9,824.9 1291.6,824.2 1292.3,824.3 	"/>
	<path class="st0" d="M997.3,790.1c0.8,0.1,1.5,0.4,2.1,1c-0.2,0.2-0.6,0.7-0.7,0.6c-0.8-0.4-1.1-1.1-1-2L997.3,790.1z"/>
	<path class="st0" d="M958.7,770.7c1-0.2,1.8,0.2,2.2,1c0,0.1-0.6,0.8-0.8,0.7c-1-0.3-1.3-1.1-1.1-2.1L958.7,770.7z"/>
	<path class="st0" d="M922.7,754.1c0.8,0,1.5,0.3,2,0.9c0,0-0.5,0.6-0.5,0.6c-0.7-0.3-1.1-1-1.1-1.8L922.7,754.1z"/>
	<path class="st0" d="M1342.9,729.3c1.2,0,1.8,0.4,1.8,1.1c-0.3-0.1-0.8-0.1-0.9-0.3c-0.3-0.3-0.3-0.8-0.5-1.2L1342.9,729.3z"/>
	<path class="st0" d="M1343.4,728.9c-0.8,0-1.5-0.3-2.1-1c0.2-0.2,0.6-0.7,0.7-0.6c0.8,0.4,1.1,1.1,1,2L1343.4,728.9z"/>
	<path class="st0" d="M1312.5,715.4c0.7,0.3,1.3,0.6,2,0.9c-0.2,0.2-0.6,0.6-0.7,0.5c-0.7-0.4-1-1-0.9-1.9L1312.5,715.4z"/>
	<path class="st0" d="M1301.5,709.9c0.8,0,1.6,0.4,2.2,1c-0.3,0.2-0.6,0.7-0.8,0.6c-0.9-0.3-1.2-1-1.1-1.9L1301.5,709.9z"/>
	<polygon class="st0" points="1253.5,666.5 1253.8,667.1 1253,667 	"/>
	<path class="st0" d="M1221.3,654.6c0.8,0,1.5,0.3,1.9,1c0,0-0.5,0.6-0.7,0.6c-0.8-0.3-1.1-1-1-1.9L1221.3,654.6z"/>
	<path class="st0" d="M1232.3,638c0.8,0,1.5,0.2,2,0.9c0,0.1-0.5,0.6-0.6,0.6c-0.7-0.4-1.1-1.1-1-1.9L1232.3,638z"/>
	<polygon class="st0" points="1253.4,627.6 1253.7,628.3 1252.9,628.2 	"/>
	<path class="st0" d="M1126.2,588.7c0.2,0.3,0.6,0.6,0.6,0.8c0,0.3-0.6,0.7-0.7,0.6C1125.1,589.6,1125.2,589.1,1126.2,588.7z"/>
</g>
</svg>
