<?xml version="1.0" encoding="utf-8"?>
<!-- Generator: Adobe Illustrator 23.1.1, SVG Export Plug-In . SVG Version: 6.00 Build 0)  -->
<svg version="1.1" id="Calque_1" xmlns="http://www.w3.org/2000/svg" xmlns:xlink="http://www.w3.org/1999/xlink" x="0px" y="0px"
	 width="1451.3px" height="1451.3px" viewBox="0 0 1451.3 1451.3" style="enable-background:new 0 0 1451.3 1451.3;"
	 xml:space="preserve">
<style type="text/css">
	.st0{fill:#EFEFEF;}
</style>
<g>
	<path class="st0" d="M1236,743.4c0,0.3,0,0.5,0,0.8c0.3,0,0.5,0,0.8,0L1236,743.4z"/>
	<path class="st0" d="M1433.5,802.8c-1.4-0.8-3.2-1.1-4.9-0.4c-4,1.8-8.1,3.1-12.2,4.6c-7.4,2.6-14.8,5.5-20.9,10.7
		c-4,3.4-8.7,5.8-13.3,8.3c-1.6,0.9-3.2,1.3-5,1.3c-9.6-0.1-19.2-0.1-28.9-0.2c-2.8,0-5-1.3-7.2-2.9c-1.4-1-2.7-2.2-3.9-3.5
		c-5.9-6.5-12.3-12.5-20.5-16.1c-7.2-5-14.3-10.1-21.5-15c-6.5-4.5-13.5-8.1-21.6-8.8c-1.7-0.2-3.5-0.4-5.1-1
		c-1.6-0.6-3.6-1.3-4.4-2.7c-5.6-9.1-12.6-16.8-20.6-23.7c-2-1.7-3.9-3.5-5.8-5.3c-1.1-1-1.6-2.4-1.7-3.9c-2.4,0.1-4.7-0.5-6.6-2
		c-3.4-2.8-6.5-5.8-9.6-8.9c-8.7-8.7-17.7-17-28.4-23.1c-8.9-7.1-18.2-13.6-27.3-20.4c-5-3.6-9.4-7.8-12.9-13
		c-1-1.4-2.2-2.7-3.6-3.8c-1.4-1-3-1.6-4.6-2.4c-5.6,0.7-10.1-1.8-14.6-4.8c-2.2-1.5-4.8-2.3-6.8-3.9c-7.7-5.9-16.3-10.2-24.8-14.7
		c-9.3-4.8-18.6-9.7-27.9-14.6c-2.3-1.2-4.7-2.4-6.8-3.9c-9.4-6.5-20-10.7-30.1-15.9c-8.4-2.4-16.2-6.4-24-10.4
		c-3.9-2-7.8-4.2-11.9-5.3c-8.5-2.4-16.2-6.5-24.2-10c-7.2-3.2-14.2-6.9-22-8.2c-7.1-3.5-15.2-4.2-22-8.4c-9-0.4-16.5-5.7-25.1-7.3
		c-4.7-2.3-9.8-3.5-14.9-5c-5.9-1.8-11.5-4-17.7-4.8c-1.7-0.2-3.5-0.7-5-1.5c-4.7-2.6-10.1-2.7-15-4.5c-5.8-2.1-11.6-3.8-17.3-6
		c-5-1.9-10-2.9-15.3-3.2c-4.4-0.3-8.7-1.1-12.6-3.2c-3.2-1.6-6.6-2.2-10.1-2.4c-3.5-0.2-7-0.6-10.2-2.1c-4.1-1.8-8.4-2.5-12.7-3.1
		c-2.6-0.4-5.3-0.8-7.6-1.9c-4.9-2.2-10-3-15.3-3.5c-4.4-0.4-8.7-1-12.8-2.5c-2.4-0.9-5-1.6-7.6-1.9c-6.9-0.9-14-1-20.5-4.1
		c-1.5-0.7-3.4-0.8-5.1-1c-5.2-0.4-10.5-0.6-15.7-1.2c-2.6-0.3-5.2-0.9-7.6-1.9c-4.1-1.7-8.3-2.7-12.7-3c-4.4-0.3-8.7-0.6-13.1-0.6
		c-4.4,0-8.7-0.5-12.8-2.3c-3.3-1.4-6.8-1.3-10.3-1.7c-6.1-0.6-12.1-1.6-17.8-4.1c-2.3-1-5.1-1.2-7.7-1.3c-7-0.4-14-0.7-21-0.8
		c-8.7-0.1-17.5-0.8-26.2,0.6c0-0.1,0-0.2,0-0.3c-1.7-0.2-3.5-0.5-5.2-0.5c-9.6,0.1-19.3,0.4-28.9,0.5c-26.3,0.3-52.6-0.6-78.9,0.7
		c-4.4,0.2-8.7-0.4-13.1-0.5c-9.6-0.4-19.3-0.2-28.8,1.5c-3.5,0.6-6.7,1.9-10.1,0.3c-0.8-0.4-1.7-0.7-2.5-0.8
		c-12.2-0.7-24.5-0.6-36.8-0.1c-1.7,0.1-3.4,0.7-5,1.2c-3.3,1-6.7,2.1-10,3.1c-0.8,0.3-1.6,0.6-2.5,0.8c-1.8,0.5-4.2,5.2-3.3,6.5
		c1,1.5,2.7,2.3,4.4,2.5c3.5,0.3,7,0.5,10.5,0.5c34.2,0,68.4,0,102.5,0c7,0,14-0.2,21,0.1c27.2,1,54.3,0.3,81.5,0.4
		c1.7,0,3.5-0.4,5.2-0.5c0,0.1,0,0.2,0,0.3c4.4,0.2,8.7,0.6,13.1,0.6c12.3,0.1,24.5,0.1,36.8,0c4.4,0,8.8,0.3,12.9,2
		c8.2,3.2,17.5,2.3,25.2,7c2.6,0.4,5.2,0.7,7.8,1c2.6,0.4,5.3,0.4,7.6,1.8c6.3,3.8,13.2,4.4,20.2,4.3c7-0.1,14,0,21,0.1
		c5.7,0.1,10.3,2.6,12.7,7.8c2.9,6.4,5.4,12.9,8.7,19.1c2.2,4,2.3,8.3,2.1,12.8c-0.2,2.8-1.3,5.1-3,7.1s-3.6,3.8-5.6,5.5
		c-1.3,1.1-2.9,1.9-4.4,2.8c-2-1.7-4.1-3.3-6-5c-0.6-0.6-1.1-1.4-1.5-2.1c-2.7-5.5-5.2-11.1-5.7-17.3c-0.3-3.8-3.1-6.1-5.9-8.2
		c-2.7-2.1-7.8-1.2-9.3,1.4c-2.6,4.6-4.4,9.5-6.5,14.3c-1.4,3.4-4.6,5.3-8,6.4c-1.5,0.5-3.6,0.5-5.1,0c-6.7-2.7-13.5-3.4-20.6-2.7
		c-4.4,0.4-8.8,0.3-13.1,0.3c-21,0-42.1,0-63.1,0c-3.5,0-7-0.1-10.4-1c0-0.1,0-0.2,0-0.3c-3.4,1-6.9,1-10.4,1c-24.5,0-49,0-73.5,0
		c-6.1,0-12.2-0.1-18.4,0.1c-2.6,0.1-5.2,0.5-7.7,1.4c-5.1,1.7-10.2,2.1-15.5,2.1c-27.1,0-54.3-0.1-81.4,0c-7,0-14,0.2-21,0.6
		c-4.5,0.2-8.4,2.2-11.6,5.4c-1.7,1.7-1.8,3.2,0,4.1c7.1,3.6,14.4,5.8,22.5,5.5c12.2-0.4,24.5-0.1,36.7-0.1c7.9,0,15.8,0,23.6-0.1
		c2.6,0,5.2-0.1,7.7-1.1c4.1-1.7,8.4-2.4,12.8-2.4c24.5,0.1,49,0,73.5,0.1c2.6,0,5.3,0.3,7.7,1.2c5,1.9,10.2,2.4,15.4,2.3
		c10.5-0.1,21-0.1,31.5,0c2.6,0,5.2,0.5,7.8,0.8c0,0.1,0,0.2,0,0.3c3.5-0.3,6.9-0.8,10.4-0.8c20.9-0.1,41.9-0.1,62.8,0
		c7,0,13.9,0.7,20.9,0.6c7-0.1,13.9-0.5,20.9,0c10.4,0.8,20.9,0.1,31.4-0.5c4.5-0.3,8.7,0.7,12.5,3.2c3.8,2.5,8,3.3,12.4,3.4
		c5.2,0.2,10.5,0.1,15.7,0.2c4.8,0.1,8.2,2.5,10.4,6.6c1.2,2.4,1.6,5,0,7.4c-1.5,2.2-2.9,4.4-4.7,6.2c-1.8,1.8-4.1,3.3-6.2,4.7
		c-0.6,0.4-1.7,0.1-2.5-0.1c-2.7-0.4-4.5-2.4-6.5-4c-4.9-3.7-10.4-6.3-15.9-9c-3.3-1.6-6.8-1.3-10.2-1c-0.8,0.1-1.6,0.6-2.4,0.9
		c-3.2,1.4-6.5,2.3-10.1,2.3c-20.9,0-41.9,0-62.8,0c-21.8,0-43.6,0-65.4,0c-3.5,0-7,0.1-10.4,0.8c0-0.1,0-0.2,0-0.3
		c-3.4-0.8-6.9-0.9-10.4-0.9c-19.2,0-38.4,0-57.6,0c-25.3,0-50.6-0.1-76,0.7c-5.3,0.2-10.4,0.8-15.2,3.2c-2.4,1.2-5,1.5-7.6,1.7
		c-2.6,0.2-5.2,0-7.9,0.2c-6.2,0.3-12.1-0.8-17.8-3.5c-1.5-0.7-3.4-0.7-5.1-0.8c-3.4-0.1-7,2.2-8,5.5c-1.1,3.6-0.9,6.9,0.8,10
		c1.3,2.3,3.4,3.9,6.2,4c2.6,0.1,5.2,0.1,7.7-1c4.1-1.8,8.3-2.6,12.7-2.7c14.8-0.4,29.7-0.9,44.5-1c41-0.1,82.1-0.1,123.1,0
		c3.5,0,7,0.2,10.5,0.4c0,0.1,0,0.2,0,0.3c25.7-0.6,56.4-0.5,92,0.4c0.9,0,1.8,0.1,2.6,0c21-1.6,42,0.7,63,0.1
		c4.4-0.1,8.8,0.4,13.1-0.1c9.6-1.1,19.2-0.9,28.8,0c1.7,0.2,3.5-0.1,5.2-0.3c3.7-0.4,6.7-2.5,8.6-5.4c1.9-2.9,2.8-6.4,4.5-9.4
		c2.2-4.2,6.1-6.2,10.7-6.4c4.4-0.2,8.8,0.4,12.8,2.2c3.2,1.5,6.4,3,9.9,3.4c7.1,0.7,13.6,3.2,19.9,6.3c3.9,1.9,7.8,3.9,11.6,6.1
		c3.9,2.2,7.9,3.6,12.4,3.7c3.5,0.1,7,0.4,10.5,0.7c2.6,0.2,5.3-0.1,7.8,1c8.1,3.7,17.3,2.9,25.3,6.6c2.4,1.1,5.1,1,7.8,1.1
		c7.1,0.1,13.9,1,20.2,4.6c1.5,0.8,3.4,1,5.1,1.1c7,0.3,14,0.5,21,0.7c3.3,0.1,6.3,3.3,7,6.7c1.7,8.1-6.6,13.6-12.9,12.3
		c-7.3-3.7-15.3-3.4-23.1-3.9c-3.5-0.2-7-0.5-10.2-2c-4-1.9-8.2-2.9-12.7-3c-7-0.2-14-0.4-21-0.7c-2.6-0.1-5.3-0.1-7.7-1.3
		c-7.3-3.5-15.2-4-23.1-4.4c-5.4-0.3-10.1-2.6-15.3-3.5c-5.3-0.9-10-3.1-14.5-5.8c-3-1.8-6.1-3.4-9.3-4.9c-2.4-1.1-5-1.8-7.3-2.8
		c-2.7-1.2-5.1-0.4-7.1,1.3c-2,1.7-3.8,3.6-5.6,5.5c-1.8,1.9-3.5,3.9-5.5,5.7c-3.4,3-7.4,5-11.9,4.9c-45.5-1.2-91.1-0.3-136.6-0.5
		c-6.1,0-12.2,0.3-18.4,0.5c-3.5,0.1-7,0.5-10.5,0.2c-15.8-1.4-31.5-0.4-47.2,0.6c0-0.1,0-0.2,0-0.3c-1.8-0.1-3.5-0.4-5.2-0.4
		c-34.2,0-68.4-0.1-102.5,0c-8.8,0-17.5,0.5-26.3,0.9c-1.7,0.1-3.6,0.3-5.1,1.1c-6.5,3.4-13.4,3.7-20.5,3.8
		c-9.6,0.1-19.3,0.4-28.9,0.6c-5.3,0.1-10.6-0.3-15.8,0.4c-6.1,0.8-11.5,4.1-17.1,6.4c-0.8,0.3-1.6,0.8-2.4,1.1
		c-2.4,1.1-5,1.5-7.6,1.6c-4.4,0.1-8.8,0.2-13.2,0.2c-7.1-0.1-14,0.4-20.3,4c-1.5,0.8-3.3,1.2-5,1.4c-5.2,0.6-10.6,0.6-15.6,1.8
		c-5.1,1.2-10,3-15.3,3.6c-2.6,0.3-5.3,0.8-7.6,1.9c-4.9,2.2-10,3.2-15.3,3.4c-5.3,0.2-10.4,1.2-15.3,3.4
		c-4.8,2.2-10.2,2.6-14.9,5.2c-1.6,0.9-3.3,1.1-5.1,1.1c-7.9,0-15.8-0.1-23.6,0.2c-4.4,0.1-8.6,1.3-12.3,4c-2.2,1.6-4.6,2.5-7.3,2.4
		c-4.4,0-8.8-0.1-13.1-0.1c-3.5,0-7,0.5-10.2,2.1c-3.9,1.9-8,3.6-11.8,5.7c-3.2,1.8-6.3,2.7-9.9,2.7c-4.4-0.1-8.8-0.2-13,1.4
		c-4.1,1.5-8.1,3.3-12.1,5c-0.8,0.3-1.4,1-2,1.6c-1.3,1.2-2.3,2.7-2.5,4.5c-0.1,1.3,4.7,3,6.8,2.5c0.8-0.2,1.8-0.1,2.6-0.5
		c5.6-2.4,11.3-4.7,16.5-8c2.3-1.5,4.9-2,7.5-2.1c4.4-0.2,8.8,0,13.2-0.1c1.8,0,3.6,0,5.2-0.7c7.2-3.2,15.4-3.6,22-8.4
		c1.4-1,3.2-1.4,5-1.4c7.9,0.1,15.8,0.1,23.6,0.1c3.5,0,6.9-0.6,10.1-2.2c6.3-3.2,13.4-3.7,19.9-6.3c0.6-0.2,1.6,0.5,2.4,0.8
		c2.4,1.1,5.2,2,7.6,1c4.9-2.2,10.1-2.7,15.3-3.2c5.3-0.5,10.4-1.3,15.3-3.3c2.4-1,5-1.5,7.6-1.7c6.1-0.5,12.2-0.6,18.4-1
		c2.6-0.2,5.3-0.3,7.7-1.4c5.7-2.6,11.9-2.9,18-3.2c6.2-0.3,12.1-1.3,17.9-3.8c2.4-1,5.1-1.4,7.6-1.6c5.2-0.5,10.5-0.8,15.7-0.9
		c7.9-0.2,15.8-0.1,23.7-0.1c2.7,0,5.2-0.6,7.6-1.6c3.3-1.4,6.7-1.9,10.2-2.3c3.5-0.4,7-0.9,10.1-2.5c4.8-2.4,10.1-3,15.3-3
		c21.9-0.1,43.8-0.4,65.7,0.1c12.2,0.2,24.5,1,36.7,0c3.5-0.3,7,0.1,10.5,0.4c2.6,0.2,5.3,0.5,7.6,1.8c5.6,3,11.6,3.6,17.9,2.6
		c1.7-0.3,3.5,0.2,5.2,0.4c0-1.6,0-3.3,0-4.9c2.6,0.3,5.2,0.8,7.7,0.9c3.5,0.2,6.8,1,10,2.5c3.9,1.9,7.9,3.7,11.8,5.5
		c1.6,0.8,5.5-0.5,7.2-2.1c2.5-2.4,4.3-5.4,6.2-8.3c3-4.5,8.1-5.7,13.8-3.7c2.7,0.9,4.3,2.8,5.1,5.4c1.2,4.3,0.9,8.6-0.4,12.8
		c-0.8,2.5-2.1,4.8-2.8,7.3c-1.8,6.2-6.1,10.5-11.3,13.8c-3,1.9-6.5,2.5-10,1.5c-4.1-1.3-8.5-2.4-12.1-4.6
		c-7.9-4.8-16.4-5.2-25.2-4.7c0,1.6,0,3.3,0,4.9c-2-0.2-3.7,0.3-4.4,1.8c-1.9,3.9-3.4,7.9-6.8,10.9c-2.2,1.9-6.8,2.1-9.5-0.4
		c-2.6-2.4-4.8-5-5.5-8.6c-0.6-3.5-1.9-6.7-4.4-9.3c-1.8-2-4-3.2-6.4-4.2c-3.5-1.5-9.9,1.6-9.8,5.9c0.1,2.6-0.3,5.2-0.1,7.8
		c0.5,6.2-0.6,12.2-3.4,17.8c-1,2-0.8,3.2,1.5,4c0.8,0.3,1.6,0.7,2.4,0.8c8.7,0.8,17.4,0.9,25.7-2.9c3.2-1.5,6.6-2.2,10.2-2
		c3.5,0.2,7,0.3,10.4-0.4c0,0.1,0,0.2,0,0.3c4.3,1,8.7,0.9,13.1,0.8c8.7-0.2,17.5-0.5,26.2-0.7c8.8-0.2,17.5-0.1,26.3-0.2
		c7.9-0.1,15.8-0.3,23.6-0.4c3.5-0.1,7-0.5,10.3-1.8c2.4-1,4.9-1.7,7.6-1.8c15.8-0.2,31.5-1.3,47.3-1c18.4,0.4,36.8,0.7,55.2,1.1
		c1.7,0,3.5,0.4,5.1,1c4.1,1.6,8.4,2.4,12.8,2.4c24.5,0.4,49,1.5,73.5,1.4c3.6,0,6.9,0.7,10.2,2.1c1.6,0.7,3.3,1.2,5,1.4
		c5.2,0.5,10.5,0.6,15.7,1.1c2.6,0.2,5.3,0.5,7.7,1.5c5.8,2.5,11.7,3.3,17.9,3.4c10.5,0.2,21,0.5,31.5,0.7c3.5,0.1,7,0.6,10.2,2
		c3.3,1.4,6.6,2.4,10.1,2.7c6.1,0.6,12.3,0.6,18.2,1.9c5.1,1.1,9.9,3.3,15.3,3.1c2.6-0.1,5.2,0.3,7.9,0.4c4.4,0.2,8.6,1.2,12.7,3.1
		c1.6,0.7,3.3,1.2,5,1.5c2.6,0.4,5.2,0.6,7.8,0.8c5.2,0.4,10.4,1,15.3,3.2c2.3,1,5.1,1.3,7.6,1.6c4.4,0.6,8.6,1.5,12.6,3.4
		c1.6,0.7,3.3,1.3,5,1.5c5.2,0.5,10.5,0.7,15.7,1.2c2.6,0.2,5.2,0.5,7.6,1.7c4.7,2.5,10.2,2.6,14.9,4.9c4.8,2.3,9.8,3.5,15.2,3.6
		c2.6,0.1,5.4,0.4,7.6,1.6c5.5,3,11.8,3.2,17.3,6c5.4,2.8,11.9,2.7,17.1,6.4c2.2,1.5,4.9,1.6,7.5,1.9c3.5,0.3,7,0.6,10.2,2.2
		c3.2,1.5,6.7,2.1,9.9,3.3c6.6,2.3,13.3,4.1,19.8,6.6c7.3,2.8,14.5,6.2,21.5,9.7c21.9,11,44.1,21.4,65.9,32.5
		c3.1,1.6,6.2,3.2,9.2,5.2c3.9,2.5,5.9,6.3,5.9,11c0.1,3.5-0.1,7-1.5,10.3c-1.4,3.3-1.9,6.5-0.5,10.1c1.5,3.6,0.2,6.8-2.1,9.7
		c-5.9,7.6-11.6,15.4-17.8,22.7c-5.2,6.1-9.3,12.7-13,19.6c-0.4,0.8-0.9,1.5-1.1,2.3c-0.5,1.9-0.3,3.5,0.8,4.8
		c1.2,1.5,2.9,2,4.7,1.3c14.7-5.8,28.9-12.3,41.5-22c4.4-3.4,9.7-3.8,15-3c1.7,0.3,3.5,0.6,5,1.4c4.2,2.3,8.3,2.1,12.5,0.1
		c2.5-1.2,5.2-1,7.6,0.2c4.7,2.2,9.5,4.4,13.3,8.2c3.1,3.1,6.3,6.1,9.7,8.9c2.7,2.3,5.3,4.8,8.4,6.3c5.6,2.7,10.1,6.9,15.5,9.9
		c0.7,0.4,1.7,0.4,2.5,0.6c1.9,0.6,3.4,0,4.3-1.9c0.3-0.7,0.2-1.7,0.1-2.5c-0.1-0.8-0.1-1.8-0.5-2.5c-3.9-7.8-7.9-15.6-11.8-23.5
		c-2.7-5.5-5.5-10.9-9.5-15.6c-3-3.5-4.4-7.6-4.3-12.1c0.2-9.6-0.1-19.2,0.4-28.8c0.1-2.7,1.4-5.1,3.2-7.1
		c4.1-4.5,8.7-8.7,12.6-13.4c3.8-4.7,6.9-10.1,10.4-15.1c1-1.5,2.3-2.7,3.2-4.2c1.8-3,3.5-6.1,5.3-9
		C1435.3,805.2,1435.2,803.7,1433.5,802.8z M1138.7,688.3c0.3-0.6,1.2-1,1.7-1.5c3.2-0.8,6.4,2,6.1,5.5c-0.2,3-1.9,4.1-4.8,3.4
		C1137.8,694.6,1136.8,691.8,1138.7,688.3z M1071.6,660.9c2.5-0.7,5.1,0,7.2,1.5c2.8,1.9,5,4.6,6.8,7.5c1.4,2.3,1.3,3.6-0.9,6.8
		c-1.5,2.3-3.6,3.5-6.2,4c-1.6,0.3-3.4,0.3-4.2,0.3c-3.5,0.2-5.9-0.7-8-2.1c-0.7-0.4-1.3-1.1-1.7-1.9
		C1061.4,670.4,1064.5,663,1071.6,660.9z M1026.1,651.3c0.5-3.4,3.4-6.3,6.8-6.6c1.7-0.2,3.4-0.3,5.1-0.4c6,0.2,9.3,3.6,9.6,9.6
		c0,0.8,0.1,1.7,0,2.6c-0.2,5-1.8,7.6-6.2,10.5c-2.9,1.9-7,1.9-9.7,0.1c-2.9-2-5-4.4-5.6-8.1
		C1025.7,656.3,1025.8,653.8,1026.1,651.3z M989.7,628.7c0.4-2.5,2.4-4.7,4.8-5.2c0.8-0.2,1.7-0.5,2.5-0.5c1.7-0.1,3.4,0,5.6,0
		c5,0.6,8.2,2.6,8.2,10.3c0,1.7-0.4,3.4-0.8,5c-0.6,2.8-2.4,4.4-5,5.1C995.7,645.6,988.2,638.4,989.7,628.7z M967.3,706.1
		c-0.9,0.1-1.7,0.5-2.6,0.5c-2.6,0.1-5.3,0-13.4,0c2.9,0.1,0.3,0.1-2.3-0.1c-4.4-0.3-8.7-1-12.7-2.8c-3.2-1.5-6.6-2.3-10.2-2.4
		c-6.1-0.2-12.2-0.9-18.1-2.9c-2.4-0.8-5.2-0.9-7.8-0.9c-8.8,0-17.5-0.1-26.2-1.2c-2.6-0.3-5.3-0.6-7.8-1.3
		c-4.2-1.3-8.1-3.4-12.6-3.5c-3.5,0-7-0.2-10.5-0.4c-11.4-0.4-22.7-0.9-34.1-1c-8.7-0.1-17.5,0.6-26.2,0.6
		c-13.1,0-26.2,0.4-39.4,0.2c-19.3-0.3-38.5,0.1-57.8,0.3c-7.1,0.1-14-0.5-20.1-4.5c-2.6-0.4-5.3-0.3-7.3,1.6
		c-3.7,3.7-6.9,7.9-11.4,10.8c-2.5,1.6-7.4,1.8-10,0c-3.9-2.7-5.7-6.5-5.7-11.1c0-1.7,0.2-3.5,0.7-5.2c1.9-6.7,4.5-13.2,8.3-19.1
		c3.2-5,11.8-5.9,15.9-0.8c1.1,1.3,1.9,3,3,4.3c1.7,2.1,4.2,3,6.8,3.4c0.8,0.1,1.7,0.1,2.6-0.1c5.2-0.7,10.4-1.2,15.7-1.2
		c13.1,0.1,26.3-0.1,39.4,0.1c7,0.1,14,0.8,21,1.2c3.5,0.2,6.8,1.4,10.1,2.6c2.5,0.9,5,0.8,7.6-0.3c2.4-1,5-1.7,7.5-2.1
		c3.5-0.6,7-1.1,10.4-1.2c14.9-0.1,29.8-0.2,44.7,0c5.2,0.1,10.5,0.6,15.4,2.8c4.1,1.8,8.2,2.7,12.7,2.8c5.3,0.1,10.5,0.3,15.7,0.7
		c2.6,0.2,5.4,0.5,7.6,1.6c6.5,3.1,13.4,3.8,20.4,4c5.3,0.2,10.5,0.1,15.8,0.4c2.6,0.1,5.3,0.4,7.7,1.3c5.7,2.4,12.1,2.4,17.5,5.4
		c2.4,1.3,5,1.7,7.6,1.8c7,0.4,14-0.5,21,0.9c2.8,0.5,4.7,2.1,5.9,4.5C974.2,699.7,971.3,705.6,967.3,706.1z M973.5,621.1
		c-0.3,3.7-2.9,6.5-6.4,7c-4.5,0.7-8.7,0-12.5-2.4c-2.2-1.4-4.3-3-6.3-4.6c-2.8-2.2-6-3.9-9.5-3.8c-11.6,0.4-22.2-3.8-33-7.3
		c-3.3-1.1-6.5-2.3-10.1-2.4c-4.4-0.1-8.7-0.5-13.1-0.7c-3.5-0.2-6.9-1-10-2.7c-3.2-1.7-6.5-2.4-10-2.6c-5.2-0.4-10.5-0.4-15.7-0.8
		c-1.7-0.1-3.5-0.8-4.8-1.7c-5-3.5-9.8-7.3-15.1-10.4c-3.9-2.3-8-3.5-12.4-3.5c-8.7,0-17.5,0.2-26.2,0.2c-7.8,0-15.7,0-23.5-0.1
		c-3.8-0.1-6.4-2.4-8.9-4.9c-0.6-0.6-1.2-1.3-1.5-2.1c-3-7.5-8.5-13-14.3-18.5c-3.4-3.2-3.9-7.6-3.7-12.1c0.1-0.8,0.4-1.7,0.5-2.5
		c0.4-2.9,2.4-4.5,4.6-5.8c0.7-0.4,1.6-0.7,2.5-0.8c2.6-0.5,5.2-0.5,7.8-0.1c3.7,0.5,6.5,2.6,8.4,5.5c1.4,2.1,2,4.8,3.1,7.2
		c2.2,5,5.8,8.6,10.6,11.1c2.4,1.3,5,1.9,7.5,1c4.1-1.5,8.2-2.7,12.7-2.7c7,0.1,14,0.1,21,0c4.5,0,8.7,0.8,12.3,3.5
		c2.1,1.5,4.2,3.2,6.4,4.5c9.7,5.9,19.8,11,31.1,13.3c4.8,2.2,9.7,3.9,15.1,3.6c1.7-0.1,3.5,0.2,5.2,0.4c1.7,0.2,3.7,0.1,5.1,0.9
		c7.9,4.4,16.6,4.9,25.3,5.6c6.6,2.3,13.2,4.5,19.7,6.9c3.3,1.2,6.5,2.7,9.5,4.3c3.9,2.1,8.1,3,12.5,3.2c3.5,0.2,7,0.5,10.3,1.4
		c2.6,0.6,4.5,2.4,5,5.3c0.3,1.7,0.6,3.4,0.9,5.1C973.6,619.4,973.5,620.2,973.5,621.1z M983.6,677.9c-2.3-1.2-4.7-2.2-7-3.4
		c-3.7-2-3.7-11.6,0-13.8c3-1.7,6-3.3,9.2-4.7c3.5-1.5,6.4-0.3,8.5,3.5c1.3,2.2,2.3,4.6,3.3,6.7c-0.2,1.1-0.1,2-0.4,2.7
		c-1.3,3.3-3.6,5.9-6.5,7.8C988.5,678.1,986.3,679.3,983.6,677.9z M1156.1,724.4c-0.6,2.6-2.2,4.7-3.9,6.7c-0.6,0.6-1.4,1.1-2.2,1.4
		c-5.8,1.9-11.9,2.6-17.6,4.8c-0.8,0.3-1.7,0.2-2.6,0.2c-2.6,0-5.3,0.1-7.5-1.6c-2.1-1.5-4.2-3.3-4.3-6c-0.1-1.6,1.1-3.3,1.5-5
		c0.4-1.6,1-3.5,0.6-5c-0.7-2.7-3.2-4.1-5.4-5.4c-1.5-0.8-3.2-1.5-4.8-1.8c-3.5-0.6-6.9-0.9-10.4-1.4c-3.5-0.5-6.4-2.5-10-2.9
		c-2.7-0.3-5.1,2-4.5,4.7c0.2,0.8,0.3,1.8,0.6,2.5c2.3,4.6,1,8.4-2.5,11.7c-4.6,4.3-6.7,4.7-11.5,2.3c-1.6-0.8-3.1-1.6-4.5-2.6
		c-0.7-0.5-1.2-1.2-1.8-1.9c-1.3-1.6-0.5-6,1.5-6.8c3.3-1.3,6.4-2.6,8.5-5.7c1.8-2.6,1.1-4.6-2.2-5.2c-3.4-0.7-6.9-1.2-10.7-1.9
		c-2.1-0.8-4.5-1.9-7-2.5c-2.5-0.7-5.2-0.8-7.4,1.1c-2.7,2.2-5.2,4.6-7.8,6.9c-0.6,0.5-1.5,1-2.3,1.2c-0.8,0.2-1.8,0.2-2.6,0.2
		c-10.5-0.7-21,0.1-31.4,0.6c-3.5,0.2-7-0.2-10.4-1.2c-0.8-0.2-1.4-1-2-1.6c-2.4-2.2-3.2-6.9-1.3-9.5c1.6-2.2,3.9-3.4,6.6-3.5
		c2.6-0.1,5.2,0.2,7.6,1.6c1.5,0.9,3,2,4.6,2.5c2.5,0.7,5.1,1,7.7,1.6c1.7,0.4,3.4,0.9,4.9,1.7c2.4,1.2,4.8,1.9,7.5,2.2
		c0.8,0.1,1.8,0,2.6-0.2c1.9-0.4,3.3-1.3,3.4-2.8c0.1-0.8-0.3-1.8-0.9-2.4c-1.8-1.9-3.9-3.5-5.1-5.9c-0.9-1.8-0.3-3.2,1.9-3.9
		c5.2-1.5,10.4-0.7,15.6,0.2c6,1.1,11.3,4.5,17.6,4.6c6.1,0.1,12.2,0.7,18.3,1.1c3.6,0.2,6.6,2.2,9.9,3.3c2,0.6,6.1-1.4,6.5-3.3
		c0.5-2.6,0.7-5.3,1.5-7.7c1.2-3.5,3.9-5.8,7.4-6.9c1.9-0.7,7.5,3.8,7.9,6.1c0.3,1.7,0.7,3.4,0.8,5.1c0.1,2.6-0.3,5.3-0.2,7.9
		c0.2,2.7,1.3,5,3.7,6.5c1.5,0.9,2.8,2.2,4.4,2.8c3.3,1.1,6.7,1.8,10.1,2.7c3.9,1.1,3.9,1.1,10,0c5.3-1,10.6,2.5,11.7,7.8
		C1156.2,722.6,1156.3,723.5,1156.1,724.4z M1199,753.7c-0.5,2.5-2.5,4.5-5,5c-3.4,0.8-6.8,0.9-10.1,0c-5.2-1.5-8.8-4.7-10.5-10.1
		c-1.4-4.3,1.2-9.3,5.2-9.9c1.7-0.2,3.4-0.4,5.8-0.6c1.8,0.4,4.4,0.5,6.8,1.3C1197.1,741.4,1200.3,747.5,1199,753.7z"/>
	<polygon class="st0" points="1427.8,872.7 1429.1,872.9 1428.6,871.6 	"/>
	<polygon class="st0" points="1353.9,936.4 1355.4,936.6 1354.9,934.8 	"/>
	<path class="st0" d="M332.7,548.2c4.4,0.4,8.7,0.8,13,0.9c8.7,0.1,17.5,0,26.2,0.1c56.7,0.2,113.5-0.5,170.3,0.6
		c3.5,0.1,7,0.1,10.5-0.1c1.7-0.1,3.4-0.6,5.1-1c0,0.1,0,0.2,0,0.3c1.7,0.3,3.4,0.9,5.1,0.9c26.9,0,53.9,0,80.8-0.1
		c1.7,0,3.4-0.6,5-1.1c0.8-0.2,1.5-1,1.9-1.7c0.2-0.4-0.5-1.4-1-1.7c-4.4-3-9.9-2.7-14.5-5.3c-1.5-0.8-3.3-1.2-5-1.5
		c-6-1-12-1.4-17.8-3.8c-2.3-1-5.1-0.9-7.7-0.9c-15.6-0.4-31.3,0.5-46.9-0.6c0-0.1,0-0.2,0-0.3c-6.1,0.2-12.2,0.5-18.3,0.5
		c-7,0-13.9,0.2-20.6,2.7c-2.4,0.9-5.2,0.8-7.7,0.9c-7,0.1-14,0.1-21,0.1c-37.5,0-75.1,0-112.6,0c-13.1,0-26.2,0.2-39.2,1.5
		c-2.7,0.3-5,1.5-7.1,3.1c-1.5,1.1-2.9,2.6-2.6,4.3C328.8,547.3,330.8,548.1,332.7,548.2z"/>
	<path class="st0" d="M489.5,712.6c-2.5-4.6-4.5-9.5-4.2-14.9c0.1-1.7-0.3-3.5-0.5-5.2c-0.4-3.3-3.8-6.4-7.2-6.5
		c-0.8,0-1.7-0.1-2.6,0c-3.4,0.1-6.8,3.3-6.9,6.6c-0.1,4.4-0.1,8.7-0.2,13c-0.1,3.7-1.9,6.7-4.5,9.2c-1.9,1.8-4.2,3-6.4,4.5
		c-1.6,1.1-3.1,0.9-4.9,0c-2.4-1.2-5.2-1.5-7.6-0.5c-4.9,2-9.9,3.5-15.2,3.8c-5.2,0.3-10.5,0.4-15.7,0.6c0-0.2,0-0.4,0-0.6
		c-6.1,0.2-12.3-0.1-18.3,0.8c-5.1,0.7-10.1,2.8-15.1,4.3c-0.8,0.2-1.8,0.2-2.5,0.6c-6.3,3.7-13.2,4.2-20.3,3.9c-3.5-0.1-7,0-10.5,0
		c-6.2,0.1-12.1,1-17.8,3.8c-2.3,1.1-5,1.6-7.6,2c-3.5,0.5-7,0.8-10.4,0.8c-4.4,0-8.6,0.8-12.7,2.5c-4.8,2-10.3,2.1-15,4.7
		c-3.1,1.7-6.6,2.2-10.1,2.2c-7.9,0.1-15.7,0.7-23.1,4c-2.3,1-5.1,1.5-7.6,1.6c-6.3,0.3-11.6,3.9-17.6,4.8
		c-5.2,0.8-10.4,1.2-15.3,3.3c-5.8,2.4-12.1,1.6-18.1,2.9c-2.5,0.5-5.1,1.3-7.5,2.3c-3.3,1.3-6.7,2-10.2,2.2
		c-3.5,0.2-7,0.4-10.5,0.7c-3.5,0.3-6.8,1.1-10.1,2.5c-7.3,3-14.4,6.3-21,10.5c-1.4,0.9-2.4,2.4-3.5,3.8c-0.3,0.4-0.4,1.5-0.1,1.8
		c0.6,0.6,1.5,1.1,2.3,1.2c3.5,0.5,6.9-0.1,10.1-1.7c3.2-1.6,6.6-2.4,10.1-2.8c2.6-0.4,5.2-0.6,7.8-1.2c3.4-0.8,6.6-2.5,10-3
		c6.1-0.9,12.1-1.9,17.6-4.7c1.5-0.7,3.3-1,5.1-1.2c4.4-0.4,8.7-0.5,13.1-0.9c2.6-0.2,5.5-0.1,7.7-1.2c5.6-2.7,11.9-3,17.5-5.4
		c4.1-1.8,8.3-2.6,12.7-3c4.3-0.3,9,0.2,12.9-1.8c7.9-4.2,17.2-3.2,25.1-7.4c1.5-0.8,3.4-0.9,5.1-1c6.1-0.5,12.3-0.3,18.3-1.6
		c6.8-1.4,13-5,19.4-7.7c1.6-0.7,3.3-1,5.1-1c8.7-0.2,17.5-0.5,26.2-0.7c5.3-0.1,10.4-1.3,15.1-3.9c2.4-1.3,5-1.6,7.6-1.7
		c5.2-0.2,10.5-0.3,15.7-0.2c7,0.1,14,0,20.5-3.2c5.2-0.7,10.4-1.5,15.6-2c5.2-0.5,10.4-1.2,15.3-3.1c3.3-1.3,6.8-1.4,10.3-1.5
		c10.5-0.3,21-0.5,31.5-0.8c1.7-0.1,3.3-0.9,4.9-1.5c2-0.7,3.7-4.8,2.7-6.5C492.5,717,490.8,714.9,489.5,712.6z"/>
	<path class="st0" d="M146,743.1c6.1,1.7,12.1,0.1,18.2-0.8c6.4-3.3,13.5-3.4,20.5-3.8c6.2-0.3,12.1-1.4,17.8-4.1
		c1.5-0.7,3.3-1,5.1-1.2c4.4-0.4,8.7-0.5,13.1-0.8c2.6-0.2,5.5-0.2,7.7-1.3c6.3-3.3,13.6-3.3,19.9-6.4c2.4-1.2,5-1.7,7.6-1.8
		c2.6-0.1,5.3,0,7.9-0.1c6.2-0.2,12.2-1.1,17.8-3.8c4-1.9,8.4-2.2,12.8-2.4c4.4-0.2,8.7-0.5,13.1-0.8c6.4-3.3,13.4-3.8,20.3-5
		c5.7-2.7,11.7-3.3,17.9-3.1c8.8,0.4,17.5-0.2,26.2-1.5c2.7-0.4,5.2-1.2,7.4-2.5c3.9-2.3,8-3.3,12.5-3c6.1,0.5,12.2,0.8,15.5,1
		c9,0,15.2,0.1,21.3-0.1c2.6-0.1,5.3-0.4,7.8-1c4.5-1.1,7.8-3.8,10-7.8c0.8-1.5-1.9-5.9-3.6-6.3c-9.6-2-19.2-1-28.7,0.2
		c-6.2,3.3-13.5,3.7-19.6,7.3c-3.1,1.9-6.4,2.7-10,2.3c-10.5-1.2-21-0.8-31.5-0.5c-3.5,0.1-7,0.7-10.2,2.3c-3.2,1.6-6.5,2.5-10,2.9
		c-1.8,0.2-3.5,0.4-5.2,0.6c-4.4,0.4-8.7,0.8-13.1,1.2c-4.8,2.3-10.1,2.9-15,4.7c-5.8,2.1-11.3,4.3-17.6,3.7
		c-4.3-0.4-8.7,0.2-13.1,0.5c-3.5,0.2-7,0.8-10.1,2.5c-4.8,2.5-10,3.3-15.3,3.3c-7,0.1-14.1-0.2-20.5,3.4
		c-6.8,1.5-13.9,1.7-20.4,4.7c-5.2,0.5-10.4,0.9-15.6,1.5c-3.5,0.4-7.1,0.5-10.3,1.8c-5.8,2.3-11.8,3.2-17.8,4.1
		c-4,0.6-7.9,2.6-14,6.7c-0.4,0.3-0.8,1.4-0.6,1.8C144.4,742.2,145.2,742.9,146,743.1z"/>
	<path class="st0" d="M177.4,605.6c0.7,0.5,1.5,1,2.3,1.2c8.8,1.5,17.5,1.5,25.6-2.5c4.9-2.4,10-3,15.2-3.1c2.6-0.1,5.2,0,7.9,0
		c0,0.1,0,0.2,0,0.4c4.4,0.1,8.7,0.4,13.1,0.2c2.6-0.1,5.5-0.1,7.7-1.2c6.5-3.3,13.3-4,20.4-3.8c4.4,0.2,8.7-0.1,13.1-0.1
		c5.5,0,10.2-2.1,14.3-5.6c2-1.7,2-4.7-0.3-6.4c-1.4-1-2.8-2.1-4.5-2.6c-5.1-1.5-10.5-1.8-15.5,0.1c-5.8,2.2-11.8,3.2-17.9,3.6
		c-4.4,0.3-8.6,1.2-12.7,2.8c-2.4,1-5,1.5-7.6,1.8c-4.3,0.5-8.7,0.6-13.1,1c-1.7,0.1-3.6,0.1-5.2,0.8c-7.4,3.3-15.2,3.7-23.1,3.7
		c-11.1,0-10.2,1.2-19.6,6.2c-0.7,0.4-1.3,1.3-1.5,2.1C176,604.4,176.8,605.1,177.4,605.6z"/>
	<path class="st0" d="M220.1,522.6c9.5,1.7,19,0.7,28.4-1c0.8-0.2,1.6-0.5,2.4-0.9c3.9-1.9,8.1-2.8,12.5-2.9
		c10.4-0.3,20.7-1.1,31.1-1.3c6.3-0.1,11.8-2.3,17.2-5.2c0.7-0.4,1.1-1.3,1.7-1.9c-0.6-0.5-1.2-1.1-1.9-1.3
		c-5-1.8-10.2-1.5-14.3-1.6c-9.7,0-18.4-0.2-26.5,3.8c-9.3,1.9-19,1.8-27.8,5.8c-2.6,0-5.2-0.1-7.8,0.1c-5.2,0.3-10.4,0-15.4,1.6
		c-0.8,0.2-1.7,0.9-2,1.6C217.3,520.4,218.2,522.2,220.1,522.6z"/>
	<path class="st0" d="M274.6,623.9c-0.7,0-1.6-0.2-2.4,0c-4.1,1.1-8.1,2.6-11.3,5.7c-0.6,0.6-1.2,1.3-1.5,2.1
		c-1.7,3.8-0.2,9.2,3,11.4c2.9,2,6.1,3.2,9.3,4.2c3.6,1.2,11-3.5,12.2-7.5C286,633.1,281.7,625.6,274.6,623.9z"/>
	<path class="st0" d="M310.2,622.1c-0.5,3.4-0.4,6.8,0.7,10.2c1,2.9,2.2,4.3,5.2,5.1c4.3,1.2,9-1.7,9.5-6c0.2-1.7,0.3-3.4,0.3-3.8
		c0.2-6-1.6-9.6-5.1-12.6c-1.6-1.4-2.9-1.6-4.7-0.7C312.9,616,310.7,618.4,310.2,622.1z"/>
	<path class="st0" d="M289.6,543.9c-3.5,0-6.9,0.8-10.1,2.4c-2.4,1.2-4.8,2.1-7.2,3.3c-0.7,0.4-1.4,1.3-1.5,2
		c-0.1,0.4,1,1.2,1.6,1.5c4,2.2,8.5,1.6,14.6,1.9c3.5-0.3,8.7-0.5,13.9-1.3c2.5-0.4,4.8-2.1,6.4-4.2c0.5-0.7,0.9-1.5,1-2.4
		c0.2-1.5-0.9-2.9-3-3C300.1,543.8,294.9,543.8,289.6,543.9z"/>
	<path class="st0" d="M184.9,659c2.7-0.7,4.3-2.4,4.5-5.1c0.1-0.8,0.2-1.7,0.4-3.2c-0.3-1.8-0.6-4.4-1.1-6.8
		c-0.7-3.5-4.1-5.5-7.5-4.6c-0.8,0.2-1.7,0.6-2.2,1.2c-5.5,6.6-5.1,11.3,1.3,17.4C181.7,659.2,183.1,659.5,184.9,659z"/>
	<path class="st0" d="M135.4,745.7c-0.5-0.7-1-1.6-1.7-1.9c-2.3-1.2-4.7-2-7-3.1c-1.7-0.8-3.3-1-4.9-0.2c-3.1,1.4-6.4,2.3-9.2,4.4
		c-1.6,1.2-2.1,2.5-1.9,4.5c0.3,2.7,1.8,4.5,4.5,5.1c2.6,0.6,5.2,0.4,7.5-0.7c3.8-1.9,7.5-4.2,11.1-6.4
		C134.5,747.1,134.9,746.3,135.4,745.7z"/>
	<path class="st0" d="M34.1,775.8c2.1,0.1,5.9-2.3,6.1-3.7c0.2-1.5-2.3-5.1-4.2-6.1c-0.8-0.4-1.6-0.8-2.4-1
		c-1.7-0.3-3.4-0.4-5.7-0.7c-1.9,0.2-4.6,0.2-7,0.8c-1.5,0.4-2.9,1.6-4.1,2.7c-0.5,0.4-0.2,1.6-0.3,2.5c0,2.7,1.8,4.4,4.8,4.7
		C25.5,775.4,29.8,775.7,34.1,775.8z"/>
	<path class="st0" d="M29,808.4c-3.3,0.8-6.3,2.2-9.2,4.1c-1.9,1.2-2.3,2.4-1,4.2c3.2,4.4,6.4,5.6,10.8,3.8c3.1-1.2,6.2-2.6,9.3-4
		c0.7-0.3,1.2-1.2,1.8-1.9c-0.2-0.5-0.2-1.3-0.7-1.9C37.2,809.1,33.6,807.3,29,808.4z"/>
	<path class="st0" d="M224.9,630.2c-1.6-0.3-3.2,0.5-3.8,2.4c-1.9,5.9-1.5,11.8,0.6,17.5c0.3,0.7,1,1.4,1.7,1.9c3,2,7.3,0.6,8.1-2.6
		c0.6-2.5,0.9-5,1.2-6.8c-0.3-2.4-0.4-4.1-0.7-5.8C231.5,634,228,630.7,224.9,630.2z"/>
	<path class="st0" d="M126.9,615.9c1.7,0.2,3.5,0.5,5,0c4-1.4,7.9-3.1,11.7-4.8c0.7-0.3,1.4-1.3,1.4-2c0-0.5-1-1.1-1.7-1.5
		c-2.3-1.2-4.8-1.6-10.1-1.4c0.1,0-2.4,0.2-4.9,0.5c-0.8,0.1-1.7,0.3-2.5,0.7c-1.7,0.7-2.7,1.9-3.2,3.5
		C122,613.2,123.9,615.6,126.9,615.9z"/>
	<path class="st0" d="M139.5,650.4c-1.5,1.2-2.2,2.7-2,4.1c0,1.5,0,2.3,0,3.2c-0.1,2.8,1.1,5,2.8,7c1.2,1.3,2.8,2.7,4.4,2.4
		c1.5-0.3,2.2-2.3,2.7-4c1.2-3.5,0.8-6.9-0.1-10.3C146.5,649,142.7,647.8,139.5,650.4z"/>
	<path class="st0" d="M101.4,791.4c-1.6,2.1-1.6,4.9,0.2,6.8c1.2,1.2,2.8,1.2,4.6,0c2.2-0.8,4.6-1.7,6.9-2.7c1.6-0.7,3-1.7,3.9-3.2
		c0.8-1.4,1.6-2.9,2.3-4.4c-1.5-0.7-3-1.6-4.6-1.9C109.2,785.1,104.8,787,101.4,791.4z"/>
	<path class="st0" d="M76.6,754.7c-4.4-0.5-6.4,0.7-7.2,5.1c-0.7,3.7,0.4,6.7,3.6,8.7c0.7,0.4,1.6,0.7,2.5,0.7
		c2.7-0.1,6.5-4,6.8-6.8C82.6,760,79.2,755,76.6,754.7z"/>
	<path class="st0" d="M240.4,554.3c-0.8,0.1-1.6,0.1-2.4,0.2c-1.6,0.1-3,0.8-4.2,2.1c0.7,1.3,1.8,2.1,3.5,2.4
		c0.8,0.1,1.6,0.2,2.4,0.2c2.7,0,5.7-1.9,5-3.1C243.8,554.5,242.2,554.1,240.4,554.3z"/>
	<path class="st0" d="M66.8,803.7c-0.6-0.3-1.4-0.2-2.1-0.1c-0.8,0.2-1.5,0.5-2.2,1c-1.5,0.8-2.5,2.1-2.7,3.8
		c-0.1,1.4,1,2.3,2.8,2.6c1.7,0.3,3.3-0.1,4.4-1.3c0.5-0.5,0.7-1.3,1.1-1.9C69,806,68.6,804.5,66.8,803.7z"/>
	<path class="st0" d="M82.1,619.6c-0.6-0.5-1.1-1.3-1.8-1.5c-1.7-0.5-3.2,0.2-4.2,1.6c0.6,0.4,1.2,1.1,1.9,1.3
		C79.8,621.6,81.2,621.1,82.1,619.6z"/>
	<polygon class="st0" points="49.4,725.4 51.3,725.7 50.5,724 	"/>
	<path class="st0" d="M166.5,530.9c1.2-0.5,1.7-1.5,1.6-2.7c-1.3,0.1-2.3,0.6-3,1.8C165.2,529.9,166.2,531,166.5,530.9z"/>
	<path class="st0" d="M172,525.8c0.1-0.2-0.9-1.5-1.1-1.4c-1.3,0.6-2,1.6-2.1,3C170.2,527.4,171.3,527,172,525.8z"/>
	<path class="st0" d="M168.8,527.4c-0.2,0-0.5,0-0.8-0.1c0.1,0.3,0.1,0.5,0.1,0.8c0.2,0,0.4-0.1,0.7,0
		C168.8,527.9,168.8,527.6,168.8,527.4z"/>
</g>
</svg>
