<?xml version="1.0" encoding="utf-8"?>
<!-- Generator: Adobe Illustrator 23.1.1, SVG Export Plug-In . SVG Version: 6.00 Build 0)  -->
<svg version="1.1" id="Calque_1" xmlns="http://www.w3.org/2000/svg" xmlns:xlink="http://www.w3.org/1999/xlink" x="0px" y="0px"
	 width="1451.3px" height="1451.3px" viewBox="0 0 1451.3 1451.3" style="enable-background:new 0 0 1451.3 1451.3;"
	 xml:space="preserve">
<style type="text/css">
	.st0{fill:#EFEFEF;}
</style>
<g>
	<path class="st0" d="M999.9,655.7c8.8,0.4,14.3,0.5,19.8,1c1.7,0.1,2.8,1.5,2.7,2.6c0,0.5-1.1,1.2-1.8,1.4c-2.3,0.5-4.6,0.7-6.9,1
		c-2.3,0.3-4.7,0.2-6.9,1.3c-3.5,1.7-7.2,3-11.2,3.3c-3.1,0.3-6.1,1.1-9,2.4c-2.2,1-4.4,1.6-6.7,1.8c-3.9,0.3-7.8,0.7-11.7,1
		c-3.9,0.3-7.7,1-11.4,2.5c-2.2,0.8-4.5,1.1-6.8,1.5c-3.1,0.5-6.3,0.6-9.1,1.9c-3.6,1.7-7.4,2.4-11.3,2.6c-4.7,0.3-9.3,0.9-13.8,2.6
		c-2.5,1-4.6-0.4-6.3-1.8c-1.8-1.4-3.4-3.2-4.7-5.1c-1.4-1.9-2.2-4.2-3.6-6c-0.9-1.1-2.3-2.2-3.7-2.6c-4.5-1.3-9.2-1.6-13.9-0.3
		c-2.9,0.8-4.6,4.7-3.2,7.4c0.7,1.4,1.4,2.8,2.4,4c2.1,2.3,4.5,4.4,6.7,6.5c2.4,2.2,3.5,5.1,4,8.3c0.4,2.5,1.7,4.4,3.7,5.7
		c3.3,2.2,6.7,3.8,10.9,2.2c6.6-2.5,13.8-2.5,20.4-5.3c2.1-0.9,4.6-0.7,6.9-0.8c5.5-0.2,10.8-1.4,15.9-3.6c2.1-0.9,4.5-1.1,6.8-1.3
		c3.9-0.3,7.8-0.4,11.7-0.5c4.7-0.1,9.3-0.8,13.6-3.1c2.1-1.1,4.4-1.6,6.5-2.6c3.6-1.7,7.3-2.6,11.3-2.5c3.1,0,6.2-0.3,9.4-0.6
		c3.2-0.2,6.1-1.1,8.9-2.7c2.8-1.6,5.8-2.4,8.9-2.4c6.3-0.1,12.4-1.1,18.2-3.8c1.4-0.6,3-0.9,4.6-1c5.6-0.2,10.5-3.4,15.9-3.6
		c9.7-0.3,17.9-5,26.9-7.4c4.2-2.5,8.8-3.2,13.5-3.2c3.9,0,7.8-0.1,11.7-0.2c1.5-0.1,3.3-0.1,4.6-0.8c6.5-3.6,13.5-3.5,20.6-3.7
		c2.4-0.1,4.6-1,6.6-2.2c2.6-1.7,5-3.7,7.8-5.3c2.9-1.6,5.9-1.5,8.9,0.1c2.8,1.6,5,3.7,6.5,6.6c1.1,2.1,1.8,4.3,2.7,6.5
		c0.8,2.1,0,4.1-2.2,6c-2.5,2.2-5.5,2.9-8.7,2.1c-1.5-0.3-2.9-1-4.3-1.7c-2.1-1-4.1-2.2-6.5-2.6c-3.3-0.6-6.2,0-8.8,2
		c-0.6,0.5-1.2,1.1-1.6,1.7c-2.8,4-6.5,6.6-11.2,7.9c-2.3,0.6-4.4,1-6.7,0.1c-3.7-1.4-7.7-1.1-11.6-1c-1.5,0.1-3.1,0.3-4.5,0.9
		c-2.2,0.8-4.4,1.6-6.4,2.8c-5.4,3.3-11.4,4.9-17.4,6.6c-3.8,1.1-7.4,2.5-11.3,2.6c-3.1,0.1-6.2,0.4-9.4,0.6c-3.2,0.2-6.1,1-9.1,2
		c-2.2,0.8-4.4,1.5-6.7,2c-6.1,1.2-12.4,1-18.4,3.3c-5.1,1.9-10.7,2.2-15.6,5c-1.3,0.7-3,0.9-4.5,1.1c-5.5,0.4-10.9,0.7-16.4,1
		c-3.2,0.1-6.2,0.9-9,2.2c-0.7,0.3-1.4,0.7-2.2,0.9c-5.3,1.2-10.6,2.7-15.7,4.7c-5.5,0.4-10.9,0.8-16.4,1.1
		c-4.7,0.2-9.2,1.2-13.6,3.1c-2.1,0.9-4.5,1.2-6.8,1.6c-3.1,0.5-6.2,0.5-9.1,1.9c-3.6,1.6-7.4,2.2-11.4,2.3
		c-3.9,0.1-7.8,0.5-11.7,0.9c-1.5,0.1-3.2,0.4-4.5,1c-5.1,2.3-10.5,3-15.9,3.5c-2.3,0.2-4.9,0.1-6.9,1.1c-7.4,3.5-15.3,3-23,3.7
		c-2.3,0.2-4.7,0.5-6.8,1.6c-3.5,1.8-7.3,2.8-11.2,3c-5.5,0.2-10.9,1.1-16,3.1c-3.7,1.4-7.7,1.3-11.6,1.5c-5.5,0.2-10.9,0.8-16,3.2
		c-2.1,1-4.5,1.2-6.8,1.4c-3.9,0.4-7.8,0.6-11.7,0.8c-3.2,0.1-6.2,0.9-9,2.2c-3.7,1.6-7.7,1.5-11.5,1.9c-3.9,0.4-7.7,1.2-11.3,2.7
		c-2.1,0.9-4.5,1.5-6.8,1.7c-3.9,0.4-7.8,0.4-11.7,0.7c-2.3,0.2-4.8,0.2-6.9,1.1c-5.2,2.1-10.6,2.7-16,3.5c-1.5,0.2-3.1,0.7-4.5,1.4
		c-3.6,1.8-7.3,2.5-11.3,2.6c-4.7,0.1-9.4,0.4-14.1,0.5c-4.7,0.1-9.2,1.1-13.6,3.1c-4.3,1.8-8.9,2.9-13.4,4.1
		c-2.2,0.6-4.5,1.1-6.9,1.3c-4.7,0.4-9.4,0.6-14,0.9c-1.5,0.1-3.2,0.3-4.5,1c-5.6,3.1-11.8,3.9-18,4.4c-5.8,2.7-12.1,2.9-18.3,3.8
		c-1.5,0.2-3.3,0.1-4.6,0.8c-7.2,3.8-15.1,3.7-22.8,4.7c-0.8,0.1-1.5,0.3-2.2,0.7c-5.1,2.4-10.5,2.8-16,3.2
		c-5.5,0.4-10.9,0.9-15.9,3.4c-2.9,1.4-6.1,1.5-9.2,1.6c-5.5,0.2-10.7,1.1-16,3.1c-4.3,1.6-9.3,1.4-13.7,3c-5.3,1.9-10.5,2.9-16,3
		c-5.5,0-10.9,0.6-16,3c-2.1,1-4.5,1.3-6.8,1.6c-2.3,0.3-4.7,0.4-7,0.6c-5.5,0.4-10.9,0.7-16,3.2c-5.5,0.5-10.9,1.1-16.3,1.6
		c-3.2,0.3-6.1,1.3-9,2.4c-2.2,0.8-4.5,1.4-6.8,1.7c-4.7,0.5-9.4,0.7-14,0.9c-2.4,0.1-4.6,0.8-6.8,1.6c-2.2,0.9-4.5,1.3-6.8,1.5
		c-7,0.4-14,0.9-21.1,1.3c-3.1,0.2-6.3,0.6-9.1,1.8c-3.6,1.6-7.5,2.2-11.4,2.6c-7,0.7-14.1,0.6-20.7,3.5c-3.9,0.5-7.8,0.9-11.6,1.4
		c-3.1,0.3-6.1,1.4-9,2.5c-2.2,0.8-4.5,1.5-6.8,1.7c-3.9,0.4-7.8,0.3-11.7,0.6c-2.3,0.2-4.8,0.3-6.9,1.2c-5.8,2.5-12.3,2.5-18.1,4.5
		c-5.3,1.7-10.6,2.5-16.1,2.8c-6.2,0.3-12.5,0.8-18.7,1c-4,0.2-7.7,1.1-11.3,2.6c-3.7,1.6-7.6,1.8-11.5,2c-4.7,0.3-9.2,1.6-13.6,3.2
		c-2.1,0.8-4.6,0.6-6.9,0.6c-1.5,0-3.3-0.9-3.7-2.3c-0.4-1.3,0.3-3,0.7-4.4c0.2-0.7,0.9-1.3,1.5-1.7c5.9-4,12.8-5.8,19.2-8.6
		c2.1-0.9,4.6-0.9,6.9-1.3c2.3-0.4,4.8-0.5,6.8-1.5c6.3-3.3,13.5-3.8,19.8-7.1c7.1-0.8,13-5.4,20.1-6.4c6.3-3.3,13.4-4.3,19.8-7
		c5.7-2.4,12.1-3.1,17.7-5.9c6.2-1,11.4-5.2,17.8-5.5c3.6-1.4,7.1-3.3,10.9-4.2c4.6-1.1,8.9-3,13.4-4.1c3.9-0.9,7.3-2.6,10.9-4.1
		c3.6-1.5,7.6-1.9,11.1-3.5c4.3-2,9-2.4,13.3-4.4c3.6-1.6,7.3-2.9,10.7-4.7c4.2-2.3,9.1-2.5,13.1-4.9c3.4-2.1,7.4-2.6,10.8-4.5
		c4.2-2.3,9-2.6,13.3-4.5c3.6-1.7,7.4-2.4,11.3-2.9c2.3-0.3,4.6-0.8,6.7-1.8c7.8-3.7,15.8-6.6,24-9.2c8.1-2.6,16.2-5.6,24.4-7.9
		c6-1.7,11.5-4.9,17.7-6c4.8-2.8,10.5-3.1,15.5-5.4c2.1-1,4.4-1.9,6.7-2.1c5.6-0.6,10.5-2.8,15.5-4.9c5.7-2.4,11.5-4.8,17.9-5.4
		c2.3-0.2,4.5-1.2,6.7-2.1c5.7-2.5,12.2-2.9,17.7-6.2c5.5-0.7,10.3-3.5,15.5-5.1c6-1.8,12-3.3,18-5c5.3-1.4,9.8-4.8,15.4-5.3
		c5-2.2,10.1-4.2,15.5-5.2c4.9-2.6,10.5-2.9,15.8-4.2c5.3-1.3,10.2-3.9,15.7-4.8c2.2-0.4,4.3-1.8,6.4-2.8c3.5-1.6,7.1-3.2,10.7-4.8
		c6.3-0.6,11.7-4.4,17.9-5.6c2.3-0.4,4.5-1.3,6.6-2.3c2.9-1.4,5.8-2.2,8.9-2.5c3.1-0.3,6.1-0.9,9-2.2c3.5-1.6,7.3-2.9,10.8-4.5
		c2.9-1.4,5.9-2,9-2.5c2.3-0.4,4.8-0.6,6.8-1.7c5.6-3.1,12.2-2.8,17.8-5.6c4.9-2.4,10.7-2.4,15.5-5.2c1.3-0.7,3-1,4.5-1.1
		c5.6-0.4,10.6-2.6,15.7-4.2c4.5-1.4,9.2-1.8,13.2-4.5c8.2-2.4,16.1-5.9,24.4-8.2c3.8-1.1,7.5-1.9,11.4-2.3c3.2-0.3,6-1.5,8.8-2.9
		c3.7-1.9,7.5-1.9,11.3-0.5c2.2,0.8,4.2,2.2,6.4,2.8c2.2,0.7,4.6,1.1,6.9,1c3.2-0.2,6.1-1.1,7.3-4.7c0.5-1.5,1.1-2.9,2-4.2
		c1.3-2,2.7-3.9,4.9-5c6.4-3.1,12.9-5.6,20.1-5.4c4.7,0.1,9.4-0.3,14-0.7c1.5-0.1,3.1-0.7,4.4-1.4c6.7-4,13.2-8.3,20.7-10.9
		c1.5-0.5,3.2-0.7,4.6-0.1c5.7,2.5,11.3,5.1,17.1,7.5c1.5,0.6,3.2,0,4.4-0.9c1.2-0.9,2.5-1.9,3.5-3.1c1.5-1.8,2.2-4.1,3-6.3
		c0.9-2.2,2.7-3.8,4.4-5.4c2.2-2.1,7.2-1.2,8.4,0.9c2,3.4,4,6.7,7.4,8.9c1.9,1.3,4.6,1.5,6.6,0.4c2.9-1.6,4.8-3.9,5.6-7.1
		c0.6-2.2,0.8-4.6,1.5-6.8c0.7-2.3,2.2-4.2,3.8-5.8c1.8-1.7,4.2-2.1,6.5-1.9c1.6,0.2,2.7,1.5,3.5,2.8c0.4,0.7,0.9,1.3,1.2,2
		c0.4,0.7,0.8,1.4,1,2.1c1.3,5.2,5.5,7.2,10,9c1.5,0.6,3,0.9,4.5,0.5c3-0.9,6-1.8,8.9-2.7c3.4-1,5.6-3.4,5.7-6.5
		c0.1-3.1-0.1-6.2,0-9.3c0-1.5,0.3-3.1,0.5-4.6c0.2-1.8,4.9-6.1,6.8-5.8c2.3,0.4,4.5,1.8,5.6,3.8c2.7,4.7,4.9,9.7,6.5,15
		c0.8,2.6-0.6,6.5-3.2,8.2c-2,1.3-3.9,2.7-6,3.7c-2.2,1.1-3.9,2.5-4.9,4.7c-1.3,2.9-3,5.7-3.5,8.7c-0.9,5.6-3.4,10.3-6.9,14.6
		c-2.1,2.5-2.7,5.6-2.7,8.8c0,2.4-0.6,4.6-1.7,6.7c-0.3,0.7-0.9,1.3-1.5,1.7c-3.4,2.2-15.5,6.5-19.6,6.9c-1.6,0.2-3.1,0.6-4.7,0.4
		c-5.7-0.4-10.5,2.7-15.7,4c-2.4,0.6-4.7-0.2-6.6-1.5c-1.2-0.8-2.1-2.2-3.2-3.4c-1.1-1.1-2.1-2.3-3.3-3.3c-3.5-2.8-9.9-1.1-12.1,3.1
		c-0.4,0.7-0.7,1.4-1,2.1c-0.8,2.3-1,4.6,0.2,6.8c1.1,2,2.3,4.1,3.8,5.9c2.1,2.4,4.9,4,8.1,4C992.4,656,997.8,655.7,999.9,655.7z
		 M925.2,633.8c2.2,0.1,4.7,2.3,4.7,4.3c0.2,5.5,0.3,10.9,0.6,16.4c0.1,3,3.2,6.5,5.8,6.4c1.5,0,3.1,0.4,4.6,0.4
		c4.2-0.2,7.6-3.3,7.9-7c0.6-6.3,0.6-12.4-2.7-18.2c-1.6-2.9,0-5.6,3.3-7.5c5.5-3.3,11.3-5.2,17.8-5.1c2.3,0,4.7,0,7,0
		c3.2,0,6.2-0.8,9-2.3c4.9-2.5,10.5-2.7,15.5-5.2c2-1,4.5-1.1,6.8-1.2c7.8-0.6,15.6-0.7,23.4-1.6c4-0.5,7.1-3.2,8.8-7
		c0.6-1.3,0.5-3.1,0.4-4.6c-0.1-3.3-1.8-5.9-4.3-7.9c-1.9-1.5-4.4-2.3-6.6-1.5c-5.1,1.9-10.1,4.1-15.8,3.8c-1.6-0.1-3.1,0.1-4.7,0
		c-4,0-7.7,0.8-11.2,2.7c-2.7,1.5-5.8,2.3-8.6,3.6c-2.9,1.3-5.8,2.1-9,2.3c-3.1,0.1-6.2,0.5-9.4,0.6c-4,0.1-7.6,1.4-11.2,2.9
		c-2.1,0.9-4.5,1.3-6.7,2c-7.5,2.1-15.1,3.9-22.2,7.2c-2.2,1-4.5,1.4-6.8,1.5c-6.3,0.3-12.4,0.9-18.1,4c-1.3,0.7-3,0.8-4.5,1
		c-3.1,0.4-6.2,0.6-9.3,0.9c-5.9,0.6-10.1,3.7-13.2,8.6c-1,1.6-1,2.9,0.2,4.3c2.1,2.4,4.5,4.3,7.8,4.6c6.3,0.6,12.4,0.2,18.4-2.1
		c5.8-2.2,12.1-3,17.7-5.9C921.8,633.5,923.6,633.9,925.2,633.8z M636.8,731.9c1.6,0,3.1,0,4.7,0c7.1-0.2,13.9,0.5,20.5,3.3
		c2.8,1.2,6.1,1.2,9.2,0.8c2.4-0.4,4.4-1.4,6-3.2c2.1-2.2,2.5-3.9,1.4-6.2c-0.7-1.4-1.3-2.8-2.1-4.2c-1.3-2.5-2.9-3.3-5.5-3.6
		c-3.2-0.3-6.2,0.4-9,1.8c-2.2,1.1-4.6,1.2-6.7,0.3c-6.4-3-13.4-4-19.9-6.7c-5.5-0.8-10.9-1-15.8,2.2c-4.5,3-9,6.1-13.9,8.5
		c-5.6,2.7-11.9,3.5-17.4,6.4c-2.7,1.4-6.1,1.4-8.9,2.6c-4.4,1.8-8.9,2.4-13.7,2.3c-3.1,0-6.4-0.2-9.1,1.3
		c-5.5,3.1-11.8,3.9-17.3,6.8c-2.8,1.5-5.9,1.9-9,2c-5.4,0.1-10.9,0.2-16.3,0.3c-3.3,0-5.9,1.7-8.4,3.7c-1.2,1-1.8,2.5-2.1,4
		c-0.3,1.7,0,3.1,1.1,4.4c3.4,3.8,7.3,5.6,12.3,3.4c2.9-1.3,6-1.6,9.1-1.8c3.1-0.2,6.2-0.5,9-2c3.5-1.8,7.1-3,11.1-3.3
		c5.5-0.3,10.7-1.4,15.8-3.5c5.7-2.2,11.8-3.9,17.9-5c4.5-0.8,9.3-0.3,14-0.6c2.3-0.1,4.6-0.7,6.6-2.1c1.9-1.4,3.6-2.9,5.6-4.2
		c7.2-4.9,14.6-8.9,23.8-7.9C632.1,732.1,634.5,731.9,636.8,731.9z M865,666.4c1.5-0.1,3.1-0.1,4.6-0.3c1.5-0.2,3.2-0.9,3.8-2.3
		c0.5-1.3,0.1-3-0.1-4.5c-0.1-0.7-0.6-1.5-1.1-2.1c-3.3-4.3-7-8.2-9.7-13c-1.9-3.5-5.4-5.5-9.6-5.6c-3.9-0.1-7.8-0.1-11.6-0.1
		c-3.1,0-6.2,0.6-9.1,1.8c-2.9,1.2-5.9,2-9,2.3c-3.9,0.4-7.8,0.6-11.5,1.5c-3.7,0.9-7.3,2.5-10.2,5.2c-0.5,0.5-1.1,1.2-1.2,1.9
		c-0.3,1.5-0.3,3.1-0.3,4.6c0.1,2.8,3.4,5.6,6.2,5.6c5.5,0,10.8-0.3,15.9-2.8c7.3-3.5,15-3.6,22.8-2.5c1.5,0.2,3.1,0.8,4.3,1.6
		c1.9,1.3,3.7,2.8,5.3,4.5C857.4,665.2,861,666.3,865,666.4z M752.3,667.6c0,5,1.1,6.7,5.7,8.8c0.7,0.3,1.4,0.6,2.1,0.9
		c2.2,0.9,4.4,1,6.7,0c3-1.2,6-1.4,8.8,0.4c1.9,1.2,3.6,2.9,5.4,4.3c3.8,3.1,8.3,3.9,13,3.1c2.3-0.4,4.3-1.5,5.6-3.6
		c1.3-1.9,2.4-3.9,1.2-6.3c-0.7-1.4-1.3-2.8-2.1-4.1c-1.8-3.3-3.8-4.1-7.7-3c-2.2,0.6-4.4,1.5-6.6,2.1c-3.1,0.7-6.1,0.1-8.7-1.7
		c-1.2-0.9-2.3-2-3.4-3.1c-4.1-4.3-9.1-5.3-14.8-4.2C754.6,661.7,752.3,664.3,752.3,667.6z M833,680.2c-1.5,0.1-3.1,0.3-4.6,0.4
		c-2.6,0.2-4.5,1.7-5.3,3.9c-2.2,6.6-4.5,13.1-7.9,19.2c-0.7,1.3-1.1,2.8-1.5,4.3c-0.4,1.6-0.1,3.1,1.1,4.3c4.7,4.8,6.3,4,9.8,1.3
		c1.8-1.4,3.2-3.3,4.8-5c2.1-6,6.2-10.6,10.1-15.3c1-1.2,1.3-2.8,1.5-4.3C841.6,683.8,838.6,680.4,833,680.2z M446.7,776.3
		c0.2-2.8-2.1-6.1-4.8-6.7c-5.4-1.1-10.7-1.1-15.7,1.4c-0.7,0.3-1.3,0.9-1.7,1.6c-1.9,3.5-2.1,7.3-0.9,11.1c0.6,1.9,3,3.6,5.2,3.9
		c3.2,0.4,6.1-0.1,8.9-1.6c2.1-1,4.1-2.2,5.9-3.6C445.5,781,446.3,778.8,446.7,776.3z M750.8,718.2c1.9-0.2,4.3-0.2,6.5-0.8
		c3.1-0.8,5.5-2.7,7.2-5.4c1.4-2.3,1.1-6.7-0.9-8.6c-4.1-4-9.9-5-15-2.5c-1.4,0.7-2.7,1.5-3.9,2.5c-3.5,2.9-3.7,8.8-0.6,12.4
		C745.8,717.9,748.2,717.6,750.8,718.2z M863,693.8c-2.1,0.2-4.4,0.5-6.7,0.8c-2.6,0.3-4,2-5.2,4c-1.3,2.3,0,7.2,2.2,8.3
		c2.7,1.4,5.5,2.8,8.3,4.1c2.2,1,4.5,1.1,6.6-0.3c1.3-0.8,2.7-1.6,3.8-2.6c2.3-2,3.4-8,1.7-10.8c-0.7-1.2-2.2-2.3-3.6-2.6
		C867.9,694,865.5,694,863,693.8z M713.7,682.3c-0.2,3.3,0.2,6.3,2.2,8.9c0.5,0.6,1,1.2,1.7,1.6c5.3,2.5,11.2,0.5,13.9-4.5
		c1.1-2.2,1-4.5,1.1-6.8c0.2-3.8-3.6-7.9-6.5-8.9c-4.1-1.4-10.4,1.4-11.6,5.3C714.2,679.4,714,680.9,713.7,682.3z M683.2,686.5
		c-1.3,0-2.2-0.1-2.9,0c-4,1-7.2,4.3-7.5,7.9c-0.1,1.5-0.1,3.1,0,4.7c0,0.8,0.3,1.5,0.5,2.2c1,3.3,3.5,5.3,6.5,6.2
		c2.2,0.6,4.7-0.2,6.7-1.5c3.9-2.7,6.8-8.2,3.7-14.5c-0.3-0.7-0.7-1.5-1.3-1.9C686.8,688.4,684.8,687.4,683.2,686.5z M714.3,735.3
		c0.7-0.1,1.6,0,2.2-0.2c3.7-1.5,6.5-3.9,7.2-8c0.9-5-0.8-8.9-4.9-11.8c-2.3-1.6-6.4-1.8-8.6-0.4c-2.7,1.7-4.5,4-4.8,7.2
		c-0.6,4.8,0.3,9,4.7,11.9C711.4,734.9,712.8,735.4,714.3,735.3z M488.5,764.8c-0.4-1.3-0.5-2.9-1.3-4.2c-2.1-3.6-5.5-4.9-9.5-5.1
		c-4.1-0.1-7.1,2.5-7.8,6.6c-0.3,2.2-0.3,4.5,0.1,6.7c0.5,2.5,2.1,4,4.2,4.8c3.7,1.3,7.4,0.7,11-0.8c0.6-0.3,1.2-1,1.6-1.6
		C488.3,769.4,488.8,767.3,488.5,764.8z M791.2,708.2c-1.5,0.1-3.1,0.2-4.6,0.3c-0.8,0.1-1.5,0.3-2.3,0.5c-1.6,0.4-3.8,3.4-3.8,5.3
		c0,2.3-0.1,4.7,2,6.3c0.6,0.4,1.2,1,1.9,1.3c3.7,1.5,7.5,1.6,11.3,0.4c2.2-0.7,5.7-4.7,5.8-6.8c0.1-1.9-3.6-6.3-5.9-6.7
		C794.2,708.6,792.7,708.5,791.2,708.2z M386.3,790.1c0.4-2.8-1.2-6-4.8-8.2c-1.4-0.9-2.8-1.2-4.2-0.6c-3.6,1.5-6.5,3.8-8,7.6
		c-0.6,1.4-0.4,2.9,0.4,4.3c1.6,2.7,3.6,4.8,6.2,6.6c1.4,1,2.9,1.1,4.3,0.5C383.9,798.6,385.8,795.5,386.3,790.1z"/>
	<path class="st0" d="M39.7,901.6c3.6-6.9,7.3-13.8,10.9-20.7c0.7-1.3,0.8-3,1.1-4.5c0.1-0.8,0.2-1.6,0.1-2.3c-0.7-7-0.4-14,0.7-21
		c0.5-3.1-0.9-6.2-3.1-8.6c-2.6-2.9-5.4-5.6-8.1-8.5c-1.6-1.7-3.4-3.3-4.6-5.3C32,822.6,25.2,816,20.2,808c-1-1.5,0.6-5.8,2.2-5.9
		c1.5-0.1,3.1-0.1,4.7,0c0.8,0,1.6,0.2,2.3,0.5c7.7,3.7,15.4,7.6,23.1,11.3c5.7,2.7,10.4,6.9,15.7,10.2c2.8,1.8,6,1.4,9,0.8
		c5.5-3.5,11.7-4.1,18-3.8c0.8,0,1.6-0.1,2.3-0.2c0.8-0.1,1.6,0,2.3-0.3c1.4-0.5,3-1,4.2-2c2.4-2,4.6-4.2,6.9-6.3
		c2.3-2.1,4.7-4,7.3-5.8c7.8-5.3,15.7-10.2,23.5-15.4c1.8-1.2,3-1.3,3.7,0.7c0.5,1.4,0.8,3,0.7,4.5c-0.1,1.5-0.7,3.1-1.3,4.5
		c-5.7,12-11.4,23.9-19.6,34.5c-2.5,3.2-2.4,7.3-1.3,11.2c0.2,0.8,0.5,1.5,0.9,2.2c1.9,3.5,2.7,7.2,2.2,11.3
		c-0.4,3.9-0.7,7.8-0.1,11.7c0.2,1.6,0.5,3.1,1.6,4.3c4.7,5.2,8.6,11.1,12.8,16.7c3.8,4.9,8,9.6,12,14.4c1.5,1.9,2.1,4.1,2.3,6.5
		c0.3,2.8-1.6,4.9-3.8,4.2c-0.7-0.2-1.5-0.5-2.2-0.7c-9.9-2.7-18.8-7.5-27.8-12.2c-3.4-1.8-6.4-4.5-9.6-6.7
		c-2.7-1.8-5.7-2.4-8.9-2.6c-0.8,0-1.6-0.2-2.3-0.1c-8.5,1.5-17.1,0.8-25.7,1.7c-0.7,0.1-1.5,0.5-2.1,0.9c-1.3,0.8-2.7,1.7-3.8,2.7
		c-4.6,4.2-8.5,9.4-13.9,12.5c-8.1,4.7-15.2,11.1-23.7,15c-1.4,0.7-3,0.5-4.4-0.3c-1.5-0.9-1.3-2.2-0.1-3.8
		C32.7,917.2,35.7,909.1,39.7,901.6z"/>
	<path class="st0" d="M1051.8,637.6c-0.1,1.1,0.1-1.2,0.3-3.5c0.1-1.6,0.7-3.1,1.8-4.2c1.7-1.6,3.4-3.2,5.2-4.7
		c4.4-3.7,6.8-8.2,7.4-14.1c0.6-5.5,5.5-9.8,11-10.6c5.4-0.8,10.9-1,15.9-3.7c3.9-0.6,7.7-1.1,11.6-1.7c7.2-3.6,15-3.9,22.8-4.5
		c2.3-0.2,4.7-0.5,6.9-1.3c5.2-2,10.5-2.8,16-3.2c2.3-0.1,4.9-0.2,6.9-1.2c6.6-3.2,13.7-3.1,20.7-3.4c4.8-0.2,9.2-1.5,13.5-3.3
		c2.2-0.9,4.6-0.1,6.5,1.4c1.8,1.4,3.4,3.2,5.2,4.7c4,3.2,8.6,3.4,13.3,2c1.5-0.5,3-1.1,4.2-2c5.7-4.2,11.7-3.7,17.8-1.3
		c2.9,1.1,5.8,2.2,9,2.5c4.2,0.3,7.1,2.8,9.5,6.1c1.5,2.1,1.5,4.3,1.1,6.6c-0.1,0.7-0.9,1.4-1.5,1.7c-5.6,2.9-11.4,5.1-17.7,5.6
		c-3.2,0.2-6.1,1.3-8.9,2.7c-3.6,1.8-7.5,2.2-11.4,1.9c-2.4-0.2-4.6-1.1-6-3.1c-1.3-1.9-2.1-4.2-3.4-6.1c-2.3-3.5-6.3-5.6-9.9-5.2
		c-4.6,0.5-9.4,0.3-13.8,2.1s-8.9,2.8-13.6,3.2c-1.5,0.1-3.2,0.4-4.5,1c-5.1,2.2-10.5,3.1-15.9,3.5c-4,0.2-7.7,1.3-11.2,3.1
		c-2.2,1.1-4.5,1.3-6.8,1.6c-3.9,0.4-7.9,0-11.6,1.1c-4.5,1.2-8.7,3.5-13,5.4c-0.7,0.3-1.4,0.6-2.1,1c-2.2,1.1-4.5,1.1-6.8,1.2
		c-3.9,0.1-7.8-0.1-11.7,0.8c-2.8,0.6-6.6,5.8-6.5,8.9c0,1.6,0.4,3,1.1,4.5c0.7,1.4,1.1,2.9,1.5,4.4c0.5,1.7,0,3.1-1.1,4.4
		c-1.6,1.8-3.3,3.6-5.6,4.1c-6.1,1.5-11.8,4-17.8,5.8c-3.9,1.1-8.2-1.9-8.3-5.7c0-0.8-0.1-1.5-0.1-2.3
		C1051.5,642.6,1051.6,641.8,1051.8,637.6z"/>
	<path class="st0" d="M1187.2,638.4c-3.3-4.4-5.9-9.2-9.6-13.2c-0.5-0.5-0.6-1.4-0.9-2.1c-0.7-1.6-0.1-2.8,1.9-3.4
		c3.8-1.2,7.6-1.8,11.5-1.2c3.2,0.5,5.8,2.1,7,5.4c0.5,1.5,0.9,3,1.3,4.5c1.1,3.4,3.9,4.6,7.1,5c4.7,0.7,9.4,0.2,14-0.3
		c1.5-0.1,3.2-0.5,4.5-1.2c6.2-3.6,13.4-4.1,19.8-7.2c2.3,0.1,4.7-0.2,6.9,0.3c1.3,0.3,2.5,1.7,3.4,3c1.8,2.7,1.6,6,2.5,8.9
		c1.1,3.4,0.8,4.4-0.8,6.4c-1.5,1.9-3.4,3.1-5.7,3.7c-0.7,0.2-1.5,0.2-2.3,0.2c-3.9,0.2-7.8-0.1-11.4-1.8c-2.9-1.3-5.8-2.3-9-2.2
		c-1.6,0-3.1,0.3-4.5,1.1c-3.5,1.9-6,4.9-8.9,7.5c-1.7,1.6-3.6,2.9-5.5,4.3c-2.4,1.7-8.9,0.4-10.7-2.2
		C1194,648.8,1190.6,643.5,1187.2,638.4z"/>
	<path class="st0" d="M1340,552.7c6.3,0.3,12.6-0.6,18.7,1.2c0.7,0.2,1.3,0.9,1.7,1.5c0.1,0.2-0.7,1.1-1.2,1.4
		c-1.4,0.6-2.9,1.2-4.4,1.4c-4.7,0.5-9.2,1.4-13.6,3c-4.3,1.6-9.2,1.6-13.6,3.1c-5.2,1.8-10.5,3-16,3.1c-3.9,0.1-7.7,1.1-11.4,2.5
		c-3.6,1.4-7.7,1.9-11.1,3.6c-6.7,3.3-13.6,3.2-20.6,2.7c-1.5-0.1-3-0.8-4.4-1.5c-2.1-1.1-4.2-2.8-4.2-5.1s2.3-3.9,4.3-5.3
		c0.6-0.4,1.4-0.7,2.1-1c3-1,6.1-0.9,9.2-1.2c4.7-0.4,9.3-0.7,13.8-2.5c4.4-1.8,9.2-1.6,13.9-1.8c4.7-0.2,9.3-0.8,13.6-2.9
		c2.2-1.1,4.5-1.3,6.8-1.4C1329.1,553.2,1334.6,553,1340,552.7z"/>
	<path class="st0" d="M1306.5,606.3c-3.7-0.5-6.8-0.8-9.8-1.3c-2.3-0.4-4.4-1.5-6-3.3c-1-1.1-1.8-2.4-2.7-3.7c1-2.2,2.6-3.8,4.5-5.1
		c0.6-0.4,1.4-0.8,2.1-1c2.2-0.5,4.5-1,6.8-1.3c3.1-0.4,6.2-0.7,9-2c3.6-1.6,7.4-2.2,11.2-2.4c3.1-0.1,6.2-0.4,9.3-0.5
		c5.5-0.1,10.6-1.6,15.7-3.4c1.6-0.6,3.4-0.2,4.1,1.3c0.6,1.1-0.2,2.6-1.3,4c-2.8,3.8-6.2,6.9-10.7,8.6c-3.6,1.4-6.9,3.5-10.8,4.1
		c-3.1,0.5-5.8,1.9-8.6,3.3C1315.2,605.8,1310.5,605.8,1306.5,606.3z"/>
	<path class="st0" d="M1085.9,562.3c0.1-3-0.1-6.1,0.4-9.1c0.2-1.3,1.3-2.9,2.5-3.6c2.6-1.6,5.6-2.1,8.6-0.6c1.4,0.7,2.5,1.7,3.3,3
		c3.1,5.3,6,10.6,10.3,15c1.7,1.7,0.8,4-1.7,5.4c-2,1.1-4,2.2-6.1,3.1c-4.4,2-8.9,1.9-13.4,0.9c-1.9-0.4-3.9-2.9-3.9-5
		C1085.9,568.3,1085.9,565.3,1085.9,562.3z"/>
	<path class="st0" d="M1132.9,567.9c-2.2,0.1-4.5-0.2-6.5-1.3c-0.7-0.3-1.8-1.1-1.7-1.4c0.7-3.8,2.4-7.3,2.6-11.2
		c0.2-3.8-0.7-7.7,0.7-11.4c0.2-0.7,0.8-1.4,1.4-1.7c0.4-0.2,1.4,0.4,1.7,0.9c1.6,2.6,2.7,5.4,4.5,7.8c3.3,4.5,7.7,7.5,13.4,8.2
		c2.3,0.3,4.6,0.5,6.9,0.9c0.7,0.1,1.7,0.7,1.8,1.3c0.3,1.1-0.8,2.1-2.5,2.6c-3,0.9-5.9,1.6-8.7,3.1
		C1142.3,567.9,1137.7,568,1132.9,567.9z"/>
	<path class="st0" d="M1248.3,541.4c-0.4,0.8-0.6,1.5-1.1,2.1c-2.6,2.9-5.5,5.5-7.7,8.6c-2.2,3.1-3.6,6.8-5.6,10.1
		c-0.8,1.2-2.2,2-3.4,3c-1.4,1.2-2.8,1.1-4.1-0.4c-1-1.1-2.2-2.2-3.1-3.4c-0.9-1.2-1.5-2.7-2.1-4.1c-1.1-2.7,0.3-6.9,2.6-8.1
		c0.7-0.4,1.4-0.6,2.2-0.9c4.4-1.8,8-4.6,10.5-8.7c1.2-2,2.2-4,3.3-6.1c0.9-1.6,2-2.5,3.1-2.2c0.6,0.2,1.2,1,1.6,1.6
		C1245.9,535.8,1247.1,538.6,1248.3,541.4z"/>
	<path class="st0" d="M1431.4,593.7c-0.3,0.8-0.5,1.6-1,2.2c-1.5,1.8-3.5,3.2-5.8,3.6c-3.1,0.5-6.2,0.8-9.3,0.9
		c-3.9,0.2-7.7,0.9-11.2,2.7c-2,1.1-4.4,1.7-6.6,2.1c-3.1,0.6-6,1.6-8.8,2.9c-2.2,1-4.5,1.3-6.8,1.3c-1.6,0-3-0.6-4.1-1.8
		c0.5-0.5,1-1.1,1.6-1.5c0.6-0.4,1.4-0.6,2.1-0.9c3.5-1.6,6.9-3.5,10.5-4.8c2.9-1,5.8-2,8.7-3.3c1.4-0.6,3-1.2,4.5-1.2
		c6.3,0.1,12.3-1.4,18-3.8c2.1-0.9,4.6-0.7,6.8,0.3C1430.6,592.7,1430.9,593.3,1431.4,593.7z"/>
	<path class="st0" d="M1386,548.2c3.5,0,6.5,1,8.9,3.1c2.9,2.5,5.7,5.3,8.1,8.4c1.9,2.5,0.6,6.8-2.4,7.5c-0.8,0.2-1.5,0.4-2.3,0.5
		c-3.2,0.4-6.3-0.1-8.6-2.5c-3.7-4-7.3-8.1-10.9-12.2c-0.5-0.6-1.1-1.6-0.9-2.1c0.7-1.3,2.1-2.1,3.7-2.2
		C1383.2,548.3,1384.7,548.3,1386,548.2z"/>
	<path class="st0" d="M1296.3,632.6c0.3,2-1.5,4.6-3.5,5.1c-2.9,0.7-5.8,1.3-8.9,0.6c-3-0.6-5.4-2.9-6.1-5.9c-0.7-3-1.1-6-0.1-8.9
		c0.5-1.6,1.8-2.7,3.1-2.4c5.3,1.2,9.8,3.8,13.7,7.6C1295.7,629.9,1296.3,631.2,1296.3,632.6z"/>
	<path class="st0" d="M1193.9,549.8c2.2,0.2,4.1,1.2,5.8,2.9c1.8,1.7,1.3,4.2-1,5.2c-2.1,0.9-4.3,1.7-6.3,2.7
		c-2.2,1.1-4.5,1.1-6.6,0.3c-3.5-1.5-7.3-2.2-11-2.9c-1.7-0.3-2.8-1.4-2.8-2.5c0-0.5,1.1-1.1,1.8-1.3c5.8-1.6,12.2-1.3,17.7-4.3
		C1192,549.6,1192.9,549.8,1193.9,549.8z"/>
	<path class="st0" d="M1279.1,539.5c-4.3,0-7-3-6.6-7.4c0-0.8,0.3-1.5,0.6-2.2c1.3-3.5,4.2-4.6,7.3-2.5c1.9,1.3,3.7,2.8,5.4,4.3
		c1.2,1.1,1.5,2.6,1,4.2c-0.4,1.3-1.4,2.6-3,3.1C1282.3,539.4,1280.7,539.3,1279.1,539.5z"/>
	<path class="st0" d="M427.4,821.5c-0.2,0.6-0.5,1.3-1,1.6c-1.1,0.7-1.9,0-2.2-1.7c-0.1-0.6,0-1.3,0.3-1.9c0.3-0.6,1.2-1.4,1.4-1.3
		C427.3,818.8,427.8,820.1,427.4,821.5z"/>
	<polygon class="st0" points="1238,524 1237.5,522.6 1238.8,522.8 	"/>
	<polygon class="st0" points="1158.2,625.4 1158.8,626.9 1157.3,626.6 	"/>
</g>
</svg>
